<svg version="1.1" id="_x3C_Layer_x3E_" xmlns="http://www.w3.org/2000/svg" xmlns:xlink="http://www.w3.org/1999/xlink" x="0px"
	 y="0px" viewBox="0 0 495 330" style="enable-background:new 0 0 495 330;" xml:space="preserve">
<style type="text/css">
	.st0{fill:#DAEBE8;}
	.st1{fill:#B8D5DC;}
	.st2{opacity:0.6;}
	.st3{fill:#ACC9C5;}
	.st4{fill:#CCD39C;}
	.st5{fill:#C2C68E;}
	.st6{opacity:0.5;}
	.st7{fill:#68A1BF;}
	.st8{fill:#92BCB5;}
	.st9{fill:#4C274E;}
	.st10{fill:#331832;}
	.st11{fill:#5C305D;}
	.st12{fill:#764678;}
	.st13{fill:#444092;}
	.st14{fill:#58A1C7;}
	.st15{fill:#020202;}
	.st16{fill:#FFB27D;}
	.st17{fill:#EF8062;}
	.st18{fill:#080435;}
	.st19{fill:#FFFFFF;}
	.st20{fill:#E9845C;}
	.st21{fill:#E3EEEC;}
	.st22{fill:#6DA49A;}
	.st23{opacity:0.3;}
	.st24{fill:#73B3CE;}
	.st25{fill:#366F90;}
</style>
<g>
	<g>
		<path class="st0" d="M404.3,304.3c-36.7,4.8-74.6,2.8-151.9-2.2c-43.4-2.8-130.8,1.8-174.3,2.2c-31.8,0.3-57.5-24.3-57.5-54.2
			v-91.4V63.3c0-30,25.8-56,57.5-54.2c29.5,1.6,72.8,8.1,118,4.1C249.7,8.5,351.7,4.4,404.3,9c31.6,2.8,57.5,24.3,57.5,54.2v186.8
			C461.9,280,435.8,300.2,404.3,304.3z"/>
	</g>
	<g>
		<ellipse class="st1" cx="227.8" cy="252.6" rx="166.4" ry="17.3"/>
	</g>
	<g>
		<g class="st2">
			<path class="st3" d="M326,169.4c-4.7-2.6-5.7-8.9-2.1-12.7c17.8-18.7,64.1-64.2,80.4-48.8c19.6,18.5-51.2,39.1-73.1,60.9
				C329.8,170.1,327.7,170.4,326,169.4L326,169.4z"/>
		</g>
		<g>
			<g>
				<path class="st4" d="M295.5,163.6c0,0,121.3-23.7,130.3,14.2c9,37.9-86.9-4.7-121.8,3.4L295.5,163.6z"/>
			</g>
			<g>
				<g>
					<path class="st5" d="M300.2,173.5c24-6.1,52.1-4.3,71.4-1.8c20.9,2.7,36.4,7,36.5,7l0.3-1c-0.2,0-15.6-4.3-36.6-7.1
						c-19.4-2.5-47.6-4.3-71.8,1.8L300.2,173.5z"/>
				</g>
			</g>
		</g>
		<g>
			<g>
				<g>
					<path class="st3" d="M383.2,235.6c-11.4-5.6-21.3,10.3-30.3-1.2c-7.6-9.8-7.7-11.2-13-11.1c-1.8,0-3.7,0.4-5.4,0.9
						c-2.1,0.7-5.6,1.3-8.9-0.5c-19.8-10.8-23.4-55.3,5.9-55c2.1,0,4.3,1.1,6.7,2.5c12.9,7.3,12.3,15.4,31.9,9.1
						c19.6-6.3,16.7,22.7,24.9,28.2c8.2,5.4,16.8,8.5,16.4,21.4C411,242.7,394.6,241.3,383.2,235.6z"/>
				</g>
			</g>
			<g class="st6">
				<g>
					<g>
						<path class="st7" d="M322.3,191.8l0.1-0.8c0.4,0,37.2,3.4,88.6,42.3l-0.5,0.7C359.3,195.2,322.7,191.8,322.3,191.8z"/>
					</g>
				</g>
				<g>
					<g>
						<path class="st7" d="M369,197.3c-2-11.3,0.6-16.9,0.7-17.2l0.8,0.4c0,0.1-2.6,5.7-0.6,16.7L369,197.3z"/>
					</g>
				</g>
				<g>
					<g>
						<path class="st7" d="M364.6,205.3c0.7-4.8,4.6-9.4,11.3-13.3c5-2.9,9.8-4.5,9.9-4.5l0.3,0.8c-0.2,0.1-19,6.2-20.6,17.1
							L364.6,205.3z"/>
					</g>
				</g>
				<g>
					<g>
						<path class="st7" d="M378.8,214.7c-0.3-1.3-0.4-2.1-0.4-2.1l0.8-0.1c0,0.2,1.9,16.4,15.6,26.5l-0.5,0.7
							C383.4,231.5,379.8,219.5,378.8,214.7z"/>
					</g>
				</g>
				<g>
					<g>
						<path class="st7" d="M373.5,235c-0.4-5.8,1.4-9.9,3-12.3c1.7-2.6,3.5-3.8,3.6-3.9l0.5,0.7c-0.1,0-6.9,4.8-6.2,15.4L373.5,235z
							"/>
					</g>
				</g>
			</g>
		</g>
		<g class="st2">
			<path class="st3" d="M399.5,135.8c3.9-1.2,5.5-0.3,5.9,1.2c0.5,1.5-0.3,3.1-4.2,4.3c-7.1,2.2-11.4,0.5-11.4,0.5
				S392.3,138,399.5,135.8z"/>
		</g>
	</g>
	<g>
		<g>
			<g>
				<path class="st3" d="M140.9,107c-2.3,1.5-3.4,1.2-4,0.3c-0.6-0.9-0.4-2.1,1.9-3.5c4.2-2.7,7.2-2.4,7.2-2.4
					S145.1,104.3,140.9,107z"/>
			</g>
			<g>
				<path class="st3" d="M141.5,124.6c-1.7,2.1-2.9,2.2-3.7,1.6c-0.8-0.7-1-1.8,0.7-4c3.1-3.9,6.1-4.6,6.1-4.6
					S144.6,120.7,141.5,124.6z"/>
			</g>
			<g>
				<g>
					<g>
						<path class="st3" d="M142.3,170.3l-0.5,0c0-0.1,0.3-8-2.8-19.5c-2.9-10.6-9.4-26.5-24.1-42l0.4-0.4
							c14.7,15.5,21.3,31.5,24.2,42.2C142.6,162.2,142.3,170.3,142.3,170.3z"/>
					</g>
				</g>
				<g>
					<g>
						<path class="st3" d="M129.9,128.1l-0.4-0.3c9.4-16.1,2.5-34.9,2.5-35.1l0.5-0.2C132.4,92.8,139.4,111.8,129.9,128.1z"/>
					</g>
				</g>
				<g>
					<g>
						<path class="st3" d="M121.8,120.1c-5.2,0.2-9.3-2.2-9.3-2.3l0.3-0.4c0.1,0,5.2,3.2,11.4,1.9l0.1,0.5
							C123.4,120,122.6,120.1,121.8,120.1z"/>
					</g>
				</g>
				<g>
					<g>
						<path class="st3" d="M114.4,106c2.8,2.3,3.1,3.7,2.4,4.5c-0.7,0.8-2.1,0.8-4.9-1.5c-5.1-4.3-6.4-7.8-6.4-7.8
							S109.2,101.6,114.4,106z"/>
					</g>
				</g>
				<g>
					<g>
						<path class="st3" d="M113.8,116.1c3.4,1.4,4.1,2.6,3.7,3.6c-0.4,1-1.7,1.4-5.1,0c-6.2-2.5-8.4-5.5-8.4-5.5
							S107.5,113.6,113.8,116.1z"/>
					</g>
				</g>
				<g>
					<g>
						<path class="st3" d="M126.7,111.7c0.7,2.6,0.1,3.6-0.9,3.9c-1,0.3-2.1-0.3-2.8-2.9c-1.3-4.8-0.1-7.6-0.1-7.6
							S125.4,106.9,126.7,111.7z"/>
					</g>
				</g>
				<g>
					<g>
						<path class="st3" d="M133.4,90.5c1,3.5,0.5,4.8-0.6,5.1c-1,0.3-2.1-0.5-3.1-4c-1.8-6.4-0.8-10-0.8-10S131.5,84,133.4,90.5z"/>
					</g>
				</g>
			</g>
		</g>
	</g>
	<g>
		<path class="st3" d="M165.2,193.2c0,0-52.3-86.1-75.1-71.1c-22.8,15.1,47.8,49.9,62.2,75.5L165.2,193.2z"/>
	</g>
	<g>
		<g>
			<path class="st8" d="M140.8,177.9c0,0-60.1-63.8-80.8-45.6s51.9,33.2,68.7,52.3L140.8,177.9z"/>
		</g>
		<g>
			<g>
				<path class="st7" d="M134.1,181.7c-11.4-13.4-28.2-24-40.4-30.6c-13.2-7.1-23.8-11-23.9-11l0.2-0.7c0.1,0,10.8,4,24,11.1
					c12.2,6.5,29.1,17.2,40.6,30.7L134.1,181.7z"/>
			</g>
		</g>
	</g>
	<g>
		<g>
			<g>
				<path class="st4" d="M69,202.7c13.5,2.6,11.7,23.1,27,19c15.3-4.1,14-5.1,21.5,1.4c0,0,3,6.4,9.1,7.3
					c24.2,3.7,56.4-32.6,30.8-51.7c-1.8-1.4-4.5-1.9-7.4-2.3c-15.9-2.1-20.7,5.2-33.6-13.2c-12.9-18.4-29.3,8.7-40,8
					c-10.7-0.7-20.1-3.7-28.2,7.7C40.2,190.4,55.4,200,69,202.7z"/>
			</g>
		</g>
		<g>
			<g>
				<g>
					<path class="st5" d="M150.3,204.8l0.5-0.8c-0.3-0.2-34.5-21.6-104.4-21.8l0,0.9C116.1,183.3,150,204.5,150.3,204.8z"/>
				</g>
			</g>
			<g>
				<g>
					<path class="st5" d="M106.3,178.7c9-8.5,10.5-15.1,10.6-15.4l-0.9-0.2c0,0.1-1.5,6.6-10.3,14.9L106.3,178.7z"/>
				</g>
			</g>
			<g>
				<g>
					<path class="st5" d="M104.9,188.5c2.5-4.6,2.1-11.2-1.1-19c-2.4-5.9-5.6-10.4-5.6-10.5l-0.7,0.5c0.1,0.2,12.4,17.9,6.7,28.5
						L104.9,188.5z"/>
				</g>
			</g>
			<g>
				<g>
					<path class="st5" d="M86.5,187.3c1.1-0.9,1.7-1.6,1.7-1.6l-0.7-0.6c-0.1,0.1-12.4,12.9-30.8,12.8l0,0.9
						C71.5,199,82.4,190.8,86.5,187.3z"/>
				</g>
			</g>
			<g>
				<g>
					<path class="st5" d="M77.8,208.5c4.1-4.8,5.2-9.5,5.4-12.6c0.2-3.4-0.5-5.6-0.6-5.7l-0.9,0.3c0,0.1,2.9,8.7-4.7,17.5
						L77.8,208.5z"/>
				</g>
			</g>
		</g>
	</g>
	<g>
		<path class="st9" d="M377.4,216.1l-199.5-2.3c-4.3,0-7.7-3.5-7.7-7.8V84.2c0-4.3,3.4-7.7,7.7-7.8l197-3c4.3-0.1,7.8,3.3,7.9,7.6
			l2.6,127.1C385.3,212.6,381.8,216.2,377.4,216.1z"/>
	</g>
	<g>
		<g>
			<rect x="268.9" y="70.3" class="st10" width="3.9" height="5.6"/>
		</g>
		<g>
			<path class="st10" d="M277.7,67.4c0-3.6-2.9-6.6-6.6-6.6c-3.6,0-6.6,2.9-6.6,6.6s2.9,6.6,6.6,6.6C274.7,74,277.7,71.1,277.7,67.4
				z"/>
		</g>
		<g>
			<path class="st11" d="M274.4,67.4c0-2.3-1.9-4.1-4.1-4.1c-2.3,0-4.1,1.9-4.1,4.1c0,2.3,1.9,4.1,4.1,4.1
				C272.5,71.6,274.4,69.7,274.4,67.4z"/>
		</g>
		<g>
			
				<ellipse transform="matrix(0.9871 -0.1602 0.1602 0.9871 -7.0536 44.3313)" class="st4" cx="271.4" cy="65.9" rx="1.4" ry="1.4"/>
		</g>
	</g>
	<g>
		<g>
			<path class="st9" d="M302.3,198.2v45.4c0,0.7-0.6,1.4-1.4,1.4h-14.2h-4.2v-9.7c0,0,7.5-5.1,8-5.3c0.5-0.1,6.3-31.8,6.3-31.8
				H302.3z"/>
		</g>
		<g>
			<path class="st11" d="M299.9,198.2v29.3c0,7.6-5.1,13.8-11.3,13.8h-1.9c-0.2,0-0.3,0-0.5,0.1c-0.3,0.1-0.6,0.3-0.9,0.5
				c-0.3,0.3-0.6,0.8-0.6,1.3c0,0.9,0.6,1.6,1.4,1.8c0.2,0,0.3,0.1,0.5,0.1H228v-3.8h2.4c6.2,0,11.3-6.2,11.3-13.8v-29.3H299.9z"/>
		</g>
		<g>
			<path class="st10" d="M286.3,244.9c0.2,0,0.3,0.1,0.5,0.1h-58.3c-0.2,0-0.3,0-0.5-0.1c-0.8-0.2-1.4-0.9-1.4-1.8
				c0-0.5,0.2-1,0.6-1.3c0.2-0.2,0.5-0.4,0.9-0.5c0.2,0,0.3-0.1,0.5-0.1h58.3c-0.2,0-0.3,0-0.5,0.1c-0.3,0.1-0.6,0.3-0.9,0.5
				c-0.3,0.3-0.6,0.8-0.6,1.3C284.9,243.9,285.5,244.7,286.3,244.9z"/>
		</g>
	</g>
	<g>
		<path class="st12" d="M371.6,216.1l-199.5-2.3c-4.3,0-7.7-3.5-7.7-7.8V84.2c0-4.3,3.4-7.7,7.7-7.8l197-3c4.3-0.1,7.8,3.3,7.9,7.6
			l2.6,127.1C379.6,212.6,376,216.2,371.6,216.1z"/>
	</g>
	<g>
		<path class="st3" d="M346.9,192H194.3c-12.2,0-22.2-9.9-22.2-22.2v-61.9c0-12.2,9.9-22.2,22.2-22.2h152.6
			c12.2,0,22.2,9.9,22.2,22.2v61.9C369.1,182,359.1,192,346.9,192z"/>
	</g>
	<g>
		<g>
			<path class="st1" d="M263.5,251.7c0,0-5.9-6.1-3.9-9.6s5.5,7.5,5.5,7.5s-1.8-12.9,1.9-13.2c3.7-0.2,0,13.2,0,13.2
				s1.4-3.1,2.7-3.3c1.3-0.2,1,2.6-1.4,5.4H263.5z"/>
		</g>
		<g>
			<path class="st13" d="M263.9,251.9c-0.3-0.3-6.8-7.1-4.4-11.1c0.4-0.6,0.8-0.9,1.3-0.9c1.7,0.2,3.6,4.8,4.6,7.5
				c-0.3-3.4-0.7-10.1,1.2-12.4c0.4-0.5,0.9-0.8,1.4-0.8c0.6,0,1,0.2,1.3,0.6c1.7,2.1,0.2,9.4-0.7,12.8c0.6-1,1.5-2.1,2.4-2.3
				c0.4-0.1,0.8,0.1,0.9,0.4c0.5,1-0.2,3.5-2.4,6.1l-0.3-0.3c2.1-2.5,2.7-4.8,2.3-5.6c-0.1-0.2-0.3-0.3-0.5-0.2
				c-1.1,0.2-2.5,2.7-2.9,3.6l-0.4-0.1c0-0.1,3.2-11.7,1.2-14.2c-0.2-0.3-0.5-0.4-0.9-0.4c0,0-0.1,0-0.1,0c-0.4,0-0.8,0.2-1.1,0.6
				c-2.3,2.9-0.8,13.9-0.8,14.1l-0.4,0.1c-0.8-2.5-3.2-8.9-4.9-9.1c-0.3,0-0.6,0.2-0.9,0.7c-2.2,3.8,4.3,10.5,4.4,10.6L263.9,251.9z
				"/>
		</g>
	</g>
	<g>
		<g>
			<path class="st1" d="M200.5,240.4c0,0-5.9-6.1-3.9-9.6s5.5,7.5,5.5,7.5s-1.8-12.9,1.9-13.2c3.7-0.2,0,13.2,0,13.2
				s1.4-3.1,2.7-3.3s1,2.6-1.4,5.4H200.5z"/>
		</g>
		<g>
			<path class="st13" d="M200.9,240.6c-0.3-0.3-6.8-7.1-4.4-11.1c0.4-0.6,0.8-1,1.3-0.9c1.7,0.2,3.6,4.8,4.6,7.5
				c-0.3-3.4-0.7-10.1,1.2-12.4c0.4-0.5,0.9-0.8,1.4-0.8c0.6,0,1,0.2,1.3,0.6c1.7,2.1,0.2,9.4-0.7,12.8c0.6-1,1.5-2.1,2.4-2.3
				c0.4-0.1,0.8,0.1,0.9,0.4c0.5,1-0.2,3.5-2.4,6.1l-0.3-0.3c2.1-2.5,2.7-4.8,2.3-5.6c-0.1-0.2-0.3-0.3-0.5-0.2
				c-1.1,0.2-2.5,2.7-2.9,3.6l-0.4-0.1c0-0.1,3.2-11.7,1.2-14.2c-0.2-0.3-0.6-0.4-1-0.4c-0.4,0-0.8,0.2-1.1,0.6
				c-2.3,2.9-0.8,13.9-0.8,14.1l-0.4,0.1c-0.8-2.5-3.2-8.9-4.9-9.1c-0.3,0-0.6,0.2-0.9,0.7c-2.2,3.8,4.3,10.5,4.4,10.6L200.9,240.6z
				"/>
		</g>
	</g>
	<g>
		<g>
			<path class="st1" d="M336.2,245.1c0,0-5.9-6.1-3.9-9.6c2-3.5,5.5,7.5,5.5,7.5s-1.8-12.9,1.9-13.2c3.7-0.2,0,13.2,0,13.2
				s1.4-3.1,2.7-3.3c1.3-0.2,1,2.6-1.4,5.4H336.2z"/>
		</g>
		<g>
			<path class="st13" d="M336.6,245.3c-0.3-0.3-6.8-7.1-4.4-11.1c0.4-0.6,0.8-0.9,1.3-0.9c1.7,0.2,3.6,4.8,4.6,7.5
				c-0.3-3.4-0.7-10.1,1.2-12.4c0.4-0.5,0.9-0.8,1.4-0.8c0.6,0,1,0.2,1.3,0.6c1.7,2.1,0.2,9.4-0.7,12.8c0.6-1,1.5-2.1,2.4-2.3
				c0.4-0.1,0.8,0.1,0.9,0.4c0.5,1-0.2,3.5-2.4,6.1L342,245c2.1-2.5,2.7-4.8,2.3-5.6c-0.1-0.2-0.3-0.3-0.5-0.2
				c-1.1,0.2-2.5,2.7-2.9,3.6l-0.4-0.1c0-0.1,3.2-11.7,1.2-14.2c-0.2-0.3-0.6-0.4-1-0.4c-0.4,0-0.8,0.2-1.1,0.6
				c-2.3,2.9-0.8,13.9-0.8,14.1l-0.4,0.1c-0.8-2.5-3.2-8.9-4.9-9.1c-0.3,0-0.6,0.2-0.9,0.7c-2.2,3.8,4.3,10.5,4.4,10.6L336.6,245.3z
				"/>
		</g>
	</g>
	<g>
		<g>
			<path class="st1" d="M89.1,247.2c0,0-5.9-6.1-3.9-9.6c2-3.5,5.5,7.5,5.5,7.5s-1.8-12.9,1.9-13.2c3.7-0.2,0,13.2,0,13.2
				s1.4-3.1,2.7-3.3c1.3-0.2,1,2.6-1.4,5.4H89.1z"/>
		</g>
		<g>
			<path class="st13" d="M89.5,247.3c-0.3-0.3-6.8-7.1-4.4-11.1c0.4-0.6,0.8-0.9,1.3-0.9c1.7,0.2,3.6,4.8,4.6,7.5
				c-0.3-3.4-0.7-10.1,1.2-12.4c0.4-0.5,0.9-0.8,1.4-0.8c0.6,0,1,0.2,1.3,0.6c1.7,2.1,0.2,9.4-0.7,12.8c0.6-1,1.5-2.1,2.4-2.3
				c0.4-0.1,0.8,0.1,0.9,0.4c0.5,1-0.2,3.5-2.4,6.1l-0.3-0.3c2.1-2.5,2.7-4.8,2.3-5.6c-0.1-0.2-0.3-0.3-0.5-0.2
				c-1.1,0.2-2.5,2.7-2.9,3.6l-0.4-0.1c0-0.1,3.2-11.7,1.2-14.2c-0.2-0.3-0.6-0.4-1-0.4c-0.4,0-0.8,0.2-1.1,0.6
				c-2.3,2.9-0.8,13.9-0.8,14.1l-0.4,0.1c-0.8-2.5-3.2-8.9-4.9-9.1c-0.3,0-0.6,0.2-0.9,0.7c-2.2,3.8,4.3,10.5,4.4,10.6L89.5,247.3z"
				/>
		</g>
	</g>
	<g>
		<g>
			<g>
				<g>
					<g>
						<polygon class="st10" points="118.6,248.7 115.5,248.7 115.5,214.8 117.5,217.1 						"/>
					</g>
					<g>
						<path class="st10" d="M126.4,250.5c0,0-13.9,0.2-18.6,0.3c-0.5,0-0.9-0.7-0.9-1.2l0,0c0-0.5,0.7-1.1,1.3-1.1
							c4.5,0,18.2,0.2,18.2,0.2c0.5,0,0.9,0.4,0.9,0.9l0,0C127.3,250.1,126.9,250.5,126.4,250.5z"/>
					</g>
					<g>
						<path class="st10" d="M107.6,252.2c0.2-1,1.1-1.7,2.1-1.7c1,0,2.1,0.7,2.1,1.7c0,1.3-1.3,2.2-2.3,2.2
							C108.4,254.4,107.4,253.5,107.6,252.2z"/>
					</g>
					<g>
						<path class="st10" d="M122.4,252.2c0.2-1,1.1-1.7,2.1-1.7c1,0,2.1,0.7,2.1,1.7c0,1.3-1.3,2.2-2.3,2.2
							C123.3,254.4,122.2,253.5,122.4,252.2z"/>
					</g>
					<g>
						<path class="st10" d="M110.8,216.9c0,0-0.5,2.2,4.6,2.9c5.1,0.7,7.4-2.9,7.4-2.9H110.8z"/>
					</g>
				</g>
				<g>
					<path class="st12" d="M125.4,207.7c0.1-6.2-3.1-25.5-11.9-27.2c-3.5-0.6-15.8-2.2-17.4,3c-2.8,9,4.8,31.3,4.8,31.3
						s0.7,2.4,3.2,2.6c2.5,0.3,33.3,1.2,33.6,0C138.9,212.9,129.8,208.9,125.4,207.7z"/>
				</g>
			</g>
			<g>
				<g>
					<path class="st10" d="M146.2,250.2c0,0,0.1,3.1,2.3,3.9c2.1,0.8,8.2,1.5,6,3.6c-1.3,1.2-7.5,0.6-9.2,0.6
						c-1.7,0-3.4,0.8-4.7-0.3c-1.5-1.3-0.2-7.7-0.2-7.7s1.5,0.8,2.9,0.7C145.3,250.9,146.2,250.2,146.2,250.2z"/>
				</g>
				<g>
					<path class="st10" d="M181.3,248.4c0,0,0.2,3.1,2.3,3.9c2.1,0.8,8.3,1.4,6,3.5c-1.3,1.2-7.5,0.6-9.2,0.7
						c-1.7,0.1-3.4,0.9-4.7-0.3c-1.5-1.2-0.2-7.7-0.2-7.7s1.5,0.7,2.9,0.7C180.3,249.1,181.3,248.4,181.3,248.4z"/>
				</g>
				<g>
					<g>
						<path class="st14" d="M179.8,251c3.6-0.4,6.2-3.6,6-7.2c-1.4-20.4-5.3-34.1-12.2-42.7c-4.4-5.5-13.5-11.1-27.7-10.6
							c-7.1,0.3-9-2.4-16.4-2.2c-11.9,0.3-9.6,2-9.6,2c-7.3,19.3,6.9,20.6,17.2,20.2c0.3,0,0.7,0,1,0c6.3-0.1,17.5,0.5,22.3,6.3
							c3.8,4.6,6.7,11.3,9.2,29.1c0.5,3.4,3.6,5.8,7,5.4L179.8,251z"/>
					</g>
				</g>
				<g>
					<g>
						<path class="st14" d="M151.9,253c9.4-19.5,13.5-37.4,6.6-45.9c-4.4-5.5-10.7-9.3-18.7-11.5c-5.7-1.5-12.3-2.2-19.6-2
							c-11.9,0.3-17.4-0.6-17.4-0.6c-7.6,24.5,27.1,16.5,37.2,25.8c4.4,4.1-1.5,11-0.9,31C139.2,253.2,150.3,256.2,151.9,253z"/>
					</g>
				</g>
				<g>
					<path class="st15" d="M162,218.9l-0.1,0c0.4-6-2.3-9.1-4-10.5l0.1-0.1C159.7,209.6,162.5,212.8,162,218.9z"/>
				</g>
				<g>
					<g>
						<path class="st16" d="M141.5,172.1c-1.6-4.4-5.1-9.5-5.2-9.6l5.2-3.7c2.2-1.5,5.2-0.9,6.5,1.4c1.3,2.3,2.9,5.2,3.9,8.1
							c1.2,3.3,2.3-9.5,1.5-14.1l6.9-3.5c1.1,2.7,4.3,19.6,2.3,25.7C158,190.1,144.9,181.7,141.5,172.1z"/>
					</g>
				</g>
				<g>
					<path class="st17" d="M151.4,165.4c0,0-1.8-8.1-11.1-11.7c0,0,0,0,0,0c-1.7-0.8-3.2-1.8-5-2.1c-38.5-8.2-38.6,51.5-33.5,52.6
						c25.1,5.7,49.3-7.9,46.6-14c-3.1-12-3.4-15.3-1.6-19.1c0.6-1.2,1.8-1.4,3.4-3.2C151.2,166.7,151.4,165.4,151.4,165.4z"/>
				</g>
				<g>
					<path class="st16" d="M147.8,144.1l-3.3,5.3l-1.8,2.9l-0.2,0.3l-0.6,1c-0.4,0.7-0.1,1.1,0,2c0,0.4,0.4,2.7-1.5,2.3
						c-2.3-0.4-4.9-3.9-5.1-6.4c0,0,2.6,0.5,3.6-0.2l3-2.4l0.9-0.7L147.8,144.1z"/>
				</g>
				<g>
					<path class="st10" d="M142.8,151.9l0,0.4l-0.2,0.3l-0.6,1c-1.2-1.5-1.1-3.8-1.1-3.8L142.8,151.9z"/>
				</g>
				<g>
					<g>
						<path class="st11" d="M153.9,148.1c0,0-0.8,1.3-2.4,2.4c-1.6,1.1,0.3-3.6,0.3-3.6L153.9,148.1z"/>
					</g>
					<g>
						
							<ellipse transform="matrix(0.6148 -0.7886 0.7886 0.6148 -59.8717 172.6493)" class="st16" cx="146.8" cy="147.6" rx="6.7" ry="5.6"/>
					</g>
					<g>
						<path class="st10" d="M143.7,142.8l2.1,1.7c0.5,0.4,1.1,0.5,1.6,0.4c1-0.2,2.6,0,3.6,2.6c1.3,3.5,4.9,1.7,6.3,0.8
							c1.5-0.9,1.1-2.9-0.6-3.5s0.2-1.5-0.7-2.7c-1.7-2.3-3.7-1.2-5.3-2.9c-2.1-2.3-7.6-4.5-9.7,1.1L143.7,142.8z"/>
					</g>
					<g>
						<g>
							<path class="st18" d="M147.2,147.6C147.3,147.6,147.3,147.6,147.2,147.6c0.1-0.1,0.2-0.1,0.1-0.2c0,0-0.5-0.7-1.4-0.4
								c-0.1,0-0.1,0.1-0.1,0.1c0,0.1,0.1,0.1,0.1,0.1C146.6,147.2,147.1,147.6,147.2,147.6C147.2,147.6,147.2,147.6,147.2,147.6z"
								/>
						</g>
					</g>
					<g>
						<g>
							<path class="st18" d="M150.4,150.4C150.4,150.4,150.4,150.4,150.4,150.4c0.1,0,0.2-0.1,0.2-0.1c0,0-0.1-0.8-0.9-0.7
								c-0.1,0-0.1,0.1-0.1,0.1c0,0.1,0,0.1,0.1,0.1C150.1,149.8,150.4,150.3,150.4,150.4C150.4,150.3,150.4,150.4,150.4,150.4z"/>
						</g>
					</g>
					<g>
						<path class="st11" d="M141.1,140.3c0,0-1.6,4.1,0.1,6.2c0,0,0.7-3.7,5.2-1.8C146.3,144.8,143.9,141.4,141.1,140.3z"/>
					</g>
					<g>
						<path class="st16" d="M142.1,144.5c0.1,0.7,0.7,1.1,1.3,1c0.6-0.1,0.9-0.8,0.8-1.4c-0.1-0.7-0.7-1.1-1.3-1
							C142.3,143.3,142,143.9,142.1,144.5z"/>
					</g>
					<g>
						<path class="st10" d="M152.6,139.6c-1,0-1.2-0.9-1.2-0.9c0-0.1,0-0.1,0.1-0.1c0.1,0,0.1,0,0.1,0.1c0,0,0.2,0.9,1.3,0.7
							c0,0,0,0,0,0c0.1,0,0.1,0,0.1,0.1c0,0.1,0,0.1-0.1,0.1C152.8,139.6,152.7,139.6,152.6,139.6z"/>
					</g>
					<g>
						<path class="st19" d="M155.4,147.7c-1.4,0-3.1-0.9-3.2-1l0-0.1c0,0,3.1,1.7,4.5,0.6c0.4-0.3,0.6-0.6,0.5-0.9
							c0-0.4-0.6-0.8-1-1.1c-0.1,0-0.1-0.1-0.2-0.1l0-0.1c0.1,0,0.1,0.1,0.2,0.1c0.5,0.3,1,0.7,1.1,1.1c0,0.3-0.2,0.6-0.6,0.9
							C156.4,147.6,155.9,147.7,155.4,147.7z"/>
					</g>
					<g>
						<path class="st19" d="M153.8,141.2c-0.5,0-2.6-0.1-4.4-2.5l0.1,0C151.2,141,153.3,141.2,153.8,141.2
							C153.8,141.2,153.9,141.2,153.8,141.2l0.1,0C153.9,141.2,153.9,141.2,153.8,141.2z"/>
					</g>
					<g>
						<path class="st18" d="M145.6,148.7c-0.1,0.2,0,0.3,0.2,0.4c0.2,0.1,0.4,0,0.4-0.1c0.1-0.2,0-0.3-0.2-0.4
							C145.8,148.5,145.6,148.6,145.6,148.7z"/>
					</g>
					<g>
						<path class="st18" d="M148.1,150.6c-0.1,0.2,0,0.3,0.2,0.4c0.2,0.1,0.4,0,0.4-0.1c0.1-0.2,0-0.3-0.2-0.4
							S148.2,150.4,148.1,150.6z"/>
					</g>
					<g>
						<path class="st19" d="M145.6,152.3c-0.2,0.2-0.5,0.3-0.7,0.1c-0.2-0.2-0.3-0.5-0.1-0.7c0.2-0.2,0.5-0.3,0.7-0.1
							C145.7,151.8,145.7,152.1,145.6,152.3z"/>
					</g>
				</g>
				<g>
					<path class="st16" d="M157.9,145.3c-0.9-1.6-1.5-1.9-1.5-1.9s-3.3-2.7-3.6-1.6c-0.3,1,2.6,3.3,2.6,3.3s-4.2-2.8-4.1-1.8
						c0,1.1,3.2,3.2,3.2,3.2s-4-2.5-3.9-1.3c0.1,1.2,2.6,2.4,2.3,3.4c0,0.1-2.3-2.1-2.2-0.4c0,0.7,0.9,2.4,0.9,2.4
						c0,0.2,0.3,0.6,0.4,0.8c0.6,0.9,1,1.5,1.3,2.9l6.9-3.5C160.2,150.8,159,147.3,157.9,145.3z"/>
				</g>
				<g>
					<path class="st20" d="M156.7,146.7C156.6,146.7,156.6,146.7,156.7,146.7c-0.3-1-1.3-1.6-1.3-1.6c0,0-0.1-0.1,0-0.1
						c0,0,0.1-0.1,0.1,0c0,0,1.1,0.6,1.3,1.7C156.8,146.7,156.7,146.7,156.7,146.7C156.7,146.7,156.7,146.7,156.7,146.7z"/>
				</g>
				<g>
					<path class="st20" d="M155.7,148C155.7,148,155.6,148,155.7,148c-0.4-1.2-1.2-1.5-1.3-1.5c0,0-0.1-0.1-0.1-0.1
						c0,0,0.1-0.1,0.1-0.1c0,0,0.9,0.3,1.3,1.6C155.8,148,155.8,148,155.7,148C155.7,148,155.7,148,155.7,148z"/>
				</g>
				<g>
					<path class="st20" d="M153.5,155.6C153.5,155.6,153.5,155.6,153.5,155.6c-0.1-0.1-0.2-2.2-0.9-3.2c-0.6-0.9-2.4-3.8-1.9-4.6
						c0.1-0.2,0.3-0.3,0.5-0.4c0.4-0.1,0.7,0.2,1.2,0.6l0,0c0.6,0.5,1.4,1.2,1.4,1.2l-0.1,0.1c0,0-0.8-0.7-1.4-1.2l0,0
						c-0.4-0.3-0.7-0.6-1-0.6c0,0,0,0-0.1,0c-0.1,0-0.2,0.1-0.3,0.3c-0.3,0.6,1.1,3.2,1.9,4.4C153.5,153.4,153.6,155.4,153.5,155.6
						C153.6,155.6,153.6,155.6,153.5,155.6C153.5,155.6,153.5,155.6,153.5,155.6z"/>
				</g>
				<g>
					<g>
						<g>
							<path class="st16" d="M142.2,198.9c0,0,5.6,0.2,7.7,2.8c2.1,2.5,2.8,7.4,1.2,6.1c-1.6-1.3-3.2-3.5-3.2-3.5s3.2,4.9,1.8,5.2
								c-1.5,0.3-4.3-4.1-4.3-4.1s3.4,6.2,1.9,6c-1.5-0.2-4-4.9-4-4.9s2.9,5.9,1.2,5.6c-1.7-0.3-2.4-4.9-3.9-4.6
								c-1.5,0.3-7.5,0.8-8.7-3.3L142.2,198.9z"/>
						</g>
					</g>
					<g>
						<path class="st20" d="M147.7,204.3c0,0-0.7-1.5-1.6-1.6l0-0.2c1.1,0.2,1.8,1.7,1.8,1.8L147.7,204.3z"/>
					</g>
					<g>
						<path class="st20" d="M145.2,205.4c0,0-0.7-1.5-2-2l0.1-0.2c1.4,0.5,2.1,2,2.1,2.1L145.2,205.4z"/>
					</g>
					<g>
						<path class="st20" d="M143.1,206.5c0,0-0.8-1.8-1.8-1.8l0-0.2c1.2,0.1,2,1.9,2,2L143.1,206.5z"/>
					</g>
				</g>
				<g>
					
						<ellipse transform="matrix(0.1371 -0.9906 0.9906 0.1371 -58.9021 259.4431)" class="st10" cx="119.5" cy="163.5" rx="2" ry="7.7"/>
				</g>
				<g>
					<g>
						<path class="st16" d="M132.7,205.5c-12.5-7-17.3-16.4-19-24.3c-2.3-10.3-0.2-17.7-0.1-18c0,0,0.9-1.1,6.2-0.1c4.7,0.9,5,2,5,2
							c0,0.1-2.7,24.1,17.4,33.9C142.2,198.9,135.4,207,132.7,205.5z"/>
					</g>
				</g>
				<g>
					<path class="st10" d="M127.1,164.7C127.1,164.7,127.1,164.7,127.1,164.7C127,164.6,127,164.6,127.1,164.7
						c-0.1-0.1,0.7-3.6,0.3-6c0,0,0-0.1,0.1-0.1c0,0,0.1,0,0.1,0.1C128,161.1,127.2,164.6,127.1,164.7
						C127.2,164.6,127.1,164.7,127.1,164.7z"/>
				</g>
				<g>
					<path class="st20" d="M119.6,190c-0.2,0-0.5-0.1-0.7-0.3c-0.4-0.3-0.7-0.7-1-1.1c-0.3-0.5-0.5-1-0.5-1.4c0-0.5,0.1-0.8,0.3-1
						c0.3-0.2,0.6-0.1,1,0.2c0.4,0.3,0.7,0.7,1,1.1l0,0c0.6,1,0.7,2.1,0.2,2.4C119.8,190,119.7,190,119.6,190z M118.1,186.4
						c-0.1,0-0.1,0-0.2,0c-0.2,0.1-0.2,0.3-0.2,0.7c0,0.4,0.2,0.9,0.5,1.3c0.3,0.4,0.6,0.8,0.9,1.1c0.3,0.2,0.5,0.3,0.7,0.2
						c0.3-0.2,0.3-1.1-0.3-2l0,0c-0.3-0.4-0.6-0.8-0.9-1.1C118.4,186.5,118.2,186.4,118.1,186.4z"/>
				</g>
				<g>
					<path class="st16" d="M160,150.2c0,0-0.2-1.6-0.2-3c0-1.5,0.8-2.7,0-3.2c-0.8-0.4-2,1.8-1.9,2.9C158,148,160,150.2,160,150.2z"
						/>
				</g>
				<g>
					<path class="st20" d="M151.6,175.7c-0.1,0-0.1,0-0.1-0.1c0-0.1-0.9-2.2,0.8-7.2c0-0.1,0.1-0.1,0.2-0.1c0.1,0,0.1,0.1,0.1,0.2
						c-1.6,4.9-0.8,7-0.8,7C151.7,175.6,151.7,175.7,151.6,175.7C151.6,175.7,151.6,175.7,151.6,175.7z"/>
				</g>
			</g>
		</g>
	</g>
	<g>
		<g>
			<path class="st14" d="M150.1,98.7c-0.3-19,16.3-32.4,35.1-32.8c27.3-0.5,36.9,14.7,37.3,33.8c0.3,19-21,32.9-39.8,33.2
				S150.5,117.7,150.1,98.7z"/>
		</g>
		<g>
			<path class="st14" d="M144.7,129.3c0,0,11.9-2.1,12.5-14.1l9.5,6.7C166.7,122,162.5,133.1,144.7,129.3z"/>
		</g>
	</g>
	<g>
		<path class="st10" d="M181.6,136.9c-7,0-13.5-2.2-18.9-6.4c-3.1,2.4-8.8,4.9-18.5,2.8l-0.9-0.2l0.9-0.2c0.1,0,8.9-1.7,11.6-9.8
			c-4-5.9-6.2-13-6.4-20.7c-0.2-9,3.5-17.4,10.4-23.5c6.6-5.9,15.5-9.3,24.9-9.4l0,0c12.8-0.2,22.5,3,28.9,9.6
			c5.5,5.8,8.4,13.9,8.6,24.3c0.2,8.8-4.4,17.3-12.8,23.8c-7.6,5.9-17.8,9.5-27.2,9.6C182,136.9,181.8,136.9,181.6,136.9z
			 M162.7,130.1l0.1,0.1c5.3,4.2,11.8,6.4,18.8,6.4c0.2,0,0.4,0,0.6,0c9.3-0.2,19.4-3.7,27-9.6c8.3-6.4,12.8-14.7,12.7-23.5
			c-0.2-10.3-3-18.4-8.5-24.1c-6-6.3-15.2-9.5-27.3-9.5c-0.4,0-0.8,0-1.3,0c-9.3,0.2-18.1,3.5-24.6,9.3
			c-6.8,6.1-10.5,14.3-10.3,23.2c0.1,7.6,2.3,14.7,6.3,20.5l0.1,0.1l0,0.1c-2.2,6.9-8.8,9.3-11.1,9.9c9.2,1.8,14.6-0.6,17.5-3
			L162.7,130.1z"/>
	</g>
	<g>
		<path class="st10" d="M197.2,125.9c-0.9,0-1.7-0.3-2.5-0.8c-0.9-0.6-1.4-1.3-1.6-2.3c-0.4-2.1,1-4.8,2.6-7.3
			c-0.5,0-1.1-0.1-1.8-0.3c-0.5,1-1.4,1.9-2.4,2.6c-2.2,1.5-5,1.8-6.7,0.7c-0.7-0.5-1.2-1.3-1.7-2.5c-0.4,0.2-0.9,0.4-1.4,0.5
			c-1.8,0.5-3.2,0-3.9-1.3c-0.5-1-0.4-2.3,0.1-3.4c-0.8-0.7-1.4-1.7-1.7-2.9c-0.9,0.3-1.7,0.6-2.4,0.8c0,0.1-0.1,0.3-0.1,0.4
			c-0.7,1.9-1.7,3.2-2.8,3.4c-0.9,0.2-1.8-0.2-2.7-1.2c-1.8-2-2.3-4.1-1.5-5.8c0.3-0.6,0.7-1.1,1.3-1.6c-0.3-0.5-0.5-1.1-0.6-1.6
			c-0.1-1.2,0.6-2.4,1.9-3.3c-0.6-0.2-1.2-0.4-1.7-0.6c-2.5-0.9-4.9-1.7-5.6-4.8c-0.4-1.6-0.1-3,0.6-4.1c-1.3-1.8-1.3-3.4-0.9-4.5
			c0.8-2.5,3.4-4.1,5.7-4.5c1.8-0.3,3.4,0.3,4.3,1.6c0.4,0.6,0.7,1.2,1,1.8c1.4-0.5,2.7-0.4,4,0c0.7-1.1,1.7-1.8,2.6-2.2
			c0,0,0-0.1,0-0.1c-0.3-0.7-0.6-1.9-0.1-2.3c0.6-0.4,2.1-0.3,3.5,0.4c0.4,0.2,0.9,0.6,1.3,1.1c2.7,0.1,5.3,1.2,6.4,2.8
			c0.5,0.7,0.8,1.7,0.9,2.9c0.4-0.1,0.8-0.3,1.2-0.4c0.4-1.7,1.2-3.3,2.2-4c0.5-0.3,1-0.4,1.5-0.1c0.8,0.4,0.8,1,0.7,1.4
			c-0.2,1-1.7,2.2-3.8,3.1c-0.1,0.6-0.2,1.3-0.1,1.9c0,0.4,0.1,0.9,0.3,1.4c1.8-0.2,3.7,0.2,5,1.1c0.2-0.1,0.3-0.3,0.5-0.4
			c1.9-1.5,4.3-2.2,5.5-1.6c0.4,0.2,0.7,0.6,0.7,1c0,1-0.5,1.9-1.4,2.5c-0.8,0.5-2,0.9-3.3,1c0.3,1.1,0.2,2.3-0.2,3.6
			c1.3,1.3,2.1,3.3,2.4,5.8c1.6-0.3,2.7,0,3,0.8c0.3,0.8,0.2,1.6-0.3,2.3c-0.6,0.9-1.6,1.7-3,2.4c-0.5,2.2-1.6,4.3-3.4,5.3
			c-0.5,0.3-1.2,0.6-2.1,0.7c-1.6,2.5-3.1,5.2-2.7,7.2c0.2,0.8,0.6,1.4,1.3,1.9c1,0.6,1.9,0.8,3,0.6c2.4-0.5,5.1-3.2,8.2-7.9
			c4.4-6.9,11.8-9.5,17.2-10.5c6.3-1.1,13.1-0.6,17.9,1.5c0.2,0.1,0.2,0.2,0.2,0.4c-0.1,0.1-0.2,0.2-0.4,0.2
			c-4.6-2-11.3-2.5-17.5-1.4c-5.3,0.9-12.5,3.5-16.8,10.2c-3.2,4.9-5.9,7.6-8.5,8.2C197.9,125.8,197.5,125.9,197.2,125.9z
			 M183.7,115.7c0.4,1.1,0.9,1.9,1.5,2.2c1.5,0.9,4,0.7,6-0.7c1-0.6,1.7-1.4,2.2-2.3c-1-0.4-2.1-0.9-3.3-1.8
			c-0.6-0.4-1.1-0.8-1.6-1.1c-0.5,0.2-1,0.3-1.5,0.5C186.1,113.9,185.1,115,183.7,115.7z M178.6,112.2c-0.4,0.9-0.5,1.9-0.1,2.7
			c0.5,1,1.7,1.4,3.2,1c0.5-0.1,0.9-0.3,1.3-0.5c-0.2-0.7-0.5-1.5-0.7-2.4c-1.3,0-2.2-0.1-2.2-0.1
			C179.5,112.7,179,112.5,178.6,112.2z M182.9,113c0.2,0.8,0.4,1.5,0.6,2.1c1-0.6,1.9-1.4,2.6-2.5C185,112.9,183.9,113,182.9,113z
			 M194.2,114.7c0.7,0.2,1.3,0.2,1.9,0.2c0.6-0.9,1.3-1.8,1.9-2.6c0.2-0.3,0.4-0.6,0.6-0.8c0.2-0.3,0.4-0.6,0.5-0.9
			c-0.9,0.2-1.9,0.4-2.9,0.6c-0.6,0.1-1.1,0.1-1.6,0c0,0.1,0,0.3,0,0.4C194.8,112.6,194.7,113.7,194.2,114.7z M199.8,110.3
			c-0.1,0.5-0.4,1-0.7,1.5c-0.2,0.3-0.4,0.5-0.6,0.8c-0.5,0.7-1,1.4-1.6,2.2c0.5-0.1,0.9-0.3,1.3-0.5c1.5-0.9,2.5-2.6,3.1-4.5
			C200.8,110,200.3,110.1,199.8,110.3z M189.1,111.8c0.4,0.3,0.9,0.6,1.3,0.9c1.1,0.8,2.2,1.4,3.3,1.8c0.4-0.9,0.5-1.9,0.4-2.8
			c0-0.2,0-0.4,0-0.6c-0.9-0.2-1.5-0.7-2-1.2C191.2,110.7,190.2,111.3,189.1,111.8z M168.5,105.3c-0.5,0.4-0.9,0.9-1.1,1.4
			c-0.7,1.5-0.2,3.3,1.4,5.2c0.7,0.8,1.4,1.2,2.1,1c0.9-0.2,1.8-1.3,2.4-3c-1.6,0.5-2.7,0.7-2.8,0.7c-0.2,0-0.3-0.1-0.4-0.2
			c0-0.2,0.1-0.3,0.2-0.4c0,0,1.3-0.3,3.1-0.8c0.2-0.6,0.3-1.3,0.3-2c-1.3,0.1-2.5-0.1-3.6-0.6C169.5,106.3,168.9,105.9,168.5,105.3
			z M178.9,111.7c0.4,0.3,0.8,0.5,1.3,0.6c0,0,0.8,0.1,1.9,0.1c-0.2-0.8-0.4-1.6-0.7-2.3c-0.8,0.1-1.4,0.5-2,0.9
			C179.2,111.2,179,111.5,178.9,111.7z M182.1,110c0.3,0.8,0.5,1.6,0.7,2.4c1.1,0,2.4-0.1,3.8-0.4c0.1-0.3,0.3-0.5,0.4-0.8
			C185.1,110.3,183.4,109.9,182.1,110z M187.5,111.5c0,0.1-0.1,0.2-0.1,0.3c0.2,0,0.3-0.1,0.5-0.1
			C187.7,111.6,187.6,111.6,187.5,111.5z M187.7,110.9c0.3,0.1,0.5,0.3,0.8,0.5c1.2-0.5,2.3-1.2,3.2-2.1c-0.6-0.9-0.8-2.1-1-3.1
			c-0.7,0.2-1.4,0.3-2.1,0.4C188.5,108.1,188.2,109.6,187.7,110.9z M177,108.7c0.2,1.1,0.7,1.9,1.4,2.6c0.2-0.3,0.4-0.5,0.7-0.7
			c0.4-0.4,1.1-0.8,2.2-1.1c-0.3-0.8-0.5-1.5-0.9-2.2C179.3,107.9,178.1,108.3,177,108.7z M182.5,109.4c1.2,0,2.7,0.3,4.6,1.2
			c0.5-1.3,0.7-2.7,0.8-4.1c-0.1,0-0.1,0-0.2,0c-1.8,0.1-3.3-0.2-4.6-0.8c-0.7,0.5-1.5,0.9-2.4,1.3c0.4,0.7,0.7,1.5,1,2.4
			C182.1,109.4,182.3,109.4,182.5,109.4z M194.6,110.5c0.4,0.1,0.9,0,1.5,0c1.1-0.2,2.2-0.4,3.2-0.7c0.2-1.2-0.2-2.4-0.8-3.8
			C196.6,107.1,194.9,108.7,194.6,110.5z M192.4,109.3c0.4,0.5,0.9,0.9,1.6,1.1c0.3-2.1,2.2-3.8,4.3-5c-0.1-0.2-0.2-0.5-0.3-0.8
			c-0.3-0.7-0.6-1.4-0.9-2.1c-0.8,0.8-1.7,1.5-2.8,2.1c-0.1,1.1-0.4,2.1-0.8,3.1C193.2,108.3,192.8,108.9,192.4,109.3z M199.1,105.7
			c0.6,1.4,1,2.7,0.9,3.9c0.6-0.2,1.1-0.4,1.5-0.6c0.3-1.4,0.4-3,0.3-4.4C200.9,104.9,200,105.2,199.1,105.7z M174.4,107.1
			c0,0.6-0.1,1.3-0.3,1.9c0.7-0.2,1.4-0.4,2.1-0.7c0-0.3-0.1-0.7-0.1-1.1c0-0.2,0-0.4,0-0.7C175.6,106.9,175,107,174.4,107.1z
			 M191.2,106c0.2,1,0.4,2,0.9,2.8c0.3-0.4,0.6-0.9,0.9-1.4c0.4-0.8,0.6-1.6,0.7-2.5C192.9,105.4,192.1,105.7,191.2,106z
			 M202.3,104.5c0.1,1.3,0.1,2.8-0.2,4.2c1.1-0.6,1.9-1.2,2.3-2c0.4-0.6,0.5-1.2,0.3-1.8C204.5,104.5,203.6,104.3,202.3,104.5z
			 M176.8,106.3c0,0.3,0,0.6,0,0.9c0,0.3,0,0.6,0.1,0.9c1.1-0.4,2.2-0.8,3.3-1.3c-0.4-0.7-0.8-1.3-1.3-1.7c-0.2,0.1-0.3,0.2-0.5,0.3
			C177.9,105.8,177.3,106.1,176.8,106.3z M169,105c0.4,0.4,0.9,0.8,1.5,1.1c1,0.5,2.2,0.6,3.4,0.5c0-1-0.1-2.1-0.4-3
			C171.6,103.8,170.1,104.3,169,105z M179.3,104.7c0.5,0.5,1,1.2,1.3,1.8c0.7-0.3,1.4-0.7,2-1.1c-0.8-0.5-1.4-1-2-1.7
			C180.2,104.1,179.8,104.4,179.3,104.7z M174.1,103.6c0.3,0.9,0.4,1.9,0.4,2.9c0.6-0.1,1.2-0.3,1.8-0.6c0.1-0.7,0.3-1.4,0.5-2.1
			c-0.5-0.1-1-0.2-1.5-0.2C174.9,103.6,174.5,103.6,174.1,103.6z M183.9,105.4c1.1,0.5,2.4,0.7,3.9,0.6c0.1,0,0.2,0,0.2,0
			c0.1-1.5-0.1-3-0.3-4.4c-0.5-0.1-1-0.1-1.6-0.1c0.2,1.1-0.1,2.1-1,2.9C184.7,104.7,184.3,105.1,183.9,105.4z M188.3,101.8
			c0.2,1.3,0.3,2.8,0.3,4.2c0.7-0.1,1.3-0.2,2-0.4c0,0,0-0.1,0-0.1c-0.2-1.3-0.4-2.5-1-3C189.2,102.2,188.8,101.9,188.3,101.8z
			 M177.4,104c-0.2,0.5-0.3,1-0.4,1.6c0.4-0.2,0.7-0.4,1.1-0.7c0.1-0.1,0.2-0.2,0.4-0.3C178.1,104.4,177.7,104.2,177.4,104z
			 M188.2,101.1c0.7,0.2,1.2,0.6,1.7,1c0.7,0.6,0.9,1.9,1.2,3.3c0,0,0,0,0,0c1-0.3,1.8-0.7,2.6-1.1c0.2-2.4-0.6-5-2.3-7.3
			c-0.2-0.2-0.4-0.5-0.5-0.7c-0.7,0-1.4-0.1-2.1-0.1c-0.4,0-0.8,0-1.1-0.1c-0.2,0.2-0.3,0.3-0.5,0.5c0,0.5,0.1,0.9,0.3,1.5
			C187.8,99,188,100,188.2,101.1z M197.5,102.1c0.3,0.8,0.7,1.6,1,2.3c0.1,0.2,0.2,0.5,0.3,0.7c0.9-0.5,1.9-0.8,2.8-1.1
			c0,0,0,0,0.1,0c-0.3-2.2-1-4-2.1-5.3C199.2,99.9,198.5,101.1,197.5,102.1z M181.2,103.5c0.6,0.6,1.2,1.2,2,1.6
			c0.6-0.4,1.1-0.8,1.5-1.2c0.7-0.6,1-1.5,0.8-2.4C184.4,101.8,183,102.4,181.2,103.5z M170.1,100.2c-0.1,0-0.1,0.1-0.2,0.1
			c-1.2,0.8-1.8,1.8-1.7,2.8c0,0.5,0.2,0.9,0.5,1.3c1.2-0.8,2.8-1.3,4.7-1.4c-0.2-0.4-0.4-0.7-0.6-1
			C171.9,101.2,171,100.7,170.1,100.2z M177.6,103.5c0.5,0.2,0.9,0.5,1.3,0.8c0.5-0.4,1-0.7,1.4-1c-0.5-0.7-0.9-1.4-1.1-2.2
			C178.5,101.8,178,102.6,177.6,103.5z M191.8,96.4c0.1,0.1,0.1,0.2,0.2,0.3c1.6,2.2,2.4,4.8,2.4,7.3c0.9-0.6,1.8-1.3,2.5-2
			c-0.4-1.1-0.8-2.3-1.1-3.7c-0.1-0.5-0.1-0.9-0.1-1.3C194.4,96.7,193.1,96.5,191.8,96.4z M175,103c0.1,0,0.2,0,0.4,0
			c0.6,0,1.2,0.1,1.7,0.3c0.5-1.1,1.1-2,1.9-2.8c-0.1-0.4-0.2-0.8-0.2-1.2c0,0,0,0,0-0.1c-1.3,0-2.7-0.2-4.3-0.5
			c-0.9-0.2-1.6-0.4-2.3-0.6c-0.4,0.6-0.9,1.2-1.5,1.7c0.9,0.4,1.8,1,2.5,1.8c0.3,0.4,0.6,0.8,0.8,1.4C174.3,103,174.6,103,175,103z
			 M179.6,100.7c0.2,0.8,0.6,1.6,1.2,2.3c1.8-1.1,3.3-1.7,4.5-2c0,0,0,0,0-0.1c-0.5-1-1.6-1.6-2.7-1.4c-0.5,0.1-0.9,0.2-1.5,0.4
			C180.6,100.1,180.1,100.4,179.6,100.7z M196.3,97c0,0.3,0,0.7,0.1,1.1c0.2,1.2,0.6,2.3,0.9,3.3c0.8-1,1.5-2.1,1.8-3.1
			c-0.5-0.5-1.1-0.8-1.7-1C197,97.2,196.7,97.1,196.3,97z M186.8,100.8c0.3,0,0.6,0,0.8,0.1c-0.2-0.9-0.4-1.8-0.7-2.6
			c-0.1-0.4-0.2-0.8-0.3-1.2c-1.7,1.2-4,2.1-7.3,2.2l0,0c0,0.3,0.1,0.6,0.1,0.8c0.4-0.3,0.9-0.6,1.5-0.8c0.5-0.2,1.1-0.3,1.5-0.4
			c1.4-0.2,2.7,0.5,3.3,1.7c0,0.1,0.1,0.1,0.1,0.2C186.2,100.9,186.5,100.8,186.8,100.8z M163.1,91c-0.5,1-0.8,2.2-0.5,3.5
			c0.7,2.8,2.8,3.5,5.2,4.3c0.7,0.2,1.4,0.5,2.1,0.8c0.6-0.5,1.1-1,1.6-1.6c-2.8-1.2-3.9-2.9-4.3-4.2c-1.3-0.5-2.4-1.2-3.5-2.1
			C163.5,91.4,163.3,91.2,163.1,91z M172.5,97.6c0.6,0.2,1.3,0.4,2.1,0.6c1.5,0.3,2.9,0.5,4.2,0.5c0-1.4,0.3-2.8,1-3.9
			c-0.8-0.3-1.5-0.8-2.1-1.3c-0.4,0.2-0.9,0.4-1.4,0.6c-0.8,0.2-1.6,0.4-2.5,0.5C173.4,95.7,173,96.7,172.5,97.6z M180.3,95
			c-0.7,1-1,2.4-1,3.7c3.3-0.1,5.7-1.1,7.3-2.3c0-0.1,0-0.2,0-0.2C184.3,95.9,182.1,95.7,180.3,95z M196.3,96.4
			c0.4,0.1,0.9,0.2,1.3,0.3c0.6,0.2,1.2,0.5,1.7,1c0.3-1.1,0.3-2.2,0.1-3.1c-0.7,0-1.6-0.1-2.4-0.3C196.6,95,196.4,95.7,196.3,96.4z
			 M167.9,94c0.6,1.4,1.9,2.6,3.9,3.4c0.5-0.8,0.9-1.8,1.1-2.8C171.4,94.7,169.6,94.5,167.9,94z M191.2,95.8c1.5,0.1,3,0.3,4.5,0.5
			c0.1-0.8,0.3-1.5,0.7-2.1c-0.5-0.1-1-0.3-1.5-0.5c-1.1-0.5-1.8-1.3-2.1-2.1c-0.8,0.1-1.6,0.3-2.3,0.6c-0.3,0.6-0.6,1.3-1,1.9
			C190.1,94.6,190.7,95.1,191.2,95.8z M188.3,95.6c0.2,0,0.4,0,0.6,0c0.5,0,1,0.1,1.5,0.1c-0.4-0.4-0.8-0.8-1.3-1.1
			C188.9,94.9,188.6,95.3,188.3,95.6z M187.3,95.5c0.1,0,0.1,0,0.2,0c0.5-0.4,0.8-0.9,1.1-1.3c-0.2-0.1-0.4-0.2-0.6-0.3
			C187.7,94.4,187.4,94.9,187.3,95.5z M180.7,94.5c1.7,0.6,3.8,0.8,6,1c0.1-0.7,0.4-1.3,0.8-1.8c-1.3-0.6-2.7-0.8-4.1-0.6
			C182.2,93.2,181.3,93.8,180.7,94.5z M178.2,93.2c0.5,0.5,1.2,0.8,1.9,1.1c0.7-0.9,1.8-1.6,3.3-1.8c1.5-0.2,3.1,0,4.5,0.7
			c0.3-0.3,0.7-0.6,1.1-0.9c0.3-0.2,0.6-0.4,0.9-0.5c0.4-1.2,0.6-2.3,0.6-3.4c-1,0.3-2.1,0.5-3.3,0.6c-1.3,0.1-2.4-0.2-3.4-0.6
			c-0.8,0.9-1.9,1.7-3.5,2.2C180.2,91.6,179.4,92.5,178.2,93.2z M197.3,93.8c0.7,0.1,1.3,0.2,1.9,0.2c-0.2-0.4-0.5-0.8-0.8-1.1
			c-0.1,0-0.1-0.1-0.2-0.1C197.9,93.1,197.6,93.4,197.3,93.8z M167.7,93.3c1.8,0.6,3.7,0.8,5.4,0.7c0.2-0.9,0.3-1.9,0.2-2.9
			c-1.3-0.3-2.4-0.9-3.1-1.8c-0.4-0.5-0.8-0.8-1.2-1c-1.1,1.4-1.6,3.1-1.4,4.6C167.7,93.1,167.7,93.2,167.7,93.3z M198.6,92.4
			c0,0,0.1,0.1,0.1,0.1c0.5,0.4,0.8,0.9,1.1,1.5c1.3-0.1,2.4-0.4,3.2-1c0.8-0.5,1.2-1.3,1.2-2c0-0.2-0.1-0.4-0.4-0.5
			c-0.9-0.4-3,0.1-4.9,1.5C198.8,92.2,198.7,92.3,198.6,92.4z M174,91.2c0,0.9-0.1,1.9-0.2,2.8c0.8-0.1,1.6-0.3,2.2-0.5
			c0.4-0.1,0.8-0.3,1.2-0.5c-0.4-0.5-0.8-1-1-1.7C175.4,91.3,174.7,91.3,174,91.2z M188.5,93.5c0.2,0.1,0.3,0.2,0.5,0.3
			c0.2-0.4,0.5-0.8,0.6-1.1c-0.1,0.1-0.2,0.1-0.2,0.2C189.1,93,188.7,93.2,188.5,93.5z M193.3,91.5c0.3,0.6,0.9,1.2,1.8,1.6
			c0.5,0.2,1.1,0.4,1.6,0.6c0.3-0.5,0.7-0.9,1-1.3C196.5,91.7,194.9,91.4,193.3,91.5z M163.4,90.4c0.2,0.3,0.5,0.5,0.8,0.8
			c0.9,0.8,1.8,1.4,2.9,1.8c0,0,0,0,0-0.1c-0.2-1.6,0.3-3.4,1.4-4.9c-0.9-0.2-1.9,0-2.8,0.4C164.8,88.9,164,89.6,163.4,90.4z
			 M176.8,91.3c0.2,0.5,0.5,1,0.9,1.4c1-0.5,1.7-1.2,2-1.9C178.8,91.1,177.8,91.2,176.8,91.3z M191.2,88.2c0,1-0.2,2.1-0.5,3.2
			c0.6-0.2,1.2-0.4,1.8-0.4c-0.2-0.5-0.2-1-0.3-1.4c0-0.6,0-1.1,0.1-1.7C191.9,88,191.6,88.1,191.2,88.2z M174,90.6
			c0.6,0.1,1.3,0.2,2,0.2c-0.1-0.4-0.2-0.9-0.3-1.4c-0.2-1.6,0.1-2.9,0.6-3.8c-1.1-0.4-2.3-0.4-3.4,0
			C173.5,87.1,173.9,88.8,174,90.6z M176.9,85.7c-0.5,0.9-0.7,2.1-0.6,3.6c0,0.5,0.1,1,0.3,1.4c1,0,2.1-0.2,3.1-0.5
			c0.1,0,0.2-0.1,0.3-0.1c0.2-1.1-0.4-2.3-1.7-3.5C177.9,86.3,177.4,85.9,176.9,85.7z M169.4,87.8c0.5,0.2,1,0.6,1.3,1.1
			c0.5,0.7,1.5,1.2,2.6,1.5c-0.1-1.6-0.4-3.3-1-4.7c-0.2,0.1-0.4,0.2-0.6,0.3C170.9,86.5,170.1,87.1,169.4,87.8z M168.3,82
			c-0.3,0-0.6,0-0.8,0.1c-2.3,0.3-4.6,2.1-5.2,4.1c-0.4,1.3-0.1,2.6,0.7,3.8c0.6-0.9,1.5-1.5,2.4-1.9c1.2-0.6,2.4-0.7,3.4-0.4
			c0.7-0.9,1.6-1.6,2.6-2.1c0.2-0.1,0.4-0.2,0.7-0.3c-0.3-0.6-0.6-1.2-0.9-1.7C170.4,82.3,169.2,82,168.3,82z M177.2,85.2
			c0.5,0.3,1,0.6,1.5,1c1.6,1.5,2,2.8,1.9,3.7c1.2-0.5,2.2-1.1,2.8-1.9c-1.9-1.2-3.3-3.2-4-4.7C178.7,83.7,177.8,84.3,177.2,85.2z
			 M184.3,87.9c0.9,0.4,1.8,0.6,3,0.5c1.2-0.1,2.3-0.3,3.3-0.6c-0.1-1.1-0.3-2.1-0.8-2.7c-0.9-1.4-3.2-2.3-5.5-2.5
			c0.4,0.8,0.7,1.9,0.6,3.4C184.9,86.6,184.7,87.3,184.3,87.9z M180,83.1c0.1,0.3,0.3,0.7,0.6,1.1c0.5,0.9,1.6,2.4,3.2,3.4
			c0.3-0.5,0.5-1.1,0.6-1.7c0.1-1.6-0.2-2.6-0.7-3.4c-1.2,0-2.4,0.1-3.4,0.5C180.1,83,180,83,180,83.1z M195.4,83.5
			c-0.2,0-0.3,0.1-0.5,0.2c-0.7,0.5-1.4,1.7-1.8,3.2c1.8-0.8,2.9-1.8,3.1-2.5c0-0.2,0-0.5-0.4-0.7C195.6,83.6,195.5,83.5,195.4,83.5
			z M180.2,80.7c-0.3,0-0.6,0.1-0.7,0.1c-0.1,0.1,0,0.8,0.3,1.7c0.1,0,0.2-0.1,0.2-0.1c1-0.3,2-0.5,3.1-0.5
			c-0.3-0.3-0.5-0.5-0.8-0.6C181.5,80.9,180.7,80.7,180.2,80.7z"/>
	</g>
	<g>
		<g>
			<g>
				<g>
					<path class="st16" d="M272,130.6c0,0-14.3-16-19.6-20.4c-2-1.6-9.1,10-9.1,10c2.8,3.7,7.9,11,14.9,22.9c4.1,7,4.9,8.9,8.2,12.6
						C268.7,158.4,281,137.8,272,130.6z"/>
				</g>
			</g>
			<g>
				<g>
					<path class="st16" d="M243.3,120.3c0,0-9.1-0.3-12.1-4.2c-3.1-3.9-4.1-11.3-1.7-9.2c2.4,2,4.8,5.5,4.8,5.5s-4.8-7.6-2.5-7.9
						c2.3-0.3,6.3,6.3,6.3,6.3s-5-9.5-2.7-9.1s5.2,6.5,5.2,6.5s-3.5-7.9-0.9-7.4c2.6,0.5,3.5,7.5,5.7,7.1c2.3-0.3,6.6-0.2,9.6,6.8
						L243.3,120.3z"/>
				</g>
				<g>
					<path class="st20" d="M236.9,115.1C236.8,115.1,236.8,115.1,236.9,115.1c-1.6-0.3-2.7-2.7-2.7-2.8c0-0.1,0-0.2,0.1-0.2
						c0.1,0,0.2,0,0.2,0.1c0,0,1,2.3,2.4,2.5c0.1,0,0.2,0.1,0.1,0.2C237,115,236.9,115.1,236.9,115.1z"/>
				</g>
				<g>
					<path class="st20" d="M241.2,114C241.2,114,241.1,114,241.2,114c-2.2-0.9-3.2-3.2-3.2-3.3c0-0.1,0-0.2,0.1-0.2
						c0.1,0,0.2,0,0.2,0.1c0,0,1,2.3,3,3.1c0.1,0,0.1,0.1,0.1,0.2C241.3,113.9,241.3,114,241.2,114z"/>
				</g>
				<g>
					<path class="st20" d="M244.2,112.3C244.2,112.3,244.2,112.3,244.2,112.3c-1.8-0.2-3-3-3.1-3.1c0-0.1,0-0.2,0.1-0.2
						c0.1,0,0.2,0,0.2,0.1c0,0,1.2,2.7,2.7,2.9c0.1,0,0.2,0.1,0.2,0.2C244.4,112.2,244.3,112.3,244.2,112.3z"/>
				</g>
			</g>
		</g>
		<g>
			<path class="st21" d="M255.6,113.1c0,0,16.1,16.9,22.5,12.1l0.7,18.4c0,0-8,12.3-12.4,12.1c-8-0.3-21.1-24.2-21.1-24.2
				S256.8,124.2,255.6,113.1z"/>
		</g>
		<g>
			<path class="st22" d="M352.5,192h-70.9c-3.2-2-4.8-3.5-4.8-3.5c0.2-2.6,0.4-5.1,0.6-7.5c0.7-8.2,1.7-15.7,2.8-22.5
				c1.7-9.7,3.7-18.2,6.2-25.5c0.8-2.3,1.6-4.5,2.5-6.5v0c3-7.1,6.4-12.7,10.2-16.9c2.8-3.2,5.9-5.5,9.1-7.1c0,0,0,0,0,0
				c0,0,0,0,0,0c0.3-0.2,0.7-0.3,1-0.5h0c1.1-0.5,2.1-0.9,3.2-1.2c0.7-0.2,1.3-0.3,2-0.5c0,0,0,0,0,0c1.2-0.2,2.4-0.4,3.6-0.4
				c3-0.1,5.6,0.1,8,0.6c1,0.2,1.9,0.4,2.8,0.7c0.3,0.1,0.7,0.2,1,0.3c11.7,4.1,15.4,14.4,15.4,14.4c0.5,1.2,0.9,2.4,1.3,3.8
				c0.1,0.4,0.2,0.7,0.3,1.1c0.2,0.8,0.4,1.6,0.6,2.4c2.5,10.2,3.8,23.4,4.5,35.9c0,0.3,0,0.6,0,0.9
				C352.7,172.8,352.6,184.8,352.5,192z"/>
		</g>
		<g>
			<path class="st22" d="M358.9,116.8l-13.8,7.7c0,0-41.5,9.4-51.8,7.5c-10.3-1.9-1.8-27.7,16.7-31c1.7-0.3,6.1-0.9,8-1.1
				c3.2-0.2,6.3-0.1,9.4,0.2C353.6,103,358.9,116.8,358.9,116.8z"/>
		</g>
		<g>
			<g>
				<path class="st17" d="M303.5,96.2c-0.1,0-2.9-0.7-3.7-2.7c-0.4-1-0.2-2.2,0.6-3.6c0.4-0.6,0.7-1.1,1-1.6
					c2.1-3.4,2.8-4.5,2.3-7.2l0.2,0c0.6,2.8-0.2,4-2.3,7.4c-0.3,0.5-0.6,1-1,1.6c-0.8,1.3-1,2.4-0.6,3.3c0.8,1.8,3.5,2.5,3.5,2.5
					L303.5,96.2z"/>
			</g>
			<g>
				<path class="st17" d="M303.8,81.2c0,0,0.9,4.3-1.9,8.7c-2.8,4.5,0.2,7.7,4.1,6s5.3,3.2,10.2,0.5
					C321.1,93.6,303.8,81.2,303.8,81.2z"/>
			</g>
			<g>
				<path class="st16" d="M326.4,100c-2.1-0.2-3.9-1.6-4.8-3.5l-2.6-6.1l-0.8-1.8l-4.5-10.4l0.8,10.8l0.5,6.5l0.1,1.8
					c0.1,1.5-0.9,2.8-2.4,3.1l0,0c-0.8,1.3-1.9,3.9,1.4,5C317.9,106.6,324.2,103.6,326.4,100C326.4,100,326.4,100,326.4,100z"/>
			</g>
			<g>
				<path class="st10" d="M319,90.2c0,0.1,0,0.1,0,0.2c-0.3,3.5-4,5.1-4,5.1l0,0l-0.5-6.5c1.1-0.4,2.8-0.8,3.7-0.4
					C318.7,88.8,319,89.3,319,90.2z"/>
			</g>
			<g>
				<ellipse class="st16" cx="313.3" cy="79.9" rx="10.1" ry="12.5"/>
			</g>
			<g>
				
					<ellipse transform="matrix(0.6647 -0.7471 0.7471 0.6647 47.6749 266.3256)" class="st16" cx="320.5" cy="80.1" rx="2.9" ry="2.3"/>
			</g>
			<g>
				<g>
					<path class="st18" d="M312.3,80c-0.1,0-0.1-0.1-0.2-0.1c0-0.1,0-0.3,0.1-0.3c0.1,0,1.6-0.8,3,0.7c0.1,0.1,0.1,0.2,0,0.3
						c-0.1,0.1-0.2,0.1-0.3,0c-1.1-0.7-2.4-0.6-2.5-0.6C312.4,80,312.3,80,312.3,80z"/>
				</g>
			</g>
			<g>
				<path class="st18" d="M314.1,82.6c0,0.6-0.3,1-0.7,1c-0.4,0-0.7-0.4-0.8-1c0-0.6,0.3-1,0.7-1C313.7,81.6,314.1,82,314.1,82.6z"
					/>
			</g>
			<g>
				<g>
					<path class="st18" d="M304,81.2c-0.1,0-0.1,0-0.2-0.1c-0.1-0.1-0.1-0.2,0-0.3c0.1-0.1,1.2-1.4,3-0.5c0.1,0.1,0.2,0.2,0.1,0.3
						c-0.1,0.1-0.2,0.1-0.3,0.1c-1.3-0.3-2.5,0.4-2.5,0.4C304.1,81.2,304.1,81.2,304,81.2z"/>
				</g>
			</g>
			<g>
				<path class="st18" d="M306.7,82.9c0.2,0.5,0.1,1-0.3,1.2c-0.4,0.2-0.8-0.1-1.1-0.6c-0.2-0.5-0.1-1,0.3-1.2
					C306,82.1,306.5,82.4,306.7,82.9z"/>
			</g>
			<g>
				<path class="st17" d="M308.9,69.6c0,0,0.2,4.3,5.6,5.1s9.2,3,8.4,6.9c-0.7,3.9-9.5,12-3,15.2c6.4,3.1,5.1-2.7,12-1.4
					c7,1.4,8.2-7.9,3.4-13.3s-2.9-19.7-20.8-19.1c-18,0.6-11.4,15-11.4,15S309,74.4,308.9,69.6z"/>
			</g>
			<g>
				<path class="st19" d="M321.8,97.6c-1.4-0.5-2.2-1.4-2.5-2.4c-0.8-2.9,2.6-7.3,5.6-11.2c0.8-1,1.5-2,2.2-2.9
					c1.8-2.6,2-5.5,0.4-7.8c-1.7-2.6-5-3.7-8.5-2.8c-5.4,1.3-8.7-1.1-9.7-2.6l0.1-0.1c1,1.4,4.2,3.8,9.5,2.5
					c3.6-0.8,6.9,0.3,8.7,2.9c1.6,2.4,1.4,5.4-0.4,8c-0.7,0.9-1.4,1.9-2.2,2.9c-3,3.9-6.3,8.2-5.6,11.1c0.3,1,1.1,1.8,2.4,2.3
					L321.8,97.6z"/>
			</g>
			<g>
				<g>
					<path class="st12" d="M308.5,81.9c0-0.1,0-0.2,0-0.3c0-0.1,0-0.3,0-0.4l-0.1,0.1l-0.2,0.1l0,0c0.2,1.1,0.2,2.2,0.1,3.1
						c0,0.4-0.1,0.8-0.2,1.2h0.1c0.1-0.3,0.2-0.5,0.2-0.8c0-0.1,0-0.2,0.1-0.3c0-0.1,0-0.2,0.1-0.3c0-0.1,0-0.2,0-0.3
						c0-0.1,0-0.2,0-0.4c0-0.1,0-0.2,0-0.2c0-0.1,0-0.1,0-0.2c0-0.1,0-0.1,0-0.2C308.5,82.6,308.5,82.2,308.5,81.9z M308.5,81.9
						c0-0.1,0-0.2,0-0.3c0-0.1,0-0.3,0-0.4l-0.1,0.1l-0.2,0.1l0,0c0.2,1.1,0.2,2.2,0.1,3.1c0,0.4-0.1,0.8-0.2,1.2h0.1
						c0.1-0.3,0.2-0.5,0.2-0.8c0-0.1,0-0.2,0.1-0.3c0-0.1,0-0.2,0.1-0.3c0-0.1,0-0.2,0-0.3c0-0.1,0-0.2,0-0.4c0-0.1,0-0.2,0-0.2
						c0-0.1,0-0.1,0-0.2c0-0.1,0-0.1,0-0.2C308.5,82.6,308.5,82.2,308.5,81.9z M308.5,81.9c0-0.1,0-0.2,0-0.3c0-0.1,0-0.3,0-0.4
						l-0.1,0.1l-0.2,0.1l0,0c0.2,1.1,0.2,2.2,0.1,3.1c0,0.4-0.1,0.8-0.2,1.2h0.1c0.1-0.3,0.2-0.5,0.2-0.8c0-0.1,0-0.2,0.1-0.3
						c0-0.1,0-0.2,0.1-0.3c0-0.1,0-0.2,0-0.3c0-0.1,0-0.2,0-0.4c0-0.1,0-0.2,0-0.2c0-0.1,0-0.1,0-0.2c0-0.1,0-0.1,0-0.2
						C308.5,82.6,308.5,82.2,308.5,81.9z M308.5,81.1c-0.1-0.3-0.1-0.6-0.2-0.8c0,0,0,0,0,0c0,0,0,0,0,0c0-0.1-0.1-0.3-0.1-0.4
						c-0.5-1.7-1.4-3-2.4-3.8c-0.1-0.1-0.2-0.2-0.4-0.3c0,0,0,0,0,0c-0.3-0.2-0.5-0.3-0.8-0.4c-0.2-0.1-0.5-0.1-0.7-0.2
						c-0.5-0.1-1,0-1.5,0.2c-0.1,0.1-0.3,0.1-0.4,0.2c-2.2,1.3-3,5.4-1.8,9.1c0.1,0.3,0.2,0.7,0.4,1c0.4,0.9,0.9,1.6,1.4,2.2
						c0.3,0.3,0.5,0.5,0.8,0.7c0.3,0.2,0.7,0.4,1,0.6c0.4,0.1,0.7,0.2,1.1,0.2c0.5,0,1-0.1,1.5-0.4c0,0,0,0,0,0
						c1-0.6,1.7-1.8,2.1-3.3c0.1-0.3,0.1-0.6,0.2-0.9v0c0.1-0.5,0.1-1,0.1-1.6C308.7,82.6,308.6,81.8,308.5,81.1z M300.2,83.6
						c-0.7-3.2,0.1-6.5,1.9-7.7c0.1-0.1,0.2-0.1,0.3-0.2c0.3-0.1,0.6-0.2,0.9-0.2c0,0,0,0,0,0c0.1,0,0.2,0,0.4,0
						c0.2,0,0.4,0.1,0.7,0.2c0.3,0.1,0.7,0.3,1,0.6c1,0.8,1.8,2.1,2.3,3.7c0.1,0.2,0.1,0.3,0.1,0.5c0.1,0.3,0.1,0.6,0.2,0.9
						c0.2,1.1,0.2,2.2,0.1,3.1c0,0.4-0.1,0.8-0.2,1.2c-0.3,1.3-1,2.3-1.9,2.9c0,0,0,0-0.1,0c-0.7,0.4-1.4,0.4-2.2,0.2
						c-0.3-0.1-0.7-0.3-1-0.6c-0.3-0.2-0.5-0.4-0.7-0.7c-0.4-0.5-0.8-1.1-1.2-1.8c-0.2-0.3-0.3-0.7-0.4-1.1
						C300.4,84.3,300.3,84,300.2,83.6C300.3,83.6,300.3,83.6,300.2,83.6z M308.5,81.9c0-0.1,0-0.2,0-0.3c0-0.1,0-0.3,0-0.4l-0.1,0.1
						l-0.2,0.1l0,0c0.2,1.1,0.2,2.2,0.1,3.1c0,0.4-0.1,0.8-0.2,1.2h0.1c0.1-0.3,0.2-0.5,0.2-0.8c0-0.1,0-0.2,0.1-0.3
						c0-0.1,0-0.2,0.1-0.3c0-0.1,0-0.2,0-0.3c0-0.1,0-0.2,0-0.4c0-0.1,0-0.2,0-0.2c0-0.1,0-0.1,0-0.2c0-0.1,0-0.1,0-0.2
						C308.5,82.6,308.5,82.2,308.5,81.9z M308.5,81.9c0-0.1,0-0.2,0-0.3c0-0.1,0-0.3,0-0.4l-0.1,0.1l-0.2,0.1l0,0
						c0.2,1.1,0.2,2.2,0.1,3.1c0,0.4-0.1,0.8-0.2,1.2h0.1c0.1-0.3,0.2-0.5,0.2-0.8c0-0.1,0-0.2,0.1-0.3c0-0.1,0-0.2,0.1-0.3
						c0-0.1,0-0.2,0-0.3c0-0.1,0-0.2,0-0.4c0-0.1,0-0.2,0-0.2c0-0.1,0-0.1,0-0.2c0-0.1,0-0.1,0-0.2
						C308.5,82.6,308.5,82.2,308.5,81.9z M308.5,81.9c0-0.1,0-0.2,0-0.3c0-0.1,0-0.3,0-0.4l-0.1,0.1l-0.2,0.1l0,0
						c0.2,1.1,0.2,2.2,0.1,3.1c0,0.4-0.1,0.8-0.2,1.2h0.1c0.1-0.3,0.2-0.5,0.2-0.8c0-0.1,0-0.2,0.1-0.3c0-0.1,0-0.2,0.1-0.3
						c0-0.1,0-0.2,0-0.3c0-0.1,0-0.2,0-0.4c0-0.1,0-0.2,0-0.2c0-0.1,0-0.1,0-0.2c0-0.1,0-0.1,0-0.2
						C308.5,82.6,308.5,82.2,308.5,81.9z"/>
				</g>
			</g>
			<g class="st23">
				
					<ellipse transform="matrix(0.9999 -1.371804e-02 1.371804e-02 0.9999 -1.0616 4.3354)" class="st19" cx="315.5" cy="79.6" rx="4.6" ry="6.8"/>
			</g>
			<g class="st23">
				
					<ellipse transform="matrix(0.9994 -3.486588e-02 3.486588e-02 0.9994 -2.6857 10.6604)" class="st19" cx="304.3" cy="82.3" rx="4.2" ry="6.9"/>
			</g>
			<g>
				<g>
					<path class="st12" d="M313.8,85.7c-0.4-0.2-0.9-0.5-1.2-0.9c0.1,0.1,0.1,0.1,0.2,0.2c0,0,0.1,0.1,0.1,0.1c0,0,0.1,0.1,0.1,0.1
						c0,0,0.1,0,0.1,0.1c0,0,0.1,0.1,0.1,0.1c0,0,0.1,0.1,0.1,0.1c0,0,0.1,0.1,0.1,0.1c0,0,0.1,0.1,0.1,0.1L313.8,85.7
						C313.8,85.7,313.8,85.7,313.8,85.7z M313.8,85.7c-0.4-0.2-0.9-0.5-1.2-0.9c0.1,0.1,0.1,0.1,0.2,0.2c0,0,0.1,0.1,0.1,0.1
						c0,0,0.1,0.1,0.1,0.1c0,0,0.1,0,0.1,0.1c0,0,0.1,0.1,0.1,0.1c0,0,0.1,0.1,0.1,0.1c0,0,0.1,0.1,0.1,0.1c0,0,0.1,0.1,0.1,0.1
						L313.8,85.7C313.8,85.7,313.8,85.7,313.8,85.7z M313.8,85.7c-0.4-0.2-0.9-0.5-1.2-0.9c0.1,0.1,0.1,0.1,0.2,0.2
						c0,0,0.1,0.1,0.1,0.1c0,0,0.1,0.1,0.1,0.1c0,0,0.1,0,0.1,0.1c0,0,0.1,0.1,0.1,0.1c0,0,0.1,0.1,0.1,0.1c0,0,0.1,0.1,0.1,0.1
						c0,0,0.1,0.1,0.1,0.1L313.8,85.7C313.8,85.7,313.8,85.7,313.8,85.7z M320.2,77.6c0-0.2-0.1-0.4-0.1-0.7c0-0.2-0.1-0.4-0.2-0.6
						c-0.6-1.9-1.7-3.4-3.1-4.1c-1.1-0.5-2.2-0.5-3.3,0c-0.7,0.3-1.4,0.9-1.9,1.6c-1.2,1.5-1.8,3.8-1.6,6.1c0,0.3,0.1,0.6,0.1,0.9
						c0,0.2,0.1,0.4,0.1,0.6c0.4,1.9,1.4,3.4,2.6,4.3c0.2,0.1,0.4,0.3,0.6,0.4c0.2,0.1,0.5,0.2,0.7,0.3c0.3,0.1,0.6,0.1,0.9,0.1
						c0.5,0,1.1-0.1,1.6-0.4c0.1,0,0.2-0.1,0.2-0.1c0.2-0.1,0.3-0.2,0.4-0.3c1-0.7,1.7-1.7,2.2-3c0.4-1.1,0.6-2.2,0.6-3.5
						C320.4,78.7,320.3,78.1,320.2,77.6z M310.8,81.3c0-0.2-0.1-0.3-0.1-0.5c-0.1-0.3-0.1-0.6-0.1-0.9c-0.2-2.3,0.4-4.5,1.5-5.9
						c0.5-0.6,1-1.1,1.7-1.4c0.5-0.2,0.9-0.3,1.4-0.3c0.5,0,1,0.1,1.5,0.4c0.7,0.3,1.3,0.9,1.9,1.7c0.2,0.3,0.4,0.7,0.6,1.1v0
						c0.1,0.2,0.2,0.4,0.2,0.6c0.1,0.3,0.2,0.7,0.3,1c0.1,0.3,0.1,0.5,0.1,0.8c0.3,1.7,0.1,3.4-0.5,4.8c-0.5,1.3-1.3,2.4-2.4,3
						c-0.1,0-0.2,0.1-0.2,0.1c0,0,0,0,0,0c-0.8,0.3-1.6,0.4-2.4,0.2c-0.2,0-0.3-0.1-0.5-0.2c0,0,0,0-0.1,0c-0.4-0.2-0.9-0.5-1.2-0.9
						C311.7,83.9,311.1,82.7,310.8,81.3z M313.8,85.7c-0.4-0.2-0.9-0.5-1.2-0.9c0.1,0.1,0.1,0.1,0.2,0.2c0,0,0.1,0.1,0.1,0.1
						c0,0,0.1,0.1,0.1,0.1c0,0,0.1,0,0.1,0.1c0,0,0.1,0.1,0.1,0.1c0,0,0.1,0.1,0.1,0.1c0,0,0.1,0.1,0.1,0.1c0,0,0.1,0.1,0.1,0.1
						L313.8,85.7C313.8,85.7,313.8,85.7,313.8,85.7z M313.8,85.7c-0.4-0.2-0.9-0.5-1.2-0.9c0.1,0.1,0.1,0.1,0.2,0.2
						c0,0,0.1,0.1,0.1,0.1c0,0,0.1,0.1,0.1,0.1c0,0,0.1,0,0.1,0.1c0,0,0.1,0.1,0.1,0.1c0,0,0.1,0.1,0.1,0.1c0,0,0.1,0.1,0.1,0.1
						c0,0,0.1,0.1,0.1,0.1L313.8,85.7C313.8,85.7,313.8,85.7,313.8,85.7z M313.8,85.7c-0.4-0.2-0.9-0.5-1.2-0.9
						c0.1,0.1,0.1,0.1,0.2,0.2c0,0,0.1,0.1,0.1,0.1c0,0,0.1,0.1,0.1,0.1c0,0,0.1,0,0.1,0.1c0,0,0.1,0.1,0.1,0.1c0,0,0.1,0.1,0.1,0.1
						c0,0,0.1,0.1,0.1,0.1c0,0,0.1,0.1,0.1,0.1L313.8,85.7C313.8,85.7,313.8,85.7,313.8,85.7z"/>
				</g>
			</g>
			<g>
				<g>
					<path class="st12" d="M307.7,81.5c0.1,0,0.2,0,0.3-0.1l0,0c0,0,1.1-0.9,3-0.5c0.2,0,0.5-0.1,0.5-0.3c0-0.2-0.1-0.5-0.3-0.5
						c-2.3-0.5-3.7,0.7-3.7,0.7c-0.2,0.2-0.2,0.4-0.1,0.6C307.5,81.4,307.6,81.5,307.7,81.5z"/>
				</g>
			</g>
			<g>
				<path class="st19" d="M311.5,87.9c0,0.4-0.5,0.8-1,0.8s-1-0.3-1-0.8c0-0.4,0.5-0.8,1-0.8S311.5,87.4,311.5,87.9z"/>
			</g>
		</g>
		<g>
			<path class="st21" d="M308.2,102.4L308.2,102.4c-3.2,3-10,11-14.8,29.6c-0.4,1.7-0.9,3.5-1.3,5.4c-1,4.4-1.8,9.4-2.5,14.8
				c0,0,0,0,0,0c-0.1,0.8-0.2,1.7-0.3,2.5c-0.1,1.3-0.3,2.7-0.4,4c0,0.2,0,0.3,0,0.5c-0.1,1.2-0.2,2.3-0.3,3.5c0,0.3,0,0.6-0.1,0.9
				v0c-0.1,1-0.1,1.9-0.2,2.9c0,0.4,0,0.7-0.1,1.1c0,0.8-0.1,1.7-0.1,2.5c-0.1,3.4-0.2,6.9-0.3,10.5c0,2,0,4.1,0,6.2l0.2,4.8h-13.1
				c0-3.5,0-7.2,0.1-11c0.1-6.9,0.4-14.1,0.9-21.1v0c0.4-5.5,1-10.9,1.8-16c0.2-1.4,0.4-2.7,0.7-4v0c0.3-1.8,0.7-3.6,1.1-5.3
				c0.1-0.4,0.2-0.7,0.2-1.1c0-0.2,0.1-0.4,0.1-0.5c1-4.1,2.2-7.9,3.6-11l8.3-6.5h0l7.5-5.9L308.2,102.4z"/>
		</g>
		<g>
			<path class="st24" d="M308.2,102.4C308.2,102.4,308.2,102.4,308.2,102.4C308.2,102.4,308.2,102.4,308.2,102.4L308.2,102.4z"/>
		</g>
		<g>
			<path class="st24" d="M310.1,101l-1.8,1.4C309.3,101.4,310,101,310.1,101z"/>
		</g>
		<g>
			<path class="st21" d="M365,192h-45.7c-0.1-4.7-0.2-9.8-0.2-15.1c0-0.3,0-0.6,0-0.8c0-2.5,0-5,0-7.5c0-4.3,0.2-8.5,0.5-12.6v0
				c0.6-9.7,1.8-18.9,3.2-26.8c2.4-14.3,5.2-24.8,6.1-27.8c0.2-0.6,0.3-0.9,0.3-0.9l29.5,16.3c0,0,0,0,0,0l0.3,0.2c0,0,0,0,0,0
				l2.2,27.4L365,192z"/>
		</g>
		<g>
			<path class="st21" d="M329.1,100.3c0,0,24.1,2.4,29.8,16.5l-6.4,5.1l-12.2-2.6L329.1,100.3z"/>
		</g>
		<g>
			<path class="st21" d="M310.1,101c0,0-6.2,0.3-13.1,4.7c-4.7,3-16,19.1-31.8,30.9c-9,6.8-7.8,20.7,2.4,25.7l0,0
				c0,0,21.3-4.8,22.1-10C295.4,116.5,310.1,101,310.1,101z"/>
		</g>
		<g>
			<g>
				<path class="st25" d="M299.4,181h-31.6c-1.4,0-2.5-0.9-2.8-2.3l-9.4-42.3c-0.4-1.7,0.9-3.4,2.7-3.4h30.2c1.5,0,2.9,1.1,3.2,2.6
					l9.6,43.1C301.5,179.9,300.6,181,299.4,181z"/>
			</g>
			<g>
				<g>
					<g>
						<path class="st16" d="M307,163.3c0,0-8.9-9-13.7-9.1c-4.9-0.1-11.1,3.5-8.1,4.2c3,0.7,7.1,0.5,7.1,0.5s-8.7,0.8-7.6,2.7
							c1.1,2,8.6,1.2,8.6,1.2s-10.3,1.8-8.7,3.3c1.6,1.5,9.4,0.1,9.4,0.1s-9.5,2-7.6,3.7c1.9,1.7,7.8-1.7,8.9,0.2
							c1.1,2,9,8.9,14.8,6.6L307,163.3z"/>
					</g>
				</g>
				<g>
					<path class="st20" d="M295.7,159.5c-1-0.9-3.4-0.4-3.4-0.4l-0.1-0.3c0.1,0,2.5-0.6,3.7,0.5L295.7,159.5z"/>
				</g>
				<g>
					<path class="st20" d="M297.4,163.5c-1.8-1.1-4.1-0.5-4.1-0.5l-0.1-0.3c0.1,0,2.5-0.6,4.4,0.5L297.4,163.5z"/>
				</g>
				<g>
					<path class="st20" d="M297.8,166.8c-1-1.1-3.8-0.4-3.8-0.4l-0.1-0.3c0.1,0,3-0.7,4.2,0.5L297.8,166.8z"/>
				</g>
			</g>
			<g>
				<path class="st17" d="M279.9,134.2c0,0-1.2-2.7-1.5-3c-0.3-0.3-14.6-0.2-14.5,0.5c0.1,0.7,0.7,2.6,2,3
					C267.2,135.1,280.5,135.4,279.9,134.2z"/>
			</g>
		</g>
		<g>
			<g>
				<path class="st21" d="M356.2,154.8c12.2-17.7,3-37.2,2.8-38c0,0-1-1.5-10.7,2.2c-9.7,3.7-9.1,6-9.1,6s0.8,27.9-34.1,36.5
					c0,0-1.5,2.3-0.5,8.1c1.2,6.6,4.6,8.6,4.6,8.6C314.6,177.7,341.9,175.6,356.2,154.8z"/>
			</g>
		</g>
		<g>
			<path class="st10" d="M319,176.2c-0.1,0-0.2-0.1-0.3-0.2c0-0.1,0.1-0.3,0.2-0.3c16.9-2.3,27.3-10.6,33.1-17.2
				c6.3-7.1,8.6-13.7,8.6-13.7c0-0.1,0.2-0.2,0.3-0.2c0.1,0,0.2,0.2,0.2,0.3c0,0.1-2.4,6.8-8.7,13.9
				C346.6,165.5,336.1,173.9,319,176.2C319,176.2,319,176.2,319,176.2z"/>
		</g>
		<g>
			<path class="st10" d="M319.6,156.1c-0.1,0-0.2,0-0.2-0.1c-0.1-0.1,0-0.3,0.1-0.3c14.2-7.6,16.3-21,16.4-21.1
				c0-0.1,0.2-0.2,0.3-0.2c0.1,0,0.2,0.2,0.2,0.3c0,0.1-2.2,13.7-16.6,21.5C319.7,156.1,319.7,156.1,319.6,156.1z"/>
		</g>
	</g>
	<g>
		<path class="st10" d="M227.9,176.2c-0.5,0-1,0-1.5,0c-7.9-0.4-17.3-3.9-17.9-12.8l0.6,0c0.6,8.5,9.7,11.9,17.3,12.2
			c9.5,0.5,20.2-3.4,21.6-11.3c1.3-8.1-5-13.8-11.1-19.2c-5-4.5-9.8-8.7-10-14c-0.3-7.9,7.1-10.2,13-12.1c2.9-0.9,5.6-1.8,6.8-3.1
			c0.9-1.1,1.3-2.2,1.2-3.4c-0.2-2.5-2.7-4.5-2.7-4.5l0.4-0.5c0.1,0.1,2.7,2.1,2.9,4.9c0.1,1.4-0.3,2.7-1.4,3.9
			c-1.3,1.5-4,2.3-7.1,3.3c-6,1.9-12.8,4-12.6,11.5c0.2,5.1,4.8,9.2,9.8,13.6c6.2,5.5,12.7,11.2,11.3,19.7
			C247.3,172.2,237.2,176.2,227.9,176.2z"/>
	</g>
	<g>
		<path class="st10" d="M246.6,124.8c0,0-3,6.8-1.3,6.8c1.6,0,3.8-3.1,3.8-3.1L246.6,124.8z"/>
	</g>
</g>
</svg>
