<?xml version="1.0" encoding="utf-8"?>
<!-- Generator: Adobe Illustrator 25.3.1, SVG Export Plug-In . SVG Version: 6.00 Build 0)  -->
<svg version="1.1" id="Illustration" xmlns="http://www.w3.org/2000/svg" xmlns:xlink="http://www.w3.org/1999/xlink" x="0px"
	 y="0px" viewBox="0 0 330 330" style="enable-background:new 0 0 330 330;" xml:space="preserve">
<style type="text/css">
	.st0{fill:#F4F7FA;}
	.st1{fill:url(#SVGID_1_);}
	.st2{clip-path:url(#SVGID_3_);}
	.st3{fill:#FCFDFE;}
	.st4{clip-path:url(#SVGID_7_);fill:url(#SVGID_8_);}
	.st5{clip-path:url(#SVGID_7_);}
	.st6{fill:#BFC8D6;}
	.st7{fill:#FFFFFF;}
	.st8{fill:#D8DEE8;}
	.st9{opacity:0.48;fill:#FFFFFF;}
	.st10{fill:url(#SVGID_11_);}
	.st11{opacity:0.75;}
	.st12{clip-path:url(#SVGID_13_);}
	.st13{fill:url(#SVGID_14_);}
	.st14{fill:url(#SVGID_15_);}
	.st15{opacity:0.3;fill:url(#SVGID_16_);}
	.st16{clip-path:url(#SVGID_13_);fill:url(#SVGID_17_);}
	.st17{fill:url(#SVGID_18_);}
	.st18{fill:url(#SVGID_19_);}
	.st19{fill:url(#SVGID_20_);}
	.st20{fill:url(#SVGID_21_);}
	.st21{fill:url(#SVGID_22_);}
	.st22{opacity:0.3;clip-path:url(#SVGID_13_);fill:url(#SVGID_23_);}
	.st23{clip-path:url(#SVGID_13_);fill:url(#SVGID_24_);}
	.st24{clip-path:url(#SVGID_13_);fill:url(#SVGID_25_);}
	.st25{fill:url(#SVGID_26_);}
	.st26{fill:url(#SVGID_27_);}
	.st27{opacity:0.3;}
	.st28{fill:url(#SVGID_28_);}
	.st29{fill:url(#SVGID_29_);}
	.st30{fill:url(#SVGID_30_);}
	.st31{fill:url(#SVGID_31_);}
	.st32{fill:url(#SVGID_32_);}
	.st33{fill:url(#SVGID_33_);}
	.st34{fill:url(#SVGID_34_);}
	.st35{fill:url(#SVGID_35_);}
	.st36{fill:url(#SVGID_36_);}
	.st37{fill:url(#SVGID_37_);}
	.st38{fill:url(#SVGID_38_);}
	.st39{fill:url(#SVGID_39_);}
	.st40{opacity:0.3;fill:url(#SVGID_40_);}
	.st41{fill:url(#SVGID_41_);}
	.st42{fill:url(#SVGID_42_);}
	.st43{opacity:0.3;fill:url(#SVGID_43_);}
	.st44{fill:url(#SVGID_44_);}
	.st45{fill:url(#SVGID_45_);}
	.st46{fill:url(#SVGID_46_);}
	.st47{fill:url(#SVGID_47_);}
	.st48{fill:url(#SVGID_48_);}
	.st49{fill:url(#SVGID_49_);}
	.st50{fill:url(#SVGID_50_);}
	.st51{fill:url(#SVGID_51_);}
	.st52{fill:url(#SVGID_52_);}
	.st53{fill:url(#SVGID_53_);}
	.st54{fill:url(#SVGID_54_);}
	.st55{fill:url(#SVGID_55_);}
	.st56{fill:url(#SVGID_56_);}
	.st57{fill:url(#SVGID_57_);}
	.st58{opacity:0.3;fill:url(#SVGID_58_);}
	.st59{fill:url(#SVGID_59_);}
	.st60{fill:url(#SVGID_60_);}
	.st61{fill:url(#SVGID_61_);}
	.st62{fill:url(#SVGID_62_);}
	.st63{fill:url(#SVGID_63_);}
	.st64{fill:url(#SVGID_64_);}
	.st65{fill:url(#SVGID_65_);}
	.st66{fill:url(#SVGID_66_);}
	.st67{opacity:0.3;fill:url(#SVGID_67_);}
	.st68{fill:url(#SVGID_68_);}
	.st69{opacity:0.3;fill:url(#SVGID_69_);}
	.st70{fill:url(#SVGID_70_);}
	.st71{fill:url(#SVGID_71_);}
	.st72{fill:url(#SVGID_72_);}
	.st73{fill:url(#SVGID_73_);}
	.st74{fill:url(#SVGID_74_);}
	.st75{fill:url(#SVGID_75_);}
	.st76{fill:url(#SVGID_76_);}
	.st77{fill:url(#SVGID_77_);}
	.st78{fill:url(#SVGID_78_);}
	.st79{fill:url(#SVGID_79_);}
	.st80{fill:url(#SVGID_80_);}
	.st81{fill:url(#SVGID_81_);}
	.st82{fill:url(#SVGID_82_);}
	.st83{fill:#26264F;}
	.st84{fill:url(#SVGID_83_);}
	.st85{fill:url(#SVGID_84_);}
	.st86{opacity:0.3;fill:url(#SVGID_85_);}
	.st87{fill:url(#SVGID_86_);}
	.st88{fill:url(#SVGID_87_);}
</style>
<g>
	<path class="st0" d="M265.9,273.5c-7.8,8-14.7,12.7-20.1,16.3c-52,34.7-111.5,24.7-129.8,21.3c-29.7-5.5-54.7-9.4-76.2-28.8
		C-9.1,238.1-6.7,146,30.6,89c4.4-6.8,41.7-62,101.3-69.8c1.5-0.2,2.5-0.3,3.5-0.4c9.2-1,66.3-6.1,112.9,32.9
		c6.7,5.6,17.4,15.7,27.3,31C312,138.8,312.1,225.8,265.9,273.5z"/>
	<g>
		<g>
			<g>
				
					<linearGradient id="SVGID_1_" gradientUnits="userSpaceOnUse" x1="-5832.6011" y1="-5503.7544" x2="-5778.7969" y2="-5159.7915" gradientTransform="matrix(0.583 -0.8125 0.8125 0.583 7866.4199 -1418.5405)">
					<stop  offset="0" style="stop-color:#FF9085"/>
					<stop  offset="1" style="stop-color:#FB6FBB"/>
				</linearGradient>
				<path class="st1" d="M139.8,211.8c1.8-0.8,4.9-4.2,5.4-5.5c3-8.1,9.6-23,6.3-31.6c-0.6-1.5-7.7-0.7-9-1.8
					c-4.6-0.6-6.3-0.5-10.4-3.3c-12.2-8.1,0.9-35-24.4-34.7c-18.5,0.2-30.9,10.6-37.5-16.1C63.4,92.1,27.3,51.2,5.6,78.4
					C-6.9,94,16.4,111,13.5,130c-2.7,18.1,8.1,28.8,27.6,32.8c19.6,4,13.1,14,13,30.4c0,19.7,28.4,14,41.2,10.2
					C105.8,200.4,134.2,199.7,139.8,211.8z"/>
				<g>
					<defs>
						<path id="SVGID_2_" d="M154.9,171.2c0,13.5,0.5,27.3,0.6,40.9c-7.1,3-15.6,6.3-20.1-2.2c-6.3-11.8-29.6-9.6-40-6.5
							c-12.8,3.8-41.2,9.4-41.2-10.2c0-16.4,6.5-26.4-13-30.4c-19.6-4-30.3-14.7-27.6-32.8c2.8-19-20.4-36.1-8-51.6
							C27.3,51.2,63.4,92.2,70,118.9c6.6,26.7,19.1,16.4,37.5,16.1c25.2-0.4,12.5,27.1,24.3,34.5C141,175.4,145.8,172.3,154.9,171.2
							z"/>
					</defs>
					<clipPath id="SVGID_3_">
						<use xlink:href="#SVGID_2_"  style="overflow:visible;"/>
					</clipPath>
					<g class="st2">
						<path class="st3" d="M148.3,191.4c-16.4-2.3-32.3-7.1-47-14.3c-14.2-6.9-27.5-16-39.4-27C38.6,128.7,20.7,100.4,10,68.2
							l0.3-0.1c10.7,32.1,28.5,60.4,51.7,81.7c11.9,11,25.2,20,39.4,26.9c14.8,7.2,30.5,12,46.9,14.3L148.3,191.4z"/>
						<path class="st3" d="M53.2,201.4l-0.2-0.3c14.3-10.4,41-19.2,59.6-19.6l0,0.4C94.1,182.2,67.5,191,53.2,201.4z"/>
						<path class="st3" d="M135.8,189.4c-8.9-4-15.4-12.3-19.4-24.6c-2.9-9-4.4-20-4.5-32.6l0.4,0c0.1,12.5,1.6,23.5,4.5,32.5
							c3.9,12.3,10.4,20.5,19.2,24.4L135.8,189.4z"/>
						<path class="st3" d="M58.6,146.9c-16-8.2-34.8-5.7-47.8-2.2l-0.1-0.4c13-3.6,31.9-6.1,48,2.2L58.6,146.9z"/>
						<path class="st3" d="M32.2,114.9c-3-7.5-4.3-16-3.7-25.3c0.5-8.1,2.5-16.8,5.7-25.2l0.3,0.1c-9.4,24.8-5.3,42.2-2,50.3
							L32.2,114.9z"/>
					</g>
				</g>
			</g>
		</g>
		<g>
			<g>
				<defs>
					<path id="SVGID_4_" d="M95.9,234.1c9.9-1.5,19.8-3.1,29.7-5.1c0.2,0.1,3.4-21.4-6.8-32.7c-20.2-21.9-6.6-41.5-2.7-53.1
						c6.2-16.4,3-36.3-15-32.6c-17.6,3.2-20.3-33-17.2-60.9c2.6-13.6-10.2-30.1-23-33.8c-13.1-4.2-26.1,4.4-30.1,31.5
						c-6,31.4,16.8,50.3,25.3,66c8.3,15.4-11.1,27.9,4.6,41.6c13.1,12.2,29.7,20.9,23.6,36.1C77.9,206.2,79.4,218.5,95.9,234.1z"/>
				</defs>
				<clipPath id="SVGID_5_">
					<use xlink:href="#SVGID_4_"  style="overflow:visible;"/>
				</clipPath>
			</g>
			<g>
				<defs>
					<path id="SVGID_6_" d="M95.9,234.1c9.9-1.5,19.8-3.1,29.7-5.1c0.2,0.1,3.4-21.4-6.8-32.7c-20.2-21.9-6.6-41.5-2.7-53.1
						c6.2-16.4,3-36.3-15-32.6c-17.6,3.2-20.3-33-17.2-60.9c2.6-13.6-10.2-30.1-23-33.8c-13.1-4.2-26.1,4.4-30.1,31.5
						c-6,31.4,16.8,50.3,25.3,66c8.3,15.4-11.1,27.9,4.6,41.6c13.1,12.2,29.7,20.9,23.6,36.1C77.9,206.2,79.4,218.5,95.9,234.1z"/>
				</defs>
				<clipPath id="SVGID_7_">
					<use xlink:href="#SVGID_6_"  style="overflow:visible;"/>
				</clipPath>
				
					<linearGradient id="SVGID_8_" gradientUnits="userSpaceOnUse" x1="-2627.5706" y1="-2688.675" x2="-2698.6938" y2="-2486.5352" gradientTransform="matrix(0.8674 -0.4976 0.4976 0.8674 3677.7427 1044.9712)">
					<stop  offset="0" style="stop-color:#FFC444"/>
					<stop  offset="0.9964" style="stop-color:#F36F56"/>
				</linearGradient>
				<path class="st4" d="M95.9,234.1c9.9-1.5,19.8-3.1,29.7-5.1c0.2,0.1,3.4-21.4-6.8-32.7c-20.2-21.9-6.6-41.5-2.7-53.1
					c6.2-16.4,2.9-34.1-13.8-34.4c-18.5-0.7-21.9-31.3-18.5-59.1c2.6-13.6-10.2-30.1-23-33.8c-13.1-4.2-26.1,4.4-30.1,31.5
					c-6,31.4,16.8,50.3,25.3,66c8.3,15.4-11.1,27.9,4.6,41.6c13.1,12.2,29.7,20.9,23.6,36.1C77.9,206.2,79.4,218.5,95.9,234.1z"/>
				<g class="st5">
					<path class="st3" d="M109.2,235.4C109,234,99,188.2,83.4,146c-2.3-7.2-4.7-14.3-7.1-21.3c-6.3-18.7-12.9-38-16-57.2
						C56.8,46,58,26.6,64.1,8.2l0.3,0.1c-6,18.3-7.3,37.6-3.8,59.1c3.1,19.2,9.7,38.5,16,57.1c2.4,7,4.8,14.2,7.1,21.3
						c16.3,44.1,25.8,89.4,25.8,89.6L109.2,235.4l0.2,0L109.2,235.4z"/>
					<path class="st3" d="M64.8,88.5C53.8,76.2,40.5,58.8,33.3,49.4c-3.1-4-5.5-7.2-5.8-7.4l0.1-0.1l0-0.2c0.2,0,0.5,0.2,6,7.5
						c7.2,9.4,20.5,26.8,31.5,39.1L64.8,88.5z"/>
					<path class="st3" d="M61.5,71.7l-0.4-0.1C62.9,60.9,67,51.2,73,43.7c4.8-6,9.4-8.8,10.6-9.3c0.3-0.1,0.4-0.1,0.5-0.1l-0.2,0.3
						c0,0,0.1,0,0.1,0c-0.5,0-5,2.6-9.9,8.4C69.6,48.3,63.8,57.6,61.5,71.7z"/>
					<path class="st3" d="M93.1,174.7c-1.6-13.2,1.5-27.3,9.1-42c4-7.7,9-15.2,15-22.3c0.3-0.4,0.6-0.7,0.6-0.7l0.3,0.2
						c0,0.1-0.2,0.3-0.6,0.8c-6,7.1-11,14.6-15,22.3c-7.6,14.7-10.6,28.8-9.1,41.8L93.1,174.7z"/>
					<path class="st3" d="M88.6,160.9c-11.7-18.9-36.3-20.3-36.7-20.3c0,0,0,0,0,0l0-0.2l-0.1,0.2l-0.1-0.2l0.1-0.2c0,0,0,0,0,0
						c1.1,0,25.4,1.6,37.1,20.4L88.6,160.9z"/>
					<path class="st3" d="M107.5,228c-0.2-5.8,1.8-15.6,12.8-29.6c0.3-0.3,0.5-0.6,0.5-0.7l0.1,0.1l0.2,0c0,0.1,0,0.1-0.6,0.9
						c-10.9,13.9-12.9,23.6-12.7,29.3L107.5,228z"/>
					<path class="st3" d="M105,217.3c-1.2-4.3-6.1-12.6-25-20.8c-0.3-0.1-0.5-0.2-0.5-0.2l0.2-0.3c0.1,0,0.2,0.1,0.5,0.2
						c19,8.2,23.9,16.7,25.2,21L105,217.3z"/>
				</g>
			</g>
			<g>
				<defs>
					<path id="SVGID_9_" d="M95.9,234.1c9.9-1.5,19.8-3.1,29.7-5.1c0.2,0.1,3.4-21.4-6.8-32.7c-20.2-21.9-6.6-41.5-2.7-53.1
						c6.2-16.4,3-36.3-15-32.6c-17.6,3.2-20.3-33-17.2-60.9c2.6-13.6-10.2-30.1-23-33.8c-13.1-4.2-26.1,4.4-30.1,31.5
						c-6,31.4,16.8,50.3,25.3,66c8.3,15.4-11.1,27.9,4.6,41.6c13.1,12.2,29.7,20.9,23.6,36.1C77.9,206.2,79.4,218.5,95.9,234.1z"/>
				</defs>
				<clipPath id="SVGID_10_">
					<use xlink:href="#SVGID_9_"  style="overflow:visible;"/>
				</clipPath>
			</g>
		</g>
	</g>
	<g>
		<g>
			<path class="st6" d="M271.2,218.3l-231.1-2v6c0,1.6,1,3,2.4,3.3l65.4,11.8c0.8,0.1,1.6,0.2,2.3,0.1L268.7,224
				c1.4-0.1,2.5-1.5,2.5-3.2V218.3z"/>
			<g>
				<path class="st6" d="M187.4,208.5l-144.9,11c-2.6,0.2-4.7-1.9-4.7-4.7V103.6c0-2.8,2.1-5,4.7-5h144.9c2.1,0,3.9,2,3.9,4.5v100.6
					C191.2,206.2,189.5,208.4,187.4,208.5z"/>
				<path class="st7" d="M189.7,208.5l-144.9,11c-2.6,0.2-4.7-1.9-4.7-4.7V103.6c0-2.8,2.1-5,4.7-5h144.9c2.1,0,3.9,2,3.9,4.5v100.6
					C193.5,206.2,191.8,208.4,189.7,208.5z"/>
				<path class="st8" d="M185.2,201.5L50.2,211c-2.1,0.1-3.8-1.6-3.8-3.8v-97.4c0-2.3,1.7-4.1,3.8-4.1l134.9-0.6
					c1.8,0,3.2,1.7,3.2,3.7v88.7C188.3,199.6,186.9,201.3,185.2,201.5z"/>
				<path class="st7" d="M122.4,101.6c0,1-0.7,1.9-1.7,1.9c-0.9,0-1.7-0.8-1.7-1.9c0-1,0.7-1.9,1.7-1.9
					C121.6,99.8,122.4,100.6,122.4,101.6z"/>
				<path class="st9" d="M154.8,178c-11.2-6.5-19.9,1.7-28.4-6.3c-5.1-4.9-2.6-8.5-8.9-15.9c-7-8.1-11.6-5.4-18.6-12.7
					c-8.9-9.2-4.4-16.4-12.1-23c-9.3-8-19.3-0.6-28.2-8.3c-3.8-3.3-5.9-8.1-7-13.3h-8.7c-1.5,0-2.7,1.3-2.7,3v115.3
					c0,1.6,1.2,2.9,2.7,2.7l147.6-11.3c0.7-0.1,1.4-0.5,1.8-1.2c-10.8-0.4-17.4-4.3-21.7-8.3C162.3,191,163.7,183.2,154.8,178z"/>
			</g>
			<linearGradient id="SVGID_11_" gradientUnits="userSpaceOnUse" x1="40.1099" y1="220.0169" x2="271.2411" y2="220.0169">
				<stop  offset="0.494" style="stop-color:#EBEFF2"/>
				<stop  offset="1" style="stop-color:#FFFFFF"/>
			</linearGradient>
			<path class="st10" d="M195.4,208L40.1,219.6l67.7,12.3c0.8,0.1,1.6,0.2,2.3,0.1l161.1-13.7l-73.3-10.2
				C197.1,208,196.3,208,195.4,208z"/>
			<polygon class="st8" points="62.8,219.9 192.1,210.1 232.1,215.6 103.9,226.1 			"/>
			<g class="st11">
				<polygon class="st7" points="73.9,113.3 59.1,113.4 59.1,108.6 73.9,108.6 				"/>
				<polygon class="st7" points="151.8,113 83.4,113.3 83.4,108.6 151.8,108.6 				"/>
				<polygon class="st7" points="97.7,121.2 83.4,121.3 83.4,116.6 97.7,116.5 				"/>
				<polygon class="st7" points="172.9,120.5 106.8,121.1 106.8,116.5 172.9,116.1 				"/>
				<polygon class="st7" points="97.7,129.2 83.4,129.4 83.4,124.7 97.7,124.5 				"/>
				<polygon class="st7" points="172.9,128 106.8,129 106.8,124.4 172.9,123.6 				"/>
				<polygon class="st7" points="73.9,137.7 59.1,138 59.1,133.2 73.9,132.9 				"/>
				<polygon class="st7" points="151.8,136 83.4,137.5 83.4,132.8 151.8,131.5 				"/>
				<polygon class="st7" points="97.7,145.2 83.4,145.5 83.4,140.8 97.7,140.5 				"/>
				<polygon class="st7" points="172.9,143.1 106.8,144.9 106.8,140.3 172.9,138.7 				"/>
				<polygon class="st7" points="97.7,153.1 83.4,153.6 83.4,148.9 97.7,148.5 				"/>
				<polygon class="st7" points="172.9,150.6 106.8,152.8 106.8,148.2 172.9,146.2 				"/>
				<polygon class="st7" points="97.7,161.1 83.4,161.7 83.4,157 97.7,156.4 				"/>
				<polygon class="st7" points="172.9,158.2 106.8,160.8 106.8,156.1 172.9,153.8 				"/>
				<polygon class="st7" points="120.9,168.1 107,168.7 107,164 120.9,163.5 				"/>
				<polygon class="st7" points="183,165.2 129.7,167.7 129.7,163.1 183,160.9 				"/>
				<polygon class="st7" points="73.9,178.3 59.1,179.1 59.1,174.3 73.9,173.5 				"/>
				<polygon class="st7" points="151.8,174.3 83.4,177.8 83.4,173.1 151.8,169.8 				"/>
				<polygon class="st7" points="97.7,185.1 83.4,185.9 83.4,181.2 97.7,180.4 				"/>
				<polygon class="st7" points="172.9,180.8 106.8,184.5 106.8,179.9 172.9,176.4 				"/>
				<polygon class="st7" points="97.7,193.1 83.4,194 83.4,189.2 97.7,188.4 				"/>
				<polygon class="st7" points="172.9,188.3 106.8,192.5 106.8,187.8 172.9,183.9 				"/>
				<polygon class="st7" points="73.9,202.7 59.1,203.7 59.1,198.9 73.9,197.9 				"/>
				<polygon class="st7" points="151.8,197.3 83.4,202 83.4,197.3 151.8,192.8 				"/>
			</g>
		</g>
		<g>
			<defs>
				<polygon id="SVGID_12_" points="66.5,209.8 196.1,200.8 238.3,183.1 277.4,132.2 137.6,68.5 17.9,98.6 23.2,219.5 				"/>
			</defs>
			<clipPath id="SVGID_13_">
				<use xlink:href="#SVGID_12_"  style="overflow:visible;"/>
			</clipPath>
			<g class="st12">
				
					<linearGradient id="SVGID_14_" gradientUnits="userSpaceOnUse" x1="-473.7749" y1="-349.2328" x2="-481.4322" y2="-318.805" gradientTransform="matrix(-0.3992 -0.9169 -0.9169 0.3992 -249.7934 -164.2051)">
					<stop  offset="0" style="stop-color:#FFC444"/>
					<stop  offset="0.9964" style="stop-color:#F36F56"/>
				</linearGradient>
				<path class="st13" d="M246.4,139.3c0,0,2.3-2.9,6.6-3c4.3-0.2,10.2-2.9,12.7-3.1c0.6-0.1,0.9-0.2,1-0.5c0.1-0.5-2.7-1.1-5.2-1.2
					c-4.4-0.1-7,1.7-7.6,0.8c-0.7-1,2.2-3.7,1.7-4.4c-0.4-0.5-2.3,1.1-4.4,2c-1.5,0.7-7.2,7.8-7.2,7.8L246.4,139.3z"/>
				<linearGradient id="SVGID_15_" gradientUnits="userSpaceOnUse" x1="237.5274" y1="102.2562" x2="184.2732" y2="155.8853">
					<stop  offset="0" style="stop-color:#AA80F9"/>
					<stop  offset="0.9964" style="stop-color:#6165D7"/>
				</linearGradient>
				<path class="st14" d="M249.5,138.1c-0.4,17.1-8.6,32.7-21.9,40.3c-0.5,0.3-1.1,0.6-1.7,0.9c-24.3,12.4-48.6-8.6-51.5-11.2
					c-0.8-0.7-4.4-4-8.2-9.5c-4.3-6.2-8.7-15.1-9.5-26.2c-0.3-4.5-1.3-18.3,5.9-22.5c7.4-4.3,19.1,4,23.8,7.4
					c20.1,14.3,20.6,31.9,31.7,33.7c5,0.8,12.8-1.4,24.7-17.5C245.1,135.2,247.3,136.7,249.5,138.1z"/>
				<linearGradient id="SVGID_16_" gradientUnits="userSpaceOnUse" x1="192.2991" y1="176.2064" x2="202.5684" y2="152.4781">
					<stop  offset="0" style="stop-color:#AA80F9"/>
					<stop  offset="0.9964" style="stop-color:#6165D7"/>
				</linearGradient>
				<path class="st15" d="M227.6,178.4c-0.5,0.3-1.1,0.6-1.7,0.9c-24.3,12.4-48.6-8.6-51.5-11.2c-0.8-0.7-4.4-4-8.2-9.5
					c1.2-5.3,2.8-12.4,2.8-12.4s10.4-1.3,15.4,11c1.8,4.5,3.9,8.8,7.6,11.9c3.7,3.2,6.5,2.7,11.2,2c4.3-0.7,8.7,2.6,12.4,4.2
					C219.4,177,223.3,178.7,227.6,178.4z"/>
			</g>
			<linearGradient id="SVGID_17_" gradientUnits="userSpaceOnUse" x1="93.3826" y1="228.2483" x2="166.5618" y2="59.1596">
				<stop  offset="0" style="stop-color:#AA80F9"/>
				<stop  offset="0.9964" style="stop-color:#6165D7"/>
			</linearGradient>
			<path class="st16" d="M64.6,112.8c14.8-5.1,37.3-10.7,65-9.3c16.1,0.8,31.5,2.7,42.5,6c1.5,8.6,1.4,18.3,2.8,26.9
				c0.3,8.6,0.5,20.3-0.5,34c-0.9,13.8-1.9,13.9-4,33.3c-3.5,31.6-2,39.9-8.2,43.6c-4,2.4-5.4-0.6-25.8-3c-13.7-1.6-20.6-2.4-27.5,0
				c-9.4,3.2-12.5,8.6-16.4,6.8c-3.7-1.8-4.2-8.4-4.6-20c-0.7-17.9-0.6-30-0.7-34.4c-0.3-19.9-5.2-35.2-11.4-54.8
				C71.8,129.7,67.7,119.8,64.6,112.8z"/>
			<g class="st12">
				
					<linearGradient id="SVGID_18_" gradientUnits="userSpaceOnUse" x1="666.3016" y1="-637.2265" x2="668.1684" y2="-686.9509" gradientTransform="matrix(0.8944 0.4471 -0.4471 0.8944 -763.036 394.1389)">
					<stop  offset="0" style="stop-color:#FFC444"/>
					<stop  offset="0.463" style="stop-color:#FFC244"/>
					<stop  offset="0.6297" style="stop-color:#FEBB46"/>
					<stop  offset="0.7486" style="stop-color:#FCB048"/>
					<stop  offset="0.8447" style="stop-color:#FA9F4C"/>
					<stop  offset="0.9261" style="stop-color:#F78951"/>
					<stop  offset="0.9964" style="stop-color:#F36F56"/>
				</linearGradient>
				<path class="st17" d="M127.7,83.7c-0.2,5-1,9-1.6,11.7c-0.7,3.1-1.2,3.9-1.8,4.5c-0.9,0.9-2.1,1.7-9.2,3
					c-3.8,0.7-4.3,0.7-4.4,1.1c-0.5,1.9,9.5,9,20.2,8.1c6.6-0.5,12.7-4,12.5-6.1c-0.3-2.1-6.8-1.4-8.6-5.2c-1.2-2.6,0.5-6.2,2.4-9.1
					C135.7,88.3,129.3,87.2,127.7,83.7z"/>
				<g>
					
						<linearGradient id="SVGID_19_" gradientUnits="userSpaceOnUse" x1="-2197.7781" y1="64.1872" x2="-2211.6753" y2="28.8909" gradientTransform="matrix(-0.9515 -0.3078 -0.3078 0.9515 -1957.9249 -631.0843)">
						<stop  offset="0" style="stop-color:#311944"/>
						<stop  offset="1" style="stop-color:#6B3976"/>
					</linearGradient>
					<path class="st18" d="M140.7,88.4c2.3-1.7,3.7-5.5,2.6-8.5c-0.9-2.6-3.3-3.8-4.7-4.4c-4.2-2-10.2-1.9-13.5,1.6
						c-1.9,2.1-1.1,8-1.1,9c0.1,1.2,0.8,1.8,1.2,2.8c0.6,1.4,1.7,3.7,3.3,7.4c0.5-0.8,1.1-1.7,2-2.7c0.3-0.4,1.6-1.8,3.2-2.9
						C136.9,88.6,138.5,90,140.7,88.4z"/>
					
						<linearGradient id="SVGID_20_" gradientUnits="userSpaceOnUse" x1="230.8408" y1="109.2813" x2="230.1973" y2="161.127" gradientTransform="matrix(0.9685 0.249 -0.249 0.9685 -63.4039 -77.3415)">
						<stop  offset="0" style="stop-color:#FFC444"/>
						<stop  offset="0.9964" style="stop-color:#F36F56"/>
					</linearGradient>
					<path class="st19" d="M125.7,92.6c0,0,1.3,5.8,7.1,7.3c5.2,1.4,9.8-10.2,7.3-13.8c-0.8-1.2-2.9-2.3-4.8-2.4
						c-1.1,0-1.6,0.3-3.5,0.2c-1.7-0.1-2.1-0.4-2.7-0.2c-0.8,0.3-1.6,1.4-1.7,5.2c-0.6-1.3-1.7-2.1-2.6-2c-0.2,0-0.6,0.1-0.9,0.5
						C122.7,88.6,123.3,90.7,125.7,92.6z"/>
					
						<linearGradient id="SVGID_21_" gradientUnits="userSpaceOnUse" x1="-2201.947" y1="66.1189" x2="-2216.0496" y2="30.301" gradientTransform="matrix(-0.9515 -0.3078 -0.3078 0.9515 -1957.9249 -631.0843)">
						<stop  offset="0" style="stop-color:#311944"/>
						<stop  offset="1" style="stop-color:#6B3976"/>
					</linearGradient>
					<path class="st20" d="M129.1,83c0.2,0.3-0.9,1-1.4,2.3c-1,2.6,0.6,6.5,3.1,7.7c1.5,0.7,2.2-0.1,4.8,0.4c1.6,0.4,2.9,1,3.6,1.5
						c-0.1,3.1-1.8,5.7-4.1,6.4c-2.4,0.8-4.7-1-5.6-1.7c-0.6-0.5-2.6-2-3.1-4.6c-0.5-2.7,1.1-3.6,0.2-5.6c-0.5-1-1.3-1.7-1.7-3.4
						c-0.1-0.5-0.2-0.9-0.2-1.2C126.5,83.8,128.8,82.6,129.1,83z"/>
					
						<linearGradient id="SVGID_22_" gradientUnits="userSpaceOnUse" x1="-2215.5076" y1="44.6819" x2="-2214.7915" y2="51.0659" gradientTransform="matrix(-0.9515 -0.3078 -0.3078 0.9515 -1957.9249 -631.0843)">
						<stop  offset="0" style="stop-color:#FFC444"/>
						<stop  offset="1" style="stop-color:#F36F56"/>
					</linearGradient>
					<path class="st21" d="M137,95.3c0,0-1.3,0.2-3.1-0.5c-0.1,0-0.2,0-0.2,0c-0.1,0.2,0.8,1.4,2.1,1.5c0.9,0,1.7-0.5,1.7-0.8
						C137.4,95.4,137.2,95.4,137,95.3z"/>
				</g>
			</g>
			<linearGradient id="SVGID_23_" gradientUnits="userSpaceOnUse" x1="106.6135" y1="233.961" x2="179.8356" y2="64.7735">
				<stop  offset="0" style="stop-color:#AA80F9"/>
				<stop  offset="0.9964" style="stop-color:#6165D7"/>
			</linearGradient>
			<path class="st22" d="M154.3,236.8c-10-4.6-10-13.7-19.3-17.7c-13.3-5.6-28.1,6.8-30.4,3.3c-2.4-3.7,15.2-14.6,12.8-25.7
				c-1.9-8.8-14.1-7.4-20.7-19.5c-6.2-11.5-0.2-21.9-5.7-25.9c-2-1.4-5.5-2-12.1,0.9c4.6,15,7.9,28.2,8.1,44.5
				c0.1,4.3,0,16.5,0.7,34.4c0.4,11.6,0.9,18.2,4.6,20c3.9,1.9,7-3.6,16.4-6.8c6.9-2.3,13.9-1.6,27.5,0c20.4,2.4,21.8,5.4,25.8,3
				c2.6-1.6,3.8-4,4.7-8.6C162.8,239.1,158.4,238.7,154.3,236.8z"/>
			<linearGradient id="SVGID_24_" gradientUnits="userSpaceOnUse" x1="85.5551" y1="193.2735" x2="88.9501" y2="203.6358">
				<stop  offset="0" style="stop-color:#FFC444"/>
				<stop  offset="0.9964" style="stop-color:#F36F56"/>
			</linearGradient>
			<path class="st23" d="M78.2,196.6l4.9-0.2c0,0,5.4-4.6,7.8-4.3c2.4,0.3,6.1,2.1,6.5,2.5c0.4,0.4-1.3,2.4-3.1,2.2
				c-1.8-0.2-5.8,0.7-6.5,2.3c-0.7,1.6-3.8,2.6-4.3,1.6L77,202L78.2,196.6z"/>
			<linearGradient id="SVGID_25_" gradientUnits="userSpaceOnUse" x1="39.461" y1="203.5396" x2="112.0302" y2="35.8603">
				<stop  offset="0" style="stop-color:#AA80F9"/>
				<stop  offset="0.9964" style="stop-color:#6165D7"/>
			</linearGradient>
			<path class="st24" d="M79.7,194.8c0.3,4.2-0.5,7-2,8.9c-6.5,8.5-28.4,4.7-41.4-7c-9.6-8.6-14.7-21.9-14.5-33.7
				c0.4-23.1,20.9-45.5,51.6-53c4.5,14.1,10.2,25.3,14.7,39.5c-18.9,0.1-31.5,17.8-29.8,28.4C59.6,185.8,68.4,193,79.7,194.8z"/>
		</g>
	</g>
	<g>
		<linearGradient id="SVGID_26_" gradientUnits="userSpaceOnUse" x1="214.0299" y1="95.4413" x2="289.0186" y2="95.4413">
			<stop  offset="0" style="stop-color:#311944"/>
			<stop  offset="1" style="stop-color:#893976"/>
		</linearGradient>
		<path class="st25" d="M253.7,61l9.7,19.6c0.4,0.7,1.1,1.2,1.9,1.3l21.6,3.1c2,0.3,2.8,2.8,1.4,4.2l-15.7,15.3
			c-0.6,0.6-0.8,1.4-0.7,2.2l3.7,21.6c0.3,2-1.8,3.5-3.6,2.6l-19.4-10.2c-0.7-0.4-1.6-0.4-2.3,0L231,130.9c-1.8,0.9-3.9-0.6-3.6-2.6
			l3.7-21.6c0.1-0.8-0.1-1.6-0.7-2.2l-15.7-15.3c-1.5-1.4-0.7-3.9,1.4-4.2l21.6-3.1c0.8-0.1,1.5-0.6,1.9-1.3l9.7-19.6
			C250.2,59.2,252.8,59.2,253.7,61z"/>
		<linearGradient id="SVGID_27_" gradientUnits="userSpaceOnUse" x1="274.7389" y1="56.858" x2="200.681" y2="188.1421">
			<stop  offset="0" style="stop-color:#FFC444"/>
			<stop  offset="0.9964" style="stop-color:#F36F56"/>
		</linearGradient>
		<path class="st26" d="M254.7,61l9.7,19.6c0.4,0.7,1.1,1.2,1.9,1.3l21.6,3.1c2,0.3,2.8,2.8,1.4,4.2l-15.7,15.3
			c-0.6,0.6-0.8,1.4-0.7,2.2l3.7,21.6c0.3,2-1.8,3.5-3.6,2.6l-19.4-10.2c-0.7-0.4-1.6-0.4-2.3,0L232,130.9c-1.8,0.9-3.9-0.6-3.6-2.6
			l3.7-21.6c0.1-0.8-0.1-1.6-0.7-2.2l-15.7-15.3c-1.5-1.4-0.7-3.9,1.4-4.2l21.6-3.1c0.8-0.1,1.5-0.6,1.9-1.3l9.7-19.6
			C251.2,59.2,253.8,59.2,254.7,61z"/>
		<g class="st27">
			<linearGradient id="SVGID_28_" gradientUnits="userSpaceOnUse" x1="274.7026" y1="56.8375" x2="200.6446" y2="188.1219">
				<stop  offset="0" style="stop-color:#FFC444"/>
				<stop  offset="0.9964" style="stop-color:#F36F56"/>
			</linearGradient>
			<path class="st28" d="M267.7,116c-7.4-7.1-15.8-6.7-19.2-14.8c-3.8-9.1,4.3-15.5,2.9-26.8c-0.3-2.7-1.2-5.8-3.2-9.2l-7.6,15.4
				c-0.4,0.7-1.1,1.2-1.9,1.3l-21.6,3.1c-2,0.3-2.8,2.8-1.4,4.2l15.7,15.3c0.6,0.6,0.8,1.4,0.7,2.2l-3.7,21.6
				c-0.3,2,1.8,3.5,3.6,2.6l19.4-10.2c0.7-0.4,1.6-0.4,2.3,0l19.4,10.2c1.1,0.6,2.2,0.3,2.9-0.5C274,123.4,270.9,119,267.7,116z"/>
		</g>
	</g>
	<g>
		<linearGradient id="SVGID_29_" gradientUnits="userSpaceOnUse" x1="185.2204" y1="51.4654" x2="236.7558" y2="51.4654">
			<stop  offset="0" style="stop-color:#311944"/>
			<stop  offset="1" style="stop-color:#893976"/>
		</linearGradient>
		<path class="st29" d="M212.5,27.8l6.7,13.5c0.2,0.5,0.7,0.8,1.3,0.9l14.9,2.2c1.4,0.2,1.9,1.9,0.9,2.9l-10.8,10.5
			c-0.4,0.4-0.6,0.9-0.5,1.5l2.5,14.8c0.2,1.4-1.2,2.4-2.5,1.8l-13.3-7c-0.5-0.3-1.1-0.3-1.6,0l-13.3,7c-1.2,0.7-2.7-0.4-2.5-1.8
			l2.5-14.8c0.1-0.5-0.1-1.1-0.5-1.5l-10.8-10.5c-1-1-0.5-2.7,0.9-2.9l14.9-2.2c0.6-0.1,1-0.4,1.3-0.9l6.7-13.5
			C210.1,26.6,211.9,26.6,212.5,27.8z"/>
		<linearGradient id="SVGID_30_" gradientUnits="userSpaceOnUse" x1="226.9422" y1="24.9493" x2="176.0464" y2="115.1735">
			<stop  offset="0" style="stop-color:#FFC444"/>
			<stop  offset="0.9964" style="stop-color:#F36F56"/>
		</linearGradient>
		<path class="st30" d="M213.2,27.8l6.7,13.5c0.2,0.5,0.7,0.8,1.3,0.9l14.9,2.2c1.4,0.2,1.9,1.9,0.9,2.9l-10.8,10.5
			c-0.4,0.4-0.6,0.9-0.5,1.5l2.5,14.8c0.2,1.4-1.2,2.4-2.5,1.8l-13.3-7c-0.5-0.3-1.1-0.3-1.6,0l-13.3,7c-1.2,0.7-2.7-0.4-2.5-1.8
			l2.5-14.8c0.1-0.5-0.1-1.1-0.5-1.5l-10.8-10.5c-1-1-0.5-2.7,0.9-2.9l14.9-2.2c0.6-0.1,1-0.4,1.3-0.9l6.7-13.5
			C210.8,26.6,212.5,26.6,213.2,27.8z"/>
		<g class="st27">
			<linearGradient id="SVGID_31_" gradientUnits="userSpaceOnUse" x1="226.9173" y1="24.9352" x2="176.0214" y2="115.1595">
				<stop  offset="0" style="stop-color:#FFC444"/>
				<stop  offset="0.9964" style="stop-color:#F36F56"/>
			</linearGradient>
			<path class="st31" d="M222.1,65.6c-5.1-4.9-10.9-4.6-13.2-10.2c-2.6-6.3,2.9-10.7,2-18.4c-0.2-1.9-0.8-4-2.2-6.3l-5.2,10.6
				c-0.2,0.5-0.7,0.8-1.3,0.9l-14.9,2.2c-1.4,0.2-1.9,1.9-0.9,2.9l10.8,10.5c0.4,0.4,0.6,0.9,0.5,1.5l-2.5,14.8
				c-0.2,1.4,1.2,2.4,2.5,1.8l13.3-7c0.5-0.3,1.1-0.3,1.6,0l13.3,7c0.7,0.4,1.5,0.2,2-0.3C226.4,70.7,224.3,67.6,222.1,65.6z"/>
		</g>
	</g>
	<g>
		<linearGradient id="SVGID_32_" gradientUnits="userSpaceOnUse" x1="147.6595" y1="38.1899" x2="183.077" y2="38.1899">
			<stop  offset="0" style="stop-color:#311944"/>
			<stop  offset="1" style="stop-color:#893976"/>
		</linearGradient>
		<path class="st32" d="M166.4,21.9l4.6,9.3c0.2,0.3,0.5,0.6,0.9,0.6l10.2,1.5c1,0.1,1.3,1.3,0.6,2l-7.4,7.2c-0.3,0.3-0.4,0.7-0.3,1
			l1.7,10.2c0.2,0.9-0.8,1.7-1.7,1.2l-9.1-4.8c-0.3-0.2-0.7-0.2-1.1,0l-9.1,4.8c-0.9,0.4-1.9-0.3-1.7-1.2l1.7-10.2
			c0.1-0.4-0.1-0.8-0.3-1l-7.4-7.2c-0.7-0.7-0.3-1.8,0.6-2l10.2-1.5c0.4-0.1,0.7-0.3,0.9-0.6l4.6-9.3
			C164.8,21.1,166,21.1,166.4,21.9z"/>
		<linearGradient id="SVGID_33_" gradientUnits="userSpaceOnUse" x1="176.3326" y1="19.9669" x2="141.3548" y2="81.9729">
			<stop  offset="0" style="stop-color:#FFC444"/>
			<stop  offset="0.9964" style="stop-color:#F36F56"/>
		</linearGradient>
		<path class="st33" d="M166.9,21.9l4.6,9.3c0.2,0.3,0.5,0.6,0.9,0.6l10.2,1.5c1,0.1,1.3,1.3,0.6,2l-7.4,7.2c-0.3,0.3-0.4,0.7-0.3,1
			l1.7,10.2c0.2,0.9-0.8,1.7-1.7,1.2l-9.1-4.8c-0.3-0.2-0.7-0.2-1.1,0l-9.1,4.8c-0.9,0.4-1.9-0.3-1.7-1.2l1.7-10.2
			c0.1-0.4-0.1-0.8-0.3-1l-7.4-7.2c-0.7-0.7-0.3-1.8,0.6-2l10.2-1.5c0.4-0.1,0.7-0.3,0.9-0.6l4.6-9.3
			C165.2,21.1,166.4,21.1,166.9,21.9z"/>
		<g class="st27">
			<linearGradient id="SVGID_34_" gradientUnits="userSpaceOnUse" x1="176.3155" y1="19.9571" x2="141.3376" y2="81.9633">
				<stop  offset="0" style="stop-color:#FFC444"/>
				<stop  offset="0.9964" style="stop-color:#F36F56"/>
			</linearGradient>
			<path class="st34" d="M173,47.9c-3.5-3.3-7.5-3.2-9.1-7c-1.8-4.3,2-7.3,1.4-12.6c-0.2-1.3-0.6-2.7-1.5-4.3l-3.6,7.3
				c-0.2,0.3-0.5,0.6-0.9,0.6l-10.2,1.5c-1,0.1-1.3,1.3-0.6,2l7.4,7.2c0.3,0.3,0.4,0.7,0.3,1l-1.7,10.2c-0.2,0.9,0.8,1.7,1.7,1.2
				l9.1-4.8c0.3-0.2,0.7-0.2,1.1,0l9.1,4.8c0.5,0.3,1,0.1,1.4-0.2C176,51.4,174.5,49.3,173,47.9z"/>
		</g>
	</g>
	<g>
		
			<linearGradient id="SVGID_35_" gradientUnits="userSpaceOnUse" x1="-3871.2698" y1="668.3461" x2="-3877.0637" y2="649.2418" gradientTransform="matrix(0.993 0.1177 -0.1177 0.993 3991.356 97.3834)">
			<stop  offset="0" style="stop-color:#444B8C"/>
			<stop  offset="0.9964" style="stop-color:#26264F"/>
		</linearGradient>
		<path class="st35" d="M64,295.5c-0.7,1.1-0.6,1.7-0.5,1.9c0.4,0.7,1.5,0.2,4.1,0.8c0.3,0.1,0.9,0.2,1.7,0.1
			c0.7-0.1,1.5-0.3,1.4-0.5c0-0.1-0.1-0.1-0.2-0.1c-0.7-0.2-5.3-2.2-5.3-2.2L64,295.5z"/>
		
			<linearGradient id="SVGID_36_" gradientUnits="userSpaceOnUse" x1="-3876.2646" y1="664.6262" x2="-3876.2646" y2="633.9333" gradientTransform="matrix(0.993 0.1177 -0.1177 0.993 3991.356 97.3834)">
			<stop  offset="0" style="stop-color:#FFC444"/>
			<stop  offset="0.9964" style="stop-color:#F36F56"/>
		</linearGradient>
		<path class="st36" d="M63.9,292.9l0.1,2.7c0,0,1.1,0.9,1.5,0c0.3-0.7,0.5-2.6,0.5-2.6L63.9,292.9z"/>
		
			<linearGradient id="SVGID_37_" gradientUnits="userSpaceOnUse" x1="-3864.9636" y1="664.6262" x2="-3864.9636" y2="633.9329" gradientTransform="matrix(0.993 0.1177 -0.1177 0.993 3991.356 97.3834)">
			<stop  offset="0" style="stop-color:#FFC444"/>
			<stop  offset="0.9964" style="stop-color:#F36F56"/>
		</linearGradient>
		<polygon class="st37" points="77.4,295.6 76,298.6 74.3,298.2 75,295.3 		"/>
		
			<linearGradient id="SVGID_38_" gradientUnits="userSpaceOnUse" x1="-3862.8293" y1="665.7864" x2="-3868.6233" y2="646.6819" gradientTransform="matrix(0.993 0.1177 -0.1177 0.993 3991.356 97.3834)">
			<stop  offset="0" style="stop-color:#444B8C"/>
			<stop  offset="0.9964" style="stop-color:#26264F"/>
		</linearGradient>
		<path class="st38" d="M75.3,300.2c-0.7-1-1.4-1-1.5-1.7c-0.1-0.5,0.3-1.1,0.8-1.3c0.7-0.3,1.4,0.3,1.6,0.5
			c1.1,0.9,0.7,2.1,1.8,2.8c0.2,0.1,0.6,0.3,0.9,0.7c0.1,0.2,0.5,0.6,0.4,0.9c-0.1,0.3-0.9,0.2-1.6,0.1c-0.8-0.1-1.3-0.1-1.6-0.4
			C75.6,301.4,75.8,301,75.3,300.2z"/>
		
			<linearGradient id="SVGID_39_" gradientUnits="userSpaceOnUse" x1="-3878.9185" y1="598.3975" x2="-3881.7371" y2="661.8184" gradientTransform="matrix(0.993 0.1177 -0.1177 0.993 3991.356 97.3834)">
			<stop  offset="0" style="stop-color:#311944"/>
			<stop  offset="1" style="stop-color:#A03976"/>
		</linearGradient>
		<path class="st39" d="M61.8,227.6c-0.3,6.3,0,11.7,0.6,16.2c0.6,4.8,1.1,5.7,1.2,8.9c0.1,7.1-2.3,8-3.4,16
			c-1.2,8.8,0.6,16,1.3,18.8c0.6,2.4,1.3,4.4,1.8,5.7c0.8,0.8,2,0.6,3.3,0.4c1.1-8,2.4-15.5,3.5-23.5c2.6-12,5.1-23.9,7.7-35.9
			C72.5,232.1,67.2,229.9,61.8,227.6z"/>
		
			<linearGradient id="SVGID_40_" gradientUnits="userSpaceOnUse" x1="-3878.9185" y1="598.3975" x2="-3881.7371" y2="661.8184" gradientTransform="matrix(0.993 0.1177 -0.1177 0.993 3991.356 97.3834)">
			<stop  offset="0" style="stop-color:#FF9085"/>
			<stop  offset="1" style="stop-color:#FB6FBB"/>
		</linearGradient>
		<path class="st40" d="M66.6,293.7c1.1-8,2.4-15.5,3.5-23.5c2.6-12,5.1-23.9,7.7-35.9c-5.3-2.2-10.7-4.5-16-6.7
			c0,0.4,0,0.8-0.1,1.2c7.1,7.3,8.2,12.7,7.8,16.3c-0.5,4.4-3,6.3-3.1,12.7c0,4.6,1.3,5.5,0.9,9.6c-0.4,5.3-2.9,8-4.3,11
			c-1.3,2.9-2,7-0.5,13.1c0.2,0.6,0.4,1.2,0.6,1.7C64,294,65.3,293.9,66.6,293.7z"/>
		
			<linearGradient id="SVGID_41_" gradientUnits="userSpaceOnUse" x1="-3835.9485" y1="625.3775" x2="-3887.6255" y2="623.0285" gradientTransform="matrix(0.993 0.1177 -0.1177 0.993 3991.356 97.3834)">
			<stop  offset="0" style="stop-color:#311944"/>
			<stop  offset="1" style="stop-color:#A03976"/>
		</linearGradient>
		<path class="st41" d="M71,234.5c3.5,7.1,5.3,12.7,6.2,16.1c0.6,2.1,1.1,4.2,1,7c-0.1,3.4-1,6.1-1.7,7.8c-1,2.2-2,4.8-2.7,7.8
			c-2.4,9.6-0.8,17.9,0.6,22.7c0.9,0.4,1.9,0.9,2.8,1.3c2.7-6,6.1-14.5,9-25.2c1.5-5.8,2.7-10.4,3.2-16.2c0.5-6.2,0.5-16.1-3.6-28.2
			C80.9,229.9,75.9,232.2,71,234.5z"/>
		<linearGradient id="SVGID_42_" gradientUnits="userSpaceOnUse" x1="49.6641" y1="194.8747" x2="81.0424" y2="253.4007">
			<stop  offset="0" style="stop-color:#FF9085"/>
			<stop  offset="1" style="stop-color:#FB6FBB"/>
		</linearGradient>
		<path class="st42" d="M77.7,181c6.1,1.6,10.7,3.1,12.6,6.5c1.9,3.6-1.8,5.9-3.4,13.3c-2.4,11.4,3.8,16.2,1,27.7
			c-1,3.9-2.5,6.8-3.6,8.5c-2.1,1.5-5.5,3.4-9.9,4.6c-6.5,1.7-9.5,0.1-17.9-0.1C42.5,241.1,40.1,245,34,242
			c-6.1-3-10.1-10.1-8.5-12.9c0.9-1.7,3.4-0.4,7.2-2.2c4.9-2.3,4.4-6.1,8.5-9c5.8-4.1,10.7,0.9,15.7-2.7c5-3.6,6.4-13.4,4.9-19.4
			c-1-3.9-0.7-8.1-1.3-12.1c-0.1-0.3-0.1-0.9,0.2-1.4c1-2.2,5.1-2.3,8.2-2.3C73.6,180,77.2,180.9,77.7,181z"/>
		
			<linearGradient id="SVGID_43_" gradientUnits="userSpaceOnUse" x1="3107.4429" y1="1160.0592" x2="3136.0645" y2="1218.9148" gradientTransform="matrix(-0.9575 -0.2886 -0.2886 0.9575 3406.2703 -23.229)">
			<stop  offset="0" style="stop-color:#FF9085"/>
			<stop  offset="1" style="stop-color:#FB6FBB"/>
		</linearGradient>
		<path class="st43" d="M35.1,237.7c2-1.1,1.3-4.8,4.3-6.5c2.8-1.6,4.6,0.9,8.6,0.1c5.1-1.1,5.2-5.9,10.1-7.1c3.5-0.8,4.4,1.5,9.3,2
			c4.9,0.5,11.6-1,16.1-5.9c1.9-2.1,3.1-4.4,3.8-6.5c1,4.4,2.1,8.6,0.5,14.7c-1,3.9-2.5,6.8-3.6,8.5c-2.1,1.5-5.5,3.4-9.9,4.6
			c-6.5,1.7-9.5,0.1-17.9-0.1C42.5,241.1,40.1,245,34,242c-3.9-1.9-6.9-5.5-8.2-8.6C31,237.8,33.7,238.5,35.1,237.7z"/>
		
			<linearGradient id="SVGID_44_" gradientUnits="userSpaceOnUse" x1="-3872.053" y1="537.3417" x2="-3878.6631" y2="548.0347" gradientTransform="matrix(0.993 0.1177 -0.1177 0.993 3991.356 97.3834)">
			<stop  offset="0" style="stop-color:#FFC444"/>
			<stop  offset="0.463" style="stop-color:#FFC244"/>
			<stop  offset="0.6297" style="stop-color:#FEBB46"/>
			<stop  offset="0.7486" style="stop-color:#FCB048"/>
			<stop  offset="0.8447" style="stop-color:#FA9F4C"/>
			<stop  offset="0.9261" style="stop-color:#F78951"/>
			<stop  offset="0.9964" style="stop-color:#F36F56"/>
		</linearGradient>
		<path class="st44" d="M82.2,170.6c0,0,1.4,3.3,1.4,5.6c-0.1,2.3-2.6,1.9-2.6,1.9l0,1.4c0,1.2,0.7,2.3,1.8,2.8l1,0.5
			c0,0-6.7,0.9-10-2l1,0c1.5,0,2.7-1.1,3-2.5l0.1-0.6C77.8,177.7,77.3,170.6,82.2,170.6z"/>
		<g>
			
				<linearGradient id="SVGID_45_" gradientUnits="userSpaceOnUse" x1="-3847.4338" y1="553.897" x2="-3860.7578" y2="575.4507" gradientTransform="matrix(0.993 0.1177 -0.1177 0.993 3991.356 97.3834)">
				<stop  offset="0" style="stop-color:#444B8C"/>
				<stop  offset="0.9964" style="stop-color:#26264F"/>
			</linearGradient>
			<path class="st45" d="M88.9,207.1l9.9-17.2c0.1-0.2,0.4-0.3,0.6-0.3l13.9,3.3c0.4,0.1,0.5,0.5,0.3,0.8l-11.5,18.5
				c-0.1,0.2-0.4,0.3-0.7,0.2l-12.2-4.4L88.9,207.1z"/>
			
				<linearGradient id="SVGID_46_" gradientUnits="userSpaceOnUse" x1="-3816.3352" y1="508.9785" x2="-3827.8445" y2="530.5875" gradientTransform="matrix(0.9946 0.104 -0.104 0.9946 3952.9568 85.6368)">
				<stop  offset="0" style="stop-color:#FFC444"/>
				<stop  offset="0.9964" style="stop-color:#F36F56"/>
			</linearGradient>
			<path class="st46" d="M91.3,205.2l8.1-13.9c0.1-0.2,0.3-0.3,0.5-0.2l11.3,2.6c0.3,0.1,0.4,0.4,0.3,0.7l-9.3,14.9
				c-0.1,0.2-0.3,0.3-0.5,0.2l-9.9-3.6L91.3,205.2z"/>
			<path class="st8" d="M101.7,191.4l0.6-1.1c0.1-0.2,0.3-0.2,0.4-0.2l5.8,1.3c0.3,0.1,0.4,0.4,0.3,0.6l-0.7,1.2
				c-0.1,0.2-0.3,0.2-0.4,0.2L102,192C101.7,192,101.6,191.7,101.7,191.4z"/>
			<path class="st7" d="M109.3,196.2C109.3,196.2,109.3,196.2,109.3,196.2l-10.2-2.4c-0.1,0-0.2-0.2-0.2-0.3c0-0.1,0.2-0.2,0.3-0.2
				l10.2,2.4c0.1,0,0.2,0.2,0.2,0.3C109.5,196.2,109.4,196.2,109.3,196.2z"/>
			<path class="st7" d="M108.7,197.2C108.7,197.2,108.7,197.2,108.7,197.2l-10.2-2.5c-0.1,0-0.2-0.2-0.2-0.3c0-0.1,0.2-0.2,0.3-0.2
				l10.1,2.5c0.1,0,0.2,0.2,0.2,0.3C108.9,197.1,108.8,197.2,108.7,197.2z"/>
			<path class="st7" d="M103.3,198.3C103.3,198.3,103.3,198.3,103.3,198.3l-5.5-1.5c-0.1,0-0.2-0.2-0.2-0.3c0-0.1,0.2-0.2,0.3-0.2
				l5.5,1.5c0.1,0,0.2,0.2,0.2,0.3C103.6,198.2,103.4,198.3,103.3,198.3z"/>
		</g>
		
			<linearGradient id="SVGID_47_" gradientUnits="userSpaceOnUse" x1="-3844.615" y1="562.4149" x2="-3847.812" y2="567.5866" gradientTransform="matrix(0.993 0.1177 -0.1177 0.993 3991.356 97.3834)">
			<stop  offset="0" style="stop-color:#311944"/>
			<stop  offset="1" style="stop-color:#893976"/>
		</linearGradient>
		<path class="st47" d="M104.9,207.7c0,0,2.5-1.3,2.8-2.4c0.4-1.1,0.5-3.2,0.5-3.2l-1.6,2.8c0,0-0.6-0.3-0.8-1.2
			c-0.2-1-0.7-0.2-0.6,0.6C105.4,205,104.9,207.7,104.9,207.7z"/>
		<linearGradient id="SVGID_48_" gradientUnits="userSpaceOnUse" x1="80.5062" y1="178.3389" x2="111.8847" y2="236.8651">
			<stop  offset="0" style="stop-color:#FF9085"/>
			<stop  offset="1" style="stop-color:#FB6FBB"/>
		</linearGradient>
		<path class="st48" d="M89.3,186.3c1.1,0.9,2.8,2.4,4.2,4.6c4,6.4,1.5,12.6,5.1,15.2c1,0.8,2.9,1.5,6.5,0.6l1.2,0.8
			c0,0,0.8,8.4-9.2,7.6c-10-0.7-13.7-13.7-13.7-13.7L89.3,186.3z"/>
		
			<linearGradient id="SVGID_49_" gradientUnits="userSpaceOnUse" x1="2253.2185" y1="164.4135" x2="2272.761" y2="214.0709" gradientTransform="matrix(-1 0 0 1 2319.2952 0)">
			<stop  offset="0" style="stop-color:#444B8C"/>
			<stop  offset="0.9964" style="stop-color:#26264F"/>
		</linearGradient>
		<path class="st49" d="M80.9,173.7c-0.3-0.1-0.6-0.5-0.8-0.4c-0.3,0.1-0.3,0.7-0.1,1.2c0.1,0.4,0.4,0.6,0.6,0.7
			c-0.3,0.3-0.7,0.9-0.9,1.6c-0.4,1.6,0.3,3,0.6,3.8c1.3,3.6-1.6,8.8-4.6,11.3c-2.4,2.1-3.4,1.1-4.9,2.8c-2.9,3.3,0.4,7.5-1.4,12.2
			c-2.7,7.1-14.3,8.3-14.8,8.4c-0.2,0-0.3,0-0.5,0c-5.2,0.4-13.1,1-18.3-3.7c-3.9-3.5-5.3-9.2-4.6-14c0.2-1.3,1-6.1,5.3-9.7
			c0.7-0.6,4.7-4,9.7-3.6c2.7,0.2,3.1,1.2,5.2,0.8c2.8-0.6,4.8-2.9,6-4.4c2.2-2.7,1.5-3.4,3-4.7c3-2.6,6-0.1,9.2-2.3
			c3.1-2.2,1.6-5.6,4.6-7.5c3.1-1.9,8.5-0.7,9.5,2C84.4,170.4,81.9,173.9,80.9,173.7z"/>
	</g>
	<g>
		<linearGradient id="SVGID_50_" gradientUnits="userSpaceOnUse" x1="119.0219" y1="48.8428" x2="146.2114" y2="48.8428">
			<stop  offset="0" style="stop-color:#311944"/>
			<stop  offset="1" style="stop-color:#893976"/>
		</linearGradient>
		<path class="st50" d="M133.4,36.4l3.5,7.1c0.1,0.3,0.4,0.4,0.7,0.5l7.8,1.1c0.7,0.1,1,1,0.5,1.5l-5.7,5.5
			c-0.2,0.2-0.3,0.5-0.3,0.8l1.3,7.8c0.1,0.7-0.6,1.3-1.3,0.9l-7-3.7c-0.3-0.1-0.6-0.1-0.8,0l-7,3.7c-0.7,0.3-1.4-0.2-1.3-0.9
			l1.3-7.8c0-0.3,0-0.6-0.3-0.8l-5.7-5.5c-0.5-0.5-0.2-1.4,0.5-1.5l7.8-1.1c0.3,0,0.5-0.2,0.7-0.5l3.5-7.1
			C132.1,35.7,133.1,35.7,133.4,36.4z"/>
		<linearGradient id="SVGID_51_" gradientUnits="userSpaceOnUse" x1="141.0339" y1="34.8532" x2="114.1819" y2="82.4543">
			<stop  offset="0" style="stop-color:#FFC444"/>
			<stop  offset="0.9964" style="stop-color:#F36F56"/>
		</linearGradient>
		<path class="st51" d="M133.8,36.4l3.5,7.1c0.1,0.3,0.4,0.4,0.7,0.5l7.8,1.1c0.7,0.1,1,1,0.5,1.5l-5.7,5.5
			c-0.2,0.2-0.3,0.5-0.3,0.8l1.3,7.8c0.1,0.7-0.6,1.3-1.3,0.9l-7-3.7c-0.3-0.1-0.6-0.1-0.8,0l-7,3.7c-0.7,0.3-1.4-0.2-1.3-0.9
			l1.3-7.8c0-0.3,0-0.6-0.3-0.8l-5.7-5.5c-0.5-0.5-0.2-1.4,0.5-1.5L128,44c0.3,0,0.5-0.2,0.7-0.5l3.5-7.1
			C132.5,35.7,133.4,35.7,133.8,36.4z"/>
		<g class="st27">
			<linearGradient id="SVGID_52_" gradientUnits="userSpaceOnUse" x1="141.0207" y1="34.8457" x2="114.1686" y2="82.447">
				<stop  offset="0" style="stop-color:#FFC444"/>
				<stop  offset="0.9964" style="stop-color:#F36F56"/>
			</linearGradient>
			<path class="st52" d="M138.5,56.3c-2.7-2.6-5.7-2.4-7-5.4c-1.4-3.3,1.6-5.6,1-9.7c-0.1-1-0.4-2.1-1.2-3.3l-2.8,5.6
				c-0.1,0.3-0.4,0.4-0.7,0.5l-7.8,1.1c-0.7,0.1-1,1-0.5,1.5l5.7,5.5c0.2,0.2,0.3,0.5,0.3,0.8l-1.3,7.8c-0.1,0.7,0.6,1.3,1.3,0.9
				l7-3.7c0.3-0.1,0.6-0.1,0.8,0l7,3.7c0.4,0.2,0.8,0.1,1.1-0.2C140.8,59,139.6,57.4,138.5,56.3z"/>
		</g>
	</g>
	<g>
		
			<linearGradient id="SVGID_53_" gradientUnits="userSpaceOnUse" x1="841.2625" y1="279.0812" x2="843.2818" y2="304.782" gradientTransform="matrix(1 0 0 1 -626.2627 0)">
			<stop  offset="0" style="stop-color:#AA80F9"/>
			<stop  offset="0.9964" style="stop-color:#6165D7"/>
		</linearGradient>
		<path class="st53" d="M218.7,291.9c0,0-7.2,3.7-7.4,4.3c-0.1,0.6,4.7-0.2,6.6-0.1c2,0.1,3.6-0.6,3.4-1.5c-0.2-0.9-0.9-3.2-0.9-3.2
			L218.7,291.9z"/>
		
			<linearGradient id="SVGID_54_" gradientUnits="userSpaceOnUse" x1="846.0586" y1="293.4226" x2="845.6924" y2="266.876" gradientTransform="matrix(1 0 0 1 -626.2627 0)">
			<stop  offset="0" style="stop-color:#FFC444"/>
			<stop  offset="0.9964" style="stop-color:#F36F56"/>
		</linearGradient>
		<path class="st54" d="M218.4,288.9l0.4,3.6c0,0,1.1,0.5,1.9-0.1l0.3-4L218.4,288.9z"/>
		
			<linearGradient id="SVGID_55_" gradientUnits="userSpaceOnUse" x1="875.2686" y1="276.0751" x2="877.2932" y2="301.8436" gradientTransform="matrix(1 0 0 1 -626.2627 0)">
			<stop  offset="0" style="stop-color:#AA80F9"/>
			<stop  offset="0.9964" style="stop-color:#6165D7"/>
		</linearGradient>
		<path class="st55" d="M252.5,289l0.8,1.5c0.2,0.4,0.3,0.9,0.2,1.4c-0.3,1.3-0.9,3.7-1.1,4.3c-0.3,0.9-5,1.4-5,1.4
			s-0.4-0.7,0.6-1.5c1-0.8,1.6-0.9,1.9-2.1c0.3-1.2,0.6-4.5,0.6-4.5L252.5,289z"/>
		
			<linearGradient id="SVGID_56_" gradientUnits="userSpaceOnUse" x1="877.2406" y1="292.9417" x2="876.8745" y2="266.3985" gradientTransform="matrix(1 0 0 1 -626.2627 0)">
			<stop  offset="0" style="stop-color:#FFC444"/>
			<stop  offset="0.9964" style="stop-color:#F36F56"/>
		</linearGradient>
		<path class="st56" d="M249,285.2c0.3,0.3,1.8,5.4,1.8,5.4s0.5,0.7,1.4-0.3c0.9-1,0.4-0.5,0.4-0.5l-0.2-5L249,285.2z"/>
		<linearGradient id="SVGID_57_" gradientUnits="userSpaceOnUse" x1="259.3419" y1="205.2574" x2="206.8096" y2="265.5462">
			<stop  offset="0" style="stop-color:#311944"/>
			<stop  offset="1" style="stop-color:#A03976"/>
		</linearGradient>
		<path class="st57" d="M214.4,215.7c-0.4,10.9-0.4,22.7,0.2,35.3c0.6,14.2,1.9,27.4,3.5,39.3c0.6,0,1.2,0,1.9,0
			c0.4,0,0.9,0,1.3-0.1c0.8-2.5,1.8-5.7,2.7-9.6c0.9-4.1,1.5-7.7,1.9-11.2c1.4-12.3-0.2-13.4,0.9-22.5c1-8.1,2.4-8.4,4.1-19.9
			c1.8-12.5,0.5-14.3-0.2-15C227.8,209.1,221.2,211,214.4,215.7z"/>
		<linearGradient id="SVGID_58_" gradientUnits="userSpaceOnUse" x1="215.3386" y1="250.4382" x2="231.6722" y2="250.4382">
			<stop  offset="0" style="stop-color:#FF9085"/>
			<stop  offset="1" style="stop-color:#FB6FBB"/>
		</linearGradient>
		<path class="st58" d="M230.6,211.9c-2.7-2.7-8.8-1.1-15.2,3.1c7.4,9,8.2,14.8,7.3,18.6c-1,4.3-4.1,5.5-4.1,10.2
			c0,5.7,4.6,7.2,4.5,13.3c-0.1,4-2.1,4-2.6,8.9c-0.6,5.9,2.1,7.9,1.2,12.2c-0.4,1.9-1.4,4.3-4.4,6.8c0.2,1.8,0.4,3.5,0.7,5.3
			c0.6,0,1.2,0,1.9,0c0.4,0,0.9,0,1.3-0.1c0.8-2.5,1.8-5.7,2.7-9.6c0.9-4.1,1.5-7.7,1.9-11.2c1.4-12.3-0.2-13.4,0.9-22.5
			c1-8.1,2.4-8.4,4.1-19.9C232.6,214.5,231.2,212.6,230.6,211.9z"/>
		<linearGradient id="SVGID_59_" gradientUnits="userSpaceOnUse" x1="218.9967" y1="248.5035" x2="254.3206" y2="248.5035">
			<stop  offset="0" style="stop-color:#311944"/>
			<stop  offset="1" style="stop-color:#A03976"/>
		</linearGradient>
		<path class="st59" d="M219,215.5c6.4,10.5,13.3,23.5,19.4,39c4.7,11.8,8,22.8,10.5,32.7c0.3,0.2,1.1,0.5,2.1,0.4
			c1.4-0.2,2.2-1.2,2.4-1.5c1-7.1,0.9-13,0.6-17.4c-0.2-2.8-0.6-7.4-2.2-13c-1.8-6.4-3-6.7-5.3-13.5c-2.4-7-1.8-8.7-4.1-17.5
			c-0.9-3.6-2.5-8.9-5.1-15.3C231.3,211.4,225.1,213.5,219,215.5z"/>
		<linearGradient id="SVGID_60_" gradientUnits="userSpaceOnUse" x1="244.2112" y1="158.4392" x2="277.9689" y2="189.336">
			<stop  offset="3.597000e-03" style="stop-color:#26264F"/>
			<stop  offset="1" style="stop-color:#444B8C"/>
		</linearGradient>
		<path class="st60" d="M217.3,170c-7.1-4.6-10.1-4.1-12.1-8.2c-2-4.1-2-10.6,1.3-14c0.2-0.3,2.8-2.8,6.2-2.4
			c5.2,0.7,5.6,7.3,11.5,10.3c5,2.6,10.4,0.8,14-0.5c8.8-2.9,10.1-8.5,14.7-7.6c5.7,1.1,6.2,10.3,11.9,10.9c3.8,0.4,4.7-3.6,9.7-4.7
			c5.9-1.3,12.4,2.5,16,7.2c6.6,8.5,4.9,21.2,0.7,29c-3.4,6.4-10.7,13.7-16.9,12.1c-4.9-1.2-6.5-7.4-10.7-6.8
			c-3,0.4-3.1,3.7-6.6,5.3c-5.8,2.7-12.9-2.5-14.9-3.9c-5.6-4.1-4.7-6.7-11.8-14.8C227.6,178.8,223.5,174.1,217.3,170z"/>
		<linearGradient id="SVGID_61_" gradientUnits="userSpaceOnUse" x1="160.4775" y1="149.6325" x2="166.7612" y2="149.6325">
			<stop  offset="0" style="stop-color:#FFC444"/>
			<stop  offset="0.9964" style="stop-color:#F36F56"/>
		</linearGradient>
		<path class="st61" d="M166.8,152.1c0,0-1.2-1.7-1.9-2.9c-0.8-1.2-4.3-4.7-4.3-4.7s-0.3,0.6,0.5,1.4c0.8,0.9,2.4,2.4,2,3
			c-0.4,0.6-1.4,1.2-0.7,2.4c0.7,1.2,2,0.4,2.7,1.4c0.7,1,1.3,2,1.3,2L166.8,152.1z"/>
		<linearGradient id="SVGID_62_" gradientUnits="userSpaceOnUse" x1="196.7294" y1="172.5709" x2="263.0192" y2="211.9674">
			<stop  offset="0" style="stop-color:#FF9085"/>
			<stop  offset="1" style="stop-color:#FB6FBB"/>
		</linearGradient>
		<path class="st62" d="M167.2,151c-0.8,1.4-1.6,2.7-2.4,4.1c0.8,2.7,2.3,6.5,4.8,10.5c1.1,1.8,4.6,7,10.4,11.1
			c8,5.7,22.5,11,26.7,4.9c3.8-5.4-2.3-17.3-3.5-19.5c-2.3,1.2-6,2.8-10.9,3.2c-1.6,0.1-5.7,0.4-10.3-1.2
			C173.6,161.3,168.8,153.8,167.2,151z"/>
		<linearGradient id="SVGID_63_" gradientUnits="userSpaceOnUse" x1="192.3399" y1="179.9568" x2="258.6297" y2="219.3533">
			<stop  offset="0" style="stop-color:#FF9085"/>
			<stop  offset="1" style="stop-color:#FB6FBB"/>
		</linearGradient>
		<path class="st63" d="M194,169.3c0.4,2,6.7,0.9,8,4.6c0.7,2-0.8,3.2-0.8,6.5c-0.1,3.7,1.7,5.9,3.1,8.8c2,4.3,2,8.5,2,16.9
			c0,12-2.6,14.4-0.4,18.3c2.9,5,10,5.4,11.9,5.4c6.5,0.3,7.3-3.2,14.4-3.6c8.1-0.5,9.3,3.9,15.1,2.1c5.3-1.7,7.1-6.3,11.2-5.3
			c2.6,0.6,3.3,2.7,5.7,2.5c2.4-0.2,5-2.7,5.1-5.1c0.2-3.1-3.2-7-8.5-7c-2.1,0.8-5.6,1.8-9.5,0.7c-6.3-1.7-9.7-7.8-13.3-14.5
			c-2.5-4.6-7.2-13.2-7.3-24.3c0-4.6,0.8-6-0.4-8.4c-3.6-8-17.8-6.8-19-6.7C201.9,161,193.6,166.8,194,169.3z"/>
		<g>
			<linearGradient id="SVGID_64_" gradientUnits="userSpaceOnUse" x1="206.5369" y1="189.0277" x2="195.5411" y2="207.2537">
				<stop  offset="3.597000e-03" style="stop-color:#6165D7"/>
				<stop  offset="1" style="stop-color:#AA80F9"/>
			</linearGradient>
			<path class="st64" d="M190.9,179.3l17.8,0.8c0.2,0,0.4,0.1,0.4,0.4l8.4,26c0.1,0.4-0.3,1.3-0.6,1.3l-17.6-2.7
				c-0.2,0-0.3-0.2-0.4-0.3l-8.7-24.2C190,180.1,190.5,179.3,190.9,179.3z"/>
			<linearGradient id="SVGID_65_" gradientUnits="userSpaceOnUse" x1="190.0981" y1="193.8849" x2="217.2133" y2="193.8849">
				<stop  offset="3.597000e-03" style="stop-color:#26264F"/>
				<stop  offset="1" style="stop-color:#444B8C"/>
			</linearGradient>
			<path class="st65" d="M190.6,180l17.8,0.8c0.2,0,0.4,0.1,0.4,0.4l8.4,26c0.1,0.4-0.2,0.8-0.5,0.7l-17.7-2.1
				c-0.2,0-0.3-0.2-0.4-0.3l-8.5-24.6C190,180.3,190.3,180,190.6,180z"/>
			<linearGradient id="SVGID_66_" gradientUnits="userSpaceOnUse" x1="201.6288" y1="169.9198" x2="198.3957" y2="180.5007">
				<stop  offset="3.597000e-03" style="stop-color:#26264F"/>
				<stop  offset="1" style="stop-color:#444B8C"/>
			</linearGradient>
			<path class="st66" d="M195.5,180.9l-0.7-2.1c-0.1-0.2,0.1-0.4,0.2-0.4h6.5c0.1,0,0.2,0.1,0.2,0.2l0.7,2.3
				c0.1,0.2-0.1,0.4-0.3,0.4l-6.4-0.2C195.6,181.1,195.5,181,195.5,180.9z"/>
			<linearGradient id="SVGID_67_" gradientUnits="userSpaceOnUse" x1="190.0981" y1="193.4666" x2="209.7453" y2="193.4666">
				<stop  offset="3.597000e-03" style="stop-color:#26264F"/>
				<stop  offset="1" style="stop-color:#444B8C"/>
			</linearGradient>
			<path class="st67" d="M206.4,201.5c-1.2-4.2,0.7-6.9-1.2-10.2c-2.7-4.6-8.6-2.7-10.5-6.4c-0.5-1-0.7-2.5-0.1-4.8l-4.1-0.2
				c-0.3,0-0.6,0.4-0.5,0.7l8.5,24.6c0.1,0.2,0.2,0.3,0.4,0.3l10.7,1.3C207.8,205.1,206.9,203.2,206.4,201.5z"/>
		</g>
		<linearGradient id="SVGID_68_" gradientUnits="userSpaceOnUse" x1="209.4651" y1="197.8574" x2="219.3866" y2="197.8574">
			<stop  offset="0" style="stop-color:#FFC444"/>
			<stop  offset="0.9964" style="stop-color:#F36F56"/>
		</linearGradient>
		<path class="st68" d="M219.4,198.4c0,0-2.7-0.6-3.7-1.3c-1-0.7-2.1-1.9-3.7-1.8c-1.5,0.1-3.1,0.9-2.4,1.1c0.7,0.2,2,1.8,3,2.4
			c1,0.6,3.3,0.7,3.7,0.6c0.4,0,2.1,1.1,2.1,1.1L219.4,198.4z"/>
		<linearGradient id="SVGID_69_" gradientUnits="userSpaceOnUse" x1="205.4481" y1="159.4254" x2="250.7841" y2="247.1015">
			<stop  offset="0" style="stop-color:#FF9085"/>
			<stop  offset="1" style="stop-color:#FB6FBB"/>
		</linearGradient>
		<path class="st69" d="M260.9,213.3c-2.1,0.8-5.6,1.8-9.5,0.7c-6.3-1.7-9.7-7.8-13.3-14.5c-2.5-4.6-7.2-13.2-7.3-24.3
			c0-4.6,0.8-6-0.4-8.4c-0.2-0.4-0.4-0.8-0.6-1.1c-2.8,2.1-3.8,4.2-4.2,6c-0.8,4.5,2.8,8.1,1,12c-1.8,3.7-6.2,2.7-7.2,5.9
			c-1,3.4,3.9,5.5,4.1,10.8c0.3,6.4-6.6,9.5-5.4,13.7c1,3.7,6.8,3.4,6.8,5.4c0,2.3,0.2-2.5-6.8-5.4c-2.1-0.9-12,6.4-13.2,5.1
			c-0.3,2.1-0.2,3.5,0.8,5.2c2.9,5,10,5.4,11.9,5.4c6.5,0.3,7.3-3.2,14.4-3.6c8.1-0.5,9.3,3.9,15.1,2.1c5.3-1.7,7.1-6.3,11.2-5.3
			c2.6,0.6,3.3,2.7,5.7,2.5c2.4-0.2,5-2.7,5.1-5.1C269.6,217.2,266.2,213.3,260.9,213.3z"/>
		<linearGradient id="SVGID_70_" gradientUnits="userSpaceOnUse" x1="209.0544" y1="184.5879" x2="271.8057" y2="179.1621">
			<stop  offset="0" style="stop-color:#FF9085"/>
			<stop  offset="1" style="stop-color:#FB6FBB"/>
		</linearGradient>
		<path class="st70" d="M219.3,197.2c-0.8,1.6-1.7,3.3-2.5,4.9c1.3,0.7,14.9,7.9,24.8,0.8c1.2-0.9,4.5-3.2,6.2-7.8
			c1.9-5.1,0.8-9.8,0.1-12.8c-1.7-7.6-6.6-15.5-13.6-18.7c-2.7-1.2-5.8-1.8-8.8-2.4c-2.5-0.5-6.5-1.1-6.6-0.7c0,0.2,0.9,0.5,1.5,0.9
			c3.9,2.5-1.1,12.7,3.6,17.7c4.4,4.7,10.2,3.9,11.1,8.2c0.4,2-0.5,3.8-0.9,4.6C232.1,196.2,226.1,198.2,219.3,197.2z"/>
		
			<linearGradient id="SVGID_71_" gradientUnits="userSpaceOnUse" x1="467.4242" y1="276.006" x2="480.1206" y2="257.5757" gradientTransform="matrix(0.9787 -0.2054 0.2054 0.9787 -303.6863 -11.1412)">
			<stop  offset="0" style="stop-color:#FFC444"/>
			<stop  offset="0.9964" style="stop-color:#F36F56"/>
		</linearGradient>
		<path class="st71" d="M210.1,152.7c0,0,1.6,5.2,3.6,6c2,0.8,5.1,1.7,5.5,2.1c0.4,0.4-10.6,4.3-16.7,2.5l0,0
			c1.8-0.9,2.2-1.1,2.2-1.1c0.5-0.3,1.3-0.8,2.2-1.6c0.6-0.6,1.4-1.6,2.1-3.3l-0.6-3L210.1,152.7z"/>
		
			<linearGradient id="SVGID_72_" gradientUnits="userSpaceOnUse" x1="465.9838" y1="266.9607" x2="488.4231" y2="253.4513" gradientTransform="matrix(0.9787 -0.2054 0.2054 0.9787 -303.6863 -11.1412)">
			<stop  offset="0" style="stop-color:#FFC444"/>
			<stop  offset="0.9964" style="stop-color:#F36F56"/>
		</linearGradient>
		<path class="st72" d="M210.8,155c0,0-0.9,2.3-3.1,2c-2-0.3-1.9-5.9-0.5-6.8c0.4-0.3,1.4-0.4,2-0.2c0.5,0.2,1.9,1.5,1.6,3.4
			c0.4-0.3,0.9-0.2,1,0c0.2,0.3-0.1,0.8-0.2,0.9C211.3,154.8,211,154.9,210.8,155z"/>
	</g>
	<g>
		
			<linearGradient id="SVGID_73_" gradientUnits="userSpaceOnUse" x1="-983.3959" y1="223.3725" x2="-974.3714" y2="187.2741" gradientTransform="matrix(-1 0 0 1 -882.5667 0)">
			<stop  offset="0" style="stop-color:#FFC444"/>
			<stop  offset="0.463" style="stop-color:#FFC244"/>
			<stop  offset="0.6297" style="stop-color:#FEBB46"/>
			<stop  offset="0.7486" style="stop-color:#FCB048"/>
			<stop  offset="0.8447" style="stop-color:#FA9F4C"/>
			<stop  offset="0.9261" style="stop-color:#F78951"/>
			<stop  offset="0.9964" style="stop-color:#F36F56"/>
		</linearGradient>
		<path class="st73" d="M95.1,187.4c-0.7,0.3-11.1,4.4-13.3,15.3c-0.2,0.9-1.9,10.2,4.5,16.9c7.1,7.4,20.8,7.2,26.3,1
			c1.3-1.4,1.9-3,2.3-4.4l0,0l-1.4-3.8c-1.8-2.1-4.1-2.6-5.4-2.9c-3.1-0.8-5.5,0.6-7.3-0.9c-1-0.8-1.2-2-1.4-3.1
			c-0.6-3.7,1.5-5.9,1.6-8.2c0.1-1.7,0.7-5.4-1.5-7.8C98.1,188,96.2,187.6,95.1,187.4z"/>
		
			<linearGradient id="SVGID_74_" gradientUnits="userSpaceOnUse" x1="-1130.6152" y1="196.8621" x2="-1126.3344" y2="200.67" gradientTransform="matrix(-0.9902 -0.14 -0.14 0.9902 -999.7619 -46.2236)">
			<stop  offset="0" style="stop-color:#444B8C"/>
			<stop  offset="0.9964" style="stop-color:#26264F"/>
		</linearGradient>
		<path class="st74" d="M91,308.9c-0.1-0.7-2.3-1.3-3.4-0.4c-0.5,0.4-0.9,1.4-0.6,1.8c0.1,0.1-0.3,0.4,0.1,0.4
			C88.6,310.7,91.1,309.6,91,308.9z"/>
		
			<linearGradient id="SVGID_75_" gradientUnits="userSpaceOnUse" x1="-2051.7573" y1="200.6562" x2="-2051.7573" y2="193.1984" gradientTransform="matrix(-0.9902 -0.14 -0.14 0.9902 -1915.963 -175.7396)">
			<stop  offset="0" style="stop-color:#FFC444"/>
			<stop  offset="0.9964" style="stop-color:#F36F56"/>
		</linearGradient>
		<path class="st75" d="M88.7,309.2l-2.2-0.3c1-1.2,0.8-5.2,0.8-5.2l2.4,0.5c0,0-0.3,1.1-0.7,2.7C88.8,307.4,88.8,308.3,88.7,309.2z
			"/>
		
			<linearGradient id="SVGID_76_" gradientUnits="userSpaceOnUse" x1="-1130.1848" y1="196.3783" x2="-1125.9039" y2="200.1862" gradientTransform="matrix(-0.9902 -0.14 -0.14 0.9902 -999.7619 -46.2236)">
			<stop  offset="0" style="stop-color:#444B8C"/>
			<stop  offset="0.9964" style="stop-color:#26264F"/>
		</linearGradient>
		<path class="st76" d="M88.9,308.9c0,0-2.7-0.6-3-0.1c-0.3,0.5-0.5,2,1.2,1.9C88.9,310.7,89.1,309.4,88.9,308.9z"/>
		
			<linearGradient id="SVGID_77_" gradientUnits="userSpaceOnUse" x1="-1005.0799" y1="309.3624" x2="-1000.7988" y2="313.1705" gradientTransform="matrix(-1 0 0 1 -882.5667 0)">
			<stop  offset="0" style="stop-color:#444B8C"/>
			<stop  offset="0.9964" style="stop-color:#26264F"/>
		</linearGradient>
		<path class="st77" d="M121.6,311.4c-0.2-0.6-2.4-0.9-3.4,0.1c-0.5,0.5-0.7,1.5-0.3,1.8c0.1,0.1-0.3,0.5,0.2,0.4
			C119.5,313.6,121.8,312.1,121.6,311.4z"/>
		
			<linearGradient id="SVGID_78_" gradientUnits="userSpaceOnUse" x1="-1926.2662" y1="313.1781" x2="-1926.2662" y2="305.72" gradientTransform="matrix(-1 0 0 1 -1807.877 0)">
			<stop  offset="0" style="stop-color:#FFC444"/>
			<stop  offset="0.9964" style="stop-color:#F36F56"/>
		</linearGradient>
		<path class="st78" d="M119.4,312h-2.3c0.8-1.4,0.1-5.3,0.1-5.3l2.4,0.2c0,0-0.1,1.1-0.3,2.8C119.2,310.3,119.3,311.1,119.4,312z"
			/>
		
			<linearGradient id="SVGID_79_" gradientUnits="userSpaceOnUse" x1="-102.9454" y1="316.5981" x2="-130.8615" y2="203.8872" gradientTransform="matrix(1 0 0 1 221.6861 0)">
			<stop  offset="0" style="stop-color:#444B8C"/>
			<stop  offset="0.9964" style="stop-color:#26264F"/>
		</linearGradient>
		<path class="st79" d="M125.2,226.9c1,3.4,2.5,9,3.5,16c2.7,19.9-3.1,20.5-2,42.6c0.3,7-6.1,23.3-6.7,23.6c-0.3,0-0.6,0-0.9,0
			c-0.6,0-1.4-0.1-2.3-0.4c-1-0.2-4.7-10.1-3.8-16.1c0.6-4.2,0.4-8.7,0.1-17.7c-0.1-1.5-3.8-28.4-3.8-28.4l0,0
			c-1.1,10-2.4,18.4-3.6,25c-3.6,21.1-15.5,33.8-16.1,34.1c-0.1,0-1.2,0.5-2.1-0.1c-0.4-0.3-0.5-0.6-0.5-0.6
			c-0.3-0.2,0.1-21.1,3.7-36.7c5.2-22.7,3-28,4.6-38.2C96.8,221.2,125.2,226.9,125.2,226.9z"/>
		<linearGradient id="SVGID_80_" gradientUnits="userSpaceOnUse" x1="141.3995" y1="232.5718" x2="70.811" y2="183.4801">
			<stop  offset="0" style="stop-color:#FFC444"/>
			<stop  offset="0.463" style="stop-color:#FFC244"/>
			<stop  offset="0.6297" style="stop-color:#FEBB46"/>
			<stop  offset="0.7486" style="stop-color:#FCB048"/>
			<stop  offset="0.8447" style="stop-color:#FA9F4C"/>
			<stop  offset="0.9261" style="stop-color:#F78951"/>
			<stop  offset="0.9964" style="stop-color:#F36F56"/>
		</linearGradient>
		<path class="st80" d="M126.6,230.3c-3.1,1.6-11.2,4.5-20.9,3.1c-4.3-0.6-7.7-2-10.2-3.3c-0.1,0-0.2-0.1-0.2-0.1
			c2.5-7.6,0.5-11.6-0.4-15.4c-1.3-5.3-1.3-4.9-2.4-9.2c-1.8-7-2.1-14.1-0.9-15.6c3.3-3.9,9.3-4.1,12.4-4.2
			c3.5-0.1,11.5-1.3,15.9,2.6c0.1,0.1-0.8,0.6-0.4,1.1c0.4,0.5,1.8,2.2,3.1,4.5c0.9,1.7,1.8,3.6,2.6,6.5c1.5,5.1,1.9,9.4,2.1,11.3
			c0,0.6,0.1,1.2,0.1,1.8C128,222.7,127.3,227.2,126.6,230.3z"/>
		
			<linearGradient id="SVGID_81_" gradientUnits="userSpaceOnUse" x1="-1004.6494" y1="308.8787" x2="-1000.3684" y2="312.6867" gradientTransform="matrix(-1 0 0 1 -882.5667 0)">
			<stop  offset="0" style="stop-color:#444B8C"/>
			<stop  offset="0.9964" style="stop-color:#26264F"/>
		</linearGradient>
		<path class="st81" d="M119.5,311.7c0,0-2.7-0.2-3,0.3c-0.2,0.6-0.2,2,1.4,1.7C119.7,313.5,119.7,312.1,119.5,311.7z"/>
		<g>
			
				<linearGradient id="SVGID_82_" gradientUnits="userSpaceOnUse" x1="-914.4584" y1="102.5095" x2="-891.2748" y2="131.6774" gradientTransform="matrix(-0.9976 6.970000e-02 6.970000e-02 0.9976 -801.4642 134.2559)">
				<stop  offset="0" style="stop-color:#FFC444"/>
				<stop  offset="0.9964" style="stop-color:#F36F56"/>
			</linearGradient>
			<path class="st82" d="M114.1,181.2c0.9-1.9,0.3-3.9,0.2-4.4c-0.6-1.8-0.8-2.1-1.1-2.5l-0.5-0.5c0,0,0,0-0.1,0
				c-0.4-0.2-1.7-0.5-1.9-0.5c-0.9,0-2.5,3.3-3.1,8.2c-0.1,0.2-0.1,0.4-0.2,0.5c-0.4,1.1-0.8,2.3-1.1,3.3c-5.9,0.9-6.7,1.7-6.7,2.1
				c0,0.9,3.5,1.6,6,1.8c5.6,0.4,11.2-1.4,11.1-2.5c0-0.5-1.2-1-6-1.3c0.1-0.8,0.1-1.6,0.2-2.4C111.2,183.1,113.4,182.6,114.1,181.2
				z"/>
			<path class="st83" d="M114.6,172.8c-0.3,1.5-1.3,3-1.7,3.2c-0.1,0-0.4,0.2-0.7,0.5c0,0-0.1,0.1-0.1,0.2c-0.5,0.9,0.8,2.3,0.4,2.7
				c-0.3,0.3-1.2-0.3-1.4-0.1c-0.2,0.2,0.6,0.9,0.4,1.2c-0.1,0.2-0.6-0.1-1,0.2c-0.2,0.1-0.2,0.3-0.5,0.8c-0.2,0.3-0.4,0.6-0.5,0.7
				c-0.7,0.8-2.2,0.8-2.5,0.4c-0.1-0.1,0-0.2,0-0.5c0,0,0-0.3-0.2-0.7c-0.2-0.6-0.9-1.1-1.5-1.8c-1.2-1.3-1.4-2.2-1.5-2.5
				c0-0.1,0-0.2,0-0.3c-0.1-1.2,0.2-2.8,0.9-3.7c1.2-1.5,2.9-0.4,4.8-1.7c2.2-1.6,1.6-4.4,2.6-4.5
				C113.3,166.7,115.2,170,114.6,172.8z"/>
			
				<linearGradient id="SVGID_83_" gradientUnits="userSpaceOnUse" x1="-913.4805" y1="101.7322" x2="-890.2974" y2="130.8996" gradientTransform="matrix(-0.9976 6.970000e-02 6.970000e-02 0.9976 -801.4642 134.2559)">
				<stop  offset="0" style="stop-color:#FFC444"/>
				<stop  offset="0.9964" style="stop-color:#F36F56"/>
			</linearGradient>
			<path class="st84" d="M112,178.9c-0.3-0.6-1-0.2-1.1,0.4c-0.1,0.7,0.4,1.5,1,1.5C112.5,180.8,112.4,179.7,112,178.9z"/>
		</g>
		<g>
			<linearGradient id="SVGID_84_" gradientUnits="userSpaceOnUse" x1="92.482" y1="215.5888" x2="96.7448" y2="215.5888">
				<stop  offset="3.597000e-03" style="stop-color:#6165D7"/>
				<stop  offset="1" style="stop-color:#AA80F9"/>
			</linearGradient>
			<path class="st85" d="M96.4,225.3C96.4,225.3,96.4,225.3,96.4,225.3c-0.1,0-0.2-0.1-0.2-0.2c0.4-3.7-0.4-6.4-1-8.7
				c-0.2-0.6-0.3-1.1-0.5-1.7c-0.7-3-1.1-4.2-1.4-5.4c-0.2-0.8-0.5-1.6-0.8-3c0-0.1,0-0.2,0.1-0.2c0.1,0,0.2,0,0.2,0.1
				c0.4,1.4,0.6,2.2,0.8,3c0.3,1.2,0.7,2.4,1.4,5.4c0.1,0.5,0.3,1.1,0.5,1.7c0.7,2.4,1.5,5.1,1,8.9
				C96.6,225.2,96.5,225.3,96.4,225.3z"/>
		</g>
		<linearGradient id="SVGID_85_" gradientUnits="userSpaceOnUse" x1="95.5399" y1="222.2059" x2="127.6645" y2="222.2059">
			<stop  offset="0" style="stop-color:#FFC444"/>
			<stop  offset="0.463" style="stop-color:#FFC244"/>
			<stop  offset="0.6297" style="stop-color:#FEBB46"/>
			<stop  offset="0.7486" style="stop-color:#FCB048"/>
			<stop  offset="0.8447" style="stop-color:#FA9F4C"/>
			<stop  offset="0.9261" style="stop-color:#F78951"/>
			<stop  offset="0.9964" style="stop-color:#F36F56"/>
		</linearGradient>
		<path class="st86" d="M126.6,230.3c-3.1,1.6-11.2,4.5-20.9,3.1c-4.3-0.6-7.7-2-10.2-3.3c1.1-0.9,2.5-2.3,4.8-4.8
			c2.8-3,6-1.9,7.9-0.7c1.4,0.8,3.1,0.8,4.5,0.1c1.4-0.8,2.3-2.2,2.3-3.8c0-0.7,0-1.6-0.1-2.5c-0.7-6.8,8.8-7.4,8.8-7.4
			c1.3-0.7,2.6,0.4,3.8,2.5C128,222.7,127.3,227.2,126.6,230.3z"/>
		<linearGradient id="SVGID_86_" gradientUnits="userSpaceOnUse" x1="152.4706" y1="200.5167" x2="158.8757" y2="208.5752">
			<stop  offset="0" style="stop-color:#FFC444"/>
			<stop  offset="0.9964" style="stop-color:#F36F56"/>
		</linearGradient>
		<path class="st87" d="M159.7,199.9c-0.4,0-0.8,0.4-1.2,0.6c-0.5,0.3-0.9,0.5-1.4,0.8c-0.9,0.5-1.9,0.8-2.9,0.8
			c0-0.1,0.1-0.3,0.1-0.4c0.2-0.4,0.4-0.8,0.3-0.9c-0.2-0.2-1.1,0.2-1.9,1c-0.3,0.3-0.6,0.7-0.9,1.1c-0.4,0.7-0.3,1.1-0.7,1.6
			c-0.5,0.5-0.9,0.6-0.9,0.6v0.1l0.1,0.2c-0.5,0.3-1,0.6-1.4,0.7c0.7,0.2,1.4,0.4,2.1,0.6l0.5,0.8c0,0,2.7-0.6,4.3-1.5
			c0.8-0.5,1-1,1.1-1.5c0-0.3,0-0.6,0-0.8c0-0.1-0.1-0.2-0.1-0.2s2.2-0.9,3.1-2.9C160,200.2,160,199.9,159.7,199.9z"/>
		
			<linearGradient id="SVGID_87_" gradientUnits="userSpaceOnUse" x1="-964.2513" y1="236.4785" x2="-1031.7122" y2="189.562" gradientTransform="matrix(-1 0 0 1 -882.5667 0)">
			<stop  offset="0" style="stop-color:#FFC444"/>
			<stop  offset="0.463" style="stop-color:#FFC244"/>
			<stop  offset="0.6297" style="stop-color:#FEBB46"/>
			<stop  offset="0.7486" style="stop-color:#FCB048"/>
			<stop  offset="0.8447" style="stop-color:#FA9F4C"/>
			<stop  offset="0.9261" style="stop-color:#F78951"/>
			<stop  offset="0.9964" style="stop-color:#F36F56"/>
		</linearGradient>
		<path class="st88" d="M150.3,204.2c1.3,0.9,1.9,2.1,2.3,2.8c-0.9,2.2-3,6.2-7.4,9.2c-7.1,4.9-17.5,5-24.8-0.5
			c-8.7-6.6-10.1-19.3-6.5-24.8c0.4-0.6,1.8-2.7,3.9-2.9c1.4-0.1,3.2,0.4,6.1,3.8c6.1,7.1,3.9,11.5,7.5,13.6
			C136.9,208.5,144.9,200.3,150.3,204.2z"/>
	</g>
</g>
</svg>
