<?xml version="1.0" encoding="utf-8"?>
<!-- Generator: Adobe Illustrator 25.3.1, SVG Export Plug-In . SVG Version: 6.00 Build 0)  -->
<svg version="1.1" id="Capa_1" xmlns="http://www.w3.org/2000/svg" xmlns:xlink="http://www.w3.org/1999/xlink" x="0px" y="0px"
	 viewBox="0 0 300 300" style="enable-background:new 0 0 300 300;" xml:space="preserve">
<style type="text/css">
	.st0{fill:#DEECE9;}
	.st1{fill:#BED5DC;}
	.st2{fill:#42438F;}
	.st3{fill:#B2C9C6;}
	.st4{fill:#9CBCB6;}
	.st5{fill:#75A2BD;}
	.st6{fill:#CFD3A3;}
	.st7{fill:#C5C796;}
	.st8{fill:#2F1A31;}
	.st9{opacity:0.6;}
	.st10{opacity:0.5;}
	.st11{fill:#97A6D5;}
	.st12{fill:#E38669;}
	.st13{fill:#704A76;}
	.st14{fill:#030304;}
	.st15{fill:#EAA679;}
	.st16{fill:#FFFFFF;}
	.st17{fill:#171730;}
	.st18{fill:#F7B788;}
	.st19{fill:#DD8964;}
	.st20{fill:#E08B66;}
</style>
<g>
	<g>
		<path class="st0" d="M180.5,234.7c-20.8,2.6-47.3,6.9-91.1,4.2c-24.6-1.5-17.5-3.1-42.2-2.9c-18,0.1-25.2-54.6-25.2-71.1l2.8-13.5
			l-0.4,5.3c0.5-1.1,0.7-2.2,0.9-3.4c1.5-13.9,49-62.8,66.3-61.9c16.7,0.9,8.8-8.9,34.4-11.1c30.4-2.6,47.9,37.1,77.7,39.7
			c17.9,1.5,36.2,45.8,36.7,71.1l-10.9,24.3C228.8,223.1,198.3,232.4,180.5,234.7z"/>
	</g>
	<g>
		<ellipse class="st1" cx="123.3" cy="216.2" rx="93.9" ry="10.6"/>
	</g>
	<g>
		<path class="st2" d="M63.1,220.8l-0.1-0.2c0,0,1.4-0.9,1.6-2c0.1-0.4,0-0.7-0.3-1c-0.2-0.2-0.4-0.3-0.6-0.3c0,0,0,0,0,0
			c-1.2,0-2.9,2.5-2.9,2.5l-0.3,0.4l0.1-0.5c0,0,0.4-2.2-0.4-2.8c-0.2-0.2-0.6-0.2-1-0.1c-0.4,0.2-0.8,0.4-0.9,0.8
			c-0.5,1.2,0.4,3.1,0.4,3.1l-0.2,0.1c0-0.1-1-2-0.4-3.3c0.2-0.5,0.6-0.8,1.1-1c0.5-0.2,0.9-0.1,1.2,0.1c0.6,0.5,0.6,1.9,0.5,2.6
			c0.6-0.7,1.8-2.2,2.8-2.2c0.3,0,0.6,0.1,0.8,0.4c0.3,0.4,0.4,0.8,0.3,1.2C64.6,219.8,63.2,220.7,63.1,220.8z"/>
	</g>
	<g>
		<path class="st2" d="M142.5,224l-0.1-0.2c0,0,1.4-0.9,1.6-2c0.1-0.4,0-0.7-0.3-1c-0.2-0.2-0.4-0.3-0.6-0.3c-1.2,0-2.9,2.5-2.9,2.5
			l-0.3,0.4l0.1-0.5c0,0,0.4-2.2-0.4-2.8c-0.2-0.2-0.6-0.2-1-0.1c-0.4,0.2-0.8,0.4-0.9,0.8c-0.5,1.2,0.4,3.1,0.4,3.1l-0.2,0.1
			c0-0.1-1-2-0.4-3.3c0.2-0.5,0.6-0.8,1.1-1c0.5-0.2,0.9-0.1,1.2,0.1c0.6,0.5,0.6,1.9,0.5,2.6c0.6-0.7,1.8-2.2,2.8-2.2
			c0.3,0,0.6,0.1,0.8,0.4c0.3,0.4,0.4,0.8,0.3,1.2C144,223,142.6,224,142.5,224z"/>
	</g>
	<g>
		<path class="st2" d="M35.3,216.9c0-0.1,0-0.2,0.1-0.3c0.2-0.2,0.6-0.3,0.9-0.3c-0.4-0.1-0.9-0.4-1-0.7c0-0.1,0-0.2,0.1-0.4
			c0.5-0.7,2.1,0.4,2.2,0.4l-0.1,0.1c-0.4-0.3-1.7-0.9-2-0.5c-0.1,0.1-0.1,0.2,0,0.2c0.1,0.4,1.1,0.7,1.4,0.7l0,0.1
			c0,0-1-0.1-1.3,0.2c-0.1,0.1-0.1,0.1-0.1,0.2L35.3,216.9z"/>
	</g>
	<g>
		<path class="st2" d="M65.6,212.5l-0.1,0c0-0.1,0-0.2-0.1-0.2c-0.3-0.3-1.3-0.2-1.3-0.2l0-0.1c0.4-0.1,1.3-0.4,1.4-0.7
			c0-0.1,0-0.1,0-0.2c-0.3-0.5-1.6,0.2-2,0.5l-0.1-0.1c0.1,0,1.7-1.1,2.2-0.4c0.1,0.1,0.1,0.2,0.1,0.4c-0.1,0.3-0.6,0.5-1,0.7
			c0.3,0,0.7,0.1,0.9,0.3C65.5,212.3,65.6,212.4,65.6,212.5z"/>
	</g>
	<g>
		<path class="st2" d="M183.5,219.3l-0.2,0c0-0.2,0-0.3-0.1-0.4c-0.4-0.4-1.8-0.4-2.3-0.4l0-0.2c0.6-0.1,2.2-0.7,2.4-1.3
			c0-0.1,0-0.3-0.1-0.4c-0.6-0.8-2.7,0.3-3.4,0.8l-0.1-0.2c0.1-0.1,2.9-1.9,3.8-0.8c0.1,0.2,0.2,0.4,0.1,0.6
			c-0.2,0.5-1.1,0.9-1.8,1.2c0.6,0,1.3,0.1,1.6,0.5C183.5,218.8,183.5,219,183.5,219.3z"/>
	</g>
	<g>
		<path class="st2" d="M202,218.3c0-0.4-0.2-0.7-0.4-0.8c-0.5-0.3-1.4,0-1.4,0l-0.3,0.1l0.2-0.2c0,0,0.6-0.7,0.5-1.2
			c0-0.2-0.2-0.3-0.5-0.4c-1.1-0.4-2,1.9-2.1,2c0,0,0,0,0,0l-0.1-0.1c0,0,0,0,0,0c0,0,0.2-0.5,0-0.8c-0.1-0.2-0.4-0.3-0.7-0.3
			c-0.3,0-0.6,0.1-0.7,0.2c-0.2,0.3,0,0.9,0,0.9l-0.1,0.1c0,0-0.3-0.7,0-1.1c0.2-0.2,0.4-0.3,0.8-0.3c0.4,0,0.7,0.2,0.8,0.4
			c0.1,0.1,0.1,0.3,0.1,0.4c0.4-0.7,1.1-1.9,2-1.6c0.3,0.1,0.5,0.3,0.6,0.5c0.1,0.4-0.2,0.9-0.4,1.2c0.3-0.1,0.9-0.2,1.3,0.1
			c0.3,0.2,0.5,0.5,0.5,0.9L202,218.3z"/>
	</g>
	<g>
		<g>
			<path class="st1" d="M206,213.3c0,0-2.7-2.8-1.8-4.3c0.9-1.6,2.5,3.4,2.5,3.4s-0.8-5.9,0.9-6c1.7-0.1,0,6,0,6s0.6-1.4,1.2-1.5
				c0.6-0.1,0.4,1.2-0.7,2.5H206z"/>
		</g>
		<g>
			<path class="st2" d="M206.2,213.4c0,0-0.8-0.8-1.4-1.8c-0.9-1.4-1.1-2.5-0.6-3.2c0.2-0.3,0.4-0.4,0.6-0.4
				c0.8,0.1,1.7,2.2,2.1,3.4c-0.1-1.5-0.3-4.6,0.5-5.6c0.2-0.2,0.4-0.3,0.7-0.4c0.3,0,0.5,0.1,0.6,0.3c0.8,0.9,0.1,4.3-0.3,5.8
				c0.3-0.5,0.7-1,1.1-1c0.2,0,0.3,0,0.4,0.2c0.2,0.5-0.1,1.6-1.1,2.7l-0.1-0.1c1-1.1,1.2-2.2,1.1-2.5c0-0.1-0.1-0.1-0.2-0.1
				c-0.5,0.1-1.1,1.2-1.3,1.6l-0.2-0.1c0,0,0.4-1.3,0.6-2.8c0.3-1.9,0.3-3.2-0.1-3.6c-0.1-0.1-0.3-0.2-0.4-0.2
				c-0.2,0-0.4,0.1-0.5,0.3c-1.1,1.3-0.4,6.3-0.4,6.4l-0.2,0c-0.4-1.1-1.4-4-2.2-4.1c-0.2,0-0.3,0.1-0.4,0.3c-1,1.7,2,4.8,2,4.8
				L206.2,213.4z"/>
		</g>
	</g>
	<g>
		<g>
			<path class="st1" d="M184.3,210c0,0-6-6.2-4-9.7c2.1-3.5,5.6,7.5,5.6,7.5s-1.8-13.1,1.9-13.3c3.8-0.2,0,13.3,0,13.3
				s1.4-3.2,2.8-3.3c1.4-0.2,1,2.7-1.5,5.5H184.3z"/>
		</g>
		<g>
			<path class="st2" d="M184.7,210.1c0,0-1.7-1.8-3.2-4c-1.9-3.1-2.4-5.5-1.4-7.2c0.4-0.6,0.8-0.9,1.4-0.9c1,0.1,2.3,1.8,3.6,4.9
				c0.4,1,0.8,1.9,1.1,2.7c-0.1-1.1-0.2-2.6-0.3-4.1c-0.1-4.3,0.4-7.2,1.4-8.4c0.4-0.5,0.9-0.8,1.5-0.8c0.6,0,1,0.2,1.4,0.6
				c1.7,2.1,0.2,9.5-0.7,13c0.6-1,1.5-2.1,2.4-2.3c0.4-0.1,0.8,0.1,1,0.5c0.5,1-0.2,3.6-2.4,6.1l-0.3-0.3c2.2-2.5,2.8-4.9,2.4-5.6
				c-0.1-0.2-0.3-0.3-0.5-0.2c-1.2,0.2-2.5,2.7-3,3.7l-0.4-0.1c0,0,0.8-3,1.4-6.3c0.7-4.3,0.7-7.1-0.2-8.1c-0.3-0.3-0.6-0.5-1-0.4
				c-0.5,0-0.8,0.2-1.2,0.6c-2.4,2.9-0.9,14.1-0.8,14.2l-0.4,0.1c-0.8-2.5-3.2-9-5-9.2c-0.3,0-0.6,0.2-0.9,0.7
				c-2.2,3.8,4.4,10.6,4.5,10.7L184.7,210.1z"/>
		</g>
	</g>
	<g>
		<g>
			<path class="st1" d="M42.9,212.4c0,0-4.4-4.5-2.9-7c1.5-2.5,4,5.5,4,5.5s-1.3-9.4,1.4-9.6c2.7-0.2,0,9.6,0,9.6s1-2.3,2-2.4
				c1-0.1,0.7,1.9-1.1,4H42.9z"/>
		</g>
		<g>
			<path class="st2" d="M43.2,212.5c-0.2-0.2-5-5.2-3.3-8.1c0.3-0.5,0.6-0.7,1-0.6c0.8,0.1,1.6,1.3,2.6,3.5c0.3,0.7,0.6,1.4,0.8,1.9
				c-0.2-2.5-0.5-7.4,0.8-9.1c0.3-0.4,0.7-0.6,1.1-0.6c0.4,0,0.7,0.1,1,0.4c1.2,1.5,0.1,6.9-0.5,9.4c0.5-0.7,1.1-1.6,1.8-1.6
				c0.3,0,0.6,0.1,0.7,0.3c0.4,0.7-0.2,2.6-1.8,4.4l-0.2-0.2c1.6-1.8,2-3.5,1.7-4.1c-0.1-0.1-0.2-0.2-0.4-0.2
				c-0.8,0.1-1.8,2-2.1,2.7l-0.3-0.1c0,0,0.6-2.2,1-4.5c0.5-3.1,0.5-5.1-0.1-5.9c-0.2-0.2-0.4-0.3-0.7-0.3c-0.3,0-0.6,0.2-0.8,0.5
				c-1.7,2.1-0.6,10.2-0.6,10.3l-0.3,0.1c-0.6-1.8-2.3-6.5-3.6-6.6c-0.2,0-0.5,0.1-0.7,0.5c-1.6,2.7,3.2,7.7,3.2,7.7L43.2,212.5z"/>
		</g>
	</g>
	<g>
		<path class="st2" d="M89.4,224c0,0-0.7-0.7-1.3-1.6c-0.8-1.2-1-2.2-0.5-2.9c0.2-0.3,0.3-0.4,0.5-0.4c0.7,0.1,1.5,1.9,1.9,3
			c-0.1-1.4-0.3-4.1,0.5-5c0.2-0.2,0.4-0.3,0.6-0.3c0.2,0,0.4,0.1,0.5,0.2c0.7,0.8,0.1,3.8-0.3,5.2c0.3-0.4,0.6-0.9,1-0.9
			c0.2,0,0.3,0,0.4,0.2c0.2,0.4-0.1,1.4-1,2.4l-0.1-0.1c0.9-1,1.1-1.9,0.9-2.2c0-0.1-0.1-0.1-0.2-0.1c-0.5,0.1-1,1.1-1.2,1.5
			l-0.2-0.1c0,0,0.3-1.2,0.6-2.5c0.3-1.7,0.3-2.8-0.1-3.2c-0.1-0.1-0.2-0.2-0.4-0.2c-0.2,0-0.3,0.1-0.5,0.3
			c-0.9,1.2-0.3,5.6-0.3,5.7l-0.2,0c-0.3-1-1.3-3.6-2-3.7c-0.1,0-0.3,0.1-0.4,0.3c-0.9,1.5,1.8,4.2,1.8,4.3L89.4,224z"/>
	</g>
	<g>
		<g>
			<g>
				<path class="st3" d="M78.8,121.8c-1.1,0.9-1.8,0.9-2.2,0.4c-0.4-0.4-0.3-1.1,0.8-2c2.1-1.7,3.8-1.7,3.8-1.7
					S80.9,120.1,78.8,121.8z"/>
			</g>
			<g>
				<path class="st3" d="M80.3,131.3c-0.8,1.3-1.4,1.4-1.9,1.1c-0.5-0.3-0.7-0.9,0.1-2.2c1.4-2.3,3-2.9,3-2.9S81.7,129,80.3,131.3z"
					/>
			</g>
			<g>
				<g>
					<g>
						<path class="st3" d="M83.7,156.2l-0.3,0c0,0-0.3-4.4-2.8-10.5c-2.3-5.6-6.8-13.8-15.8-21.3l0.2-0.2c9,7.5,13.6,15.8,15.9,21.4
							C83.3,151.7,83.7,156.1,83.7,156.2z"/>
					</g>
				</g>
				<g>
					<g>
						<path class="st3" d="M74.2,134l-0.3-0.1c4.1-9.4-0.9-19.1-0.9-19.2l0.2-0.1C73.3,114.6,78.3,124.5,74.2,134z"/>
					</g>
				</g>
				<g>
					<g>
						<path class="st3" d="M69.3,130.2c-2.8,0.5-5.2-0.6-5.2-0.6l0.1-0.3c0,0,3.1,1.4,6.3,0.3l0.1,0.3
							C70.1,130,69.7,130.1,69.3,130.2z"/>
					</g>
				</g>
				<g>
					<g>
						<path class="st3" d="M82.2,150c-5.8,0.3-10.9-1.8-15.1-6.1c-0.1-0.1-0.3-0.3-0.3-0.3c0,0,0,0,0,0l0-0.3c0.1,0,0.1,0.1,0.4,0.4
							c4.1,4.2,9.1,6.2,14.8,6L82.2,150z"/>
					</g>
				</g>
				<g>
					<g>
						<path class="st3" d="M73.7,148.3l-0.3,0c0.4-3.8-2.9-8.8-2.9-8.8l0.2-0.2c0,0,0.9,1.3,1.6,3C73.1,143.9,73.9,146.2,73.7,148.3
							z"/>
					</g>
				</g>
				<g>
					<g>
						<path class="st3" d="M64.4,122.9c1.7,1.1,1.9,1.8,1.6,2.3c-0.3,0.5-1.1,0.6-2.8-0.5c-3.1-2-4-3.8-4-3.8S61.3,120.9,64.4,122.9
							z"/>
					</g>
				</g>
				<g>
					<g>
						<path class="st3" d="M64.7,128.5c1.9,0.5,2.4,1.1,2.2,1.7c-0.2,0.6-0.9,0.9-2.8,0.3c-3.5-1-4.9-2.5-4.9-2.5
							S61.1,127.5,64.7,128.5z"/>
					</g>
				</g>
				<g>
					<g>
						<path class="st3" d="M71.2,138.4c0.9,1.2,0.8,1.8,0.3,2.2c-0.5,0.3-1.1,0.3-2-0.9c-1.6-2.2-1.5-3.9-1.5-3.9
							S69.5,136.2,71.2,138.4z"/>
					</g>
				</g>
				<g>
					<g>
						<path class="st3" d="M71.4,125.3c0.6,1.4,0.3,2-0.2,2.2c-0.5,0.2-1.1,0-1.7-1.4c-1-2.5-0.5-4.1-0.5-4.1S70.4,122.7,71.4,125.3
							z"/>
					</g>
				</g>
				<g>
					<g>
						<path class="st3" d="M77.1,146.2c0.2,1.5-0.3,2-0.8,2c-0.6,0.1-1.1-0.3-1.2-1.8c-0.3-2.7,0.6-4.1,0.6-4.1
							S76.8,143.5,77.1,146.2z"/>
					</g>
				</g>
				<g>
					<g>
						<path class="st3" d="M68.4,143.5c1.1,1,1.1,1.6,0.8,2.1c-0.4,0.4-1,0.5-2.1-0.5c-2-1.8-2.3-3.4-2.3-3.4S66.3,141.7,68.4,143.5
							z"/>
					</g>
				</g>
				<g>
					<g>
						<path class="st3" d="M73.7,113.3c0.8,1.8,0.6,2.6,0,2.8c-0.5,0.2-1.2-0.1-2-2c-1.4-3.4-1.1-5.4-1.1-5.4S72.3,109.9,73.7,113.3
							z"/>
					</g>
				</g>
			</g>
		</g>
	</g>
	<g>
		<path class="st3" d="M103.1,196.8c0,0-27.2-55.3-42-47.3c-14.7,8,26.5,33,33.9,49.4L103.1,196.8z"/>
	</g>
	<g>
		<g>
			<path class="st4" d="M89.1,186.1c0,0-33.2-42.1-46.8-32.1c-13.6,10,29.9,23,39.1,35.6L89.1,186.1z"/>
		</g>
		<g>
			<g>
				<path class="st5" d="M84.8,188.1c-6.2-8.8-15.9-16.2-23-20.8c-7.6-5-13.9-8-14-8l0.2-0.4c0.1,0,6.3,3,14,8
					c7.1,4.6,16.8,12,23.1,20.9L84.8,188.1z"/>
			</g>
		</g>
	</g>
	<g>
		<g>
			<g>
				<path class="st6" d="M47.8,193.1c7.3,2.1,5.3,13.2,13.8,11.6c8.5-1.5,7.9-2.1,11.7,1.8c0,0,1.3,3.6,4.6,4.4
					c13,3.2,32.3-15.1,19.3-26.7c-0.9-0.8-2.4-1.2-3.9-1.6c-8.6-1.9-11.6,1.9-17.7-8.8c-6.2-10.7-16.4,3.4-22.2,2.5
					c-5.8-0.9-10.8-3-15.7,2.9C32.7,185,40.5,191,47.8,193.1z"/>
			</g>
		</g>
		<g>
			<g>
				<g>
					<path class="st7" d="M92.1,198.1l0.3-0.4c-0.2-0.1-17.8-13.5-55.9-16.9l0,0.5C74.4,184.7,91.9,198,92.1,198.1z"/>
				</g>
			</g>
			<g>
				<g>
					<path class="st7" d="M69.3,181.8c5.3-4.2,6.5-7.7,6.5-7.9l-0.5-0.1c0,0-1.1,3.6-6.3,7.6L69.3,181.8z"/>
				</g>
			</g>
			<g>
				<g>
					<path class="st7" d="M68.1,187.1c1.6-2.4,1.7-6,0.3-10.4c-1-3.3-2.6-5.9-2.6-6l-0.4,0.2c0.1,0.1,5.9,10.4,2.3,15.9L68.1,187.1z
						"/>
				</g>
			</g>
			<g>
				<g>
					<path class="st7" d="M58.1,185.5c0.6-0.5,1-0.8,1-0.8l-0.3-0.4c-0.1,0.1-7.4,6.5-17.4,5.5l0,0.5
						C49.4,191.2,55.7,187.3,58.1,185.5z"/>
				</g>
			</g>
			<g>
				<g>
					<path class="st7" d="M52.4,196.7c2.5-2.4,3.3-4.9,3.6-6.6c0.3-1.8,0-3.1,0-3.1l-0.5,0.1c0,0,1.1,4.9-3.4,9.3L52.4,196.7z"/>
				</g>
			</g>
		</g>
	</g>
	<g>
		<g>
			<path class="st8" d="M99.4,209.4c0,0,0.1,2.4,1.7,3.1c1.6,0.7,6.3,1.3,4.6,2.8c-1,0.9-5.7,0.3-7.1,0.3c-1.3,0-2.6,0.6-3.6-0.3
				c-1.1-1,0-5.9,0-5.9s1.2,0.6,2.2,0.6C98.7,210,99.4,209.4,99.4,209.4z"/>
		</g>
		<g>
			<path class="st8" d="M80.8,209.4c0,0,0.1,2.4,1.7,3.1c1.6,0.7,6.3,1.3,4.6,2.8c-1,0.9-5.7,0.3-7.1,0.3c-1.3,0-2.6,0.6-3.6-0.3
				c-1.1-1,0-5.9,0-5.9s1.2,0.6,2.2,0.6C80.1,210,80.8,209.4,80.8,209.4z"/>
		</g>
	</g>
	<g class="st9">
		<path class="st3" d="M137.9,189.6c0,0,14.4-51,28.1-46.5c13.7,4.4-17.2,32-20.9,47L137.9,189.6z"/>
	</g>
	<g>
		<g>
			<path class="st6" d="M150.4,177.1c0,0,24.8-43.1,38.6-35.7c13.8,7.3-24.3,25.1-31.1,37.8L150.4,177.1z"/>
		</g>
		<g>
			<g>
				<path class="st7" d="M154.6,178.4c4.5-8.9,12.4-16.9,18.3-22.1c6.3-5.6,11.7-9.2,11.7-9.2l-0.2-0.3c-0.1,0-5.4,3.6-11.8,9.2
					c-5.9,5.2-13.8,13.3-18.4,22.3L154.6,178.4z"/>
			</g>
		</g>
	</g>
	<g>
		<g>
			<g>
				<path class="st3" d="M186.7,184c-6,1.7-4.4,10.8-11.4,9.6c-7-1.2-6.5-1.7-9.6,1.5c0,0-1.1,3-3.8,3.6
					c-10.7,2.6-26.6-12.4-15.9-22c0.8-0.7,1.9-1,3.2-1.3c7.1-1.6,9.5,1.5,14.6-7.2c5.1-8.8,13.5,2.8,18.2,2
					c4.8-0.7,8.9-2.5,12.9,2.4C199.1,177.4,192.6,182.3,186.7,184z"/>
			</g>
		</g>
		<g class="st10">
			<g>
				<g>
					<path class="st5" d="M150.2,188.1l-0.2-0.3c0.1-0.1,14.6-11.1,46-13.9l0,0.4C164.8,177.2,150.4,188,150.2,188.1z"/>
				</g>
			</g>
			<g>
				<g>
					<path class="st5" d="M169,174.7c-4.4-3.5-5.3-6.4-5.4-6.5l0.4-0.1c0,0,0.9,2.9,5.2,6.3L169,174.7z"/>
				</g>
			</g>
			<g>
				<g>
					<path class="st5" d="M170,179.1c-1.3-2-1.4-4.9-0.2-8.6c0.9-2.7,2.1-4.9,2.1-4.9l0.4,0.2c0,0.1-4.9,8.5-1.9,13.1L170,179.1z"/>
				</g>
			</g>
			<g>
				<g>
					<path class="st5" d="M178.2,177.8c-0.5-0.4-0.8-0.6-0.8-0.6l0.3-0.3c0.1,0.1,6.1,5.3,14.3,4.5l0,0.4
						C185.4,182.4,180.2,179.2,178.2,177.8z"/>
				</g>
			</g>
			<g>
				<g>
					<path class="st5" d="M182.9,187c-2-2-2.7-4.1-2.9-5.4c-0.2-1.5,0-2.5,0-2.6l0.4,0.1c0,0-0.9,4,2.8,7.6L182.9,187z"/>
				</g>
			</g>
		</g>
	</g>
	<g>
		<g>
			<path class="st11" d="M152.9,214.2l-41,1.6c-2.5,0.1-4.6-2.1-4.9-5l-2.4-25.4c-0.5-5.7,3.2-10.7,8-10.7h40.7
				c2.7,0,4.8,2.6,4.7,5.8l-0.7,28.2C157.4,211.7,155.4,214.1,152.9,214.2z"/>
		</g>
		<g>
			<g>
				<path class="st0" d="M121,205.1c-0.1,0-0.1-0.1-0.1-0.1c0-0.1,0-0.1,0.1-0.1c0.4,0,0.7,0,1.1,0c0.1,0,0.1,0.1,0.1,0.1
					c0,0.1,0,0.1-0.1,0.1C121.8,205.1,121.4,205.1,121,205.1C121,205.1,121,205.1,121,205.1z M119.9,205.1
					C119.9,205.1,119.9,205.1,119.9,205.1c-0.4,0-0.8,0-1.1,0c-0.1,0-0.1-0.1-0.1-0.1c0-0.1,0.1-0.1,0.1-0.1c0,0,0,0,0,0
					c0.4,0,0.7,0,1.1,0c0.1,0,0.1,0.1,0.1,0.1C120,205,120,205.1,119.9,205.1z M123.3,205c-0.1,0-0.1-0.1-0.1-0.1
					c0-0.1,0-0.1,0.1-0.1c0.4,0,0.7,0,1.1,0c0.1,0,0.1,0.1,0.1,0.1c0,0.1,0,0.1-0.1,0.1C124,205,123.7,205,123.3,205
					C123.3,205,123.3,205,123.3,205z M117.7,205C117.7,205,117.7,205,117.7,205c-0.4,0-0.8,0-1.1,0c-0.1,0-0.1-0.1-0.1-0.1
					c0-0.1,0.1-0.1,0.1-0.1c0.4,0,0.7,0,1.1,0c0.1,0,0.1,0.1,0.1,0.1C117.8,205,117.7,205,117.7,205z M115.4,204.9
					C115.4,204.9,115.4,204.9,115.4,204.9c-0.4,0-0.8,0-1.1-0.1c-0.1,0-0.1-0.1-0.1-0.1c0-0.1,0.1-0.1,0.1-0.1c0.4,0,0.7,0,1.1,0.1
					c0.1,0,0.1,0.1,0.1,0.1C115.6,204.9,115.5,204.9,115.4,204.9z M125.5,204.9c-0.1,0-0.1-0.1-0.1-0.1c0-0.1,0-0.1,0.1-0.1
					c0.4,0,0.7,0,1.1-0.1c0.1,0,0.1,0.1,0.1,0.1c0,0.1,0,0.1-0.1,0.1C126.3,204.9,125.9,204.9,125.5,204.9
					C125.5,204.9,125.5,204.9,125.5,204.9z M113.2,204.8C113.2,204.8,113.2,204.8,113.2,204.8c-0.4,0-0.8-0.1-1.1-0.1
					c-0.1,0-0.1-0.1-0.1-0.2c0-0.1,0.1-0.1,0.1-0.1c0.3,0,0.7,0.1,1.1,0.1c0.1,0,0.1,0.1,0.1,0.2
					C113.3,204.7,113.3,204.8,113.2,204.8z M127.8,204.8c-0.1,0-0.1-0.1-0.1-0.1c0-0.1,0-0.1,0.1-0.2c0.4,0,0.8-0.1,1.1-0.1
					c0.1,0,0.1,0.1,0.1,0.1c0,0.1,0,0.1-0.1,0.2C128.5,204.7,128.1,204.7,127.8,204.8C127.8,204.8,127.8,204.8,127.8,204.8z
					 M111,204.6C111,204.6,111,204.6,111,204.6c-0.7-0.1-1.1-0.1-1.1-0.1c-0.1,0-0.1-0.1-0.1-0.2c0-0.1,0.1-0.1,0.1-0.1
					c0,0,0.4,0.1,1.1,0.1c0.1,0,0.1,0.1,0.1,0.2C111.1,204.5,111,204.6,111,204.6z M130,204.5c-0.1,0-0.1-0.1-0.1-0.1
					c0-0.1,0-0.1,0.1-0.2c0.2,0,0.4,0,0.5-0.1c0.2,0,0.4-0.1,0.6-0.1c0.1,0,0.1,0,0.1,0.1c0,0.1,0,0.1-0.1,0.2c-0.2,0-0.4,0-0.6,0.1
					C130.4,204.5,130.2,204.5,130,204.5C130,204.5,130,204.5,130,204.5z M132.2,204.2c-0.1,0-0.1-0.1-0.1-0.1c0-0.1,0-0.1,0.1-0.2
					c0.4,0,0.7-0.1,1.1-0.1c0.1,0,0.1,0.1,0.1,0.1c0,0.1,0,0.1-0.1,0.2C133,204.2,132.6,204.2,132.2,204.2
					C132.2,204.2,132.2,204.2,132.2,204.2z M134.5,204c-0.1,0-0.1-0.1-0.1-0.1c0-0.1,0-0.1,0.1-0.2c0.4,0,0.7-0.1,1.1-0.1
					c0.1,0,0.1,0.1,0.1,0.1c0,0.1,0,0.1-0.1,0.2C135.2,204,134.8,204,134.5,204C134.5,204,134.5,204,134.5,204z M136.7,203.8
					c-0.1,0-0.1-0.1-0.1-0.1c0-0.1,0-0.1,0.1-0.1c0.4,0,0.7-0.1,1.1-0.1c0.1,0,0.1,0.1,0.1,0.1c0,0.1,0,0.1-0.1,0.1
					C137.4,203.8,137.1,203.8,136.7,203.8C136.7,203.8,136.7,203.8,136.7,203.8z M138.9,203.7c-0.1,0-0.1-0.1-0.1-0.1
					c0-0.1,0-0.1,0.1-0.1c0.4,0,0.7,0,1.1-0.1c0.1,0,0.1,0.1,0.1,0.1c0,0.1,0,0.1-0.1,0.1C139.7,203.7,139.3,203.7,138.9,203.7
					C138.9,203.7,138.9,203.7,138.9,203.7z M141.2,203.6c-0.1,0-0.1-0.1-0.1-0.1c0-0.1,0-0.1,0.1-0.1c0.4,0,0.7,0,1.1,0
					c0.1,0,0.1,0.1,0.1,0.1c0,0.1,0,0.1-0.1,0.1C141.9,203.6,141.6,203.6,141.2,203.6C141.2,203.6,141.2,203.6,141.2,203.6z
					 M143.4,203.5c-0.1,0-0.1-0.1-0.1-0.1c0-0.1,0-0.1,0.1-0.1c0.4,0,0.8,0,1.1,0c0,0,0,0,0,0c0.1,0,0.1,0.1,0.1,0.1
					c0,0.1,0,0.1-0.1,0.1C144.2,203.5,143.8,203.5,143.4,203.5C143.4,203.5,143.4,203.5,143.4,203.5z M155.2,203.5
					C155.2,203.5,155.2,203.5,155.2,203.5c-0.1,0-0.3,0-0.6,0c-0.1,0-0.1-0.1-0.1-0.1c0-0.1,0.1-0.1,0.1-0.1c0.3,0,0.5,0,0.6,0l0,0
					l0,0.1L155.2,203.5C155.3,203.5,155.2,203.5,155.2,203.5z M145.7,203.4c-0.1,0-0.1-0.1-0.1-0.1c0-0.1,0-0.1,0.1-0.1
					c0.4,0,0.8,0,1.1,0c0,0,0,0,0,0c0.1,0,0.1,0.1,0.1,0.1c0,0.1,0,0.1-0.1,0.1C146.4,203.4,146,203.4,145.7,203.4
					C145.7,203.4,145.7,203.4,145.7,203.4z M153.5,203.4C153.5,203.4,153.5,203.4,153.5,203.4c-0.3,0-0.7,0-1.1,0
					c-0.1,0-0.1-0.1-0.1-0.1c0-0.1,0.1-0.1,0.1-0.1c0,0,0,0,0,0c0.4,0,0.8,0,1.1,0c0.1,0,0.1,0.1,0.1,0.1
					C153.6,203.4,153.6,203.4,153.5,203.4z M147.9,203.4c-0.1,0-0.1-0.1-0.1-0.1c0-0.1,0-0.1,0.1-0.1c0.4,0,0.8,0,1.1,0c0,0,0,0,0,0
					c0.1,0,0.1,0.1,0.1,0.1c0,0.1,0,0.1-0.1,0.1C148.7,203.4,148.3,203.4,147.9,203.4C147.9,203.4,147.9,203.4,147.9,203.4z
					 M151.3,203.4C151.3,203.4,151.3,203.4,151.3,203.4c-0.4,0-0.7,0-1.1,0c-0.1,0-0.1-0.1-0.1-0.1c0-0.1,0.1-0.1,0.1-0.1
					c0.4,0,0.8,0,1.1,0c0.1,0,0.1,0.1,0.1,0.1C151.4,203.3,151.3,203.4,151.3,203.4z"/>
			</g>
		</g>
	</g>
	<g>
		<g>
			<path class="st12" d="M110.8,148.1l7.7-4c0,0,14.8,4.4,19,4.4c4.2,0,5.9-3,5.9-3s-3.3-5.7-10.4-8.4c-0.7-0.3-1.3-0.5-2.1-0.7
				c-1.2-0.3-2.5-0.7-3.7-0.6C108.5,136.5,110.8,148.1,110.8,148.1z"/>
		</g>
		<g>
			<path class="st8" d="M152.1,211.9c0,0-0.1,2.2,1.4,2.9c1.5,0.7,5.7,1.5,4,2.8c-1,0.8-5.3,0-6.5-0.1c-1.2-0.1-2.4,0.4-3.3-0.5
				c-1-1,0.3-5.4,0.3-5.4s1,0.6,2,0.6C151.4,212.3,152.1,211.9,152.1,211.9z"/>
		</g>
		<g>
			<path class="st8" d="M165.5,211.8c0,0-0.1,2.2,1.4,2.9c1.5,0.7,5.7,1.5,4,2.8c-1,0.8-5.3,0-6.5-0.1c-1.2-0.1-2.4,0.4-3.3-0.5
				c-1-1,0.3-5.4,0.3-5.4s1,0.6,2,0.6C164.8,212.3,165.5,211.8,165.5,211.8z"/>
		</g>
		<g>
			<g>
				<path class="st13" d="M167.1,208.2c-1.1-14.4-1.3-24.1-5.9-30.4c-5-6.8-18.4-11.7-23.5-12c-8.4-0.5-12.4,0.8-12.4,0.8
					c-6.3,13.1,3.6,14.9,10.9,15.2c0.2,0,0.5,0,0.7,0c4.4,0.3,12.3,1.4,15.3,5.8c2.4,3.5,4,8.4,4.7,21c0.1,2.4,2.2,4.3,4.6,4.2
					C161.4,212.9,167.5,213.4,167.1,208.2z"/>
			</g>
		</g>
		<g>
			<g>
				<path class="st13" d="M155.1,209c0.1-14.4,0.6-21.8-3.7-28.2c-2.8-4.1-7-7.2-12.4-9.2c-3.9-1.4-8.5-2.3-13.7-2.6
					c-8.4-0.5-12.2-1.5-12.2-1.5c-6.8,16.8,18.1,13.2,24.6,20.4c2.8,3.1,6.3,9,7,21.7c0.1,2.4,2.2,4.3,4.6,4.2
					C149.3,213.7,155.1,214.2,155.1,209z"/>
			</g>
		</g>
		<g>
			<path class="st14" d="M155.1,194.8c0-0.1-0.4-8.7-1.9-11.6c-1.8-3.8-7.1-7.7-12.5-9.4l0-0.1c5.5,1.7,10.8,5.6,12.6,9.4
				C154.8,186.1,155.2,194.7,155.1,194.8L155.1,194.8z"/>
		</g>
		<g>
			<path class="st12" d="M119.1,140.7c0,0,3.6-6.1,11.8-4.2c8.2,1.9,11.6,10.3,12.2,30.5c0,0-7.6-0.3-27.7,6.4
				c-2.4,0.8-5.9,0.2-4.6-3.9C113,162,115.2,147,119.1,140.7z"/>
		</g>
		<g>
			<path class="st8" d="M110.9,148.3c0.3,0.6,2.4,0.3,4.6-0.8c2.2-1.1,3.8-2.4,3.5-3.1c-0.3-0.6-2.4-0.3-4.6,0.8
				C112.1,146.3,110.5,147.7,110.9,148.3z"/>
		</g>
		<g>
			<path class="st15" d="M127.7,135.9c0.7-0.1,1.8-0.1,2.5-0.7l2.3-1.9l0.4-0.6l3.6-3.3l-2.2,4.1L133,136l-0.4,0.7
				c-0.3,0.6-0.1,1.3,0.4,1.6l0,0c0.1,0.6,0.1,1.9-1.4,1.7C128.2,139.7,127.7,135.9,127.7,135.9z"/>
		</g>
		<g>
			<path class="st13" d="M132,126.6c0,0-0.1,0.8-1.2,2c-1.5,1.8,0.5,3.7,1.3,3.4c0.1,0,1.6-3.6,1.6-3.6l-0.6-0.8L132,126.6z"/>
		</g>
		<g>
			<path class="st15" d="M140.3,132c1.2-2.7,0.4-5.7-1.8-6.7c-2.2-1-4.9,0.4-6.2,3.1c-1.2,2.7-0.4,5.7,1.8,6.7
				C136.4,136.1,139.1,134.7,140.3,132z"/>
		</g>
		<g>
			<path class="st13" d="M139.9,127.8c-0.2,0.1-1.1,2.9-6.1,0.6c-4.9-2.3,1.3-6.1,4.7-4.1c4.9,2.9,4.1,8.6,2.9,9.5
				C140.3,134.7,139.9,127.8,139.9,127.8z"/>
		</g>
		<g>
			<path class="st13" d="M132.9,121.3c0,0,1.7,2.6-0.8,3.3c-2.5,0.7-7.7-0.9-7.5,2.2c0.2,3.1-0.2,7.3-2.9,6.7c-2.7-0.6-4.1-1.5-6,0
				c-1.9,1.5-5.8-1.7-4.4-3.8c1.4-2.2-1.5-5.9,1.1-7.3c2.6-1.4,7.4-1.5,9.6-3.8C124.3,116.2,131.5,119.2,132.9,121.3z"/>
		</g>
		<g>
			<path class="st13" d="M134.9,128c0,0-2.8,1.2-3.1,3.5c0,0-0.6-1.7-0.4-2.2c0.2-0.5,1.2-2,1.2-2L134.9,128z"/>
		</g>
		<g>
			<path class="st15" d="M132.6,129.4c0.3,0.6,0.9,1,1.4,0.7c0.5-0.2,0.7-0.9,0.4-1.6c-0.3-0.6-0.9-1-1.4-0.7
				C132.5,128.1,132.3,128.8,132.6,129.4z"/>
		</g>
		<g>
			<path class="st16" d="M115.8,133.6l-0.2-0.1c1.4-2.6,3-2.3,4.7-2c0.6,0.1,1.3,0.2,2,0.2c0.3,0,0.5-0.1,0.6-0.3
				c0.4-0.5,0.3-1.4,0.1-2.5c-0.2-1.7-0.4-3.7,0.9-4.9c2.5-2.3,5.5-1.7,5.5-1.7c2,0.6,2.4,0.3,2.5,0.2c0.1-0.3-0.4-0.9-0.6-1.1
				c-2-1.3-4.5-2.2-9-0.2c-3.5,1.6-3.6,2.9-3.7,4.6c0,0.4-0.1,0.8-0.1,1.2c-0.1,0.4-0.2,0.7-0.5,0.8c-0.5,0.3-1.4,0.1-2.2-0.1
				c-1-0.2-1.9-0.5-2.3,0.1c-0.3,0.5-0.3,1.3-0.2,2.1c0.1,0.9,0.2,1.7-0.3,2.2c-0.3,0.3-0.8,0.5-1.6,0.4l0-0.2
				c0.7,0,1.1-0.1,1.4-0.4c0.4-0.4,0.3-1.2,0.3-2c-0.1-0.8-0.1-1.6,0.2-2.2c0.5-0.7,1.5-0.5,2.6-0.2c0.8,0.2,1.6,0.4,2.1,0.1
				c0.2-0.1,0.3-0.4,0.4-0.7c0.1-0.4,0.1-0.8,0.1-1.2c0.1-1.8,0.2-3.1,3.8-4.8c4.5-2.1,7.1-1.2,9.2,0.2c0.3,0.2,0.9,0.9,0.7,1.3
				c-0.2,0.5-1.1,0.4-2.7-0.1c0,0-2.8-0.5-5.3,1.7c-1.3,1.1-1.1,3.1-0.9,4.8c0.1,1.2,0.2,2.2-0.2,2.7c-0.2,0.2-0.4,0.3-0.7,0.4
				c-0.7,0.1-1.4-0.1-2-0.2C118.6,131.4,117.1,131.1,115.8,133.6z"/>
		</g>
		<g>
			<path class="st16" d="M136,127.3c-0.4,0-0.9-0.1-1.4-0.3l0.1-0.2c1.7,0.7,3.2-0.3,3.2-0.3l0.1,0.1
				C138,126.7,137.2,127.3,136,127.3z"/>
		</g>
		<g>
			<g>
				<path class="st17" d="M137.3,130C137.3,130,137.3,130,137.3,130c0.1-0.1,0.1-0.1,0.1-0.2c0,0-0.4-0.6-1.3-0.4
					c-0.1,0-0.1,0.1-0.1,0.1c0,0.1,0.1,0.1,0.1,0.1C136.7,129.6,137.2,129.9,137.3,130C137.2,130,137.3,130,137.3,130z"/>
			</g>
		</g>
		<g>
			<path class="st18" d="M142.2,154.6c-0.6-4.5-1.5-8.1-2.8-10.8c-0.4-2.9-1.4-6-2.3-7.5l-1.8-1.2c-0.3-2,2.1-2,2.8-2.2
				c0.7-0.2,0-2.4,0.7-2.8c0.7-0.5,0.7,2.4,0.7,2.7c0-0.2,0.1-2.6,0.7-3c0.6-0.4,0.4,3,0.4,3s0.3-2.5,1-2.7c0.7-0.2,0.4,2.4,0.3,2.6
				c0-0.1,0.3-1.4,0.7-2.2c0.4-0.9,1.1,1.3,0.8,2.9c-0.1,0.3-0.3,0.7-0.6,1.1c-0.5,0.6-0.6,1.4-0.3,2.1c0.5,1.2,1.2,2.8,1.8,4.6
				C145.2,144.7,146.9,151.9,142.2,154.6z"/>
		</g>
		<g>
			<path class="st19" d="M141.5,133.9C141.5,133.9,141.5,133.9,141.5,133.9C141.4,133.8,141.4,133.8,141.5,133.9
				c0.4-0.6,0.3-1.2,0.3-1.2c0,0,0-0.1,0-0.1c0,0,0.1,0,0.1,0C141.9,132.7,142,133.3,141.5,133.9
				C141.5,133.9,141.5,133.9,141.5,133.9z"/>
		</g>
		<g>
			<path class="st19" d="M140.3,133.9C140.3,133.9,140.2,133.9,140.3,133.9C140.2,133.9,140.2,133.8,140.3,133.9
				c0.4-0.6,0.2-1.1,0.2-1.1c0,0,0-0.1,0-0.1c0,0,0.1,0,0.1,0C140.6,132.7,140.8,133.3,140.3,133.9
				C140.3,133.9,140.3,133.9,140.3,133.9z"/>
		</g>
		<g>
			<path class="st19" d="M139,134l-0.1-0.1c0.4-0.3,0.4-1.2,0.4-1.2l0.1,0C139.5,132.8,139.5,133.8,139,134z"/>
		</g>
		<g>
			<path class="st18" d="M135.2,137.6c0,0,4-2.7,4.3-4.3c0.4-1.6-0.3-3.8-0.8-2.9c-0.4,0.9-0.7,2.2-0.7,2.2s0.4-2.9-0.3-2.6
				c-0.7,0.2-1,2.7-1,2.7s0.2-3.4-0.4-3c-0.6,0.4-0.7,3-0.7,3s0-3.2-0.7-2.7c-0.7,0.5-0.4,2.4-1.1,2.6c-0.7,0.2-2.8,0.7-2.4,2.8
				L135.2,137.6z"/>
		</g>
		<g>
			<path class="st19" d="M137.7,133.9C137.7,133.9,137.6,133.9,137.7,133.9C137.6,133.8,137.6,133.8,137.7,133.9
				c0.4-0.6,0.3-1.2,0.3-1.2c0,0,0-0.1,0.1-0.1c0,0,0.1,0,0.1,0.1C138.1,132.7,138.2,133.3,137.7,133.9
				C137.7,133.9,137.7,133.9,137.7,133.9z"/>
		</g>
		<g>
			<path class="st19" d="M136.3,134.1C136.3,134.1,136.2,134.1,136.3,134.1C136.2,134.1,136.2,134.1,136.3,134.1
				c0.4-0.6,0.4-1.4,0.4-1.4c0,0,0-0.1,0.1-0.1c0,0,0.1,0,0.1,0.1C136.8,132.8,136.8,133.6,136.3,134.1
				C136.3,134.1,136.3,134.1,136.3,134.1z"/>
		</g>
		<g>
			<path class="st19" d="M135.1,134C135.1,134,135.1,134,135.1,134C135.1,134,135.1,134,135.1,134c0.5-0.7,0.4-1.3,0.4-1.3
				c0,0,0-0.1,0-0.1c0,0,0.1,0,0.1,0C135.6,132.8,135.8,133.4,135.1,134C135.2,134,135.2,134,135.1,134z"/>
		</g>
		<g>
			<g>
				<path class="st18" d="M117.9,155.3c-4.9-2.4-6.2-6.7-6.3-6.8c0,0,0.4-1.8,2.8-2.6c3.4-1.1,4.2-0.6,4.2-0.6s3,4.5,5.6,4.4
					c2.3-0.2,6.2-1.7,6.9-14.3l5.2,1.3c-0.4,6.7-1,11.5-2.9,14.9C130.8,156.4,124.2,158.4,117.9,155.3z"/>
			</g>
		</g>
		<g>
			<path class="st19" d="M136.5,136.6C136.5,136.6,136.5,136.6,136.5,136.6c-0.1-0.1-0.1-0.1,0-0.1c0,0,3.6-1.6,3-4.7
				c0,0,0-0.1,0-0.1c0,0,0.1,0,0.1,0C140.2,135,136.6,136.6,136.5,136.6C136.5,136.6,136.5,136.6,136.5,136.6z"/>
		</g>
		<g>
			<path class="st18" d="M132.7,131.2l-1.1,2.7c0,0,1.2,0.4,1.6-0.2C133.5,133.1,134,130.1,132.7,131.2z"/>
		</g>
		<g>
			<path class="st19" d="M131.3,136.6C131.2,136.6,131.2,136.6,131.3,136.6c-0.1-0.1-0.1-2,0.2-2.8l0.9-2.1c0-0.1,0.2-0.9,0.8-0.9
				c0,0,0,0,0,0c0.1,0,0.2,0,0.3,0.1c0.2,0.3,0.2,0.8,0.1,1.2c-0.1,0.5,0.2,1.1,0.2,1.1c0,0,0,0.1,0,0.1c0,0-0.1,0-0.1,0
				c0,0-0.3-0.6-0.2-1.2c0-0.4,0.1-0.9-0.1-1.1c-0.1-0.1-0.1-0.1-0.2-0.1c-0.5,0-0.6,0.8-0.6,0.8c0,0,0,0,0,0l-0.9,2.1
				C131.3,134.6,131.3,136.5,131.3,136.6C131.3,136.5,131.3,136.6,131.3,136.6C131.3,136.6,131.3,136.6,131.3,136.6z"/>
		</g>
		<g>
			<path class="st11" d="M131.3,132.6c0,0-1.4-0.4-1.9,0.4c-0.6,0.8,0.2,1.5,0.7,1.3C130.5,134,129.9,133.2,131.3,132.6z"/>
		</g>
		<g>
			<path class="st11" d="M144.8,133.9c0,0,3.9-1.2,5.4,1.2c1.6,2.4-0.6,4.3-1.9,3.5C147,137.7,148.7,135.4,144.8,133.9z"/>
		</g>
		<g>
			<path class="st11" d="M144.5,130.3c0,0,0.6-1.5,1.8-1.4c1.2,0.1,1.2,1.3,0.6,1.5C146.3,130.6,146.1,129.5,144.5,130.3z"/>
		</g>
	</g>
	<g>
		<g>
			<path class="st19" d="M120.3,138.7c0,0-0.4-0.9-0.9-1.1l0-0.1c0.6,0.1,1,1.1,1,1.2L120.3,138.7z"/>
		</g>
		<g>
			<path class="st19" d="M118.7,139.3c0,0-0.3-0.9-1.1-1.3l0.1-0.1c0.9,0.4,1.2,1.3,1.2,1.4L118.7,139.3z"/>
		</g>
		<g>
			<path class="st19" d="M117.4,139.8c0,0-0.4-1.1-1.1-1.2l0-0.1c0.7,0.1,1.1,1.2,1.2,1.3L117.4,139.8z"/>
		</g>
	</g>
	<g class="st10">
		<path class="st20" d="M126.3,155.5c-0.6,0-1.1-0.3-1.2-0.7c-0.2-0.6,0.4-1.3,1.2-1.5c0.4-0.1,0.8-0.1,1.1,0
			c0.4,0.1,0.6,0.3,0.7,0.6c0.1,0.3,0,0.6-0.2,0.9c-0.2,0.3-0.6,0.5-1,0.6l0,0C126.7,155.4,126.5,155.5,126.3,155.5z M126.9,153.4
			c-0.2,0-0.3,0-0.5,0.1c-0.7,0.2-1.1,0.7-1,1.2c0.1,0.4,0.8,0.6,1.5,0.4c0.3-0.1,0.6-0.3,0.8-0.5c0.2-0.2,0.2-0.4,0.2-0.6
			c-0.1-0.2-0.2-0.4-0.5-0.4C127.2,153.4,127,153.4,126.9,153.4z"/>
	</g>
	<g>
		<g>
			<path class="st1" d="M126.3,218.1c0,0-3.9-3.9-2.5-6.2c1.3-2.2,3.6,4.8,3.6,4.8s-1.2-8.3,1.2-8.5c2.4-0.1,0,8.5,0,8.5
				s0.9-2,1.8-2.1c0.9-0.1,0.6,1.7-0.9,3.5H126.3z"/>
		</g>
		<g>
			<path class="st2" d="M126.6,218.2c0,0-1.1-1.1-2-2.6c-1.2-1.9-1.5-3.5-0.9-4.6c0.2-0.4,0.5-0.6,0.9-0.6c1.1,0.1,2.4,3.1,3,4.8
				c-0.1-0.7-0.1-1.6-0.2-2.6c-0.1-2.8,0.2-4.6,0.9-5.4c0.3-0.3,0.6-0.5,0.9-0.5c0.4,0,0.7,0.1,0.9,0.4c1.1,1.3,0.1,6.1-0.4,8.3
				c0.4-0.6,1-1.4,1.5-1.5c0.3,0,0.5,0.1,0.6,0.3c0.3,0.6-0.1,2.3-1.5,3.9l-0.2-0.2c1.4-1.6,1.8-3.1,1.5-3.6
				c-0.1-0.1-0.2-0.2-0.3-0.1c-0.7,0.1-1.6,1.7-1.9,2.3l-0.3-0.1c0,0,0.5-1.9,0.9-4c0.5-2.7,0.4-4.5-0.1-5.2
				c-0.2-0.2-0.4-0.3-0.6-0.3c-0.3,0-0.5,0.2-0.7,0.4c-1.5,1.9-0.5,9-0.5,9l-0.3,0.1c-0.5-1.6-2.1-5.7-3.2-5.8
				c-0.2,0-0.4,0.1-0.6,0.4c-1.4,2.4,2.8,6.8,2.8,6.8L126.6,218.2z"/>
		</g>
	</g>
</g>
</svg>
