<svg width="352" height="68" viewBox="0 0 352 68" fill="none" xmlns="http://www.w3.org/2000/svg">
<g id="Logo">
<path id="psiconnect" d="M87.3921 62.247C85.8454 61.9804 84.2854 61.847 82.7121 61.847C81.0587 61.847 79.4987 61.9804 78.0321 62.247C79.1787 61.927 79.9521 61.447 80.3521 60.807C80.7521 60.167 80.9521 59.3937 80.9521 58.487V33.527C80.9521 32.647 80.7521 31.887 80.3521 31.247C79.9521 30.5804 79.1787 30.087 78.0321 29.767C78.9387 29.8737 79.7387 30.047 80.4321 30.287C81.1521 30.5004 81.8054 30.7137 82.3921 30.927C82.9787 31.1404 83.5654 31.247 84.1521 31.247C85.0321 31.2204 85.7654 31.087 86.3521 30.847C86.9654 30.607 87.6321 30.367 88.3521 30.127C89.0721 29.887 90.0854 29.767 91.3921 29.767H91.5521C94.5387 29.9004 97.0454 30.967 99.0721 32.967C101.099 34.967 102.112 37.4337 102.112 40.367C102.112 43.2737 101.085 45.767 99.0321 47.847C96.9787 49.927 94.4854 50.967 91.5521 50.967C90.1921 50.967 88.9521 50.6737 87.8321 50.087C86.7121 49.5004 85.5921 48.607 84.4721 47.407V58.487C84.4721 59.3937 84.6587 60.167 85.0321 60.807C85.4321 61.447 86.2187 61.927 87.3921 62.247ZM90.9521 50.487C93.0321 50.4337 94.7121 49.447 95.9921 47.527C97.2987 45.5804 97.9521 43.167 97.9521 40.287C97.9521 37.4337 97.2721 35.0204 95.9121 33.047C94.5787 31.0737 92.9521 30.087 91.0321 30.087C89.5387 30.087 88.2054 30.4737 87.0321 31.247C85.8587 32.0204 85.0054 33.367 84.4721 35.287V46.927C84.4721 46.927 84.7521 47.2204 85.3121 47.807C85.8721 48.3937 86.6454 48.9937 87.6321 49.607C88.6187 50.1937 89.7254 50.487 90.9521 50.487ZM114.738 50.927H114.218C114.218 50.927 113.804 50.8737 112.978 50.767C112.178 50.6604 111.204 50.4204 110.058 50.047C108.911 49.6737 107.804 49.087 106.738 48.287C106.738 48.207 106.711 47.887 106.658 47.327C106.631 46.767 106.511 45.967 106.298 44.927C106.084 43.8604 105.751 42.5537 105.298 41.007C105.298 41.007 105.618 41.767 106.258 43.287C106.898 44.807 107.871 46.327 109.178 47.847C110.484 49.367 112.138 50.287 114.138 50.607L114.858 50.647C116.138 50.647 117.444 50.287 118.778 49.567C120.111 48.8204 120.858 47.6204 121.018 45.967V45.887C121.018 44.927 120.511 44.1804 119.498 43.647C118.511 43.1137 117.298 42.647 115.858 42.247C114.418 41.8204 112.964 41.3404 111.498 40.807C110.058 40.2737 108.831 39.5804 107.818 38.727C106.831 37.847 106.338 36.6737 106.338 35.207L106.378 34.647C106.538 33.2337 107.298 32.0737 108.658 31.167C110.044 30.2337 111.884 29.767 114.178 29.767C115.884 29.767 117.418 30.1804 118.778 31.007C120.138 31.8337 121.138 32.6737 121.778 33.527C121.778 33.527 121.538 33.687 121.058 34.007C120.578 34.327 120.031 34.9004 119.418 35.727C118.804 36.527 118.258 37.647 117.778 39.087C119.191 39.5937 120.391 40.2604 121.378 41.087C122.391 41.887 122.964 42.9537 123.098 44.287V44.567C123.098 46.327 122.258 47.8337 120.578 49.087C118.924 50.3137 116.978 50.927 114.738 50.927ZM117.778 39.087L119.458 31.807C119.458 31.807 119.231 31.6604 118.778 31.367C118.351 31.0737 117.738 30.7937 116.938 30.527C116.164 30.2337 115.284 30.087 114.298 30.087H114.178C110.818 30.2204 108.911 31.367 108.458 33.527L108.418 33.847C108.418 34.807 108.898 35.5804 109.858 36.167C110.844 36.727 112.044 37.2204 113.458 37.647C114.898 38.0737 116.338 38.5537 117.778 39.087ZM129.152 27.447C128.592 27.447 128.098 27.247 127.672 26.847C127.272 26.447 127.072 25.9537 127.072 25.367C127.072 24.807 127.272 24.327 127.672 23.927C128.098 23.5004 128.592 23.287 129.152 23.287C129.738 23.287 130.232 23.5004 130.632 23.927C131.058 24.327 131.272 24.807 131.272 25.367C131.272 25.9537 131.058 26.447 130.632 26.847C130.232 27.247 129.738 27.447 129.152 27.447ZM134.072 50.927C132.525 50.6604 130.965 50.527 129.392 50.527C127.738 50.527 126.178 50.6604 124.712 50.927C125.858 50.607 126.632 50.127 127.032 49.487C127.432 48.8204 127.632 48.047 127.632 47.167V36.167C127.632 35.287 127.432 34.527 127.032 33.887C126.632 33.2204 125.858 32.727 124.712 32.407H125.272C126.712 32.407 127.858 32.1937 128.712 31.767C129.565 31.3137 130.178 30.8737 130.552 30.447C130.952 29.9937 131.152 29.767 131.152 29.767V47.167C131.152 48.047 131.338 48.8204 131.712 49.487C132.112 50.127 132.898 50.607 134.072 50.927ZM146.288 50.927C143.382 50.927 140.888 49.9004 138.808 47.847C136.728 45.767 135.688 43.2604 135.688 40.327C135.688 37.3937 136.728 34.9004 138.808 32.847C140.888 30.7937 143.382 29.767 146.288 29.767C148.982 29.767 151.395 30.687 153.528 32.527C153.342 32.6604 153.102 32.9137 152.808 33.287C152.542 33.6337 152.302 34.207 152.088 35.007C151.875 35.7804 151.768 36.8737 151.768 38.287C151.768 38.9004 151.808 39.5804 151.888 40.327L150.248 30.847C149.528 30.607 148.768 30.487 147.968 30.487C145.728 30.487 143.808 31.447 142.208 33.367C140.608 35.2604 139.808 37.567 139.808 40.287C139.808 42.9804 140.608 45.287 142.208 47.207C143.808 49.127 145.728 50.087 147.968 50.087C149.968 50.087 151.728 49.327 153.248 47.807C151.302 49.887 148.982 50.927 146.288 50.927ZM166.092 50.927C163.185 50.927 160.692 49.9004 158.612 47.847C156.559 45.767 155.532 43.2604 155.532 40.327C155.532 37.4204 156.559 34.9404 158.612 32.887C160.692 30.807 163.185 29.767 166.092 29.767C169.025 29.767 171.519 30.807 173.572 32.887C175.652 34.9404 176.692 37.4204 176.692 40.327C176.692 43.2604 175.652 45.767 173.572 47.847C171.519 49.9004 169.025 50.927 166.092 50.927ZM166.132 50.567C167.892 50.567 169.399 49.567 170.652 47.567C171.905 45.567 172.532 43.1537 172.532 40.327C172.532 37.5004 171.905 35.087 170.652 33.087C169.399 31.087 167.892 30.087 166.132 30.087C164.345 30.087 162.825 31.087 161.572 33.087C160.319 35.087 159.692 37.5004 159.692 40.327C159.692 43.1537 160.319 45.567 161.572 47.567C162.825 49.567 164.345 50.567 166.132 50.567ZM203.506 50.927C201.959 50.6604 200.399 50.527 198.826 50.527C197.199 50.527 195.639 50.6604 194.146 50.927C195.292 50.607 196.066 50.127 196.466 49.487C196.866 48.8204 197.066 48.047 197.066 47.167V40.407C197.066 38.327 196.892 36.527 196.546 35.007C196.226 33.487 195.666 32.3137 194.866 31.487C194.066 30.6337 192.946 30.207 191.506 30.207H191.186C189.426 30.3937 187.959 30.9537 186.786 31.887C185.639 32.7937 184.959 33.407 184.746 33.727V47.167C184.746 48.047 184.932 48.8204 185.306 49.487C185.706 50.127 186.479 50.607 187.626 50.927C186.106 50.6604 184.559 50.527 182.986 50.527C181.359 50.527 179.799 50.6604 178.306 50.927C179.452 50.607 180.226 50.127 180.626 49.487C181.026 48.8204 181.226 48.047 181.226 47.167V36.167C181.226 35.287 181.026 34.527 180.626 33.887C180.226 33.2204 179.452 32.727 178.306 32.407H178.866C180.306 32.407 181.452 32.1937 182.306 31.767C183.159 31.3137 183.772 30.8737 184.146 30.447C184.546 29.9937 184.746 29.767 184.746 29.767V33.247C186.959 30.927 189.292 29.767 191.746 29.767H192.186C195.199 29.767 197.346 30.6737 198.626 32.487C199.932 34.3004 200.586 36.8337 200.586 40.087V47.167C200.586 48.047 200.786 48.8204 201.186 49.487C201.586 50.127 202.359 50.607 203.506 50.927ZM230.302 50.927C228.756 50.6604 227.196 50.527 225.622 50.527C223.996 50.527 222.436 50.6604 220.942 50.927C222.089 50.607 222.862 50.127 223.262 49.487C223.662 48.8204 223.862 48.047 223.862 47.167V40.407C223.862 38.327 223.689 36.527 223.342 35.007C223.022 33.487 222.462 32.3137 221.662 31.487C220.862 30.6337 219.742 30.207 218.302 30.207H217.982C216.222 30.3937 214.756 30.9537 213.582 31.887C212.436 32.7937 211.756 33.407 211.542 33.727V47.167C211.542 48.047 211.729 48.8204 212.102 49.487C212.502 50.127 213.276 50.607 214.422 50.927C212.902 50.6604 211.356 50.527 209.782 50.527C208.156 50.527 206.596 50.6604 205.102 50.927C206.249 50.607 207.022 50.127 207.422 49.487C207.822 48.8204 208.022 48.047 208.022 47.167V36.167C208.022 35.287 207.822 34.527 207.422 33.887C207.022 33.2204 206.249 32.727 205.102 32.407H205.662C207.102 32.407 208.249 32.1937 209.102 31.767C209.956 31.3137 210.569 30.8737 210.942 30.447C211.342 29.9937 211.542 29.767 211.542 29.767V33.247C213.756 30.927 216.089 29.767 218.542 29.767H218.982C221.996 29.767 224.142 30.6737 225.422 32.487C226.729 34.3004 227.382 36.8337 227.382 40.087V47.167C227.382 48.047 227.582 48.8204 227.982 49.487C228.382 50.127 229.156 50.607 230.302 50.927ZM242.459 51.007C239.553 51.007 237.059 49.967 234.979 47.887C232.926 45.807 231.899 43.3137 231.899 40.407C231.899 37.4737 232.926 34.967 234.979 32.887C237.059 30.807 239.553 29.767 242.459 29.767C243.099 29.767 243.966 29.847 245.059 30.007C246.153 30.167 247.166 30.5404 248.099 31.127C249.059 31.687 249.673 32.567 249.939 33.767C249.993 34.0604 250.019 34.3537 250.019 34.647C250.019 35.7937 249.633 36.7937 248.859 37.647C248.086 38.5004 247.113 39.2204 245.939 39.807C244.766 40.3937 243.539 40.8737 242.259 41.247C240.979 41.6204 239.793 41.9137 238.699 42.127C237.606 42.3137 236.766 42.4337 236.179 42.487C236.633 44.727 237.593 46.567 239.059 48.007C240.526 49.447 242.233 50.167 244.179 50.167C246.179 50.167 247.926 49.3937 249.419 47.847C248.539 48.887 247.486 49.6737 246.259 50.207C245.059 50.7404 243.793 51.007 242.459 51.007ZM236.139 42.167C239.019 41.687 241.246 40.9404 242.819 39.927C244.419 38.9137 245.526 37.7937 246.139 36.567C246.753 35.3404 247.059 34.2337 247.059 33.247V33.167C247.059 32.447 246.793 31.7804 246.259 31.167C245.753 30.5537 244.966 30.2204 243.899 30.167H243.859C242.339 30.167 240.993 30.647 239.819 31.607C238.646 32.5404 237.713 33.7804 237.019 35.327C236.326 36.8737 235.979 38.5404 235.979 40.327C235.979 40.967 236.033 41.5804 236.139 42.167ZM263.007 50.927C260.1 50.927 257.607 49.9004 255.527 47.847C253.447 45.767 252.407 43.2604 252.407 40.327C252.407 37.3937 253.447 34.9004 255.527 32.847C257.607 30.7937 260.1 29.767 263.007 29.767C265.7 29.767 268.114 30.687 270.247 32.527C270.06 32.6604 269.82 32.9137 269.527 33.287C269.26 33.6337 269.02 34.207 268.807 35.007C268.594 35.7804 268.487 36.8737 268.487 38.287C268.487 38.9004 268.527 39.5804 268.607 40.327L266.967 30.847C266.247 30.607 265.487 30.487 264.687 30.487C262.447 30.487 260.527 31.447 258.927 33.367C257.327 35.2604 256.527 37.567 256.527 40.287C256.527 42.9804 257.327 45.287 258.927 47.207C260.527 49.127 262.447 50.087 264.687 50.087C266.687 50.087 268.447 49.327 269.967 47.807C268.02 49.887 265.7 50.927 263.007 50.927ZM279.3 50.927C278.207 50.927 277.354 50.6604 276.74 50.127C276.127 49.5937 275.674 48.967 275.38 48.247C275.087 47.527 274.9 46.8604 274.82 46.247C274.767 45.607 274.74 45.1937 274.74 45.007V33.527C274.74 32.647 274.54 31.887 274.14 31.247C273.767 30.5804 273.007 30.087 271.86 29.767V29.487C273.247 29.487 274.367 29.167 275.22 28.527C276.074 27.8604 276.714 27.1137 277.14 26.287C277.594 25.4337 277.9 24.687 278.06 24.047C278.22 23.3804 278.3 23.047 278.3 23.047V29.487H282.42V29.767H278.3V44.887C278.3 46.2737 278.394 47.4204 278.58 48.327C278.767 49.207 279.1 49.7537 279.58 49.967C279.874 50.0737 280.14 50.127 280.38 50.127C281.02 50.127 281.514 49.9137 281.86 49.487C282.234 49.0604 282.42 48.847 282.42 48.847C281.914 50.2337 280.874 50.927 279.3 50.927Z" fill="black"/>
<g id="Imagen Logo" clip-path="url(#clip0_15_5)">
<path id="Vector" d="M31.7613 15.527V4.60532C31.7613 4.60532 25.2267 -5.7539 18.3206 4.60532C18.3206 4.60532 17.0142 7.8045 18.3206 11.0066C18.3206 11.0066 16.454 12.8904 15.1476 8.74784C15.1476 8.74784 4.51119 10.2537 8.61598 20.0475C8.61598 20.0475 9.55073 20.9879 11.0429 22.6842C11.0429 22.6842 6.99902 23.3111 6.56358 21.2398C6.56358 21.2398 -2.20627 25.8218 0.531224 34.4877C0.531224 34.4877 2.02334 39.3216 8.0586 42.9602C8.0586 42.9602 4.8218 43.9651 2.76941 42.9602C2.76941 42.9602 0.0319139 55.0157 8.99046 58.7188C8.99046 58.7188 14.5264 61.417 17.949 58.7188C17.949 58.7188 18.6951 62.1084 15.0257 61.168C15.0257 61.168 18.2596 73.534 29.8918 64.997C29.8918 64.997 30.7017 64.6191 32.2548 61.9209V48.2981C33.535 48.3566 34.911 47.9729 36.1593 48.3684C37.2856 48.7258 38.8068 49.4611 39.9331 48.8371C41.0595 48.2131 41.402 46.8391 41.463 45.6614C41.5733 43.4671 39.0942 42.635 37.3437 43.0833C36.5309 43.2913 35.84 43.7454 34.9778 43.8069C34.7368 43.8245 31.7845 43.8567 31.7613 43.9651V28.6167C31.7613 28.6167 23.3601 28.145 23.453 22.025C23.453 22.025 23.0843 14.3962 31.7613 15.527Z" fill="#66D7D1"/>
<path id="Vector_2" d="M35.9561 4.04004V19.0105C34.7107 19.0105 33.0909 19.3035 31.8919 19.0105C30.693 18.7176 30.1908 18.1316 28.9454 18.5301C28.0165 18.823 27.3169 19.3006 26.893 20.1677C25.2761 23.4782 28.9251 25.9186 31.7642 24.0935L32.7861 23.4343H35.959V39.2544C35.959 39.2544 43.9799 39.521 44.1744 44.8207C44.1744 44.973 44.1744 45.1283 44.1744 45.2894C43.8841 51.0345 43.3354 51.8811 36.4293 52.6341V56.1145C36.4293 57.0725 36.4293 58.0334 36.4293 58.9914C36.4293 60.591 36.3306 61.5607 37.1579 62.9347C37.7897 64.0123 38.5642 64.998 39.46 65.8643C42.1133 68.3663 45.4923 68.6299 48.5608 66.6553C48.5608 66.6553 49.96 66.9483 52.6655 61.2882C52.6655 61.2882 51.3592 61.9445 49.7626 60.9103C49.182 60.5207 50.2967 59.3019 50.6915 59.1525C51.0863 59.0031 51.7453 59.1906 52.1778 59.217C53.4783 59.3023 54.7842 59.2226 56.0649 58.9797C59.3772 58.3264 62.1089 56.299 63.3862 53.094C64.2222 51.0023 64.7854 49.3001 64.7854 47.0677V43.0248L60.6806 43.1186C60.6806 43.1186 59.6472 41.7065 62.5501 40.5874C62.5501 40.5874 69.1747 36.8198 67.2152 28.816C67.2152 28.816 66.1904 24.3923 61.5225 21.5652C61.5225 21.5652 62.2714 22.9773 57.0461 22.9773C57.0461 22.9773 62.643 17.5164 59.4701 12.9022C58.8436 11.7317 57.95 10.7285 56.8631 9.97554C55.7763 9.22261 54.5275 8.74157 53.22 8.5722C53.22 8.5722 53.0313 10.9159 49.6726 10.7372C49.6726 10.7372 51.4463 5.65134 49.2081 3.20216C49.2081 3.20216 45.0075 -2.4462 38.7575 1.79007L35.9561 4.04004Z" fill="#FFF87F"/>
</g>
</g>
<defs>
<clipPath id="clip0_15_5">
<rect width="67.5781" height="68" fill="white"/>
</clipPath>
</defs>
</svg>
