<?xml version="1.0" encoding="utf-8"?>
<!-- Generator: Adobe Illustrator 25.3.1, SVG Export Plug-In . SVG Version: 6.00 Build 0)  -->
<svg version="1.1" id="Capa_1" xmlns="http://www.w3.org/2000/svg" xmlns:xlink="http://www.w3.org/1999/xlink" x="0px" y="0px"
	 viewBox="0 0 1350 150" style="enable-background:new 0 0 1350 150;" xml:space="preserve">
<style type="text/css">
	.st0{fill:#75C6C7;}
	.st1{fill:#FAEF84;}
</style>
<path class="st0" d="M0,137.1c33-18.1,91.7-12.8,138.4-12.9c46.7-0.1,91.7,6.3,136.4,12c44.7,5.7,91,10.6,137.6,7.6
	c98.6-6.4,185.2-47.5,283.9-49.2c42.7-0.7,84.1,19.5,126.5,20.8c42.4,1.3,103.9-31.1,127.9-50l-16.8-49.5L0,60.7V137.1z"/>
<path class="st1" d="M0.1,100c49.3-18.5,127.5-24.5,195.2-22.3C263,79.8,327.6,89.1,392,97.5s130.9,16.2,198.8,15.1
	c143.4-2.3,272.4-43.6,415.7-40.7c62,1.2,120.8,10.8,182.1,14.3c61.4,3.5,125-0.8,161.3-20.7l0.1-63.6L0.1,0.8V100z"/>
</svg>
