<svg xmlns="http://www.w3.org/2000/svg" viewBox="0 0 55 6.29"><defs><style>.cls-1{fill:#fff87f;}.cls-2{fill:#66d7d1;}</style></defs><g id="Capa_2" data-name="Capa 2"><g id="Capa_1-2" data-name="Capa 1"><path class="cls-1" d="M55,3C43.3,5.81,36.31,5.2,32,4A28.22,28.22,0,0,0,19,3c-1.84.32-2.34.7-4,1A32.51,32.51,0,0,1,0,3V1H55Z"/><path class="cls-2" d="M55,2a6.79,6.79,0,0,0-4,1c-1.06.7-1.22,1.32-2,2-2.1,1.83-5.47,1.26-7,1-4.4-.75-4.51-2.87-8-3-2.85-.11-3.1,1.3-6,1s-3.16-1.81-6-2-3,1.16-6,1c-2.44-.12-2.6-1-5-1-2.24,0-2.81.76-5,1A12,12,0,0,1,0,2V0H55Z"/></g></g></svg>