<svg width="1440" height="372" viewBox="0 0 1440 372" fill="none" xmlns="http://www.w3.org/2000/svg">
<g id="Vector">
<path d="M-477.746 371.479C-427.752 335.532 -349.453 315.225 -275.105 308.197C-200.757 301.168 -128.359 305.631 -56.3672 308.804C15.6247 311.976 89.8562 313.778 163.747 301.747C319.816 276.315 452.076 193.225 609.068 175.849C676.98 168.326 743.091 174.044 810.807 170.095C878.523 166.145 955.595 148.587 991.192 112.544L976.571 5.99995L-504 219.551L-477.746 371.479Z" fill="#66D7D1"/>
<path d="M-50.3552 176.837C3.81879 147.566 84.069 137.422 158.706 139.941C233.344 142.461 304.579 156.129 375.577 168.466C446.575 180.803 519.969 192.066 594.791 189.566C752.83 184.265 894.615 118.739 1052.54 121.546C1120.86 122.753 1185.7 136.865 1253.36 141.591C1321.03 146.318 1399.71 138.743 1439.62 107.539L1438.72 0L-56.9998 22.8011L-50.3552 176.837Z" fill="#FFF87F"/>
</g>
</svg>
