<?xml version="1.0" encoding="utf-8"?>
<!-- Generator: Adobe Illustrator 25.3.1, SVG Export Plug-In . SVG Version: 6.00 Build 0)  -->
<svg version="1.1" id="Illustration" xmlns="http://www.w3.org/2000/svg" xmlns:xlink="http://www.w3.org/1999/xlink" x="0px"
	 y="0px" viewBox="0 0 330 330" style="enable-background:new 0 0 330 330;" xml:space="preserve">
<style type="text/css">
	.st0{fill:#F4F7FA;}
	.st1{fill:url(#SVGID_1_);}
	.st2{opacity:0.16;fill:#FFFFFF;}
	.st3{fill:url(#SVGID_2_);}
	.st4{fill:url(#SVGID_3_);}
	.st5{fill:url(#SVGID_4_);}
	.st6{fill:url(#SVGID_5_);}
	.st7{fill:url(#SVGID_6_);}
	.st8{fill:url(#SVGID_7_);}
	.st9{fill:url(#SVGID_8_);}
	.st10{fill:url(#SVGID_9_);}
	.st11{fill:url(#SVGID_10_);}
	.st12{opacity:0.3;fill:url(#SVGID_11_);}
	.st13{fill:url(#SVGID_12_);}
	.st14{opacity:0.3;fill:url(#SVGID_13_);}
	.st15{fill:url(#SVGID_14_);}
	.st16{fill:url(#SVGID_15_);}
	.st17{fill:url(#SVGID_16_);}
	.st18{fill:url(#SVGID_17_);}
	.st19{fill:url(#SVGID_18_);}
	.st20{fill:url(#SVGID_19_);}
	.st21{fill:url(#SVGID_20_);}
	.st22{fill:url(#SVGID_21_);}
	.st23{fill:url(#SVGID_22_);}
	.st24{fill:url(#SVGID_23_);}
	.st25{fill:url(#SVGID_24_);}
	.st26{opacity:0.3;fill:url(#SVGID_25_);}
	.st27{fill:url(#SVGID_26_);}
	.st28{fill:url(#SVGID_27_);}
	.st29{opacity:0.3;}
	.st30{fill:url(#SVGID_28_);}
	.st31{fill:url(#SVGID_29_);}
	.st32{fill:url(#SVGID_30_);}
	.st33{fill:url(#SVGID_31_);}
	.st34{fill:url(#SVGID_32_);}
	.st35{fill:url(#SVGID_33_);}
	.st36{fill:url(#SVGID_34_);}
	.st37{fill:url(#SVGID_35_);}
	.st38{fill:url(#SVGID_36_);}
	.st39{fill:url(#SVGID_37_);}
	.st40{fill:url(#SVGID_38_);}
	.st41{fill:url(#SVGID_39_);}
	.st42{fill:url(#SVGID_40_);}
	.st43{fill:url(#SVGID_41_);}
	.st44{fill:url(#SVGID_42_);}
	.st45{fill:url(#SVGID_43_);}
	.st46{fill:url(#SVGID_44_);}
	.st47{fill:url(#SVGID_45_);}
	.st48{fill:url(#SVGID_46_);}
</style>
<g>
	<path class="st0" d="M86.6,37.8C82.3,42.8,76,54.5,60.6,67.4c-18.4,15.5-25,12-33.6,21.4C6,112.2,13.9,168.8,40.2,202.7
		c9,11.6,16.5,16.1,19.8,29.1c7.1,28.1-17.9,44.8-13.2,58.6c10.7,31.3,175.8,57.5,242-36.5c30.9-43.9,35.6-107.2,7.9-155.3
		C246.3,10.8,113.3,5.8,86.6,37.8z"/>
	<g>
		
			<linearGradient id="SVGID_1_" gradientUnits="userSpaceOnUse" x1="1967.2554" y1="-669.0445" x2="2146.8701" y2="-669.0445" gradientTransform="matrix(-0.9992 4.010000e-02 4.010000e-02 0.9992 2308.1902 755.9551)">
			<stop  offset="0" style="stop-color:#FFC444"/>
			<stop  offset="0.9964" style="stop-color:#F36F56"/>
		</linearGradient>
		<path class="st1" d="M176.5,288.9c-7.1-2.1-19-5.7-27.6-16.6c-15.7-19.9-10.6-51.1,0.4-70.9c9.4-17.1,26.8-28.2,61.7-50.4
			c32.8-20.9,44.1-23.4,46.8-36.1c4-18.2-14.8-31.6-7-52.1c0.9-2.5,4.1-10.9,11.9-14.1c13.2-5.5,30.3,8.3,38.3,18.5
			c7.7,9.8,16.1,27.8,9.9,42.3c-4.5,10.5-12.8,10.3-14.5,20c-1.7,9.8,6.1,12.9,9.8,28.9c1.5,6.4,4.4,19.3-1.2,30.3
			c-7.3,14.3-22.4,12.7-25.1,24.6c-2,8.6,5.3,12.3,5.1,22.2c-0.2,13.1-12.9,22.8-23.6,30.6C248.7,275.4,214.7,300.5,176.5,288.9z"/>
		<path class="st2" d="M267.7,54.1c-7,5.2,14.4,26.8,9.5,56.3c-5.3,31.7-37.8,53.3-52.9,63.3c-25.7,17-36.9,14-53.2,32.7
			c-6.4,7.4-19.9,22.9-17.6,43.7c0.2,1.9,2.8,23.5,19.8,33.1c19.3,11,42.3-1.6,62.2-12.5c12-6.6,36-19.7,33.8-33.2
			c-1.3-8.2-12.2-14.7-21-16.4c-12.5-2.4-22.6,4.6-23.8,2.5c-1.1-1.9,6.1-9.5,16.1-15.2c19.9-11.5,30.7-4,45.5-14.5
			c1.8-1.3,15.8-11.6,15.6-26.7c-0.1-8.7-5-19.2-12-20.7c-8-1.7-15.4,8.7-17.3,7.1c-1.8-1.6,3.8-12.1,10.9-21.6
			c10.4-14.1,15.3-14.4,19.1-23.2c5.7-13.4,0.5-27.1-0.3-29.1C294.7,61.4,273.6,49.7,267.7,54.1z"/>
	</g>
	<g>
		
			<linearGradient id="SVGID_2_" gradientUnits="userSpaceOnUse" x1="-5587.0791" y1="-2444.8936" x2="-5469.8809" y2="-2631.8523" gradientTransform="matrix(0.6465 -0.7629 0.7629 0.6465 5585.7622 -2445.2407)">
			<stop  offset="3.597120e-03" style="stop-color:#E38DDD"/>
			<stop  offset="1" style="stop-color:#9571F6"/>
		</linearGradient>
		<path class="st3" d="M150.3,293.2c5.9-2.3,15.9-6.1,22.6-16c12.2-18,5.8-44.4-4.9-60.7c-9.1-14-24.8-22.4-56-39.2
			c-29.4-15.8-39.2-17.2-42.4-27.9c-4.6-15.3,10.7-28,2.7-45.1c-1-2-4.3-9.1-11.1-11.3c-11.6-3.8-25.4,9-31.6,18.3
			c-6,8.9-12,24.8-5.7,36.8c4.5,8.7,11.6,8,13.7,16.2c2.1,8.2-4.4,11.4-6.6,25.4c-0.9,5.6-2.6,16.8,3,25.9
			c7.2,11.8,19.9,9.5,23,19.5c2.2,7.2-3.7,10.8-3,19.3c1,11.2,12.5,18.6,22.2,24.7C87.7,286.3,118.4,305.5,150.3,293.2z"/>
		<path class="st2" d="M57.2,98.1c6.3,4-10.6,23.8-4.5,48.8c6.6,26.8,35.8,43.2,49.3,50.8c23.1,12.9,32.5,9.6,47.6,24.6
			c6,5.9,18.5,18.3,17.9,36.3c-0.1,1.7-0.9,20.3-14.8,29.6c-15.8,10.6-36.3,1.3-54-6.7c-10.7-4.8-32.1-14.5-31.1-26.2
			c0.6-7.1,9.5-13.4,16.9-15.4c10.6-2.9,19.7,2.5,20.6,0.6c0.8-1.7-5.8-7.7-14.7-12c-17.8-8.5-26.5-1.5-39.8-9.5
			c-1.6-1-14.3-8.9-15.1-21.8c-0.5-7.4,3-16.7,9-18.5c6.7-2,13.7,6.5,15.2,4.9c1.5-1.5-4.1-10.1-10.8-17.8
			c-9.8-11.4-14-11.3-17.8-18.6c-5.8-11.1-2.2-23.2-1.6-24.9C34.5,106.1,51.8,94.7,57.2,98.1z"/>
	</g>
	<g>
		
			<linearGradient id="SVGID_3_" gradientUnits="userSpaceOnUse" x1="2077.0281" y1="243.9374" x2="2185.7734" y2="243.9374" gradientTransform="matrix(-1 0 0 1 2379.6228 0)">
			<stop  offset="0" style="stop-color:#FF9085"/>
			<stop  offset="1" style="stop-color:#FB6FBB"/>
		</linearGradient>
		<path class="st4" d="M205.2,289.8c-3-2.2-8-5.9-10.2-12.5c-4.1-12,3.6-25.8,12.1-33.4c7.3-6.5,17.4-8.8,37.5-13.4
			c19-4.4,24.7-3.6,28.1-9.2c4.9-7.9-1.7-17.4,5.4-25.7c0.9-1,3.8-4.4,8-4.7c7.1-0.4,12.9,9,15,15.1c2,5.9,2.9,15.8-2.4,21.6
			c-3.9,4.2-7.8,2.7-10.2,7c-2.5,4.3,0.7,7.1-0.2,15.3c-0.4,3.3-1.1,9.8-5.7,14.1c-5.8,5.5-12.7,2.3-15.9,7.4
			c-2.4,3.7,0.4,6.7-1.3,11.3c-2.3,6.1-9.9,8.6-16.3,10.5C241.5,295.6,221.3,301.7,205.2,289.8z"/>
		<path class="st2" d="M287.5,194.4c-4.2,1.3,2.3,15-4.9,28.1c-7.8,14.1-26.8,18.8-35.5,21c-15,3.7-19.8,0.4-30.6,6.5
			c-4.3,2.4-13.2,7.5-15.6,17.7c-0.2,0.9-2.6,11.5,3.8,18.9c7.2,8.4,20.2,6.3,31.4,4.5c6.8-1.1,20.3-3.2,21.5-10
			c0.7-4.1-3.3-9-7.1-11.3c-5.5-3.2-11.4-1.6-11.6-2.8c-0.2-1.1,4.5-3.4,10.1-4.5c11.3-2.1,15.2,3.3,23.9,0.8
			c1.1-0.3,9.4-2.8,11.8-10c1.4-4.1,0.9-9.9-2.2-11.8c-3.5-2.2-8.7,1.5-9.3,0.4c-0.6-1,3.8-5,8.8-8.4c7.3-4.9,9.6-4.2,12.9-7.7
			c4.9-5.4,4.8-12.7,4.8-13.7C299.1,202.4,291.1,193.3,287.5,194.4z"/>
	</g>
	<g>
		<linearGradient id="SVGID_4_" gradientUnits="userSpaceOnUse" x1="188.1809" y1="67.111" x2="172.4047" y2="108.7334">
			<stop  offset="0" style="stop-color:#AA80F9"/>
			<stop  offset="0.9964" style="stop-color:#6165D7"/>
		</linearGradient>
		<path class="st5" d="M164,63.5c0,0-19.1,14.5-16.6,31.8c2.4,17.3,27.8,25.9,52.4,10.1c24.6-15.8,5.4-26.8,5.4-26.8
			S172,99.3,164,63.5z"/>
		<linearGradient id="SVGID_5_" gradientUnits="userSpaceOnUse" x1="212.8412" y1="304.407" x2="231.1395" y2="304.407">
			<stop  offset="0" style="stop-color:#311944"/>
			<stop  offset="1" style="stop-color:#6B3976"/>
		</linearGradient>
		<path class="st6" d="M226.2,301.5c0,0-12,4.2-13.3,5.2c-1.3,1,11.2,0.8,15.2,0.8c4,0,2.8-5.2,2.8-5.2S230.7,300.8,226.2,301.5z"/>
		<linearGradient id="SVGID_6_" gradientUnits="userSpaceOnUse" x1="231.3533" y1="265.8383" x2="226.9481" y2="309.0096">
			<stop  offset="0" style="stop-color:#FFC444"/>
			<stop  offset="0.9964" style="stop-color:#F36F56"/>
		</linearGradient>
		<path class="st7" d="M225.8,296.9l0.7,4.4c0.1,0.8,0.9,1.4,1.7,1.4l0,0c0.9,0,1.6-0.6,1.7-1.5l0.5-3.7L225.8,296.9z"/>
		<linearGradient id="SVGID_7_" gradientUnits="userSpaceOnUse" x1="151.1676" y1="299.8706" x2="170.3831" y2="299.8706">
			<stop  offset="0" style="stop-color:#311944"/>
			<stop  offset="1" style="stop-color:#6B3976"/>
		</linearGradient>
		<path class="st8" d="M167,295.6c0,0-15.9,8.1-15.9,8.6c0,0.5,15.7-0.5,17.8-2.1C171,300.5,171.2,294.5,167,295.6z"/>
		<linearGradient id="SVGID_8_" gradientUnits="userSpaceOnUse" x1="172.1509" y1="259.7974" x2="167.7457" y2="302.9684">
			<stop  offset="0" style="stop-color:#FFC444"/>
			<stop  offset="0.9964" style="stop-color:#F36F56"/>
		</linearGradient>
		<path class="st9" d="M171.5,291.8l-2.9,5.9c-0.3,0.5-0.8,0.9-1.4,0.9l0,0c-0.9,0-1.6-0.9-1.4-1.8l1.3-6.6L171.5,291.8z"/>
		<linearGradient id="SVGID_9_" gradientUnits="userSpaceOnUse" x1="204.8029" y1="190.6933" x2="193.7899" y2="235.1859">
			<stop  offset="0" style="stop-color:#311944"/>
			<stop  offset="1" style="stop-color:#6B3976"/>
		</linearGradient>
		<path class="st10" d="M198.6,177.3c-7.3,15.4-14.8,33.8-21.1,55c-6.3,21.3-10.1,40.8-12.4,57.7c-0.2,1.6,0.9,3,2.5,3.2
			c0.9,0.1,1.8,0.3,2.7,0.4c1,0.1,1.9-0.2,2.5-0.9c4.5-5.1,9.9-12.6,12.8-22.8c2.7-9.5,0.7-12.5,3.2-21.3c3.5-12,9.2-13.4,19.1-28.4
			c7.3-11,18.2-27.5,12.6-36.5C219.5,182.2,215.3,176.4,198.6,177.3z"/>
		<linearGradient id="SVGID_10_" gradientUnits="userSpaceOnUse" x1="237.011" y1="198.6655" x2="225.9979" y2="243.1581">
			<stop  offset="0" style="stop-color:#311944"/>
			<stop  offset="1" style="stop-color:#6B3976"/>
		</linearGradient>
		<path class="st11" d="M216.6,191.8c3.6,17.6,6.6,37.9,7.9,60.5c0.9,15.4,0.8,30.5,0.2,43.7c-0.1,1.7,1.2,3.2,2.9,3.5
			c0.4,0.1,0.8,0.1,1.3,0.2c1.3,0.2,2.6-0.5,3.3-1.7c3.2-5.8,7-14.7,7.5-24.4c0.3-6-0.7-8.3-0.7-15.3c-0.1-10.2,2-15.5,4.8-27.6
			c5.1-21.9,7.6-32.9,3.6-37.7C245.8,191.2,239.6,185.1,216.6,191.8z"/>
		<linearGradient id="SVGID_11_" gradientUnits="userSpaceOnUse" x1="207.931" y1="191.4675" x2="196.918" y2="235.9601">
			<stop  offset="0" style="stop-color:#311944"/>
			<stop  offset="1" style="stop-color:#6B3976"/>
		</linearGradient>
		<path class="st12" d="M220.4,183.7c-0.7-1.1-3.1-4.5-10.8-5.9c1.2,16.6-2.8,27.3-7.1,34.3c-6.9,11-14.7,12.7-19.9,25.9
			c-4.2,10.6-1.6,15.6-3.4,31.3c-0.6,5.4-1.8,12.5-4.3,20.9c4-4.9,8.2-11.6,10.6-20.2c2.7-9.5,0.7-12.5,3.2-21.3
			c3.5-12,9.2-13.4,19.1-28.4C215.1,209.2,226,192.8,220.4,183.7z"/>
		<linearGradient id="SVGID_12_" gradientUnits="userSpaceOnUse" x1="197.0464" y1="118.2562" x2="241.7738" y2="176.36">
			<stop  offset="0" style="stop-color:#AA80F9"/>
			<stop  offset="0.9964" style="stop-color:#6165D7"/>
		</linearGradient>
		<path class="st13" d="M201.4,80c4.3-2.6,10-2.1,21.4-0.9c15.4,1.5,31.6,3,40.5,13.9c14.8,18,3.8,50.8,1.4,58
			c-4.5,13.4-9.3,17-9.8,29.5c-0.6,14.6,5.3,22.2,0.4,27.7c-3.4,4-7.5,1.4-24.2,4.3c-14.4,2.6-14.3,5-21.9,4.5
			c-3.3-0.2-9.7-2.7-22.6-7.6c-6-2.3-8.2-3.3-9.1-5.6c-1.8-4.7,3.7-10.2,6.8-14.7c6.6-9.5,5.6-18.5,5.8-39.3
			C190.4,107.7,190.9,86.4,201.4,80z"/>
		<linearGradient id="SVGID_13_" gradientUnits="userSpaceOnUse" x1="206.3808" y1="103.804" x2="253.5165" y2="165.0364">
			<stop  offset="0" style="stop-color:#AA80F9"/>
			<stop  offset="0.9964" style="stop-color:#6165D7"/>
		</linearGradient>
		<path class="st14" d="M264.6,151c2.4-7.2,13.4-40-1.4-58c-6.2-7.5-15.1-10.4-26.2-12.1c20.4,12.3,25.1,20.5,24.1,26.1
			c-2,10.9-25.5,8.9-35.2,27.6c-4.9,9.3-4,19.3-2.3,38.2c1.6,18.8,5.2,21.7,4.1,32c-0.3,2.7-0.9,5.7-2,9c1.5-0.4,3.3-0.7,5.4-1.1
			c16.7-3,20.8-0.4,24.2-4.3c4.8-5.6-1.1-13.2-0.4-27.7C255.4,167.9,260.1,164.4,264.6,151z"/>
		
			<linearGradient id="SVGID_14_" gradientUnits="userSpaceOnUse" x1="-1835.8197" y1="403.176" x2="-1834.4144" y2="365.7438" gradientTransform="matrix(-0.9551 0.2963 0.2963 0.9551 -1636.9839 253.6153)">
			<stop  offset="0" style="stop-color:#FFC444"/>
			<stop  offset="0.9964" style="stop-color:#F36F56"/>
		</linearGradient>
		<path class="st15" d="M232.9,65.1c-0.4,3.6-0.3,6.6-0.1,8.6c0.2,2.3,0.5,2.9,0.9,3.5c0.6,0.8,1.5,1.5,7.1,3.5
			c3.1,1.1,3.5,1.1,3.5,1.4c0.2,1.4-8.9,5.1-17.5,2.8c-5.3-1.3-9.8-4.7-9.4-6.1c0.5-1.4,5.7,0,7.6-2.5c1.3-1.7,0.4-4.5-0.9-6.8
			C225.9,67.2,231.2,67.4,232.9,65.1z"/>
		<g>
			
				<linearGradient id="SVGID_15_" gradientUnits="userSpaceOnUse" x1="1558.7339" y1="-457.2773" x2="1548.1302" y2="-484.2084" gradientTransform="matrix(0.9276 0.3738 -0.3738 0.9276 -1386.377 -70.5198)">
				<stop  offset="0" style="stop-color:#311944"/>
				<stop  offset="1" style="stop-color:#6B3976"/>
			</linearGradient>
			<path class="st16" d="M223.5,64c-0.5-2.1,0.5-5,2.6-6.2c1.8-1.1,3.7-0.5,4.8-0.2c3.3,0.9,6.8,4,6.9,7.6c0.1,2.2-3.2,5.2-3.7,5.8
				c-0.6,0.6-1.3,0.7-2.1,1c-1.1,0.5-2.7,1.3-5.4,2.7c0.1-0.7,0.2-1.6,0.2-2.6c0-0.4,0-1.9-0.4-3.3C225.6,66,224,66.1,223.5,64z"/>
			
				<linearGradient id="SVGID_16_" gradientUnits="userSpaceOnUse" x1="-3491.3059" y1="-636.1807" x2="-3491.7935" y2="-596.9128" gradientTransform="matrix(-0.9029 -0.4299 -0.4299 0.9029 -3196.6641 -860.078)">
				<stop  offset="0" style="stop-color:#FFC444"/>
				<stop  offset="0.9964" style="stop-color:#F36F56"/>
			</linearGradient>
			<path class="st17" d="M230,74c0,0-3.5,2.7-7.5,0.7c-3.6-1.8-0.7-10.8,2.4-11.6c1-0.3,2.7,0.1,3.9,1c0.7,0.5,0.8,1,1.9,1.8
				c1,0.8,1.4,0.8,1.6,1.2c0.3,0.6,0.2,1.6-1.5,3.9c1-0.5,2-0.4,2.5,0.2c0.1,0.1,0.3,0.4,0.3,0.7C233.7,73.1,232.3,74,230,74z"/>
			
				<linearGradient id="SVGID_17_" gradientUnits="userSpaceOnUse" x1="1555.5508" y1="-455.9629" x2="1544.902" y2="-483.0089" gradientTransform="matrix(0.9276 0.3738 -0.3738 0.9276 -1386.377 -70.5198)">
				<stop  offset="0" style="stop-color:#311944"/>
				<stop  offset="1" style="stop-color:#6B3976"/>
			</linearGradient>
			<path class="st18" d="M232.7,66.7c-0.2,0.1,0,1-0.3,2c-0.7,2-3.5,3.5-5.4,2.9c-1.2-0.4-1.2-1.2-3-2.2c-1.1-0.6-2.1-0.8-2.8-1
				c-1.4,1.9-1.7,4.2-0.8,5.7c1,1.7,3.1,1.8,4,1.8c0.6,0,2.5,0.2,4-1.1c1.6-1.3,1.1-2.7,2.6-3.4c0.7-0.4,1.5-0.3,2.6-1.1
				c0.3-0.2,0.5-0.4,0.7-0.6C233.8,68.5,233,66.6,232.7,66.7z"/>
			
				<linearGradient id="SVGID_18_" gradientUnits="userSpaceOnUse" x1="1545.3104" y1="-472.3387" x2="1545.8701" y2="-467.3492" gradientTransform="matrix(0.9276 0.3738 -0.3738 0.9276 -1386.377 -70.5198)">
				<stop  offset="0" style="stop-color:#FFC444"/>
				<stop  offset="1" style="stop-color:#F36F56"/>
			</linearGradient>
			<path class="st19" d="M222.3,69.8c0,0,0.6,0.8,2,1.3c0.1,0,0.1,0.1,0.1,0.1c0,0.2-1.2,0.4-1.9-0.2c-0.5-0.4-0.7-1.2-0.6-1.3
				C222,69.7,222.2,69.8,222.3,69.8z"/>
		</g>
	</g>
	<g>
		<linearGradient id="SVGID_19_" gradientUnits="userSpaceOnUse" x1="139.6848" y1="83.061" x2="64.1876" y2="133.3925">
			<stop  offset="0" style="stop-color:#311944"/>
			<stop  offset="1" style="stop-color:#6B3976"/>
		</linearGradient>
		<path class="st20" d="M117.9,81.7c0.6-4.5,0.9-7.2-0.8-9.4c-3.8-4.9-15.8-4.2-22.8,1.6c-5.1,4.3-3.3,7.8-8.1,11.5
			c-6.8,5.3-13.1-0.5-23.1,3.3c-7.9,3-16.8,10.8-18,21.4c-0.6,5.6,0.7,14.2,6.6,18.5c8.3,6.1,20.2-0.2,22,3.6
			c1.9,4-11.4,10.7-10,18.7c1,5.7,8.9,9,13.4,10c10.9,2.5,24-3,30.8-12.6c7.3-10.4-0.4-14.8,6.2-40.5
			C114.8,104.9,115.8,97.2,117.9,81.7z"/>
		<linearGradient id="SVGID_20_" gradientUnits="userSpaceOnUse" x1="128.538" y1="299.0243" x2="146.7925" y2="299.0243">
			<stop  offset="0" style="stop-color:#444B8C"/>
			<stop  offset="0.9964" style="stop-color:#26264F"/>
		</linearGradient>
		<path class="st21" d="M129.7,295c0,0-0.9,2.1-1.2,4c-0.2,1.5,0.9,2.9,2.4,3.1c3.7,0.4,10.4,1.1,14.5,1c5.2-0.1-6.6-6.3-9.5-7.8
			c-0.4-0.2-0.8-0.3-1.3-0.3H129.7z"/>
		<linearGradient id="SVGID_21_" gradientUnits="userSpaceOnUse" x1="141.5759" y1="265.5296" x2="133.6466" y2="289.7982">
			<stop  offset="0" style="stop-color:#311944"/>
			<stop  offset="1" style="stop-color:#A03976"/>
		</linearGradient>
		<path class="st22" d="M131.2,288.1c-0.5,0.2-0.8,7.6-0.8,7.6s2.4,1.4,4,0.5l3.2-9.2L131.2,288.1z"/>
		<linearGradient id="SVGID_22_" gradientUnits="userSpaceOnUse" x1="61.9835" y1="292.4456" x2="74.195" y2="292.4456">
			<stop  offset="0" style="stop-color:#444B8C"/>
			<stop  offset="0.9964" style="stop-color:#26264F"/>
		</linearGradient>
		<path class="st23" d="M63.8,286.3c-1.5,0.9-2.2,2.7-1.6,4.4c1,2.6,2.5,6.2,4.1,8.1c1.8,2.1,4.9,2.1,6.9,1.8
			c0.8-0.1,1.3-1.1,0.8-1.7c-1-1.4-2.4-3.5-3-4.8c-1.1-2.1-3.5-9.9-3.5-9.9L63.8,286.3z"/>
		<linearGradient id="SVGID_23_" gradientUnits="userSpaceOnUse" x1="82.3092" y1="246.1652" x2="74.3799" y2="270.4338">
			<stop  offset="0" style="stop-color:#311944"/>
			<stop  offset="1" style="stop-color:#A03976"/>
		</linearGradient>
		<path class="st24" d="M70.1,278.9l-3.9,6.2c-0.4,0.6-0.3,1.3,0.2,1.8l0,0c0.5,0.5,1.4,0.5,1.9,0l6.1-5.9L70.1,278.9z"/>
		<linearGradient id="SVGID_24_" gradientUnits="userSpaceOnUse" x1="145.6031" y1="293.4092" x2="135.7449" y2="197.5884">
			<stop  offset="0" style="stop-color:#444B8C"/>
			<stop  offset="0.9964" style="stop-color:#26264F"/>
		</linearGradient>
		<path class="st25" d="M141.1,160.4c13.9,6.7,11.5,38.1,9.3,66.4c-1.4,17.9-4.5,39.7-11.3,64.3c-3.5,0.1-7.1,0.3-10.6,0.4
			c-1.2-6.4-2.5-16-2.4-27.6c0.2-18.2,3.9-28.6,5.3-38.2c1.9-13.4,0.4-33-15.4-59.3C129.8,157.6,137.2,158.5,141.1,160.4z"/>
		<linearGradient id="SVGID_25_" gradientUnits="userSpaceOnUse" x1="144.3181" y1="293.5414" x2="134.4599" y2="197.7206">
			<stop  offset="0" style="stop-color:#444B8C"/>
			<stop  offset="0.9964" style="stop-color:#26264F"/>
		</linearGradient>
		<path class="st26" d="M132.1,258.4c3.6-14,9.4-18.6,9.9-33.7c0.5-15.4-5.1-21-3.5-34.7c1.1-9.6,4.9-17.5,8.9-23.4
			c-1.6-2.8-3.6-4.9-6.2-6.2c-3.9-1.9-11.3-2.9-25,5.9c15.8,26.4,17.3,46,15.4,59.3c-1.4,9.6-5.1,20.1-5.3,38.2
			c-0.2,11.6,1.2,21.2,2.4,27.6c0.8,0,1.6-0.1,2.4-0.1C128.7,277.4,130,266.5,132.1,258.4z"/>
		<linearGradient id="SVGID_26_" gradientUnits="userSpaceOnUse" x1="108.6486" y1="297.211" x2="98.7904" y2="201.3903">
			<stop  offset="0" style="stop-color:#444B8C"/>
			<stop  offset="0.9964" style="stop-color:#26264F"/>
		</linearGradient>
		<path class="st27" d="M103.3,161.4c-0.6,7.6-1.4,17-2.4,27.8c-2.2,24.9-2.9,29.1-5.1,34.7c-4.2,10.8-8.4,12.4-16,25.4
			c-7.2,12.3-10.8,23.5-12.8,31c2.2,1.8,4.5,3.7,6.7,5.5c10.8-9.4,24.9-24,37.1-44.7c17.7-30.1,22.6-58.7,24.2-75.4
			C124.4,164.3,113.9,162.9,103.3,161.4z"/>
		<linearGradient id="SVGID_27_" gradientUnits="userSpaceOnUse" x1="164.8371" y1="87.2779" x2="85.3453" y2="213.1066">
			<stop  offset="0" style="stop-color:#FFC444"/>
			<stop  offset="0.9964" style="stop-color:#F36F56"/>
		</linearGradient>
		<path class="st28" d="M103.6,100c-4.7,3.8-4.7,11-4.7,18.3c0,7.8,1.6,11.6,2.6,17.4c0.5,3.1,3.3,19.9-3.6,33.9
			c-6.6,13.4-16.3,12.7-20.7,26.7c-2.1,6.8-2.6,15.7,0.7,17.4c3.7,1.9,8.4-7.2,20.6-11.3c10.8-3.7,11.7,1.9,23.5-1.3
			c12.4-3.3,13.2-9.8,30.6-15.8c3.5-1.2,4.9-1.4,6-3c4.5-6.2-7.8-15.9-13.5-35.1c-5.6-18.7,0.7-27.3-8.5-38
			c-4.6-5.4-10.2-7.8-12.2-8.6C121.2,99.3,110.1,94.7,103.6,100z"/>
		<g class="st29">
			<linearGradient id="SVGID_28_" gradientUnits="userSpaceOnUse" x1="166.4481" y1="88.2955" x2="86.9564" y2="214.124">
				<stop  offset="0" style="stop-color:#FFC444"/>
				<stop  offset="0.9964" style="stop-color:#F36F56"/>
			</linearGradient>
			<path class="st30" d="M145.1,147.2c-5.6-18.7,0.7-27.3-8.5-38c-4.6-5.4-10.2-7.8-12.2-8.6c-2.5-1-9.5-3.9-15.5-2.9
				c2.5,3.2,5.1,6.9,7.7,11.1c7.6,12.1,11.4,18.1,12,25.6c1.3,15.6-10.5,21-7.2,34.4c2.3,9.3,8.8,10.1,10,17.2
				c0.6,3.5-0.3,8-4.4,13.5c8-3.5,10.8-9,25.6-14.1c3.5-1.2,4.9-1.4,6-3C163.1,176.1,150.8,166.4,145.1,147.2z"/>
		</g>
		
			<linearGradient id="SVGID_29_" gradientUnits="userSpaceOnUse" x1="-4960.6992" y1="128.2404" x2="-4974.7637" y2="77.37" gradientTransform="matrix(-1 0 0 1 -4849.2632 0)">
			<stop  offset="0" style="stop-color:#311944"/>
			<stop  offset="1" style="stop-color:#A03976"/>
		</linearGradient>
		<path class="st31" d="M113.5,85.7c0,0-1.2,9.2-4.5,11.3c-3.4,2.1-1.5,4.2-2.1,4.9c-0.6,0.7,10,5.3,20.7-0.1l4.5-3.1
			c-3.5,0-8.1-0.2-9.9-1.3c-1.2-0.7-3.2-2.1-5-4.6l0-5.1L113.5,85.7z"/>
		
			<linearGradient id="SVGID_30_" gradientUnits="userSpaceOnUse" x1="-4602.3818" y1="202.9235" x2="-4666.9712" y2="256.6755" gradientTransform="matrix(-0.9776 0.2107 0.2107 0.9776 -4499.4727 817.1074)">
			<stop  offset="0" style="stop-color:#311944"/>
			<stop  offset="1" style="stop-color:#A03976"/>
		</linearGradient>
		<path class="st32" d="M112.5,89.7c0,0,4.1,3.6,8.6,0.8c4.1-2.6-1-13.4-4.8-14c-1.3-0.2-3.4,0.5-4.6,1.7c-0.9,0.8-2.9,4.8-0.5,8.2
			c-1.2-0.1-2.1,0.4-2.2,1c-0.2,0.8,1,1.5,1.3,1.7C111.1,89.7,112,89.7,112.5,89.7z"/>
		<g>
			<linearGradient id="SVGID_31_" gradientUnits="userSpaceOnUse" x1="143.6612" y1="63.9783" x2="141.2645" y2="51.1958">
				<stop  offset="0" style="stop-color:#311944"/>
				<stop  offset="1" style="stop-color:#A03976"/>
			</linearGradient>
			<path class="st33" d="M144.1,50.7c0,0-0.8-1.3-3.2-4.4c-2.4-3.1-4.9-2.1-2.8,1.8C140.3,52,143.1,50.9,144.1,50.7z"/>
			<linearGradient id="SVGID_32_" gradientUnits="userSpaceOnUse" x1="200.3509" y1="54.2286" x2="197.9541" y2="41.446">
				<stop  offset="0" style="stop-color:#311944"/>
				<stop  offset="1" style="stop-color:#A03976"/>
			</linearGradient>
			<path class="st34" d="M195,41.3c0,0,2.1-5.3,3.4-7.7C199.6,31.2,201.8,40.4,195,41.3z"/>
			<linearGradient id="SVGID_33_" gradientUnits="userSpaceOnUse" x1="198.4942" y1="56.844" x2="205.1358" y2="56.844">
				<stop  offset="0" style="stop-color:#311944"/>
				<stop  offset="1" style="stop-color:#6B3976"/>
			</linearGradient>
			<path class="st35" d="M199.5,58c0,0-2.1-2.2-0.3-2.6c1.8-0.4,5.5,1.9,5.9,2.6C205.5,58.7,199.5,58,199.5,58z"/>
			<linearGradient id="SVGID_34_" gradientUnits="userSpaceOnUse" x1="203.0431" y1="52.966" x2="200.7463" y2="57.8593">
				<stop  offset="0" style="stop-color:#311944"/>
				<stop  offset="1" style="stop-color:#A03976"/>
			</linearGradient>
			<path class="st36" d="M198.8,60.3l0.5-2.4c0.1-0.5,0.7-0.7,1.1-0.5l0.1,0.1c0.2,0.1,0.3,0.4,0.3,0.6v2.7L198.8,60.3z"/>
			<linearGradient id="SVGID_35_" gradientUnits="userSpaceOnUse" x1="207.2235" y1="64.9878" x2="213.8651" y2="64.9878">
				<stop  offset="0" style="stop-color:#311944"/>
				<stop  offset="1" style="stop-color:#6B3976"/>
			</linearGradient>
			<path class="st37" d="M208.2,66.2c0,0-2.1-2.2-0.3-2.6c1.8-0.4,5.5,1.9,5.9,2.6C214.2,66.9,208.2,66.2,208.2,66.2z"/>
			<linearGradient id="SVGID_36_" gradientUnits="userSpaceOnUse" x1="213.3288" y1="57.794" x2="211.032" y2="62.6873">
				<stop  offset="0" style="stop-color:#311944"/>
				<stop  offset="1" style="stop-color:#A03976"/>
			</linearGradient>
			<path class="st38" d="M207.5,68.4l0.5-2.4c0.1-0.5,0.7-0.7,1.1-0.5l0.1,0.1c0.2,0.1,0.3,0.4,0.3,0.6v2.7L207.5,68.4z"/>
			<linearGradient id="SVGID_37_" gradientUnits="userSpaceOnUse" x1="193.0917" y1="53.2503" x2="190.9613" y2="72.9568">
				<stop  offset="0" style="stop-color:#444B8C"/>
				<stop  offset="0.9964" style="stop-color:#26264F"/>
			</linearGradient>
			<path class="st39" d="M180.8,70.8c0,0,4.6-0.2,7.2,0.4c2.6,0.6,5.6,0.1,7.7-3.3c2.1-3.4,2.4-8.4,2.4-8.4l3.1,0.3
				c0,0,0.9,5.5,0.6,8.7c-0.3,3.3-2,11-11.8,11.7C180.2,81.1,180.8,70.8,180.8,70.8z"/>
			<linearGradient id="SVGID_38_" gradientUnits="userSpaceOnUse" x1="194.6755" y1="73.2001" x2="190.9473" y2="105.9554">
				<stop  offset="0" style="stop-color:#444B8C"/>
				<stop  offset="0.9964" style="stop-color:#26264F"/>
			</linearGradient>
			<path class="st40" d="M183.1,75.1c0,0,3.9-0.3,7.3,0.7c3.5,1,9.3,1.6,11.8-0.6c2.5-2.2,4.8-7.6,4.8-7.6l3.1,0.3
				c0,0,0.6,8-2.6,13.7c-3.2,5.7-12.9,11.6-24,5.1C172.5,80.2,183.1,75.1,183.1,75.1z"/>
			<linearGradient id="SVGID_39_" gradientUnits="userSpaceOnUse" x1="190.2198" y1="112.6991" x2="173.4426" y2="59.4382">
				<stop  offset="0" style="stop-color:#FF9085"/>
				<stop  offset="1" style="stop-color:#FB6FBB"/>
			</linearGradient>
			<path class="st41" d="M142.8,49.5c-0.9,0.8-1.2,1.9-1.3,2.7c1.2,1.5,3.9,4.4,8.1,6.2c5.6,2.4,10.6,1.7,12.5,1.3
				c-0.2,3.4-0.2,9.4,2.9,15.7c2.8,5.7,9.7,14.6,15.5,13c3-0.8,5.7-4.3,5.9-7.6c0.2-3.3-2.2-4.8-1.3-7.7c0.9-2.9,4-3.7,3.7-4.9
				c-0.3-1.1-2.8-0.3-6.1-2.1c-0.9-0.5-3.2-1.9-4.7-4.6c-0.5-0.8-0.7-1.6-0.9-2.2c1.9-0.1,7.4-0.6,12.6-4.8
				c6.2-5.1,7.4-11.9,7.6-13.6c-0.6-0.6-1.1-1.1-1.7-1.7c-2,2.6-5.4,6.6-10.9,9.8c-2.7,1.6-10,6.1-19.3,5.5
				C154,54.2,146.5,46.3,142.8,49.5z"/>
			<linearGradient id="SVGID_40_" gradientUnits="userSpaceOnUse" x1="163.9549" y1="52.1568" x2="174.2525" y2="52.1568">
				<stop  offset="0" style="stop-color:#311944"/>
				<stop  offset="1" style="stop-color:#A03976"/>
			</linearGradient>
			<path class="st42" d="M170.1,48.2l1.7,5.3l2.5,0.3c0,0-6.2,4.3-10.3,0.8l2.4-0.9l-0.1-4.2L170.1,48.2z"/>
			
				<linearGradient id="SVGID_41_" gradientUnits="userSpaceOnUse" x1="-3539.9788" y1="-2174.623" x2="-3551.3889" y2="-2203.6033" gradientTransform="matrix(0.9778 -0.2099 0.2099 0.9778 4097.8989 1446.071)">
				<stop  offset="0" style="stop-color:#311944"/>
				<stop  offset="1" style="stop-color:#6B3976"/>
			</linearGradient>
			<path class="st43" d="M157.7,45.5c-0.7-1.1-1.6-0.8-2.2-1.8c-0.8-1.3-0.4-3.4,0.7-4.7c1-1.2,1.9-0.8,4.8-2c3.1-1.3,3.2-2.3,5.9-3
				c0.7-0.2,2-0.5,3.7-0.3c1.3,0.2,4,0.5,5.1,2.6c1.3,2.3-0.1,5-0.3,5.2c2,2.5,2.1,3.8,1.7,4.6c0,0-0.4,0.8-3.7,2.1l0,0
				c0,0-0.4,1.5-0.8,2.1c-0.4,0.7-1.5,1.4-4.6,1.2c-0.3-0.5-0.7-1.3-1.3-2.1c-1.1-1.6-1.6-2.4-2.2-2.3c-1.4,0.1-1.3,5-3,5.3
				c-1.1,0.2-2.8-1.5-3.3-3.1C157.7,47.7,158.6,46.7,157.7,45.5z"/>
			
				<linearGradient id="SVGID_42_" gradientUnits="userSpaceOnUse" x1="-3393.2358" y1="-1050.1332" x2="-3397.7913" y2="-1038.7446" gradientTransform="matrix(0.9595 0.2819 -0.2819 0.9595 3135.7607 1997.6169)">
				<stop  offset="0" style="stop-color:#311944"/>
				<stop  offset="1" style="stop-color:#A03976"/>
			</linearGradient>
			<path class="st44" d="M169.8,50.1c0,0-1.4,4-5.7,4.7c-3.9,0.6-6.4-7.9-4.3-10.3c0.7-0.8,2.3-1.4,3.7-1.3c0.8,0,1.2,0.3,2.5,0.4
				c1.3,0,1.6-0.2,2,0.1c0.5,0.3,1.1,1.1,0.9,3.8c0.6-0.9,1.4-1.4,2.1-1.2c0.1,0,0.4,0.1,0.6,0.4C172.4,47.5,171.7,49,169.8,50.1z"
				/>
		</g>
		<linearGradient id="SVGID_43_" gradientUnits="userSpaceOnUse" x1="178.1353" y1="91.9658" x2="175.7386" y2="56.8137">
			<stop  offset="0" style="stop-color:#311944"/>
			<stop  offset="1" style="stop-color:#A03976"/>
		</linearGradient>
		<path class="st45" d="M172.3,74.4c0.1-0.3,0.5-3.3,0-5.6c-0.5-2.4-1.2-5.8,0.2-3.3c1.4,2.5,2.4,4.1,4.7,1.9
			c2.3-2.2,1.9-4.7,2.6-4.5c0.7,0.2,2.5,4.4,0,7.1c-2.5,2.7-5.5,5.5-5.5,5.5L172.3,74.4z"/>
		<linearGradient id="SVGID_44_" gradientUnits="userSpaceOnUse" x1="149.4568" y1="77.5613" x2="69.9651" y2="203.3898">
			<stop  offset="0" style="stop-color:#FFC444"/>
			<stop  offset="0.9964" style="stop-color:#F36F56"/>
		</linearGradient>
		<path class="st46" d="M104.7,103.7c-0.4,5.2,5.5,9.5,6.6,10.4c11,8,34.6,2.3,49.3-11.2c10-9.2,14.3-20.5,16.2-28.2
			c-1.8-0.6-3.7-1.2-5.5-1.9c-7.7,13.1-16,17.9-21.9,19.8c-15.6,5.2-32.6-3.1-41.5,5.3C107,98.7,104.9,100.7,104.7,103.7z"/>
	</g>
	<linearGradient id="SVGID_45_" gradientUnits="userSpaceOnUse" x1="172.3435" y1="44.6125" x2="169.4515" y2="91.367">
		<stop  offset="0" style="stop-color:#FFC444"/>
		<stop  offset="0.9964" style="stop-color:#F36F56"/>
	</linearGradient>
	<path class="st47" d="M176.7,71.2l-2-8.7c0,0-4.3-6.7-7.1-12.1c-2.8-5.4-1.4,8.4,0.5,12.1c1.9,3.7,5.3,9.6,5.3,9.6L176.7,71.2z"/>
	<linearGradient id="SVGID_46_" gradientUnits="userSpaceOnUse" x1="227.0957" y1="62.4504" x2="204.4414" y2="122.2192">
		<stop  offset="0" style="stop-color:#AA80F9"/>
		<stop  offset="0.9964" style="stop-color:#6165D7"/>
	</linearGradient>
	<path class="st48" d="M166.9,73.5c1.5-0.9,2.9-1.8,4.4-2.7c9,19.5,18.1,24.7,24.8,25.8c6.8,1.1,16.8-3,36.6-11.1
		c12.9-5.3,16.2-7.3,20.7-5.8c9.1,3.1,15.1,17.6,12.1,28.9c-4.4,16.6-26.7,21.4-33.1,22.7c-4.3,0.9-33.8,7.2-53.2-14.1
		C163.1,99.7,166.3,76.7,166.9,73.5z"/>
</g>
</svg>
