<?xml version="1.0" encoding="utf-8"?>
<!-- Generator: Adobe Illustrator 25.3.1, SVG Export Plug-In . SVG Version: 6.00 Build 0)  -->
<svg version="1.1" xmlns="http://www.w3.org/2000/svg" xmlns:xlink="http://www.w3.org/1999/xlink" x="0px" y="0px"
	 viewBox="0 0 651.9 573.4" style="enable-background:new 0 0 651.9 573.4;" xml:space="preserve">
<style type="text/css">
	.st0{fill:#421065;}
	.st1{fill:#FEB300;}
	.st2{fill:#D27706;}
	.st3{fill:#F0564A;}
	.st4{fill:#F07668;}
</style>
<g id="Capa_4">
	<path class="st0" d="M281.9,315c0,0,40.2,16.7,82,1.6c0,0,14.8-6,13.2,6.3c0,0-1.3,46.4-74.6,31.3c0,0-28-7.4-27.6-29.6
		C274.8,324.6,275.4,312.8,281.9,315z"/>
	<path class="st0" d="M365.8,274.5c0,0,12.5,24,34.7,20.9c0,0,14.8,2.6,28.3-23.5c0,0,3.5-12.5,5.5-2.6c0,0,3.5,21.5-16.4,33.4
		c0,0-22.8,16.1-47.2-2.9c0,0-11.2-6.1-12.9-25.4c0,0,0.7-18.5,6.4-5.1l1,3.2L365.8,274.5z"/>
	<path class="st0" d="M225.6,275.8c0,0,18.3,35.1,51.8,13.2c0,0,8-7.8,11.2-19.3c0,0,3.2-11.2,5.1,0c0,0,6.4,18-16.4,33.4
		c0,0-22.8,16.1-46.3-2.6c0,0-11.6-8.7-13.5-26.7c0,0,2.6-17.4,6.1-3.9L225.6,275.8z"/>
	<path class="st0" d="M211.5,389.6c0,0-16.4,16.7-9.3,18.6l44,26.7h1.6l-10.6,68.5c0,0-72.3,0-53,13.2
		c19.3,13.2,99.6,17.7,99.6,17.7l23.1,1.9c0,0,10.3,41.1,14.8,23.8v-23.1l-1.6-11.9c0,0-37.6-3.2-37.9-5.5l89-0.3
		c0,0-27.3,5.1-37.9,4.8c0,0-8.4,43.6,1,40.3c0,0,9-13.9,10.9-28.7l85.5-8.4l33.8-7.7c0,0,17.4-7.1,0-11.9c0,0-28.3-6.1-48.2-4.8
		l-11.9-68.5l12.2-6.1l29.9-17.7c0,0,10.3-3.9,0.3-13.2l-7.4-7.7c0,0-46-1.7-58.8-23.8c0,0-48.9,39.9-109.6,0
		C271,365.8,253,390.2,211.5,389.6z"/>
</g>
<g id="Capa_2">
	<path class="st1" d="M271,365.8l-17.4,117.6h145.6l-18.6-117.6C380.6,365.8,321.8,397.3,271,365.8z"/>
</g>
<g id="Capa_1">
	<g id="Capa_3">
		<polygon class="st2" points="231.8,387.3 217.6,401.8 248.5,420.4 256.8,378.3 		"/>
		<polygon class="st2" points="403.1,420.4 434.2,403.1 421.1,388.6 395.7,378.3 		"/>
		<path class="st2" d="M271,365.8c0,0,50.1,42.4,109.6,0l2.6,17c0,0-46.6,38.2-113.5-0.3L271,365.8z"/>
	</g>
	<path class="st3" d="M326.5,43.1c0,0,13.4-40.5,51.4-26.4c0,0,7.8-4.5,42.5,26.4c0,0,77.8,0.6,85.5,52.7c0,0,52.1,25.1,36.6,77.8
		c0,0,23.1,25.7,8.4,66.2c0,0,23.1,55.3-26.4,78.4c0,0,4.7,63.6-83.1,72.6c0,0-48.6-2.5-60.2-23.1c0,0-50.9,39.9-108.1-0.6
		c0,0-60.4,52.7-129.8-4.5c0,0-16.1-17.4-16.1-44.4c0,0-46.7-20.5-26.4-79.1c0,0-16.1-32.8,8.4-65.6c0,0-14.8-49.5,36.6-77.8
		c0,0,1.3-48.2,85.5-52.1c0,0,28.9-34.9,66.9-30C298.3,13.7,318.1,18,326.5,43.1z"/>
	<path class="st4" d="M111.9,188.1c0,0-21.4,51.9,19.7,56.6c0,0,16.3,1.3,27.4-5.6l2.6-2.1c0,0,12.9-9.9,9.9,4.7
		c0,0-9.4,13.3-32.3,12c0,0,4.5,61.7,85.5,66.4h6h9l26.9-3.9c0,0,5.9-2.2,10.8-0.2c0.7,0.3,1.4,0.7,2,1.1c5.1,3.9,5.5,15.1,5.5,15.1
		v9.6l-5.1,13.5c0,0,38.6,39.9,93.2,0c0,0-10.9-13.5,5.1-41.5c0,0,61.4,15.8,95.5-5.1c0,0,30.2-12.9,39.9-54.3
		c0,0-14.5,3.5-31.8-10.6c0,0-6.8-8,4.8-9.6c0,0,23.1,19.6,52.7,2.6c0,0,17.5-17.9,0-48.8c0,0-8.9,16.7-18.8,19.3
		c0,0-12.4,5.6-12-3.9c0,0,3-6.4,8.1-5.1c0,0,33.9-22.3,9.4-72.9c0,0-12.9-17.1-19.3-16.7c0,0-2.6,25.7-29.6,29.6
		c0,0-14.6-1.3-4.3-10.7c0,0,30.9-1.3,21.9-37.7c0,0-10.3-36-75.9-34.7c0,0-24.9-32.1-61.7-30.9c0,0-41.6,14.6-18,77.1
		c0,0,16.3,18.4,36.4-13.3c0,0-8.1-23.1-2.1-30.4c0,0,11.6-6,8.1,8.6c0,0,0,32.6,28.7,39.4c0,0,16.3,4.7,0.4,11.6
		c0,0-24-9.4-29.6-19.3c0,0-13.7,20.1-30.4,19.7c0,0-25.7,79.3-9.9,103.7c0,0,13.7,34.3,48,18.4c0,0,17.1-6.9,18.4-31.7l0.4-24.9
		c0,0,52.3,5.1,57.9-11.1l6.4-10.7c0,0,8-7.6,8.2,2.6c0,0.6,0,1.4-0.1,2.2c-0.9,13.3-22.3,36-62.1,27.4c0,0,6.9,44.1-29.6,57
		c0,0-25.3,16.7-51.4-16.3c0,0-6.4,24.4,10.7,38.1c0,0-26.1,41.6-6,48c0,0-13.7,9.4-30.4,0c0,0,18.9-10.7-7.3-48
		c0,0,20.4-19.7,10.2-37.3c0,0-18.8,36.9-65.9,6.9c0,0-18.9-18.4-13.3-46.3c0,0-51,2.6-60.9-23.1c0,0-8.1-16.3,4.7-12.4l2.1,1.3
		l1.7,4.3c0,0,6.9,26.6,60,17.1c0,0-4.1,51.4,26.1,59.1c0,0,47.6,14.6,49.3-54.9c0,0-5.1-43.3-15.9-69c0,0-19.3-1.3-32.1-18.9
		c0,0-15,18-28.3,16.7c0,0-13.3-1.3-2.6-10.3c0,0,21-3,29.6-26.6c0,0,2.6-12.4,1.3-21.4c0,0,11.1-10.3,9.9,5.6
		c0,0,2.6,13.3-3.4,23.6c0,0,25.6,37.7,37.6,12.9c0,0,20.2-37.7-11.5-70.7c0,0-24-21-66.9,24.9c0,0-91.7,3-77.6,58.7
		c0,0,6,18.4,19.3,14.1c0,0,14.1,3.9,1.7,9.4c0,0-20.1,10.3-33.4-28.3c0,0-40.7,23.6-26.6,64.3c0,0,2.6,22.1,21,26.5
		c0,0,10.7,9.9-3.9,9.5C136.3,208.3,117.9,204,111.9,188.1z"/>
	<path class="st4" d="M108.9,248.1c0,0,10.7,9,19.3,6.4c0,0,12,78,93.4,75.9c0,0,34.3-1.7,50.1-3.9c0,0,10.7,27.7-26.1,46.6
		c0,0-54.4,20.6-94.3-17.9c0,0-15.8-19.9-12-41.8C139.3,313.4,94.7,294.2,108.9,248.1z"/>
	<path class="st4" d="M522.9,254.6c0,0,14.6-3.4,19.7-6.4c0,0,18.4,38.9-28.3,65.3c0,0,5.6,70.9-93.4,65.3c0,0-53.1-17-41.1-52.2
		c0,0,67.6,20.6,117-21C496.7,305.6,523.7,282,522.9,254.6z"/>
	<g id="Capa_5">
		<path class="st0" d="M281.9,315c0,0,40.2,16.7,82,1.6c0,0,14.8-6,13.2,6.3c0,0-1.3,46.4-74.6,31.3c0,0-28-7.4-27.6-29.6
			C274.8,324.6,275.4,312.8,281.9,315z"/>
		<path class="st0" d="M365.8,274.5c0,0,12.5,24,34.7,20.9c0,0,14.8,2.6,28.3-23.5c0,0,3.5-12.5,5.5-2.6c0,0,3.5,21.5-16.4,33.4
			c0,0-22.8,16.1-47.2-2.9c0,0-11.2-6.1-12.9-25.4c0,0,0.7-18.5,6.4-5.1l1,3.2L365.8,274.5z"/>
		<path class="st0" d="M225.8,274.8c0,0,12.5,24,34.7,20.9c0,0,14.8,2.6,28.3-23.5c0,0,3.5-12.5,5.5-2.6c0,0,3.5,21.5-16.4,33.4
			c0,0-22.8,16.1-47.2-2.9c0,0-11.2-6.1-12.9-25.4c0,0,0.7-18.5,6.4-5.1l1,3.2L225.8,274.8z"/>
	</g>
	<path class="st3" d="M304.7,352.9c0,0,27,5.1,41.8,0c0,0-1.3-22.5-26.4-18C320.1,334.9,305.5,336,304.7,352.9z"/>
	
		<image style="display:none;overflow:visible;" width="920" height="844" xlink:href="png-transparent-brain-character-illustration-brain-learning-cognitive-training-mind-color-creative-mind-thinking-color-splash-orange-people (1).png"  transform="matrix(1 0 0 1 -145.5714 -133)">
	</image>
	<path class="st0" d="M226.6,163c6.3-20.5,24.5-37.9,45-43.3c4.1-1.1,20.2-5.9,21,2.2c0.6,6.1-8,6.2-11.5,7.1
		c-3.1,0.8-6.1,1.8-9,2.9c-5.5,2-11.6,4.3-15.9,8.5c0,0-15.7,15.4-18.3,27c-1.2,3.8-3.8,7.7-8.3,7.1
		C223.3,173.7,225.4,167.1,226.6,163z"/>
	<path class="st0" d="M371.1,117.5c21.3,2.2,41.9,16.7,51.2,35.8c1.8,3.8,9.7,18.6,1.9,21.1c-4.7,1.5-6.9-4.1-8.3-7.5
		c-1.9-4.9-4.1-9-7-13.4c-2.7-4.2-5.8-8.3-10-11.2c0,0-18.2-12.5-30-12.7c-3.9-0.5-8.3-2.2-8.6-6.8
		C360,116.4,366.9,117.1,371.1,117.5z"/>
	<path class="st4" d="M217.6,417.6c0,0-44.9,67.2-111.3,35c0,0-35.6-18.6-38.1-66.9c0-0.2,2.3-1.4,2.5-1.6c2.1-1.5,4.1-3.2,5.9-5.1
		c2.6-2.7,4.8-5.7,6.6-8.9c1.1-1.9,1.9-3.9,2.7-6c1-2.8,1.7-5.8,2.5-8.7c0.6-2.2,1-4.5,1.1-6.8c0.3-5.9-1.8-11.7-7.4-14.4
		c-0.1-0.1-0.3-0.1-0.4-0.2c-4.9-1.9-10.6-1.4-14.8,1.9c-2.7,2.2-7.2,7.2-4.4,10.6c1.2,1.4,3.1,2,4.9,2.3c0.6,0.1,5.2-0.2,5.4,0
		c0,0,7.9,12.2-3.9,22c-3.3,1-7.1,1.3-10.5,0.3c-2.9-0.8-5.4-2.5-7.1-5c-2.7-4-2.2-7.5-0.3-11.7c0.8-1.7,1.8-3.3,3.1-4.6
		c1.3-1.3,3.4-1.6,4.7-3c1.7-1.7,2.5-4.4,1.9-6.7c-1.5-5.5-6.8-6.1-11.2-4.3c-2.1,0.8-3.9,2.2-5.4,3.9c-3,3.4-4.4,8-4.9,12.5
		c-0.3,3.3,0.1,6.6,1,9.7c0,0,0.3,3.1-2.6-0.6c0,0-8.4-9,0-22.8c0,0,10.8-15.6,6.9-20.2c0,0-1.8-5-8.8,0c-2.9,2.1-5.4,6.2-7.2,9.1
		c-1.8,2.8-3.3,5.9-4.1,9.1c-2.1,8.1-0.4,19.6,4.9,26.3c0,0,1.8,5.3-3.5-2.4c0,0-9.5-8.5-5-24.9c0,0,4-12.8-0.3-19.4
		c0,0-5-3.4-8.5,6.4c0,0-11.1,21.2-2.2,39.7c0,0,6.4,18,22.7,21.9c2.7,1,5.6,1.8,8.4,2.6c2.1,0.6,5.7,1,6.7,2.9
		c0.8,1.6,0.9,4.1,1.2,5.8c0.3,1.2,0.7,2.5,0.8,3.8c3.1,11.6,6.4,24.1,12.3,34.6c7.4,13.2,17.4,25,30.3,33.2c2.9,1.8,5.8,3.5,8.9,5
		l5.1,1.9c0,0,25.1,12.5,61.6,4.3c0,0,20.1-3.7,38.1-18.9c0,0,11.4-6.4,29.1-31.5L217.6,417.6z"/>
	<path class="st4" d="M432.2,419.1c0,0,44.9,67.2,111.3,35c0,0,35.6-18.6,38.1-66.9c0-0.2-2.3-1.4-2.5-1.6c-2.1-1.5-4.1-3.2-5.9-5.1
		c-2.6-2.7-4.8-5.7-6.6-8.9c-1.1-1.9-1.9-3.9-2.7-6c-1-2.8-1.7-5.8-2.5-8.7c-0.6-2.2-1-4.5-1.1-6.8c-0.3-5.9,1.8-11.7,7.4-14.4
		c0.1-0.1,0.3-0.1,0.4-0.2c4.9-1.9,10.6-1.4,14.8,1.9c2.7,2.2,7.2,7.2,4.4,10.6c-1.2,1.4-3.1,2-4.9,2.3c-0.6,0.1-5.2-0.2-5.4,0
		c0,0-7.9,12.2,3.9,22c3.3,1,7.1,1.3,10.5,0.3c2.9-0.8,5.4-2.5,7.1-5c2.7-4,2.2-7.5,0.3-11.7c-0.8-1.7-1.8-3.3-3.1-4.6
		c-1.3-1.3-3.4-1.6-4.7-3c-1.7-1.7-2.5-4.4-1.9-6.7c1.5-5.5,6.8-6.1,11.2-4.3c2.1,0.8,3.9,2.2,5.4,3.9c3,3.4,4.4,8,4.9,12.5
		c0.3,3.3-0.1,6.6-1,9.7c0,0-0.3,3.1,2.6-0.6c0,0,8.4-9,0-22.8c0,0-10.8-15.6-6.9-20.2c0,0,1.8-5,8.8,0c2.9,2.1,5.4,6.2,7.2,9.1
		c1.8,2.8,3.3,5.9,4.1,9.1c2.1,8.1,0.4,19.6-4.9,26.3c0,0-1.8,5.3,3.5-2.4c0,0,9.5-8.5,5-24.9c0,0-4-12.8,0.3-19.4
		c0,0,5-3.4,8.5,6.4c0,0,11.1,21.2,2.2,39.7c0,0-6.4,18-22.7,21.9c-2.7,1-5.6,1.8-8.4,2.6c-2.1,0.6-5.7,1-6.7,2.9
		c-0.8,1.6-0.9,4.1-1.2,5.8c-0.3,1.2-0.7,2.5-0.8,3.8c-3.1,11.6-6.4,24.1-12.3,34.6c-7.4,13.2-17.4,25-30.3,33.2
		c-2.9,1.8-5.8,3.5-8.9,5l-5.1,1.9c0,0-25.1,12.5-61.6,4.3c0,0-20.1-3.7-38.1-18.9c0,0-11.4-6.4-29.1-31.5L432.2,419.1z"/>
</g>
</svg>
