<?xml version="1.0" encoding="utf-8"?>
<!-- Generator: Adobe Illustrator 25.3.1, SVG Export Plug-In . SVG Version: 6.00 Build 0)  -->
<svg version="1.1" id="Cerebro_interior" xmlns="http://www.w3.org/2000/svg" xmlns:xlink="http://www.w3.org/1999/xlink" x="0px"
	 y="0px" viewBox="0 0 390 412" style="enable-background:new 0 0 390 412;" xml:space="preserve">
<style type="text/css">
	.st0{fill:#D34843;}
	.st1{fill:#F68C87;}
	.st2{fill:none;stroke:#020202;stroke-miterlimit:10;}
	.st3{fill:#FDB142;}
	.st4{fill:#020202;}
</style>
<path class="st0" d="M140.9,167.7c0,0,8.3-40.8,59.5-36.3c0,0,21.5-26.7,56.6-19.9c0,0,25.1,1.3,41.5,33.4c0,0,29.9-7.4,47.6,18.3
	c0,0,14.8,9.5,8.4,40.6c0,0,24.8,23.4,16.1,48.1c0,0-2.2,16.1-17.7,27.6c0,0,6.1,32.1-15.1,46c0,0-7.7,8.4-32.5,15.8
	c0,0-9.6-2.2-3.2-8c0,0,28-9,32.1-17c0,0,15.4-15.1,9.3-31.8c0,0-1.9,2.2-13.5,2.9c0,0-7.4,16.4-28.3,19.9c0,0-17.7,3.9-34.4-3.9
	c0,0-6.4,29.9-3.5,33.1l5.1,45.3c0,0,1,11.6,1.6,15.8c0,0-24.1,8-33.8,5.5c0,0-9.6-10.3,14.1-16.7c0,0,5.5,0,11.6,3.9l-5.8-37
	c0,0-6.4-23.5-3.2-37.9L254,300c0,0-10,9.6-45-1.3l-5.1,27.3c0,0-2.9,5.1,1.9,27l2.2,22.2l2.9,21.5c0,0-18.3,9.3-33.1,5.5
	c0,0-6.8-0.3,0-9.3c0,0,6.1-11.9,24.4-3.2l-4.2-33.1c0,0-6.4-21.5-4.5-29.6v-23.1c0,0-29.3,10.3-51.1-11.6c0,0-8.4-10.3-10.9-14.1
	c0,0-14.8-4.5-23.2-18.3c0,0-42.1,15.1-59.8-18.3c0,0-5.8-7.1-10.6-21.2c0,0,0.6-10,8-3.5c0,0,8.5,28.2,29.6,37c0,0,15.4,4.5,27-1.3
	c-1,0.5-5.8-17.6-6-18.7C91.9,202.7,113.2,177.2,140.9,167.7z"/>
<path class="st1" d="M151.8,176.6c0,0,6.8-46,52.7-32.1c0,0,54.6-62.1,87.1,14.8c0,0,65.6-16.7,49.8,47.9c0,0,38.9,21.2,8,59.1
	c0,0-13.8-38.9-19.6-31.2c0,0-4.5,2.9,0,10c0,0,12.5,24.1,11.6,28c0,0-9.3,3.2-17.7,3.2c0,0-1.9-39.9-38.6-27c0,0-24.1,12.5-11.2,36
	c0,0,0.6,4.5,3.5,10.3c0,0-8-2.6-17.7-11.6c0,0-26.4,19.3-52.7-1c0,0-36.6,32.8-66.2-13.8c0,0-44-16.4-29.6-63
	C111.3,206.2,118.7,182.7,151.8,176.6z"/>
<path d="M234.1,217.2c0.2-0.6,0.4-1.2,0.6-1.7c0.9-2.3,2.6-4.3,4.3-6.1c3.7-3.9,8.7-5.8,14-4.9c1,0.2,2,0.5,3,0.8
	c6.3,1.6,10.2,7.5,11.6,13.5c0.6,2.4-0.1,4.6,2.4,6.1c0.8,0.5,1.6,0.7,2.5,0.3c2.2-0.9,2.6-2.9,2.7-5c0.2-3.6-1.3-7.9-3-11
	c-2.8-5.1-7.4-8.8-12.8-10.8c-6.6-2.4-14.2-1.8-20.4,1.4c-3.1,1.6-5.6,3.8-7.9,6.4c-2.9,3.3-7.2,14.9-2.9,18.4
	c1.6,1.3,3.2,0.8,4.5-0.6c1.2-1.3,0.8-3.8,1.2-5.5C233.9,218.1,234,217.6,234.1,217.2z"/>
<g id="Capa_2_1_">
	<path d="M159.2,217.5c0.2-0.6,0.4-1.2,0.6-1.7c0.9-2.3,2.6-4.3,4.3-6.1c3.7-3.9,8.7-5.8,14-4.9c1,0.2,2,0.5,3,0.8
		c6.3,1.6,10.2,7.5,11.6,13.5c0.6,2.4-0.1,4.6,2.4,6.1c0.8,0.5,1.6,0.7,2.5,0.3c2.2-0.9,2.6-2.9,2.7-5c0.2-3.6-1.3-7.9-3-11
		c-2.8-5.1-7.4-8.8-12.8-10.8c-6.6-2.4-14.2-1.8-20.4,1.4c-3.1,1.6-5.6,3.8-7.9,6.4c-2.9,3.3-7.2,14.9-2.9,18.4
		c1.6,1.3,3.2,0.8,4.5-0.6c1.2-1.3,0.8-3.8,1.2-5.5C159,218.4,159.1,217.9,159.2,217.5z"/>
</g>
<image style="display:none;overflow:visible;enable-background:new    ;" width="370" height="414" xlink:href="../Downloads/gratis-png-dibujo-cerebro-cerebro-thumbnail.png"  transform="matrix(1 0 0 1 8.638 -3.1593)">
</image>
<path class="st2" d="M288.7,267.8c0.7-1.4,2.3-3,3.7-2.2c1,0.6,1,2,1,3.1c-0.2,3.7-0.4,7.4-0.6,11.1c-0.1-4.1,1.8-8.3,5.2-10.8
	c0.8-0.6,2.1-1.1,2.8-0.3c0.4,0.5,0.4,1.2,0.3,1.8c-0.3,2.6-0.8,5.2-1.6,7.7c0.7-2.1,1.4-4.3,2.5-6.2c0.6-1.1,3.1-4.7,4.7-3.3
	c1.5,1.4-0.7,7.3-1.2,8.9c-1,3.5-2,7-3.3,10.5c-2.8,7.6-7,14.7-8.6,22.6c-3.4-1.6-7-2.4-10.7-3.1
	C286.9,294.9,282.3,280.4,288.7,267.8z"/>
<g id="Capa_3">
	<path class="st3" d="M276.6,304.8v-9.7c0,0-12.4-21.6-3.6-36.8c0,0,10.2-16.8,34.3-9.9c0,0,19.9,7.1,16.3,29.1
		c0,0-0.9,11.7-12.7,19.6l-5.2,4.6c0,0-7,7.3-5.2,9.5C300.5,311.2,279.9,308.8,276.6,304.8z"/>
	<path class="st4" d="M276,305.8c0,0,22.9,3,24.5,5.4s0,1.1,0,1.1s1,4.3-1.8,3.4c0,0,1.5,5.8-1.8,4.9c0,2,0.5,3.8-1.4,4.9
		c-1.6,0.9-4,0.2-5.8,0.1c0,0-2.2,1.7-2.6,1.9c-0.9,0.4-1.5,0.7-2.5,0.8c-1.8,0.1-3.8-0.7-4.6-2.4c-0.6-1.4,0.1-4-1.7-4.6l-2.4-0.9
		c-1.7-1.1-3.6-1.7-3-4.2c0.1-0.5,1.3-1.3,1.1-1.9c-0.9-2.2,1.9-2.6,1.9-3.2C276,311.2,276,305.8,276,305.8z"/>
	<path class="st3" d="M308.7,67.2l7.3,6.5c0,0,24.4,5.1,29.8,21.8c0,0,5.7,18.7-15.5,32.2c0,0-18.5,10.1-32.5-7.2
		c0,0-8.1-8.5-6.2-22.5v-7c0,0-0.8-10.1-3.6-10.2C288,80.8,303.5,67.1,308.7,67.2z"/>
	<path class="st4" d="M308.3,66.1c0,0-17.5,15.1-20.3,14.7s-0.8-0.7-0.8-0.7s-3.9-2.1-1.4-3.6c0,0-5.3-2.7-2.5-4.6
		c-1.5-1.3-3.2-2.1-2.7-4.3c0.4-1.8,2.5-3.1,3.8-4.3c0,0,0.2-2.8,0.3-3.2c0.3-1,0.4-1.6,1.1-2.4c1.1-1.4,3.1-2.4,4.8-1.8
		c1.4,0.5,2.9,2.7,4.6,1.8l2.2-1.2c1.9-0.5,3.7-1.5,5.1,0.5c0.3,0.4,0.1,1.8,0.7,2c2.3,0.8,0.7,3.1,1.1,3.5
		C304.3,62.6,308.3,66.1,308.3,66.1z"/>
	<path class="st2" d="M328.2,101c0.6,1.5,0.7,3.8-0.8,4.2c-1.1,0.3-2.2-0.5-3-1.3c-2.6-2.6-5.2-5.2-7.9-7.9c3.2,2.6,4.9,6.9,4.6,11
		c-0.1,1-0.6,2.3-1.6,2.3c-0.6,0-1.2-0.5-1.6-1c-1.8-2-3.4-4.1-4.7-6.3c1.1,1.9,2.2,3.9,3,6c0.4,1.2,1.5,5.5-0.7,5.7
		c-2.1,0.2-4.9-5.4-5.8-6.8c-1.9-3.1-3.9-6.2-5.6-9.5c-3.7-7.2-6.3-15-11.1-21.5c3.5-1.5,6.5-3.6,9.4-5.9
		C309.2,81.6,323.1,87.8,328.2,101z"/>
	<path class="st3" d="M147.8,53.4l4.5-8.6c0,0-1-24.9,13.9-34.3c0,0,16.8-10.1,35,7.2c0,0,14.3,15.5,0.9,33.3c0,0-6.2,9.9-20.3,11.5
		l-6.8,1.7c0,0-9.6,3.2-9,6C166,70.2,148.9,58.5,147.8,53.4z"/>
	<path class="st4" d="M146.8,54.1c0,0,18.9,13.3,19.2,16.1c0.3,2.8-0.5,0.9-0.5,0.9s-1.1,4.3-3.2,2.2c0,0-1.4,5.8-3.9,3.5
		c-0.9,1.7-1.3,3.6-3.5,3.7c-1.9,0.1-3.7-1.7-5.1-2.6c0,0-2.8,0.5-3.2,0.5c-1,0-1.7,0-2.6-0.5c-1.6-0.7-3.1-2.4-3-4.2
		c0.1-1.5,2-3.4,0.7-4.9l-1.7-1.9c-1-1.7-2.4-3.2-0.7-5.1c0.3-0.4,1.8-0.6,1.8-1.2c0.2-2.4,2.9-1.4,3.2-1.9
		C144.3,58.8,146.8,54.1,146.8,54.1z"/>
	<path class="st2" d="M175.7,26.3c1.3-0.9,3.5-1.6,4.3-0.2c0.6,1,0,2.2-0.6,3.2c-1.9,3.2-3.8,6.4-5.7,9.5c1.8-3.7,5.5-6.5,9.6-7.1
		c1-0.2,2.3,0,2.6,1c0.2,0.6-0.2,1.2-0.5,1.8c-1.5,2.2-3.1,4.3-5,6.1c1.6-1.6,3.2-3.1,5.1-4.3c1.1-0.7,4.9-2.8,5.7-0.7
		c0.7,1.9-4,6.1-5.2,7.3c-2.5,2.6-5.1,5.3-7.8,7.7c-6,5.4-13,9.8-18.1,16c-2.3-3-5-5.4-8-7.7C161.6,49.4,164.2,34.4,175.7,26.3z"/>
	<path class="st3" d="M42.1,185l-6.6-7.2c0,0-23.7-7.5-27.5-24.7c0,0-3.8-19.2,18.6-30.5c0,0,19.4-8.2,31.7,10.5c0,0,7.2,9.2,3.9,23
		l-0.7,6.9c0,0-0.3,10.1,2.6,10.5C64.1,173.5,47.3,185.6,42.1,185z"/>
	<path class="st4" d="M42.4,186.1c0,0,18.9-13.2,21.7-12.6s0.7,0.8,0.7,0.8s3.6,2.5,1,3.7c0,0,5,3.3,2,4.9c1.3,1.4,2.9,2.4,2.2,4.5
		c-0.6,1.8-2.8,2.9-4.2,3.9c0,0-0.5,2.8-0.6,3.2c-0.4,0.9-0.6,1.5-1.3,2.3c-1.2,1.3-3.3,2.1-5,1.4c-1.4-0.6-2.6-3-4.4-2.3l-2.3,1
		c-2,0.3-3.8,1.1-5-1.1c-0.2-0.4,0-1.9-0.5-2.1c-2.2-1-0.3-3.2-0.7-3.6C46,190,42.4,186.1,42.4,186.1z"/>
	<path class="st2" d="M26.1,149.4c-0.4-1.6-0.3-3.8,1.3-4.1c1.1-0.2,2.1,0.7,2.8,1.6c2.3,2.9,4.7,5.7,7,8.6c-2.9-3-4.2-7.4-3.5-11.4
		c0.2-1,0.8-2.2,1.8-2.1c0.6,0,1.1,0.6,1.5,1.1c1.6,2.1,2.9,4.4,4.1,6.8c-1-2-1.8-4.1-2.3-6.3c-0.3-1.2-0.9-5.6,1.3-5.6
		c2.1,0,4.4,5.9,5.1,7.3c1.6,3.3,3.2,6.6,4.6,10c3,7.5,4.8,15.5,8.9,22.5c-3.6,1.1-6.8,2.9-10,4.9C43,170.6,29.8,163.1,26.1,149.4z"
		/>
</g>
</svg>
