<?xml version="1.0" encoding="utf-8"?>
<!-- Generator: Adobe Illustrator 25.3.1, SVG Export Plug-In . SVG Version: 6.00 Build 0)  -->
<svg version="1.1" id="Capa_1" xmlns="http://www.w3.org/2000/svg" xmlns:xlink="http://www.w3.org/1999/xlink" x="0px" y="0px"
	 viewBox="0 0 164.2 155.9" style="enable-background:new 0 0 164.2 155.9;" xml:space="preserve">
<style type="text/css">
	.st0{fill:#F0564A;}
	.st1{fill:#F07668;}
	.st2{fill:#421065;}
	.st3{fill:#F07669;}
	.st4{fill:#481464;}
	.st5{fill:#FDB200;}
	.st6{fill:#E48F00;}
	.st7{fill:#CF7406;}
</style>
<path class="st0" d="M81.2,9.7c0,0,3.2-9.8,12.4-6.4c0,0,1.9-1.1,10.3,6.4c0,0,18.8,0.2,20.6,12.7c0,0,12.6,6.1,8.8,18.8
	c0,0,5.6,6.2,2,16c0,0,5.6,13.3-6.4,18.9c0,0,1.1,15.4-20.1,17.5c0,0-11.7-0.6-14.5-5.6c0,0-12.3,9.6-26.1-0.2
	c0,0-14.6,12.7-31.3-1.1c0,0-3.9-4.2-3.9-10.7c0,0-11.3-4.9-6.4-19.1c0,0-3.9-7.9,2-15.8c0,0-3.6-12,8.8-18.8
	c0,0,0.3-11.6,20.6-12.6c0,0,7-8.4,16.1-7.2C74.4,2.6,79.2,3.6,81.2,9.7z"/>
<path class="st1" d="M29.4,44.7c0,0-5.2,12.5,4.8,13.7c0,0,3.9,0.3,6.6-1.3l0.6-0.5c0,0,3.1-2.4,2.4,1.1c0,0-2.3,3.2-7.8,2.9
	c0,0,1.1,14.9,20.6,16H58h2.2l6.5-0.9c0,0,1.4-0.5,2.6,0c0.2,0.1,0.3,0.2,0.5,0.3c1.2,0.9,1.3,3.6,1.3,3.6v2.3l-1.2,3.3
	c0,0,9.3,9.6,22.5,0c0,0-2.6-3.3,1.2-10c0,0,14.8,3.8,23-1.2c0,0,7.3-3.1,9.6-13.1c0,0-3.5,0.9-7.7-2.6c0,0-1.6-1.9,1.2-2.3
	c0,0,5.6,4.7,12.7,0.6c0,0,4.2-4.3,0-11.8c0,0-2.1,4-4.5,4.7c0,0-3,1.3-2.9-0.9c0,0,0.7-1.6,2-1.2c0,0,8.2-5.4,2.3-17.6
	c0,0-3.1-4.1-4.7-4c0,0-0.6,6.2-7.1,7.1c0,0-3.5-0.3-1-2.6c0,0,7.4-0.3,5.3-9.1c0,0-2.5-8.7-18.3-8.4c0,0-6-7.8-14.9-7.4
	c0,0-10,3.5-4.3,18.6c0,0,3.9,4.4,8.8-3.2c0,0-2-5.6-0.5-7.3c0,0,2.8-1.4,2,2.1c0,0,0,7.9,6.9,9.5c0,0,3.9,1.1,0.1,2.8
	c0,0-5.8-2.3-7.1-4.7c0,0-3.3,4.9-7.3,4.8c0,0-6.2,19.1-2.4,25c0,0,3.3,8.3,11.6,4.4c0,0,4.1-1.7,4.4-7.7l0.1-6c0,0,12.6,1.2,14-2.7
	l1.6-2.6c0,0,1.9-1.8,2,0.6c0,0.2,0,0.3,0,0.5c-0.2,3.2-5.4,8.7-15,6.6c0,0,1.7,10.7-7.1,13.8c0,0-6.1,4-12.4-3.9
	c0,0-1.6,5.9,2.6,9.2c0,0-6.3,10-1.4,11.6c0,0-3.3,2.3-7.3,0c0,0,4.6-2.6-1.8-11.6c0,0,4.9-4.8,2.5-9c0,0-4.5,8.9-15.9,1.7
	c0,0-4.6-4.4-3.2-11.2c0,0-12.3,0.6-14.7-5.6c0,0-2-3.9,1.1-3l0.5,0.3l0.4,1c0,0,1.7,6.4,14.5,4.1c0,0-1,12.4,6.3,14.3
	c0,0,11.5,3.5,11.9-13.2c0,0-1.2-10.4-3.8-16.7c0,0-4.7-0.3-7.8-4.6c0,0-3.6,4.3-6.8,4c0,0-3.2-0.3-0.6-2.5c0,0,5.1-0.7,7.1-6.4
	c0,0,0.6-3,0.3-5.2c0,0,2.7-2.5,2.4,1.3c0,0,0.6,3.2-0.8,5.7c0,0,6.2,9.1,9.1,3.1c0,0,4.9-9.1-2.8-17.1c0,0-5.8-5.1-16.1,6
	c0,0-22.1,0.7-18.7,14.2c0,0,1.4,4.4,4.7,3.4c0,0,3.4,0.9,0.4,2.3c0,0-4.9,2.5-8.1-6.8c0,0-9.8,5.7-6.4,15.5c0,0,0.6,5.3,5.1,6.4
	c0,0,2.6,2.4-0.9,2.3C35.3,49.5,30.8,48.5,29.4,44.7z"/>
<path class="st1" d="M28.7,59.2c0,0,2.6,2.2,4.7,1.6c0,0,2.9,18.8,22.6,18.3c0,0,8.3-0.4,12.1-0.9c0,0,2.6,6.7-6.3,11.3
	c0,0-13.1,5-22.8-4.3c0,0-3.8-4.8-2.9-10.1C36,74.9,25.3,70.3,28.7,59.2z"/>
<path class="st1" d="M128.6,60.7c0,0,3.5-0.8,4.8-1.6c0,0,4.4,9.4-6.8,15.8c0,0,1.3,17.1-22.6,15.8c0,0-12.8-4.1-9.9-12.6
	c0,0,16.3,5,28.2-5.1C122.3,73,128.8,67.3,128.6,60.7z"/>
<path class="st2" d="M70.4,75.3c0,0,9.7,4,19.8,0.4c0,0,3.6-1.4,3.2,1.5c0,0-0.3,11.2-18,7.6c0,0-6.8-1.8-6.7-7.1
	C68.7,77.6,68.9,74.8,70.4,75.3z"/>
<path class="st2" d="M53.7,46.1c2.6-4.5,7.8-7.6,13-7.7c1,0,5.1-0.3,4.8,1.7c-0.1,1.2-1.6,1.1-2.5,1.1c-1.3-0.1-2.4,0-3.7,0.2
	c-1.2,0.2-2.4,0.5-3.5,1.1c0,0-4.5,2.8-5.8,5.4c-0.5,0.8-1.3,1.6-2.3,1.2C52.3,48.5,53.2,47,53.7,46.1z"/>
<path class="st2" d="M91.7,38.4c5.1-0.6,10.7,1.7,13.9,5.8c0.6,0.8,3.3,3.9,1.5,4.9c-1,0.6-1.8-0.6-2.3-1.3
	c-0.7-1.1-1.4-1.9-2.3-2.8s-1.8-1.7-2.9-2.1c0,0-4.9-2-7.7-1.4c-0.9,0.1-2.1-0.1-2.4-1.1C89,38.7,90.6,38.5,91.7,38.4z"/>
<path class="st2" d="M70.5,66.5c0,0-3-5.8-8.4-5c0,0-3.6-0.6-6.8,5.7c0,0-0.9,3-1.3,0.6c0,0-0.9-5.2,4-8.1c0,0,5.5-3.9,11.4,0.7
	c0,0,2.7,1.5,3.1,6.1c0,0-0.2,4.5-1.6,1.2l-0.2-0.8L70.5,66.5z"/>
<path class="st2" d="M104.8,66.5c0,0-3-5.8-8.4-5c0,0-3.6-0.6-6.8,5.7c0,0-0.9,3-1.3,0.6c0,0-0.9-5.2,4-8.1c0,0,5.5-3.9,11.4,0.7
	c0,0,2.7,1.5,3.1,6.1c0,0-0.2,4.5-1.6,1.2l-0.2-0.8L104.8,66.5z"/>
<path class="st0" d="M50.2,74.4c-1.3-0.7-2.2-1.6-2.1-2.9c0.2-3.4,4.8-3.9,7.4-3.9c2.9,0.1,6.9,0.9,8.5,3.7c1.5,2.8-2.3,4.1-4.4,4.4
	C57.7,76,52.9,75.8,50.2,74.4z"/>
<path class="st0" d="M110.3,74.4c1.3-0.7,2.2-1.6,2.1-2.9c-0.2-3.4-4.8-3.9-7.4-3.9c-2.9,0.1-6.9,0.9-8.5,3.7
	c-1.5,2.8,2.3,4.1,4.4,4.4C102.8,76,107.6,75.8,110.3,74.4z"/>
<path class="st0" d="M74,82.3c0.1,0.1,0.3,0.3,0.6,0.4c3.3,1.4,8.3,1.3,11.6-0.2c0.3-0.2,0.1-0.8,0-1c-0.5-1.2-2.8-1.7-3.9-2
	c-1.8-0.4-3.9,0-5.7,0.6C75.9,80.2,73,81.1,74,82.3z"/>
<g id="Capa_5">
	<path class="st3" d="M16.3,71.7c0,0-1.3-0.5-2.6-10c0,0-2-2.8-3.1,0.8c0,0-0.3,4.3,1.4,7c0,0-0.3,2-2.5-1.9l-1.3-4l-0.8-1.5
		c0,0-4.1-1.3-2.7,2.8c0,0,2.6,5.5,3.8,7.1c0.1,0.1,0.2,0.2,0.3,0.3c1.1,1-1,1.3-2.7-1.5L4,68.3c0,0-4.2-1.1-1.3,2.9
		c0,0,8.1,10.3,11.9,10.6c0.3,0,1.3,2,1.5,2.2c1.3,1.8,2.7,3.4,4.3,4.9c2.3,2.2,4.9,4,7.9,5.1s6.5,1.1,9.7,1.3
		c3.9,0.1,7.7,0.1,11.6,0.3v-3l-5.9-1.3c0,0-17.8,2.2-24.6-10.9c0,0,2.6-5.6,3.8-9.9c0.5-1.8-1-3-2.7-1.8c-0.8,0.6-2.3,5.9-3.5,3.6"
		/>
	<path class="st3" d="M146.3,71.7c0,0,1.3-0.5,2.6-10c0,0,2-2.8,3.1,0.8c0,0,0.3,4.3-1.4,7c0,0,0.3,2,2.5-1.9l1.3-4l0.8-1.5
		c0,0,4.1-1.3,2.7,2.8c0,0-2.6,5.5-3.8,7.1c-0.1,0.1-0.2,0.2-0.3,0.3c-1.1,1,1,1.3,2.7-1.5l2.1-2.5c0,0,4.2-1.1,1.3,2.9
		c0,0-8.1,10.3-11.9,10.6c-0.3,0-1.3,2-1.5,2.2c-1.3,1.8-2.7,3.4-4.3,4.9c-2.3,2.2-4.9,4-7.9,5.1s-6.5,1.1-9.7,1.3
		c-3.9,0.1-7.7,0.1-11.6,0.3v-3l5.9-1.3c0,0,17.8,2.2,24.6-10.9c0,0-2.6-5.6-3.8-9.9c-0.5-1.8,1-3,2.7-1.8c0.8,0.6,2.3,5.9,3.5,3.6"
		/>
</g>
<g id="Capa_3">
	<path class="st4" d="M49.4,92.6l0.6,8l13.3-5l-6.4,25.9l10,0.8l-8.3,24.6c0,0-17.3-4.1-14.6,0.4l17.9,6.4l10.8-31.3l15,0.1l11,31.2
		c0,0,24.6-6.4,17.4-8.2c0,0-7.6-1.4-13.8,1.6l-8.6-23.9l-0.2-0.9l10.2-0.3l-7.5-28l13.9,6.6c0,0,3,2.2,2.8-1.6l0.3-6.3
		c0,0-16.7-0.3-19.8-5.6c0,0-9.9,9.1-26.4,0C67.1,87,64.7,91.6,49.4,92.6z"/>
</g>
<g id="Capa_2_1_">
	<path class="st5" d="M68.7,88.7l-8.1,30.1h39.1l-7.9-30.1C91.8,88.7,82.6,95.2,68.7,88.7z"/>
	<path class="st6" d="M97.3,90.7l12.8,6.5v-4.6C110.1,92.6,99.1,91.1,97.3,90.7z"/>
	<polygon class="st6" points="52.6,97.2 52.6,92.7 64.3,90.5 64.7,90.8 53.1,97.2 	"/>
</g>
<g id="Capa_4">
	<path class="st7" d="M68.7,87.5L68,91.1c0,0,12.7,8.7,24.5,0l-1-3.3C91.5,87.8,81.6,94.1,68.7,87.5z"/>
</g>
<image style="display:none;overflow:visible;enable-background:new    ;" width="300" height="300" xlink:href="cerebrito-e1530386527667.png"  transform="matrix(0.75 0 0 0.75 -32.1428 -38.8928)">
</image>
</svg>
