<?xml version="1.0" encoding="utf-8"?>
<!-- Generator: Adobe Illustrator 25.3.1, SVG Export Plug-In . SVG Version: 6.00 Build 0)  -->
<svg version="1.1" id="Capa_1" xmlns="http://www.w3.org/2000/svg" xmlns:xlink="http://www.w3.org/1999/xlink" x="0px" y="0px"
	 viewBox="0 0 300 300" style="enable-background:new 0 0 300 300;" xml:space="preserve">
<style type="text/css">
	.st0{fill:#E89DA7;}
	.st1{fill:#F0C670;}
	.st2{fill:#DD5063;}
	.st3{fill:#4F358B;}
	.st4{fill:#9F5645;}
	.st5{fill:#732823;}
	.st6{fill:#544093;}
	.st7{fill:#322B23;}
	.st8{fill:#E18265;}
	.st9{fill:#B73523;}
	.st10{fill:#5E70B4;}
	.st11{fill:#7887C2;}
	.st12{opacity:0.2;fill:#322B23;}
	.st13{fill:#FFFFFF;}
	.st14{fill:#DD4E65;}
	.st15{fill:#71C4C7;}
	.st16{fill:#F3D358;}
	.st17{fill:#664E9B;}
	.st18{opacity:0.1;}
	.st19{fill:#272327;}
	.st20{fill:#AE5E4C;}
	.st21{fill:#3E211C;}
	.st22{opacity:0.1;fill:#322B23;}
	.st23{fill:#E1714E;}
	.st24{fill:#B66555;}
	.st25{fill:#584797;}
	.st26{fill:#A95D54;}
	.st27{fill:#BD685D;}
</style>
<g>
	<g>
		<g>
			<g>
				<path class="st0" d="M125.8,35.2"/>
				<path class="st0" d="M129.3,96.9c0.5,0.1,2.1,0,6.1-0.3c3.4-0.3,5.3-0.5,10.1-1c3.9-0.4,6.9-0.6,12.7-0.9
					c1.5-0.1,4.8-0.2,7.3-0.4c8.2-0.4,14.5-0.6,18.1-0.4c5.8,0.2,8.5,0.3,15.8,0.4c4.2,0,9.1,0.2,10.8,0.2c6.1,0.3,17,0.2,18.3-0.1
					c0.5-0.1,0.6-0.4,0.4-0.8c-0.1-0.1-0.2-0.2-0.4-0.3c-0.1,0-3.7,0-8,0c-5.8,0-8.6-0.1-11-0.2c-1.9-0.1-6.5-0.2-11.2-0.3
					c-4.4,0-8.9-0.1-10.1-0.2c-6.7-0.3-7.8-0.3-11.3-0.2c-4.5,0.1-7.5,0.3-10.5,0.4c-1.3,0.1-4.3,0.2-6.7,0.4
					c-7.8,0.4-10,0.6-15.2,1.2c-1.8,0.2-5.2,0.6-7.5,0.8c-5.4,0.5-6.8,0.7-7.8,1.2C128.8,96.6,128.8,96.8,129.3,96.9L129.3,96.9z
					 M129.3,96.9"/>
				<path class="st0" d="M129.5,116.7c0.1,0.1,1.4,0,4-0.1c6.3-0.3,20.9-0.6,38.8-0.7c4.8,0,10.1-0.1,11.8-0.2
					c4.2-0.1,14.4-0.3,28.3-0.4c6.3-0.1,12.6-0.1,14-0.1l2.5,0l0-0.3c0.1-0.5-0.1-0.7-0.4-0.9c-0.3-0.1-1.4-0.1-10.1-0.1
					c-10.6,0-30.7,0.2-35.2,0.4c-1.5,0.1-6.1,0.1-10.2,0.2c-4.1,0-8.8,0.1-10.6,0.2c-9,0.3-13.1,0.4-17.1,0.5
					c-8.8,0.2-15,0.6-15.7,1.1C129.3,116.4,129.3,116.6,129.5,116.7L129.5,116.7z M129.5,116.7"/>
				<path class="st0" d="M129.4,75.6"/>
			</g>
		</g>
		<g>
			<g>
				<path class="st1" d="M208.6,86c-0.7-0.2-1.3-0.1-2,0.5c-0.9,0.7-1.1,1.4-1.9,4.7c-0.3,1.2-0.8,3.4-1.2,4.9
					c-1.3,4.8-1.4,5.8-1.3,8.6c0,1.8,0.1,2.2,0.6,5.1c0.6,3.3,0.9,5.6,1.1,8.2c0.1,1.5,0.1,3.2-0.1,3.4c-0.2,0.2-1.5-1.7-2.3-3.7
					c-0.6-1.4-0.9-2.4-1.7-5.2c-0.9-3.3-1.4-4.6-2.4-6.6c-0.9-1.8-1.4-2.6-2.7-4.4c-3.1-4.3-5.4-6.4-8.9-8.2
					c-3.3-1.7-5.7-1.8-6.6-0.3c-0.3,0.6-0.3,1.6,0.2,4.1c0.5,2.4,0.7,4.1,0.9,7c0.2,3.6,0.9,5.4,3.4,8.7c0.6,0.7,2,2.7,3.3,4.4
					c1.3,1.8,3.1,3.9,4.2,5.2c2,2.2,2.7,3.1,3.1,3.8c0.2,0.4,0.2,0.5-0.2,0.5c-0.6,0-1.7-0.4-3.7-1.4c-1.2-0.6-2.9-1.4-3.6-1.7
					c-0.8-0.3-2.2-1-3.2-1.4c-3.2-1.4-5-2.1-7.3-2.6c-1.5-0.3-3.9-0.3-5.5-0.1c-3.6,0.6-5,1.4-6,3.1c-0.3,0.6-0.4,0.7-0.4,1.6
					c0,0.7,0,1,0.3,1.5c0.4,0.8,1.1,1.6,2.7,2.8c0.7,0.6,1.8,1.4,2.3,1.8c1.3,1,2.2,1.5,3.8,2.1c1.6,0.5,3.6,0.9,7.3,1.4
					c3.7,0.5,6.7,1.3,7.7,2.2c0.2,0.2,0.2,0.2,0.1,0.5c-0.2,0.4-1.7,1.4-2.8,2c-0.6,0.3-3.1,1.2-5.6,2.1c-5.2,1.8-8,2.8-9.7,3.7
					c-1,0.5-1.3,0.7-2,1.5c-1.1,1.1-1.6,2-1.6,3c0,0.8,0.1,1.2,0.7,2.1c0.5,0.8,1.3,1.6,2.2,2.1c1.7,1.1,4.9,1.7,10.2,2
					c3.8,0.2,5.6-0.1,8.9-1.2c2-0.7,3.3-1.2,6.1-2.7c2.8-1.4,3.6-1.7,5.8-2.3c2.7-0.7,4-1.2,7.1-2.7c3.2-1.6,4.5-2.4,5.3-3
					c0.3-0.3,1-0.8,1.6-1.3c0.8-0.7,1.2-1.1,1.9-2c0.7-0.9,1-1.3,1.9-1.9c2.7-2,4.6-4.6,6.6-8.6c1.8-3.6,2.5-5.8,2.9-8.9
					c0.2-1.8,0-8.1-0.4-10.9c-0.4-2.9-1.4-5-2.5-5.2c-0.7-0.1-1.1,0-1.8,0.8c-1.2,1.2-1.7,2.5-3.1,7.2c-1.2,3.9-2.1,6.5-2.8,7.7
					c-1.1,1.9-3.6,5.2-4.1,5.2c-0.3,0-0.4-0.5-0.4-2.5c0-2.3,0.1-3.6,0.9-8.4c0.7-4,0.8-5.7,0.8-9.1c0-2.8,0-2.9-0.4-5.1
					c-1.1-6.5-2.2-9.9-3.7-11.9C210.3,87.3,209,86.1,208.6,86L208.6,86z M208.6,86"/>
				<path class="st1" d="M236,127.9c-1.3-0.6-3.2-0.1-4.7,1.3c-0.7,0.6-3,3.3-3.7,4.4c-0.5,0.8-2,2.4-2.7,3
					c-0.2,0.2-0.9,0.9-1.6,1.7c-1.3,1.4-1.5,1.6-3.5,2.7c-0.7,0.4-1.6,0.9-2,1.2c-1.2,0.9-2.3,2.4-3,4.1c-0.8,2.1-0.5,3.1,1.6,4.9
					c1.6,1.4,6.4,5.7,7.8,7c2.1,1.9,4.7,3.9,6,4.6c2,1,4.1,1,5,0.1c0.7-0.7,1-1.9,0.7-2.9c-0.2-0.6-1.5-2.6-2.3-3.6
					c-0.8-0.9-1.2-1.6-1.2-1.7c0-0.2,0.9-0.2,2.7,0c1.7,0.2,5.2,0.3,6.2,0.1c1.5-0.3,3.3-0.8,3.9-1c0.8-0.4,1.5-1.1,1.9-1.9
					c0.3-0.6,0.3-0.7,0.2-1.6c-0.1-2.1-1.1-3.9-2.7-4.7c-1.6-0.8-3-1-8-1l-4,0l-0.5-0.3c-0.3-0.2-0.6-0.4-0.7-0.6
					c-0.4-0.7,0.3-2.2,1.9-4.4c3.6-4.7,4.8-7.5,4.2-9.5C237.4,129,236.7,128.2,236,127.9L236,127.9z M236,127.9"/>
				<path class="st1" d="M208.4,149.5c-1.8-0.3-4.1-0.2-5.2,0c-0.4,0.1-1.3,0.5-1.9,0.8c-0.7,0.3-1.6,0.8-2.1,0.9
					c-3.1,1.2-7.1,3.9-9.8,6.4c-1.5,1.5-2.4,2.6-4,4.9c-1.4,2.1-2,2.8-3.7,4.6c-1.9,2.1-2.8,3.3-3.3,4.8c-0.7,2-0.1,4.1,1.6,5.9
					c1.9,1.9,4.1,2.2,6.6,1c2-1,3.5-2.4,6.9-6.9c0.8-1,1.7-2.1,2.1-2.6c0.7-0.7,2.3-2.1,2.6-2.3c0.1,0-0.1,0.5-0.3,1.2
					c-0.7,2.2-1.1,4.7-1.4,8.5c-0.2,3.5,0.1,5.4,1.3,8.8c0.8,2.2,1.2,2.9,1.8,3.6c0.9,1,1.9,1.3,4.2,1.3c1.6,0,1.7,0,2.2-0.3
					c1.1-0.6,2.1-1.9,2.6-3.5c0.3-1,0.3-3.3,0.1-5.7c-0.3-3.7-0.3-8,0.2-10.2c0.3-1.3,0.3-1.3,0.9,0.2c0.9,2.3,2.7,6.4,3.9,8.5
					c0.9,1.7,2.7,4.2,3.4,4.9c1.8,1.9,3.9,2.4,6.1,1.5c1.5-0.5,2.4-2.3,2.9-5.6c0.9-5.1,0.5-9.4-1-13.4c-1.2-3.3-3.5-6.7-8.7-12.6
					c-1.5-1.8-2.1-2.3-3.2-3C211.9,150.2,211,149.9,208.4,149.5L208.4,149.5z M208.4,149.5"/>
			</g>
			<g>
				<path class="st2" d="M201,146.6C201,146.6,201,146.6,201,146.6c0.1-0.1,0.1-0.2,0.1-0.3c0.5-0.9,2.2-0.9,2.6,0.2
					c0.1,0.3,0.2,0.5,0.2,0.8c0.6,1.3,0.5,2.8-0.2,4.1c-0.4,0.8-1.9,0.9-2.4,0.2c-0.7-1.1-1-2.3-0.9-3.5
					C200.4,147.6,200.5,147.1,201,146.6z"/>
				<path class="st2" d="M197.8,154.5c0-0.1,0-0.2,0-0.3c0.1-1.2,1.8-2,2.6-0.9c0,0,0,0,0,0c0.1,0.1,0.2,0.2,0.2,0.3
					c0,0,0,0.1,0.1,0.1c0,0,0,0,0,0.1c0,0,0,0.1,0,0.1c0.6,1.1,0.9,2.4,0.7,3.6c-0.1,0.8-0.7,1.5-1.6,1.4c-0.5,0-0.9-0.3-1.2-0.7
					c-0.2-0.1-0.3-0.3-0.4-0.5c-0.1-0.1-0.1-0.2-0.1-0.2C197.8,156.4,197.7,155.5,197.8,154.5z"/>
				<path class="st2" d="M205.9,153.9c0-0.7,0.1-1.4,0.5-2.1c0.1-0.1,0.1-0.2,0.2-0.3c0.8-1.3,3.1-0.5,2.7,1.1
					c0.2,0.7,0.3,1.4,0.1,2.1c0,0.9-0.2,1.8-0.5,2.7c-0.5,1.5-2.4,1.2-2.9-0.2C205.7,156.2,205.6,155,205.9,153.9z"/>
				<path class="st2" d="M207.3,143.6c0.6-1.2,2.4-0.6,2.7,0.5c0.1,0.4,0.1,0.7,0.2,1.1c0.2,0.7,0.2,1.5,0,2.2
					c-0.1,0.5-0.2,1-0.4,1.5c-0.5,1.4-2.6,1.3-2.9-0.2c-0.2-0.7-0.2-1.4-0.1-2.2C206.6,145.5,206.8,144.5,207.3,143.6z"/>
				<path class="st2" d="M212.9,151.3c0.2-0.8,1.2-1.2,1.9-0.9c0.7,0.2,1,0.8,1,1.4c0,0.1,0.1,0.1,0.1,0.2c0.7,1.6,0.7,3.4,0.1,5
					c-0.6,1.4-2.4,1.3-2.9-0.2c-0.2-0.7-0.3-1.3-0.4-2c-0.2-0.2-0.3-0.4-0.4-0.7C211.9,153.1,212.2,152.1,212.9,151.3z"/>
				<path class="st2" d="M212.5,145.2c0.1-0.4,0.2-0.9,0.4-1.3c0.3-0.7,1.1-1.3,1.9-1c0.6,0.2,1.2,0.9,1,1.6c0.3,0.7,0.2,1.4-0.2,2
					c-0.1,0.5-0.3,0.9-0.7,1.3c-0.9,0.8-2.1,0.2-2.5-0.8C212.2,146.4,212.3,145.8,212.5,145.2z"/>
				<path class="st2" d="M203.4,139.8c0.1-0.2,0.2-0.4,0.3-0.6c0.6-0.9,2.1-0.8,2.6,0.2c0,0.1,0.1,0.2,0.1,0.2
					c0.4,0.4,0.6,1,0.4,1.5c-0.1,0.2-0.1,0.4-0.2,0.6c0,0.2-0.1,0.4-0.2,0.5c-0.3,0.7-1.1,1.3-1.9,1c-0.5-0.2-0.8-0.6-1-1
					c0-0.1-0.1-0.1-0.1-0.2c0-0.1,0-0.1-0.1-0.2c0,0,0,0,0,0C202.9,141.2,202.8,140.3,203.4,139.8z"/>
				<path class="st2" d="M195.1,147.4c0.1-0.4,0.4-0.7,0.8-0.9c0.1-0.3,0.2-0.6,0.4-0.9c0.2-0.4,0.6-0.6,1-0.6c0,0,0,0,0,0
					c0.8-0.1,1.6,0.3,1.8,1.1c0,0.2,0.1,0.4,0.1,0.6c0.2,0.9,0,1.9-0.6,2.7c-0.4,0.5-1,0.8-1.6,0.6c-0.4,0-0.8-0.1-1.1-0.4
					C195.1,149.1,194.8,148.3,195.1,147.4z"/>
			</g>
		</g>
		<g>
			<path class="st1" d="M59.9,126.4c0.2,1.6-0.6,3.2-0.5,4.8c0.5,6.1-0.2,12.2-0.4,18.3c-0.2,6.1,0.3,12.4,2.9,17.9
				c1.8,3.8,4.5,7,7.2,10.2c2.5,2.9,5,5.9,8.2,8.1c3.4,2.3,7.4,3.5,11.5,3.5c5.2-4.2,7.1-11.4,7.8-18c0.4-3.3,0.6-6.7,0.2-10
				c-0.9-6.3-4.4-11.9-8.1-17.1c-2.2-3.1-4.5-6.2-7.5-8.6C76.1,131.4,65.7,129.6,59.9,126.4z M78.7,172.7c0.4,0.5,0.3,1.1,0,1.5
				c-0.8,1.2-2.2,1.5-3.7,1.3c-1.7,0-3.5-0.9-4.3-2.4c-0.2-0.5,0-1.2,0.4-1.5c0.7-0.5,1.4-0.6,2.2-0.6
				C75.2,170.7,77.4,171.1,78.7,172.7z M65.7,155.3c-0.4-0.2-0.7-0.5-0.9-0.9c-0.2-0.4-0.2-0.9,0-1.3c0.1-0.4,0.5-0.8,0.9-0.9
				c0,0,0,0,0.1,0c0,0,0.1,0,0.1-0.1c0.4-0.2,0.9-0.2,1.3,0c0.3,0.1,0.6,0.3,0.8,0.5c0.3,0.3,0.5,0.7,0.5,1.2c0,0.6-0.3,1.2-0.9,1.5
				C67,155.7,66.3,155.6,65.7,155.3z M91.7,157c0.3,2.4-2.4,4.7-4.5,5.4c-1.1,0.4-2.1-0.3-2.4-1.4c-0.3-1.1,0.1-2.3,0.7-3.2
				c0-0.2,0.1-0.3,0.2-0.5c0.7-1.2,1.7-2.4,3.1-2.7C90.5,154.3,91.6,155.5,91.7,157z M65.3,143c-1,0-2-0.5-2.7-1.1
				c-0.4-0.4-0.6-0.9-0.6-1.4c0-0.1,0-0.3,0-0.5c0.1-0.9,1-1.7,1.9-1.5c1.4,0.3,2.6,0.8,3.3,2.1c0.3,0.5,0.1,1.3-0.2,1.7
				C66.5,142.9,65.9,143,65.3,143z M81.6,142.7c0.4,0.2,0.8,0.7,0.8,1.2c0,0.9-0.1,1.6-0.7,2.3c-0.5,0.6-1.1,1-1.8,1.3
				c0,0-0.1,0-0.1,0c-0.6,0.4-1.5,0.3-2.1-0.1c-0.8-0.6-0.8-1.7-0.3-2.4c0,0,0,0,0,0c0-0.3,0.2-0.5,0.3-0.8c0.5-0.8,1.4-1.5,2.3-1.8
				C80.7,142.4,81.1,142.4,81.6,142.7z M68.7,133c0.2,0.2,0.3,0.6,0.2,0.9c0,0.2-0.1,0.4-0.2,0.6c0,0,0,0,0,0c0,0.1-0.1,0.2-0.1,0.3
				c0,0,0,0.1,0,0.1c-0.1,0.3-0.4,0.6-0.7,0.7c-0.2,0.1-0.4,0.1-0.6,0.1c-0.6,0-1-0.5-1.1-1.1c-0.1-0.4,0-0.9,0.2-1.2
				c0-0.1,0.1-0.1,0.1-0.2c0,0,0,0,0,0c0-0.1,0.1-0.1,0.1-0.1c0.1-0.1,0.2-0.2,0.3-0.3C67.5,132.3,68.3,132.5,68.7,133z"/>
		</g>
		<g>
			<g>
				<path class="st3" d="M55,272.5v3.8h36.7c0,0,2.4-5.8-1.4-9.4L55,272.5z"/>
				<path class="st4" d="M86.5,192.9l-15.7,75c0,0,7.6,4.3,17.3-0.4l14-71.2L86.5,192.9z"/>
				<path class="st5" d="M91.4,250.1c0,0-12.6,1.7-17.1,0.8l12.1-58l15.8,4.3L91.4,250.1z"/>
				<path class="st6" d="M89.5,260.1c-0.7-0.3-7,4.4-12.1,4.1c-5-0.3-5.2-3.5-5.2-3.5s-4.3,5.1-6.6,5.4c-2.3,0.3-8.4,0-9.3,0.9
					s-1.4,4.3-1.3,5.6h24c1.5-3.5,11.2-4.1,11.3-5.6C90.5,265.4,90.3,260.4,89.5,260.1z"/>
			</g>
			<g>
				<path class="st3" d="M172.2,272.5v3.8h-36.7c0,0-2.4-5.8,1.4-9.4L172.2,272.5z"/>
				<path class="st4" d="M140.8,192.9l15.7,75c0,0-7.7,3.7-17.4-1l-13.9-70.6L140.8,192.9z"/>
				<path class="st5" d="M135.8,250.1c0,0,12.6,1.7,17.1,0.8l-12.1-58l-15.8,4.3L135.8,250.1z"/>
				<path class="st6" d="M137.8,260.1c0.7-0.3,7,4.4,12.1,4.1c5-0.3,5.2-3.5,5.2-3.5s4.3,5.1,6.6,5.4c2.3,0.3,8.4,0,9.3,0.9
					c0.9,0.9,1.4,4.3,1.3,5.6h-24c-1.5-3.5-11.2-4.1-11.3-5.6C136.8,265.4,136.9,260.4,137.8,260.1z"/>
			</g>
			<path class="st1" d="M147,66.1c0,0-7.1,2.3-8-27.5c0-1.1,3.9-0.3,3.9-0.3s0.6-4.6,1.9-4.9c1.4-0.3,4.4,3.3,4.4,3.3
				s1.2-3.5,2.4-3.7c1.2-0.3,3.8,3.5,3.8,3.5s2.8-4.4,4.1-4c1.2,0.4,1.7,5.4,1.7,5.4s1.8-2.7,3.3-2.1c1.5,0.7-0.8,20.7-0.8,20.7
				L147,66.1z"/>
			<g>
				<path class="st7" d="M179.7,266l5.4,2.4l2.5-3.2c0,0,5,6.3,9.5,7.6c4.5,1.3,13.6,4.2,13.9,3.3c0.3-1-5.4-11.3-5.4-11.3
					l-6.5-13.2l-9.1-0.1c0,0-1.9,0.7-3.3,1.7C185.5,254.2,179.7,266,179.7,266z"/>
				<path class="st8" d="M195.3,201.6c0,0-1.9,30.6-5.2,49.9c0,0,3.8,11.5,7.7,13.7c3.9,2.2,8.9,1.5,8.9,1.5s-2-4.4-3.2-9.2
					c-1.7-6.9,14.1-54.1,13.7-61.7c-0.3-5.8-38.5-51.1-38.5-51.1l-23.8,17.5L195.3,201.6z"/>
				<path class="st9" d="M186.6,155c0,0-9.3,18.6-14.4,24.3l-17.4-16.9l23.8-17.5L186.6,155z"/>
				<path class="st7" d="M203.6,255.3c0,0-9.7,0.1-13.2,2.5l1.2,2.3c0,0,8.1-2.5,12.3-1.2L203.6,255.3z"/>
			</g>
			<g>
				<path class="st7" d="M159.2,276.2l6,0.1l1.1-3.9c0,0,7,3.9,11.7,3.3c4.6-0.6,14.2-1.4,14-2.4c-0.1-1-9.4-8.3-9.4-8.3l-11.1-9.6
					l-8.4,3.5c0,0-1.5,1.4-2.3,2.8C159.9,263.1,159.2,276.2,159.2,276.2z"/>
				<path class="st8" d="M163.1,258.8c0,0,8,9.1,12.4,9.6c4.4,0.5,8.8-2.1,8.8-2.1s-3.6-3.2-6.5-7.2c-4.2-5.7-7.7-108.3-12.5-114.2
					c-5.5-6.7-23.8,22.7-23.8,22.7S158.6,239.7,163.1,258.8z"/>
				<polygon class="st9" points="169.5,173.8 146.1,187 142.8,174.9 169,167.1 				"/>
				<path class="st7" d="M177,257c0,0-8.9,3.9-11.2,7.5l2,1.7c0,0,6.5-5.5,10.9-5.9L177,257z"/>
			</g>
			<polygon class="st10" points="173.4,127.2 172.8,116.2 136.5,122.4 139,181.6 169.3,170.5 168.6,162.4 186.6,151.3 			"/>
			<polygon class="st11" points="169.3,170.5 168.7,164.5 139,171.4 139,181.6 			"/>
			<g>
				<path class="st11" d="M165.4,135.4C165.4,135.4,165.4,135.4,165.4,135.4c-0.1,0-0.2-0.1-0.2-0.2l-1-16.3c0-0.1,0.1-0.2,0.2-0.2
					c0.1,0,0.2,0.1,0.2,0.2l0.9,15.6c0.8-1.5,2.8-5.2,2.9-7.3c0.1-2.6-1.2-10-1.2-10.1c0-0.1,0.1-0.2,0.2-0.3c0.1,0,0.2,0.1,0.3,0.2
					c0.1,0.3,1.4,7.6,1.3,10.2c-0.2,2.7-3.2,7.9-3.3,8.1C165.6,135.4,165.5,135.4,165.4,135.4z"/>
			</g>
			<path class="st12" d="M172.8,116.2l0.2,3.8c0,0-20.5,13-35.7,18.8l-0.8-16.3L172.8,116.2z"/>
			<path class="st6" d="M136.9,122.4H92.9c0,0-4.2,10.3-7.9,36.6c-3.5,25-11.1,72.4-11.1,72.4s-3.3,2-3.6,3.2
				c-0.3,1.2,2.7,3.6,2.7,3.6s-2.7,2.4-2.7,5.2c0,1.1,27.1,9,29.2,1.9l-1.5-3.9c0,0,1.5-0.9,2.4-3.9c0.9-3-2.4-3.9-2.4-6.1
				c0-2.3,19-63.4,19-63.4s9.4,54.9,10,57.9c0.6,3-3.8,7.2-2.9,8.6c0.9,1.4,3.3,3.2,3.3,3.2s-1.8,1.8-1.8,3c0,1.2,4.4,4.8,11.8,4.4
				c5.5-0.3,17-4,18-5.8c1-1.8-2.4-4.4-2.4-4.4s1.6-3,1.4-5.2c-0.2-2.2-3.4-4.8-3.4-4.8S137.3,126.3,136.9,122.4z"/>
			<g>
				<path class="st3" d="M120.1,149.5c-0.2,0-0.3,0-0.3,0c-0.1,0-0.1,0-0.1-0.1c0,0,0-0.1,0-0.2c1.2-6.3,1.8-22.1,1.8-22.3
					c0-0.1,0.1-0.2,0.2-0.2c0.1,0,0.2,0.1,0.2,0.2c0,0.2-0.6,15.6-1.8,22.1c0.9,0,4.4-0.3,5.8-5.7c1.6-6.3,2-16.3,2-16.4
					c0-0.1,0.1-0.2,0.2-0.2c0.1,0,0.2,0.1,0.2,0.2c0,0.1-0.4,10.1-2.1,16.5C124.9,149.1,121.2,149.5,120.1,149.5z"/>
			</g>
			<path class="st12" d="M138,130.4c0,0-21.1,10.7-50.2,11.8c0,0,3-13.3,5.1-19.8h43.9L138,130.4z"/>
			<path class="st13" d="M131.8,76.4c0,0,4.3,0.5,4.9,6.1c0.6,5.6,2.8,27.5,2.8,27.5l-9.7,1.8C129.8,111.8,125,79.9,131.8,76.4z"/>
			<path class="st13" d="M131.8,76.4l-11.1-4l-17.6-2.8c0,0-17.3-0.1-19.4,5.7C80.3,85.1,72.4,101,72.4,101l19.4,2.9l-3.1,24.7
				c9.4,1.3,25.2,2.6,32.8,1c9.1-1.8,15.4-7.3,15.4-7.3L131.8,76.4z"/>
			<g>
				<path class="st14" d="M125,101.9c0,0.1,0,0.1,0,0.2c-0.8,3.1-3.1,5.6-6.2,6.7c-0.5,0.2-1.1,0.3-1.6,0.4c-0.3,0-0.5,0.1-0.8,0.1
					c-3.1,0.2-5.9-1-7.8-3c0,0,0,0,0,0c-1.1-1.2-1.9-2.6-2.3-4.2c0-0.1,0-0.2-0.1-0.3c-0.1-0.4-0.2-0.9-0.2-1.3
					c-0.1-1.2,0-2.4,0.4-3.6c1.1-3.7,4.4-6.5,8.5-6.9c2.9-0.2,5.5,0.8,7.4,2.6c1.2,1.1,2.1,2.5,2.6,4.1c0.1,0.2,0.1,0.3,0.1,0.5
					c0.1,0.5,0.2,1.1,0.3,1.6C125.3,99.9,125.2,100.9,125,101.9z"/>
				<path class="st15" d="M124.9,97.3l-18.8,4.8c0-0.1,0-0.2-0.1-0.3c-0.1-0.4-0.2-0.9-0.2-1.3c-0.1-1.2,0-2.4,0.4-3.6
					c4.2-1.1,10.4-2.8,15.9-4.2c1.2,1.1,2.1,2.5,2.6,4.1C124.8,97,124.9,97.1,124.9,97.3z"/>
				<path class="st16" d="M125,101.9c0,0.1,0,0.1,0,0.2l-16.5,4.2c0,0,0,0,0,0c-1.1-1.2-1.9-2.6-2.3-4.2c0-0.1,0-0.2-0.1-0.3
					c5.1-1.3,12.8-3.4,18.7-4.9c0.1,0.2,0.1,0.3,0.1,0.5c0.1,0.5,0.2,1.1,0.3,1.6C125.3,99.9,125.2,100.9,125,101.9z"/>
				<path class="st17" d="M125,101.9c0,0.1,0,0.1,0,0.2c-0.8,3.1-3.1,5.6-6.2,6.7l-1.6,0.4c-0.3,0-0.5,0.1-0.8,0.1
					c-3.1,0.2-5.9-1-7.8-3c0,0,0,0,0,0C113.5,104.9,120,103.2,125,101.9z"/>
			</g>
			<g class="st18">
				<path class="st7" d="M136.5,107.3c-0.1,0-0.2-0.1-0.2-0.2l-4.1-23.8l0.4-0.1l4.1,23.8C136.8,107.2,136.7,107.3,136.5,107.3
					C136.6,107.3,136.5,107.3,136.5,107.3z"/>
			</g>
			<g>
				<g>
					<path class="st4" d="M106.8,57.2L106.4,73c-0.2,2.9,1.9,5.5,4.8,5.8l0,0c3.3,0.4,6.3-2.3,6.2-5.6l-0.3-14.8L106.8,57.2z"/>
				</g>
			</g>
			<path class="st4" d="M120.7,72.4l-17.6-2.8c0,0,4.2,13.7,10.5,13.7C119.9,83.3,120.7,72.4,120.7,72.4z"/>
			<path class="st5" d="M117.5,66.2c-4.3-0.1-8.9-5.7-8.9-5.7s0.1,11.1,8.8,11.4L117.5,66.2"/>
			<path class="st19" d="M103.1,54.6c0,0-2.6-12.6-2.4-15.2c0.1-2,9.8-5.5,9.8-5.5s6.5-7.5,7.8-7.6c1.3-0.1,1.3,4.4,1.3,4.4
				s4.6-4.3,6.6-4c2,0.4-1.1,8.2-1.1,8.2s3.4-1.7,4.4-0.5c1.1,1.2-2.8,10.6-2.8,10.6s2.8,0.4,3.2,1.7c0.4,1.4-4,6.6-4,6.6
				L103.1,54.6z"/>
			<g>
				<g>
					<path class="st20" d="M124.3,54.5c1.3,0.2,2.9-0.4,3.6-1.4c0.8-1.1,1-2.6,0.5-3.9c-0.5-1.2-1.5-2.2-2.7-2.3
						c-1.2-0.1-2.5,0.8-2.6,2.1L124.3,54.5z"/>
				</g>
			</g>
			<g>
				<g>
					<path class="st4" d="M112.7,38.9c-0.8,0.2-1.6,0.4-2.4,0.9c-7,3.9-6.2,15.2-2.5,21.2c2.1,3.3,5.8,5.6,9.7,5.2
						c5.7-0.6,8.8-6,9.2-11.4c0.3-4.1-0.9-8.3-3.5-11.4C120.6,40.2,116.6,38.1,112.7,38.9z"/>
				</g>
			</g>
			<path class="st4" d="M101.3,56c0.2,2,1.9,3.6,4,3.4c2-0.2,3.6-1.9,3.4-4c-0.2-2-1.9-3.6-4-3.4C102.7,52.2,101.2,54,101.3,56z"/>
			<g>
				<path class="st5" d="M106,57.4C106,57.4,106,57.4,106,57.4c-0.1,0-0.2-0.1-0.2-0.2c0.1-0.9,0-1.5-0.5-2
					c-0.7-0.7-1.8-0.6-1.8-0.6c-0.1,0-0.2-0.1-0.2-0.2c0-0.1,0.1-0.2,0.2-0.2c0.1,0,1.3-0.1,2.2,0.8c0.5,0.5,0.7,1.3,0.6,2.3
					C106.2,57.3,106.1,57.4,106,57.4z"/>
			</g>
			<g>
				<path class="st5" d="M104.6,56.4c-0.1,0-0.1,0-0.2-0.1c-0.1-0.1,0-0.2,0.1-0.3l1.1-0.7c0.1-0.1,0.2,0,0.3,0.1
					c0.1,0.1,0,0.2-0.1,0.3l-1.1,0.7C104.7,56.4,104.7,56.4,104.6,56.4z"/>
			</g>
			<g>
				<path class="st5" d="M118.3,57.4c-0.1,0-0.2-0.1-0.2-0.2s0.1-0.2,0.2-0.2c0.8,0,1.9-0.6,2-1c0,0,0-0.2-0.3-0.3
					c-1.3-0.6-1.9-3.5-2-3.6c0-0.1,0-0.2,0.2-0.3c0.1,0,0.2,0,0.3,0.2c0.2,0.8,0.8,2.9,1.7,3.3c0.5,0.2,0.5,0.6,0.5,0.8
					C120.6,56.7,119.2,57.4,118.3,57.4z"/>
			</g>
			<path class="st13" d="M122.3,59.4l-6.5,0.4c0,0,0.6,3.7,3.9,3.5C122.3,63.1,122.3,59.4,122.3,59.4z"/>
			<path class="st19" d="M122.7,40.2c0,0-1.8,5.1-5.9,5.9c-4.1,0.9-9.1,0-9.1,0s2.8,7.1,1.1,7.8c-1.8,0.7-5.2-3-5.2-3
				s2.2-13.3,6-13.5C113.5,37.3,122.7,40.2,122.7,40.2z"/>
			<path class="st5" d="M111.6,56.6c-0.2-0.7,3.2-1.5,3.4-0.7C115.2,56.6,111.9,57.6,111.6,56.6z"/>
			<path class="st5" d="M126.6,56.6c0.2-0.7-3.2-1.5-3.4-0.7C123,56.6,126.3,57.6,126.6,56.6z"/>
			<g>
				<g>
					<g>
						<g>
							<g>
								<path class="st7" d="M113.9,51.9c0,0.5,0.4,0.9,0.7,0.8c0.4,0,0.6-0.5,0.6-0.9c0-0.5-0.4-0.9-0.7-0.8
									C114.2,51,113.9,51.4,113.9,51.9z"/>
							</g>
						</g>
					</g>
				</g>
			</g>
			<g>
				<g>
					<g>
						<g>
							<g>
								<path class="st7" d="M120.9,51.5c0,0.5,0.4,0.9,0.7,0.8c0.4,0,0.6-0.5,0.6-0.9c0-0.5-0.4-0.9-0.7-0.8
									C121.1,50.6,120.9,51,120.9,51.5z"/>
							</g>
						</g>
					</g>
				</g>
			</g>
			<g>
				<path class="st21" d="M112.7,50.4C112.7,50.4,112.6,50.4,112.7,50.4c-0.2,0-0.2-0.1-0.3-0.2c0-0.2,0.4-1,1.1-1.3
					c0.4-0.2,1.1-0.2,1.9,0.7c0.1,0.1,0.1,0.3,0,0.4c-0.1,0.1-0.3,0.1-0.4,0c-0.4-0.5-0.8-0.7-1.1-0.6c-0.4,0.1-0.7,0.5-0.9,0.8
					c0,0,0,0.1,0,0.1C112.9,50.3,112.8,50.4,112.7,50.4z"/>
			</g>
			<g>
				<path class="st21" d="M119.8,49.4C119.8,49.4,119.7,49.4,119.8,49.4c-0.2,0-0.2-0.1-0.3-0.2c0-0.2,0.4-1,1.1-1.3
					c0.4-0.2,1.1-0.2,1.9,0.7c0.1,0.1,0.1,0.3,0,0.4c-0.1,0.1-0.3,0.1-0.4,0c-0.4-0.5-0.8-0.7-1.1-0.6c-0.4,0.1-0.7,0.5-0.9,0.8
					c0,0,0,0.1,0,0.1C120,49.3,119.9,49.4,119.8,49.4z"/>
			</g>
			<path class="st5" d="M118.6,64.4c0-0.2,0.4-0.4,0.8-0.4c0.5,0,0.8,0.1,0.9,0.4c0,0.2-0.4,0.4-0.8,0.4
				C119,64.7,118.6,64.6,118.6,64.4z"/>
			<g>
				<path class="st22" d="M91.8,104.1C91.8,104.1,91.8,104.1,91.8,104.1c-0.2,0-0.2-0.2-0.2-0.3c0-0.2,4.3-16.9,4.8-19.4
					c0-0.1,0.1-0.2,0.2-0.2c0.1,0,0.2,0.1,0.2,0.2C96.4,87,92.2,103.3,92,104C92,104.1,91.9,104.1,91.8,104.1z"/>
			</g>
			<g>
				<path class="st3" d="M124,168.2C124,168.2,124,168.2,124,168.2c-2.4-0.3-7,0-7,0c-0.1,0-0.1,0-0.2-0.1c0-0.1-0.1-0.1,0-0.2
					c2.2-5.1,10.9-11.1,11.3-11.3c0.1-0.1,0.2,0,0.3,0.1c0.1,0.1,0,0.2-0.1,0.3c-0.1,0.1-8.6,5.9-11,10.8c1.1-0.1,4.7-0.2,6.7,0
					c0.1,0,0.2,0.1,0.2,0.2C124.2,168.1,124.1,168.2,124,168.2z"/>
			</g>
			<path class="st6" d="M74.3,229.1"/>
			<g>
				<path class="st3" d="M140.2,241.3c-1.1,0-2.2,0-3.3-0.2c-3.4-0.4-6.2-1.4-8.5-3c-0.1-0.1-0.1-0.2-0.1-0.2c0-0.1,0.1-0.1,0.2-0.1
					c0,0,0,0,0,0c4.4,0,9-0.5,14.1-1.7c0.1,0,0.2,0,0.3,0.2c0,0.1,0,0.2-0.2,0.3c-4.9,1.1-9.3,1.7-13.5,1.7c2.1,1.3,4.7,2.2,7.7,2.5
					c3,0.3,6,0.1,8.9-0.1c0,0,0.1,0,0.1,0c0,0,0,0,0-0.1c-0.1-0.1,0-0.2,0.1-0.3c0.1-0.1,0.3,0,0.4,0.1c0.1,0.1,0.1,0.3,0,0.5
					c-0.1,0.2-0.4,0.2-0.5,0.2C144,241.2,142.1,241.3,140.2,241.3z"/>
			</g>
			<g>
				<path class="st3" d="M149.8,225.3c-3.6,0-7.2-0.8-10.4-2.4c-0.1-0.1-0.1-0.2-0.1-0.3c0.1-0.1,0.2-0.2,0.3-0.1
					c3.2,1.6,6.9,2.4,10.5,2.4c0,0,0,0,0,0c0.1,0,0.2,0.1,0.2,0.2c0,0.1-0.1,0.2-0.2,0.2C150,225.3,149.9,225.3,149.8,225.3z"/>
			</g>
			<g>
				<path class="st3" d="M74,231.8c-0.1,0-0.2-0.1-0.2-0.1c0-0.1,0-0.2,0.1-0.3c0.4-0.1,0.9-0.2,1.3-0.3c0.5-0.1,1.1-0.2,1.5-0.4
					c1.1-0.4,2-1.3,2.8-2.1c1-0.9,2-1.9,3.3-2.3c0.1,0,0.2,0,0.3,0.1c0,0.1,0,0.2-0.1,0.3c-1.2,0.4-2.2,1.2-3.2,2.2
					c-0.9,0.8-1.8,1.7-3,2.2c-0.5,0.2-1.1,0.3-1.6,0.4C74.9,231.6,74.5,231.7,74,231.8C74.1,231.8,74,231.8,74,231.8z"/>
			</g>
			<g>
				<path class="st3" d="M93.6,243C93.6,243,93.6,243,93.6,243c-3.5,0-7,0-10.5-0.6c-3.9-0.6-7.2-1.9-9.8-3.8
					c-0.1-0.1-0.1-0.2-0.1-0.3c0-0.1,0.1-0.1,0.2-0.1l0.1,0c3.7,0.4,7.6,0.8,11.4,0.8c0.1,0,0.2,0.1,0.2,0.2c0,0.1-0.1,0.2-0.2,0.2
					c-3.5,0-7.2-0.3-10.7-0.7c2.4,1.6,5.4,2.7,8.9,3.3c3.4,0.6,7,0.6,10.4,0.6c0.1,0,0.2,0.1,0.2,0.2C93.9,242.9,93.8,243,93.6,243z
					"/>
			</g>
			<g>
				<path class="st3" d="M98.2,233.9c0,0-0.1,0-0.1,0c-2-1.1-3.5-3.2-3.8-5.6c0-0.1,0.1-0.2,0.2-0.2c0.1,0,0.2,0.1,0.2,0.2
					c0.3,2.2,1.6,4.2,3.6,5.2c0.1,0.1,0.1,0.2,0.1,0.3C98.3,233.8,98.3,233.9,98.2,233.9z"/>
			</g>
			<path class="st14" d="M157.8,72.8c0,0,9.9,1.3,12.9,2.5c3,1.2,8,17.6,8,17.6l-8.6,4l3.5,19.9c0,0-14.5,7.4-21.6,8.4
				c-7.1,1-15.6-2.8-15.6-2.8l-3-32.9c0,0-0.6-7.2,2-10.6c1-1.3,10.6-5.2,10.6-5.2L157.8,72.8z"/>
			<path class="st8" d="M134.9,104.4c0,0,5.1,10.1,7.1,12.7c2,2.6,37.9,7.6,37.9,7.6s7,3.2,8.7,2.3c1.7-0.8,3.4-2.9,3.4-4.8
				l-2.1-5.1l-35.6-8.5l-3.9-10.8L134.9,104.4z"/>
			<polygon class="st9" points="150.3,97.8 134.9,104.4 137.3,109 151.6,101.3 			"/>
			<path class="st23" d="M157.5,57.2c0.2,2.1,2,3.8,4.2,3.6c2.1-0.2,3.8-2,3.6-4.2c-0.2-2.1-2-3.8-4.2-3.6
				C158.9,53.1,157.3,55,157.5,57.2z"/>
			<g>
				<g>
					<g>
						<g>
							<g>
								<g>
									<path class="st8" d="M146.4,73.6c2,2.9,7.9,5.7,8.7,5.7c0.6,0,3.1-5,3-6.5l-0.9-4.1l-1-4.5l-0.7-3.2L145,58.7L146.4,73.6z"
										/>
								</g>
							</g>
						</g>
					</g>
				</g>
				<g>
					<g>
						<g>
							<g>
								<g>
									<path class="st9" d="M148.4,63c1.1,8.6,8.5,10,9.8,9.8l-2.5-11.8L148.4,63z"/>
								</g>
							</g>
						</g>
					</g>
				</g>
			</g>
			<g>
				<g>
					<g>
						<g>
							<g>
								<path class="st8" d="M146.5,62c2.4,2.5,6.3,4.8,8.1,4.9c6.7,0.4,9.7-2.4,8.6-11.4c-0.7-5.6-0.8-9.2-0.8-9.2
									c-2.7-3.3-17.8-0.8-16.2,1.8C151.1,55.4,141.5,56.9,146.5,62z"/>
							</g>
						</g>
					</g>
				</g>
			</g>
			<g>
				<g>
					<g>
						<g>
							<g>
								<path class="st8" d="M149.8,57.1c0,0.5,0.9,0.9,1.9,0.9c1-0.1,1.8-0.5,1.8-1.1c0-0.5-0.9-0.9-1.9-0.9
									C150.6,56.1,149.8,56.6,149.8,57.1z"/>
							</g>
						</g>
					</g>
				</g>
			</g>
			<g>
				<g>
					<g>
						<g>
							<g>
								<path class="st8" d="M160.4,57.1c0,0.5,0.9,0.9,1.9,0.9c0.5,0,0.9-0.1,1.2-0.3c0-0.4-0.1-0.9-0.1-1.4c0,0,0,0,0-0.1
									c-0.3-0.1-0.7-0.2-1.2-0.2C161.1,56.1,160.3,56.6,160.4,57.1z"/>
							</g>
						</g>
					</g>
				</g>
			</g>
			<g>
				<g>
					<g>
						<g>
							<g>
								<path class="st7" d="M154.8,53.9c0,0.5,0.3,0.9,0.7,0.9c0.4,0,0.7-0.4,0.7-1c0-0.5-0.3-0.9-0.7-0.9
									C155.1,52.9,154.8,53.4,154.8,53.9z"/>
							</g>
						</g>
					</g>
				</g>
			</g>
			<g>
				<g>
					<g>
						<g>
							<g>
								<path class="st7" d="M161.1,54c0,0.5,0.3,0.9,0.7,0.9c0.4,0,0.7-0.4,0.7-1c0-0.5-0.3-0.9-0.7-0.9
									C161.4,53,161.1,53.5,161.1,54z"/>
							</g>
						</g>
					</g>
				</g>
			</g>
			<path class="st8" d="M138.5,59.7c0.2,2.1,2,3.8,4.2,3.6c2.1-0.2,3.8-2,3.6-4.2c-0.2-2.1-2-3.8-4.2-3.6
				C140,55.7,138.4,57.5,138.5,59.7z"/>
			<g>
				<path class="st9" d="M143.5,61.2C143.4,61.2,143.4,61.2,143.5,61.2c-0.1,0-0.2-0.1-0.2-0.2c0.1-0.9,0-1.6-0.5-2.1
					c-0.7-0.7-1.9-0.7-1.9-0.7c-0.1,0-0.2-0.1-0.2-0.2c0-0.1,0.1-0.2,0.2-0.2c0.1,0,1.4-0.1,2.2,0.8c0.5,0.6,0.7,1.4,0.6,2.4
					C143.7,61.1,143.6,61.2,143.5,61.2z"/>
			</g>
			<g>
				<path class="st9" d="M142,60.1c-0.1,0-0.1,0-0.2-0.1c-0.1-0.1,0-0.2,0.1-0.3l1.2-0.8c0.1-0.1,0.2,0,0.3,0.1
					c0.1,0.1,0,0.2-0.1,0.3l-1.2,0.8C142.1,60.1,142,60.1,142,60.1z"/>
			</g>
			<g>
				<path class="st1" d="M153.7,52.1c0,0-0.1,0-0.1,0c-0.1-0.1-0.2-0.2-0.1-0.3c0.3-0.5,0.9-0.8,1.6-0.8c0.6,0,1.1,0.2,1.4,0.6
					c0.1,0.1,0.1,0.3,0,0.4c-0.1,0.1-0.3,0.1-0.4,0c-0.2-0.3-0.6-0.4-1-0.4c-0.5,0-1,0.2-1.2,0.6C153.8,52.1,153.8,52.1,153.7,52.1z
					"/>
			</g>
			<g>
				<path class="st1" d="M160.1,51.6c0,0-0.1,0-0.1,0c-0.1-0.1-0.2-0.2-0.1-0.3c0.3-0.5,0.9-0.8,1.6-0.8c0.6,0,1.1,0.2,1.4,0.6
					c0.1,0.1,0.1,0.3,0,0.4c-0.1,0.1-0.3,0.1-0.4,0c-0.2-0.3-0.6-0.4-1-0.4c-0.5,0-1,0.2-1.2,0.6C160.3,51.6,160.2,51.6,160.1,51.6z
					"/>
			</g>
			<g>
				<path class="st9" d="M158.3,57.5c-0.1,0-0.2-0.1-0.2-0.2c0-0.1,0.1-0.2,0.2-0.3c0.6-0.1,1.1-0.8,1.3-1.3c0.1-0.3,0.1-0.4,0-0.4
					c-0.7,0.1-1.2,0.2-1.2,0.2c-0.1,0-0.2,0-0.3-0.1c-0.5-0.8-0.5-1.9-0.5-2c0-0.1,0.1-0.2,0.2-0.2c0.1,0,0.2,0.1,0.2,0.2
					c0,0,0,0.9,0.3,1.6c0.2-0.1,0.6-0.2,1.1-0.2c0.3,0,0.5,0.1,0.5,0.4C160.1,56,159.3,57.3,158.3,57.5
					C158.3,57.5,158.3,57.5,158.3,57.5z"/>
			</g>
			<path class="st9" d="M159.6,64.2c0-0.2-0.5-0.3-0.9-0.2c-0.5,0.1-0.8,0.3-0.8,0.6c0,0.2,0.5,0.3,0.9,0.2
				C159.3,64.7,159.7,64.4,159.6,64.2z"/>
			<path class="st13" d="M155.1,59.6l6.3-0.8c0,0,0,2.4-2.3,2.8C156.8,62.1,155.1,59.6,155.1,59.6z"/>
			<g>
				<path class="st9" d="M200.9,201.9h-5.5c-0.1,0-0.2-0.1-0.2-0.2c0-0.1,0.1-0.2,0.2-0.2h5.5c0.1,0,0.2,0.1,0.2,0.2
					C201.1,201.8,201,201.9,200.9,201.9z"/>
			</g>
			<g>
				<path class="st9" d="M211.7,198.3c-0.7,0-1.5-0.2-2.2-0.6c-1-0.5-1.9-1.4-2.7-2.7c-0.1-0.1,0-0.2,0.1-0.3c0.1-0.1,0.2,0,0.3,0.1
					c0.7,1.2,1.6,2,2.5,2.5c1.1,0.6,2.4,0.7,3.4,0.3c1.1-0.5,1.8-1.7,1.7-2.7c0-0.1,0.1-0.2,0.2-0.2c0.1,0,0.2,0.1,0.2,0.2
					c0.2,1.3-0.6,2.6-1.9,3.2C212.8,198.2,212.3,198.3,211.7,198.3z"/>
			</g>
			<g>
				<path class="st9" d="M166,208c-0.6,0-1.2-0.1-1.8-0.4c-1.1-0.4-2-1.2-2.9-2.4c-0.1-0.1-0.1-0.2,0-0.3c0.1-0.1,0.2-0.1,0.3,0
					c0.9,1.1,1.8,1.8,2.8,2.3c1.2,0.5,2.4,0.4,3.4-0.1c1-0.6,1.6-1.8,1.3-2.9c0-0.1,0-0.2,0.2-0.3c0.1,0,0.2,0,0.3,0.2
					c0.3,1.2-0.3,2.7-1.6,3.4C167.4,207.8,166.7,208,166,208z"/>
			</g>
			<g>
				<path class="st3" d="M139.9,188.3c-0.7,0-1.5-0.2-2.2-0.6c-1-0.5-1.9-1.4-2.7-2.7c-0.1-0.1,0-0.2,0.1-0.3c0.1-0.1,0.2,0,0.3,0.1
					c0.7,1.2,1.6,2,2.5,2.5c1.1,0.6,2.4,0.7,3.4,0.3c1.1-0.5,1.8-1.7,1.7-2.7c0-0.1,0.1-0.2,0.2-0.2c0.1,0,0.2,0.1,0.2,0.2
					c0.2,1.3-0.6,2.6-1.9,3.2C141,188.2,140.5,188.3,139.9,188.3z"/>
			</g>
			<g>
				<path class="st3" d="M87.7,191.8c-0.7,0-1.4-0.2-2-0.5c-1.2-0.7-1.9-2.1-1.6-3.4c0-0.1,0.1-0.2,0.3-0.2c0.1,0,0.2,0.1,0.2,0.3
					c-0.3,1.1,0.3,2.3,1.3,2.9c1,0.5,2.2,0.6,3.4,0.1c1-0.4,1.9-1.2,2.8-2.3c0.1-0.1,0.2-0.1,0.3,0c0.1,0.1,0.1,0.2,0,0.3
					c-0.9,1.1-1.9,1.9-2.9,2.4C88.9,191.7,88.3,191.8,87.7,191.8z"/>
			</g>
			<path class="st4" d="M74.4,101.3c0,0-4.1,17.6-1.6,21.8c2.4,3.9,61,7.9,61,7.9l2.3-7.7l-45.6-9.1l1.3-10.3L74.4,101.3z"/>
			<polygon class="st5" points="74.4,101.3 73.7,104.4 91.1,109.4 91.8,103.9 			"/>
			<path class="st4" d="M133.5,122.8c0,0,7.7-1,8.3-1.1c0.5-0.1,5.5,0.5,5.5,0.8c0.2,1.5-2.9,1.7-2.9,1.7s2.7,2.1,2.5,2.5
				c-0.1,0.4-1.2,1.1-1.2,1.1s0.4,1.9-0.1,2c-0.5,0.1-1.3,0.4-1.3,0.4s0.2,1.6-0.2,1.8c-0.4,0.2-6.6,2.1-11.7-1.1L133.5,122.8z"/>
			<g>
				<path class="st5" d="M82.7,115.6c-0.1,0-0.1,0-0.2-0.1c-0.1-0.1-0.1-0.2,0-0.3c2.1-1.9,7.8-1.2,8-1.2c0.1,0,0.2,0.1,0.2,0.2
					c0,0.1-0.1,0.2-0.2,0.2c-0.1,0-5.7-0.7-7.6,1.1C82.8,115.6,82.7,115.6,82.7,115.6z"/>
			</g>
			<polygon class="st11" points="168.6,162.4 167.5,155.7 184.3,145.2 187.6,150.8 			"/>
			<g>
				<path class="st11" d="M167.5,155.9c-0.1,0-0.2-0.1-0.2-0.2c-0.5-3.3,0-14.2,0-14.7c0-0.1,0.1-0.2,0.2-0.2c0.1,0,0.2,0.1,0.2,0.2
					c0,0.1-0.5,11.3,0,14.6C167.7,155.7,167.6,155.9,167.5,155.9C167.5,155.9,167.5,155.9,167.5,155.9z"/>
			</g>
			<g>
				<path class="st0" d="M170.2,97.1c-0.1,0-0.2-0.1-0.2-0.2c-1-5.5-2.7-16.5-2.7-16.6c0-0.1,0.1-0.2,0.2-0.2c0.1,0,0.2,0.1,0.2,0.2
					c0,0.1,1.7,11.1,2.7,16.6C170.4,96.9,170.3,97.1,170.2,97.1C170.2,97.1,170.2,97.1,170.2,97.1z"/>
			</g>
			<path class="st0" d="M146.1,70.5c0,0-2.9,1.4-3,2.7c-0.1,0.7,2,7.2,2,7.2l2.2-2.9l7.8,1.9l-8.7-5.7L146.1,70.5z"/>
			<path class="st0" d="M157.5,70l0.6,2.8l-3,6.5l4.5-2.4l3,2c0,0-0.8-5.8-1.3-7C160.8,70.5,157.5,70,157.5,70z"/>
			<g>
				<path class="st19" d="M169,56.2c0.7-2.3,2.4-4.5,4.8-5c0.5,0.2,1,3.6,1,3.3c-0.2-1.5,2.4-2.6,3-2.2c0.8,0.2-0.4,1.6,1.1,2.7
					c1.1-1,2.5-2.6,3.9-1.8c0.5,0.2,0.3,1.7,0.5,2.5c0.8-0.3,1.7-0.6,2.5-0.9c0.1-0.1,0.3-0.1,0.5,0c0.1,0.1,0.2,0.3,0.2,0.4
					c0.1,0.5,0.1,0.9,0.2,1.4c0.7-0.3,1.5,0.2,1.8,0.9c0.3,0.7,0.3,1.5,0.2,2.2c-0.3,2.9-0.9,5.9-1.9,8.6c-0.5,1.4-1.4,3-2.9,3.1
					c-0.5,0-1-0.2-1.4-0.4C176.2,68.8,166.5,64.7,169,56.2z"/>
				<path class="st24" d="M163.7,105.1c0,0-4.4-1.9-7.7-0.9c-3.3,1-1.7,31.4-1.7,31.4l6.6,0l2.6-16.5
					C163.6,119,167.6,111.2,163.7,105.1z"/>
				<path class="st5" d="M163.6,119c0,0-3.8-5.8-4.6-15.1c0,0,3.3,0.4,4.8,1.1C163.7,105.1,168.1,113.2,163.6,119z"/>
				<path class="st24" d="M154.3,135.5c0,0-3.1,2.3-4.2,1.8c-1.1-0.5-3.1,3.8,0.3,3.7c3.4-0.1,4-0.4,7.2,0.3
					c3.2,0.7,5.8-2.9,3.4-5.8L154.3,135.5z"/>
				<path class="st24" d="M160.4,92.3c5.6-6.2,9.7-9.7,9.7-9.7l6.3,5.1c0,0-6.1,9-11.9,11.9c-7.9,3.9-13.5,4.4-13.5,4.4l-1.5-4.7
					C154.1,96.5,157.7,95.3,160.4,92.3z"/>
				<path class="st24" d="M149.4,99.2c0,0-1.1-0.4-1.8-0.5c-0.7-0.1-4,1.3-4,1.7c-0.1,0.4,1.7,0.6,2.5,0l0.5,0.6
					c0,0-4.3,1.2-4.4,1.8c-0.1,0.6,1.7,0.3,1.7,0.3s-1.6,0.6-1.6,1.2c0,0.6,1.9,0.1,1.9,0.1s-1.4,0.8-1.1,1.2
					c0.2,0.4,2.6-0.3,2.6-0.3s-0.5,0.5-0.2,0.9c0.3,0.4,2.5-0.5,3.4-0.9c0.9-0.4,2-1.5,2-1.5L149.4,99.2z"/>
				<g>
					<path class="st5" d="M147.9,101.9c-1.1,0-2-1.2-2-1.2c-0.1-0.1-0.1-0.2,0-0.3c0.1-0.1,0.2-0.1,0.3,0c0,0,0.9,1.2,1.8,1.1
						c0.1,0,0.2,0.1,0.2,0.2c0,0.1-0.1,0.2-0.2,0.2C148,101.9,148,101.9,147.9,101.9z"/>
				</g>
				<path class="st24" d="M202,93.5c-4.7-6.8-8.3-10.9-8.3-10.9l-6.9,4.2c0,0,4.9,9.8,10.3,13.4c7.3,4.9,12.6,6.2,12.6,6.2l2.1-4.5
					C207.5,98.6,204.3,96.8,202,93.5z"/>
				<path class="st8" d="M198,108.6c0,0-2.1-3.7-2.7-4.3c-0.6-0.6-1.9-0.4-1.3,1.5C194.5,107.7,196.3,108.7,198,108.6"/>
				<g>
					<path class="st24" d="M168.9,103.5c0,0-3.6-0.9-6.6,0.8c-3,1.7,5.4,31,5.4,31l6.9-1.5l-1.2-13.7
						C173.4,120,174,108.6,168.9,103.5z"/>
					<path class="st24" d="M167.7,135.3c0,0-2.5,3-3.7,2.7s-2.1,4.4,1.1,3.5c3.3-0.9,4.3-1.3,7.6-1.3c3.3-0.1,5-4.1,2-6.4
						L167.7,135.3z"/>
				</g>
				<path class="st6" d="M193.5,107.9c0,0-19.6-4.9-24.6-4.5c0,0,4.3,7.2,4.5,16.5c0,0,12.8,4,18.6,2.2
					C197.8,120.4,193.5,107.9,193.5,107.9z"/>
				<path class="st8" d="M183.4,122.6c0,0,3.3-2.3,4.5-1.9c1.2,0.4-1.7,3.6-1.7,3.6L183.4,122.6z"/>
				<path class="st25" d="M168.5,103.5l3.6,0.7c0,0,4.1,6.8,3.9,16.6l-2.6-0.7C173.4,120,171.5,107.8,168.5,103.5z"/>
				<path class="st15" d="M201.6,91.3c0,0-4,3.5-7.9,5.1c0.6,6.3,0.9,12.1,0.9,12.1l-26.2-5.1c0,0,0-3.4,0.7-7.7
					c-3.8-1.6-7.6-5-7.6-5s7-10.8,10.2-11.5c1.7-0.4,5.4-1.3,5.4-1.3l7-0.1c0,0,4.4,1.1,8.8,2.1C195.1,80.5,201.6,91.3,201.6,91.3z"
					/>
				<path class="st26" d="M170.4,67.5l0.9,0.2c1.2,0.2,2.3-0.5,2.5-1.7v0c0.2-1.2-0.5-2.3-1.7-2.5l-0.9-0.2
					c-1.2-0.2-2.3,0.5-2.5,1.7l0,0C168.5,66.1,169.2,67.3,170.4,67.5z"/>
				<path class="st27" d="M184.1,69v8.9c0,0-3.4,2.2-7,0.1v-6.5L184.1,69z"/>
				<path class="st5" d="M182.7,69.5c0,0,0.7,8.8-5.5,8.5v-6.5L182.7,69.5z"/>
				<path class="st27" d="M183.8,61.5c0,0-2.4,1.9-1.1,4c2,3,1.1,9.4-6.9,9.4c-4.4,0-6.9-6.3-4.8-13.4
					C172.6,56.3,172.1,62.7,183.8,61.5z"/>
				<path class="st27" d="M184,70.3l0.9,0.2c1.2,0.2,2.3-0.5,2.5-1.7l0,0c0.2-1.2-0.5-2.3-1.7-2.5l-0.9-0.2
					c-1.2-0.2-2.3,0.5-2.5,1.7v0C182,69,182.8,70.1,184,70.3z"/>
				<g>
					<g>
						<g>
							<g>
								<g>
									<path class="st7" d="M177.5,65.5c0,0.4-0.3,0.7-0.6,0.6c-0.3,0-0.5-0.4-0.4-0.7c0-0.4,0.3-0.7,0.6-0.6
										C177.3,64.8,177.5,65.1,177.5,65.5z"/>
								</g>
							</g>
						</g>
					</g>
				</g>
				<g>
					<g>
						<g>
							<g>
								<g>
									<path class="st7" d="M172.8,65.2c0,0.4-0.3,0.7-0.6,0.6c-0.3,0-0.5-0.4-0.4-0.7c0-0.4,0.3-0.7,0.6-0.6
										C172.7,64.5,172.9,64.8,172.8,65.2z"/>
								</g>
							</g>
						</g>
					</g>
				</g>
				<g>
					<path class="st7" d="M178.5,64.3c-0.1,0-0.1-0.1-0.2-0.1c0,0,0-0.1,0-0.1c-0.1-0.2-0.3-0.6-0.7-0.7c-0.3-0.1-0.6,0.1-1,0.5
						c0,0.1-0.1,0.1-0.2,0c-0.1,0-0.1-0.1,0-0.2c0.6-0.7,1.1-0.6,1.4-0.5c0.5,0.2,0.8,0.8,0.8,1C178.6,64.2,178.6,64.3,178.5,64.3
						C178.5,64.3,178.5,64.3,178.5,64.3z"/>
				</g>
				<g>
					<path class="st7" d="M173.7,63.5c-0.1,0-0.1-0.1-0.2-0.1c0,0,0-0.1,0-0.1c-0.1-0.2-0.3-0.6-0.7-0.7c-0.3-0.1-0.6,0.1-1,0.5
						c0,0.1-0.1,0.1-0.2,0c-0.1,0-0.1-0.1,0-0.2c0.6-0.7,1.1-0.6,1.4-0.5c0.5,0.2,0.8,0.8,0.8,1C173.9,63.5,173.8,63.5,173.7,63.5
						C173.7,63.5,173.7,63.5,173.7,63.5z"/>
				</g>
				<g>
					<path class="st5" d="M174.7,68.5C174.7,68.5,174.7,68.5,174.7,68.5c-0.4,0-0.8-0.1-1.2-0.4c-0.2-0.1-0.3-0.4-0.2-0.7
						c0.1-0.3,0.4-0.7,0.9-0.7c0.1,0,0.2,0.1,0.2,0.2c0,0.1-0.1,0.2-0.2,0.2c-0.3,0-0.4,0.2-0.5,0.4c0,0.1,0,0.2,0,0.3
						c0.3,0.2,0.7,0.3,1,0.3c0.1,0,0.2,0.1,0.2,0.2C175,68.4,174.9,68.5,174.7,68.5z"/>
				</g>
				<g>
					<g>
						<g>
							<g>
								<g>
									<path class="st5" d="M180,68.7c-0.1,0.3-0.6,0.4-1.1,0.3c-0.6-0.1-1-0.4-0.9-0.7c0.1-0.3,0.6-0.4,1.1-0.3
										C179.7,68.1,180.1,68.4,180,68.7z"/>
								</g>
							</g>
						</g>
					</g>
				</g>
				<g>
					<g>
						<g>
							<g>
								<g>
									<path class="st5" d="M172.3,67.7c-0.1,0.3-0.6,0.4-1.1,0.3c-0.6-0.1-1-0.4-0.9-0.7c0.1-0.3,0.6-0.4,1.1-0.3
										C171.9,67.1,172.4,67.4,172.3,67.7z"/>
								</g>
							</g>
						</g>
					</g>
				</g>
				<g>
					<path class="st5" d="M174.7,71.4c-0.1,0-0.2,0-0.3,0c-0.1,0-0.2-0.1-0.2-0.3c0-0.1,0.1-0.2,0.3-0.2c0.4,0.1,0.9-0.1,1.1-0.5
						c0.1-0.1,0.2-0.1,0.3-0.1c0.1,0.1,0.1,0.2,0.1,0.3C175.7,71.1,175.2,71.4,174.7,71.4z"/>
				</g>
				<g>
					<path class="st5" d="M185.3,69.8c-0.1,0-0.1,0-0.2-0.1c-0.4-0.5-0.5-1-0.4-1.4c0.1-0.3,0.3-0.6,0.5-0.8
						c0.2-0.1,0.5-0.2,0.7-0.1c0.1,0,0.2,0.2,0.1,0.3c0,0.1-0.2,0.2-0.3,0.1c-0.1,0-0.3,0-0.4,0.1c-0.2,0.1-0.3,0.3-0.3,0.5
						c-0.1,0.4,0.2,0.8,0.4,1.1c0.1,0.1,0,0.2,0,0.3C185.4,69.8,185.3,69.8,185.3,69.8z"/>
				</g>
				<path class="st8" d="M194.9,117.8c0,0-0.4,1.2-0.4,1.9c0,0,3.9-0.7,4.4-2.1c0.5-1.4-0.6-8.2-0.7-8.7c-0.1-0.5-3.1-3.1-4.4-3.8
					c-1.4-0.6-4.6-1.9-5.3-1.2c-0.7,0.7-0.2,1.8,3.2,2.1c0.9,0.1,3.1,2.6,3.1,2.6s-3.3-1.9-3.8-2c-1.4-0.3-3.3-0.1-3.2,0.4
					c0.1,0.5,0.3,1.2,2.8,1.2c1.1,0,3.7,2.5,3.7,2.5s-2.1-0.9-3.1-1.1c-1.1-0.2-2.1,0.3-2.3,0.7c-0.1,0.4,0.3,1.1,2,1.2
					c1.4,0.1,3.3,2.4,3.3,2.4s-2.6-1.5-3.4-1.5c-0.7,0-2.9,1-2.4,1.9c0.3,0.7,1.5,0.5,2.8,0.1"/>
				<path class="st14" d="M215.8,101.3c0,0,0,0,0.1,0.1c0.4,0.5,1.9,2.2,4.3,4.4c2,1.8,4.5,4,7.4,6c1.4,1,2.9,1.9,4.4,2.8
					c1,0.6,2.1,1.1,3.2,1.6l1.7-2l1.7-2l1.7-2l1.3-1.6l0.4-0.5l1.4-1.6c0,0-1.5-0.9-3.7-2.5c-2-1.4-4.5-3.3-7-5.5
					c-1.9-1.6-3.7-3.4-5.3-5.3c-0.4-0.5-0.8-1-1.2-1.5l-1.7,1.5l-1.9,1.8l-3.9,3.5L215.8,101.3z"/>
				<path class="st16" d="M235.3,116.3c-11.3-5.2-19.5-15-19.5-15l2.9-2.7l3.9-3.5l1.9-1.8c5.4,6.5,13.7,12.4,17.5,14.9l-1.7,2
					l-1.7,2l-1.7,2L235.3,116.3z"/>
				<path class="st15" d="M235.3,116.3c-11.3-5.2-19.5-15-19.5-15l2.9-2.7l3.9-3.5c5.5,6.7,14,12.7,17.7,15.2l-1.7,2l-1.7,2
					L235.3,116.3z"/>
				<path class="st10" d="M235.3,116.3c-11.3-5.2-19.5-15-19.5-15l2.9-2.7l1.9-1.8c5.5,6.8,14.3,13,18,15.4l-1.7,2L235.3,116.3z"/>
				<path class="st17" d="M235.3,116.3c-11.3-5.2-19.5-15-19.5-15l2.9-2.7c5.6,7,14.6,13.3,18.2,15.6L235.3,116.3z"/>
				<g>
					<path class="st7" d="M204,112.1c0.1,0.1,0.3,0.1,0.4,0l23-21.1c0.1-0.1,0.1-0.3,0-0.4c-0.1-0.1-0.3-0.1-0.4,0l-23,21.1
						C203.9,111.8,203.9,112,204,112.1C204,112.1,204,112.1,204,112.1z"/>
				</g>
				<path class="st24" d="M209.9,102.2c0,0,2.8-0.6,3.5-0.5c0.7,0,2.3,2.4,2.4,2.9c0.1,0.5-0.4,0.8-0.7,0.5c0,0,0.3,0.8,0.1,1.1
					c-0.2,0.3-0.7,0.3-0.7,0.3s0.1,0.7-0.4,0.8c-0.4,0.2-0.7-0.3-0.7-0.3s-0.4,0.7-0.7,0.7c-0.3,0-0.7,0-1.2-0.7
					c0,0-2.1,0.1-3.2-1.7L209.9,102.2z"/>
				<g>
					<path class="st5" d="M210.5,104.5C210.5,104.6,210.6,104.6,210.5,104.5c1.1,0.8,2.4,0,3-0.8c0.6,1.1,1.3,1.5,1.3,1.5
						c0.1,0.1,0.2,0,0.3-0.1c0.1-0.1,0-0.2-0.1-0.3c0,0-0.7-0.4-1.3-1.6c0-0.1-0.1-0.1-0.2-0.1c-0.1,0-0.1,0-0.2,0.1
						c0,0-1.4,1.8-2.6,1c-0.1-0.1-0.2-0.1-0.3,0C210.5,104.4,210.5,104.5,210.5,104.5z"/>
				</g>
				<g>
					<path class="st5" d="M213,107.1c0.1,0.1,0.1,0.1,0.2,0.1c0.1,0,0.2-0.1,0.2-0.3c0-0.1-0.3-1.3-1.3-2.3c-0.1-0.1-0.2-0.1-0.3,0
						c-0.1,0.1-0.1,0.2,0,0.3c0.9,1,1.2,2.1,1.2,2.1C213,107,213,107.1,213,107.1z"/>
				</g>
				<g>
					<path class="st5" d="M214.1,106.6c0.1,0.1,0.2,0.1,0.2,0c0.1-0.1,0.2-0.2,0.1-0.3c0-0.1-0.7-1.5-1.5-2.4
						c-0.1-0.1-0.2-0.1-0.3,0c-0.1,0.1-0.1,0.2,0,0.3C213.4,105.1,214.1,106.5,214.1,106.6C214.1,106.6,214.1,106.6,214.1,106.6z"/>
				</g>
			</g>
			<g>
				<path class="st11" d="M169.1,96C169.1,96,169.1,96,169.1,96c-0.2,0-0.2-0.1-0.2-0.3c0.1-0.4,2.3-10.1,3.4-12.6
					c0.1-0.1,0.2-0.2,0.3-0.1c0.1,0.1,0.2,0.2,0.1,0.3c-1.2,2.5-3.4,12.4-3.4,12.5C169.3,95.9,169.2,96,169.1,96z"/>
			</g>
			<g>
				<path class="st11" d="M193.8,96.6C193.8,96.6,193.8,96.6,193.8,96.6c-0.1,0-0.2-0.1-0.2-0.2c0.1-3.5-0.7-10.1-0.7-10.1
					c0-0.1,0.1-0.2,0.2-0.2c0.1,0,0.2,0.1,0.2,0.2c0,0.1,0.9,6.7,0.7,10.2C194,96.5,193.9,96.6,193.8,96.6z"/>
			</g>
			<g>
				<path class="st0" d="M150.3,98.1c-0.1,0-0.2-0.1-0.2-0.2c0-0.1-3.3-12.7-4.7-14.5c-1.3-1.8-3.5-2-3.5-2c-0.1,0-0.2-0.1-0.2-0.2
					c0-0.1,0.1-0.2,0.2-0.2c0.1,0,2.3,0.3,3.8,2.2c1.4,1.9,4.6,14.1,4.7,14.6C150.6,97.9,150.5,98,150.3,98.1
					C150.4,98.1,150.4,98.1,150.3,98.1z"/>
			</g>
			<g>
				<path class="st0" d="M156.1,82.1c-0.1,0-0.2-0.1-0.2-0.1l-1-2.6c0-0.1,0-0.2,0.1-0.3c0.1,0,0.2,0,0.3,0.1l1,2.6
					C156.3,81.9,156.3,82,156.1,82.1C156.1,82.1,156.1,82.1,156.1,82.1z"/>
			</g>
			<g>
				<path class="st22" d="M113.9,86.4c-0.1,0-0.2-0.1-0.2-0.2l-0.3-2.9c0-0.1,0.1-0.2,0.2-0.2c0.1,0,0.2,0.1,0.2,0.2l0.3,2.9
					C114.2,86.3,114.1,86.4,113.9,86.4C114,86.4,113.9,86.4,113.9,86.4z"/>
			</g>
		</g>
	</g>
</g>
</svg>
