<svg width="248" height="248" viewBox="0 0 248 248" fill="none" xmlns="http://www.w3.org/2000/svg">
<circle cx="124" cy="124" r="124" fill="#EAF2E3"/>
<path d="M218.269 107.736C214.582 83.9786 211.631 67.5617 198.33 58.568C175.895 43.391 150.84 68.0246 119.064 51.5002C103.408 43.3579 102.821 33.9261 89.5703 32.6696C66.127 30.4542 46.9243 58.0224 45.2628 60.3865C35.1531 74.7534 31.7804 92.2697 35.8722 108.968C38.534 119.813 40.3361 131.039 39.8401 142.182C38.9804 161.583 39.4764 179.686 58.5798 191.251C75.6415 201.584 97.1091 210.693 117.593 212.288C131.514 213.371 147.12 211.619 160.537 208.048C228.907 189.854 223.336 140.396 218.269 107.736Z" fill="#F4F7FA"/>
<path d="M198.57 74.3897C194.817 80.8457 183.765 84.6565 187.882 93.8403C189.072 96.5104 190.891 99.1308 191.072 102.123C191.263 105.198 188.659 107.356 186.915 109.555C185.088 111.861 183.757 114.275 183.542 117.267C183.228 121.681 186.121 124.756 188.204 128.311C190.618 132.419 188.799 134.99 185.724 138.04C179.136 144.579 183.319 154.73 182.368 162.773C181.426 170.734 177.268 176.702 169.795 179.777C166.166 181.273 162.273 182.05 158.387 182.521C155.395 182.885 152.097 182.637 148.997 182.869H148.989C148.542 182.902 148.112 182.993 147.674 182.993C147.137 182.993 146.608 183.15 146.095 183.265C151.097 182.166 161.347 169.08 159.735 161.93C158.123 154.771 154.006 149.588 158.892 142.562C163.769 135.536 158.842 134.916 154.188 127.402C149.534 119.888 148.823 113.804 155.362 110.067C161.901 106.331 161.52 106.298 156.693 87.963C151.857 69.6283 169.572 55.6665 180.31 53.0461C183.062 52.3765 187.353 52.8063 189.915 54.0215C190.37 54.2364 190.808 54.4844 191.238 54.7572C192.965 55.8483 194.511 57.3776 195.801 59.1301C198.835 63.2798 201.389 69.5291 198.57 74.3897Z" fill="#BFC8D6"/>
<path opacity="0.3" d="M198.57 74.3897C194.817 80.8457 183.765 84.6564 187.882 93.8403C189.072 96.5103 190.891 99.1308 191.072 102.123C191.263 105.198 188.659 107.356 186.914 109.555C185.088 111.861 183.757 114.275 183.542 117.267C183.228 121.681 186.121 124.756 188.204 128.311C190.618 132.419 188.799 134.99 185.724 138.04C179.136 144.579 183.319 154.73 182.368 162.773C181.426 170.734 177.268 176.702 169.795 179.777C166.166 181.273 162.273 182.05 158.387 182.521C155.395 182.885 152.097 182.637 148.997 182.869C150.931 182.53 152.965 181.571 154.568 180.752C159.76 178.115 165.124 174.792 167.827 169.436C169.241 166.634 168.447 165.278 167.274 162.451C165.463 158.094 164.719 153.308 166.935 148.877C169.109 144.529 172.539 140.363 172.415 135.255C172.217 127.385 161.983 121.987 167.1 113.845C170.225 108.877 176.077 105.645 176.995 99.3622C177.623 95.1133 174.928 91.5836 173.63 87.7563C172.25 83.6893 172.217 79.2833 172.936 75.0675C175.036 62.792 183.583 57.2536 191.229 54.7572C192.957 55.8483 194.503 57.3776 195.792 59.1301C198.834 63.2797 201.389 69.5291 198.57 74.3897Z" fill="#BFC8D6"/>
<path d="M206.531 137.536C200.422 140.107 195.528 142.546 196.867 150.217C199.017 162.558 192.213 170.081 184.526 173.362C177.094 176.537 158.487 180.86 149.807 173.081C149.501 172.808 149.204 172.519 148.923 172.213C150.898 171.924 159.834 179.198 162.876 160.409C165.918 141.628 173.432 150.39 180.467 142.942C187.502 135.494 175.581 128.385 177.871 109.348C178.499 104.14 184.865 97.0146 189.75 95.4688C193.982 94.1297 198.669 94.6835 202.984 96.4442C203.067 96.4773 203.158 96.5186 203.241 96.5517C208.911 98.9324 213.912 103.38 216.359 108.323C221.575 118.862 217.979 132.733 206.531 137.536Z" fill="#D8DEE8"/>
<path opacity="0.3" d="M206.531 137.536C200.422 140.107 195.528 142.545 196.867 150.217C199.017 162.558 192.213 170.081 184.526 173.362C177.094 176.537 158.487 180.86 149.807 173.081C153.502 174.387 157.966 175.305 161.785 174.859C167.241 174.222 172.292 170.105 175.424 165.766C178.012 162.186 179.657 158.02 182.203 154.408C183.972 151.903 186.65 150.283 188.444 147.819C190.188 145.422 191.312 142.537 192.288 139.76C193.503 136.28 193.842 132.626 193.619 128.964C193.032 118.929 187.601 105.818 198.082 99.0316C199.678 97.9983 201.43 97.1882 203.249 96.5434C208.92 98.9241 213.921 103.371 216.368 108.315C221.575 118.862 217.979 132.733 206.531 137.536Z" fill="#D8DEE8"/>
<path d="M44.4857 47.1274V194.747C44.4857 196.954 46.6102 198.178 49.0735 197.492L50.3052 197.153L50.7103 197.037L117.758 177.264C119.445 176.801 120.833 176.057 120.833 174.263V53.9884C120.833 52.1864 119.974 53.3354 118.287 53.1783L116.965 53.1039L50.6441 43.9696L49.0157 43.6886C46.544 43.4406 44.4857 44.9203 44.4857 47.1274Z" fill="url(#paint0_linear_0_1)"/>
<path d="M46.9987 47.2762V194.16C46.9987 196.086 48.6271 197.252 50.6606 197.054C50.9417 197.029 51.2723 196.963 51.5699 196.88L119.924 177.917C121.594 177.454 123.123 175.594 123.123 173.809V54.0959C123.123 52.3021 121.61 50.6984 119.941 50.5331L117.056 50.252L51.6609 43.8374C51.3798 43.8126 51.074 43.9366 50.8012 43.92H50.8425C48.7759 44.0275 46.9987 45.3418 46.9987 47.2762Z" fill="url(#paint1_linear_0_1)"/>
<path d="M120.933 60.6015V172.031C120.933 173.71 119.651 175.429 118.081 175.859L54.0416 193.168C51.7932 193.78 49.9332 192.615 49.9332 190.581V55.6251C49.9332 53.5916 51.7932 52.0706 54.0416 52.2525L118.081 57.3197C119.651 57.4437 120.933 58.9151 120.933 60.6015Z" fill="#F4F7FA"/>
<path d="M90.0662 51.5416C90.0662 52.2194 89.5041 52.7237 88.818 52.6658C88.1236 52.6079 87.5532 52.0045 87.5532 51.3184C87.5532 50.6323 88.1153 50.1281 88.818 50.1942C89.5123 50.2603 90.0662 50.8638 90.0662 51.5416Z" fill="white"/>
<path opacity="0.3" d="M44.4857 178.876V194.747C44.4857 196.954 46.6102 198.178 49.0735 197.492L50.3052 197.153L50.7103 197.037C50.9913 197.012 51.2972 196.954 51.5948 196.872L119.932 177.917C121.602 177.454 123.123 175.603 123.123 173.809V54.0959C123.123 52.3021 121.61 50.6984 119.941 50.5331L117.056 50.252C117.114 51.1531 117.105 52.0706 117.13 52.9882C117.163 54.4348 117.147 55.8814 117.13 57.2371C117.072 60.8164 116.816 63.7509 116.56 64.3709C111.65 76.3984 96.4065 78.7709 89.6942 90.2693C84.503 99.1556 88.4212 107.893 90.8515 116.573C97.82 141.471 79.1051 160.343 54.4301 173.354C52.8843 174.172 51.3881 174.983 49.9415 175.784C48.9909 176.313 47.9824 176.851 47.0813 177.38C46.2134 177.884 45.4033 178.372 44.4857 178.876Z" fill="#D8DEE8"/>
<mask id="mask0_0_1" style="mask-type:luminance" maskUnits="userSpaceOnUse" x="49" y="52" width="72" height="142">
<path d="M120.933 60.6015V172.031C120.933 173.71 119.651 175.429 118.081 175.859L54.0416 193.168C51.7932 193.78 49.9332 192.615 49.9332 190.581V55.6251C49.9332 53.5916 51.7932 52.0706 54.0416 52.2525L118.081 57.3197C119.651 57.4437 120.933 58.9151 120.933 60.6015Z" fill="white"/>
</mask>
<g mask="url(#mask0_0_1)">
<path d="M67.2512 174.577C67.2512 177.934 74.2693 179.331 82.6679 177.743C90.802 176.206 97.2001 172.428 97.2001 169.262C97.2001 166.096 90.7937 164.592 82.6679 165.939C74.2693 167.336 67.2512 171.221 67.2512 174.577Z" fill="#B7C0CE"/>
<path d="M67.2512 173.867C67.2512 177.033 74.2693 178.297 82.6679 176.727C90.802 175.206 97.2001 171.585 97.2001 168.601C97.2001 165.617 90.7937 161.748 82.6679 163.046C74.2693 164.385 67.2512 170.692 67.2512 173.867Z" fill="white"/>
<path opacity="0.4" d="M67.2512 173.867C67.2512 170.701 74.2693 164.385 82.6679 163.046C86.4539 162.443 89.8596 162.955 92.4139 163.972C92.5958 164.311 92.6784 164.658 92.6371 165.013C92.4718 166.741 89.6447 168.27 88.0079 168.899C83.8417 170.502 81.7751 168.419 78.262 169.113C76.0631 169.543 72.9798 171.139 69.2847 176.313C67.9952 175.718 67.2512 174.892 67.2512 173.867Z" fill="#D8DEE8"/>
<path d="M81.8495 165.972C82.4447 166.014 83.0068 165.923 83.5276 165.699C83.9988 165.501 84.3294 165.03 84.3294 164.55V148.299L81.0064 148.737V165.071C80.9981 165.575 81.3535 165.939 81.8495 165.972Z" fill="white"/>
<path d="M81.8495 165.972C82.4447 166.014 83.0068 165.923 83.5276 165.699C83.9988 165.501 84.3294 165.03 84.3294 164.55V148.299L81.0064 148.737V165.071C80.9981 165.575 81.3535 165.939 81.8495 165.972Z" fill="#97A6B7"/>
<path d="M99.6551 139.661L94.8607 137.197C94.6623 136.089 92.3643 124.434 82.8249 121.45C78.8406 120.202 74.4842 120.714 72.0622 121.003C67.1602 121.582 63.5975 122.004 61.8698 124.368C59.6379 127.435 63.3743 129.708 62.6055 137.982C62.2914 141.363 61.4895 142.942 62.4898 145.05C63.6801 147.555 66.4245 148.679 68.5324 149.225C71.0371 150.266 75.3356 151.63 80.8989 151.341C90.0166 150.87 96.6049 146.241 98.8368 144.529C99.8205 144.091 100.556 143.182 100.763 142.149C100.986 141.107 100.54 140.115 99.6551 139.661Z" fill="url(#paint2_linear_0_1)"/>
<path d="M70.9958 121.739C67.3587 122.119 65.0772 122.26 63.8041 123.897C62.465 125.624 63.8207 126.897 64.0687 132.642C64.3001 137.875 63.2999 140.057 65.1185 142.769C65.1185 142.769 66.036 144.133 67.4827 145.067C72.5334 148.324 85.1147 146.654 90.2316 138.206C94.2407 131.584 92.5792 122.632 87.8261 119.97C85.4784 118.656 84.9329 120.276 70.9958 121.739Z" fill="url(#paint3_linear_0_1)"/>
<path d="M100.002 136.924L95.2161 134.436C95.2161 134.436 81.9156 131.518 68.9623 139.049C67.4744 139.917 66.5403 141.471 66.5403 143.05C66.5403 144.257 67.309 145.249 68.4994 145.571C70.814 146.77 75.2612 148.646 81.2791 148.489C90.5622 148.249 97.2497 143.322 99.1922 141.785C100.176 141.355 100.912 140.454 101.118 139.421C101.325 138.379 100.887 137.387 100.002 136.924Z" fill="url(#paint4_linear_0_1)"/>
<path d="M92.0749 103.727C93.1495 102.991 92.1741 101.04 92.1162 96.7501C92.0418 91.4927 93.4554 90.4925 92.3229 88.4507C90.9259 85.946 87.3796 84.921 85.0072 84.8879C84.4781 84.8796 84.3541 84.5986 79.8903 85.7476C71.6488 87.8638 69.5409 85.6815 65.7301 87.9299C61.9937 90.137 63.6387 92.4681 59.985 95.0885C53.9506 99.4118 47.4615 95.0637 42.9564 98.734C38.6249 102.264 38.5257 110.919 43.0804 115.366C48.1477 120.317 57.0587 118.127 62.87 116.713C64.0769 116.424 70.0865 114.845 76.2035 110.199C79.5266 107.678 81.7833 105.074 83.2051 103.181C83.5358 102.801 84.0565 102.346 84.7427 102.247C85.561 102.131 86.2141 102.586 86.5282 102.784C88.1732 103.843 91.0168 104.454 92.0749 103.727Z" fill="url(#paint5_linear_0_1)"/>
<path d="M87.7185 101.016C89.1238 99.7177 94.067 101.917 97.2909 104.925C101.027 108.414 100.738 111.398 103.954 115.721C105.532 117.854 105.152 126.178 100.862 123.74C97.8365 122.02 96.2659 119.516 93.2239 114.539C90.124 109.472 85.9495 102.652 87.7185 101.016Z" fill="url(#paint6_linear_0_1)"/>
<path d="M117.543 167.138L114.047 165.592L112.451 165.873C112.451 165.873 111.906 168.055 111.972 168.146C112.683 169.213 115.973 169.518 118.006 169.221C118.345 169.171 118.808 169.089 118.932 168.816C119.139 168.336 118.221 167.609 117.543 167.138Z" fill="url(#paint7_linear_0_1)"/>
<path d="M113.989 163.22C113.766 164.608 114.047 165.261 114.361 165.6C114.576 165.84 114.766 165.881 116.055 166.799C116.477 167.105 116.692 167.262 116.642 167.377C116.585 167.51 116.213 167.51 115.411 167.452C113.642 167.328 112.749 167.262 112.534 166.865C112.336 166.501 112.509 166.295 112.501 165.203C112.493 164.493 112.352 163.939 112.236 163.6C112.815 163.476 113.402 163.352 113.989 163.22Z" fill="url(#paint8_linear_0_1)"/>
<path d="M116.518 152.159C116.518 152.159 118.089 153.862 117.833 156.028C117.576 158.194 114.816 155.515 114.427 154.515C114.039 153.515 113.584 152.077 113.584 152.077C113.584 152.077 115.543 150.539 116.518 152.159Z" fill="url(#paint9_linear_0_1)"/>
<path d="M115.923 149.2C115.923 149.2 115.493 151.531 116.312 152.606C116.717 153.143 117.262 153.564 117.105 154.069C116.998 154.408 116.593 154.705 116.246 154.722C115.576 154.755 115.212 153.755 114.948 153.044C114.559 152.002 114.344 149.671 114.344 149.671L115.923 149.2Z" fill="url(#paint10_linear_0_1)"/>
<path d="M114.658 151.3C115.146 151.043 115.634 150.795 116.113 150.539C116.866 148.646 117.783 145.587 117.477 142.074C116.684 133.014 108.36 128.972 107.417 128.534C105.086 129.948 102.705 131.865 102.623 133.998C102.515 136.676 106.095 137.668 109.418 141.124C111.393 143.174 113.476 146.315 114.658 151.3Z" fill="url(#paint11_linear_0_1)"/>
<path d="M114.129 164.253C115.741 157.499 115.328 152.275 114.865 149.291C114.162 144.769 112.724 135.544 106.524 132.684C105.152 132.047 103.168 131.551 100.73 129.617C98.6797 127.98 97.3653 126.178 96.5635 124.88C87.6524 123.062 79.1464 124.831 75.2943 130.022C74.8479 130.625 73.7237 131.956 73.5005 133.783C73.0045 137.908 77.1955 142.322 81.8164 142.777C87.5697 143.356 90.8432 137.288 95.7699 138.611C97.1339 138.974 98.2746 140.132 100.556 142.422C103.425 145.306 105.02 148.076 105.623 149.183C107.409 152.465 108.748 154.871 108.946 158.21C108.988 158.987 109.021 160.566 109.922 162.128C110.608 163.319 111.542 164.03 112.228 164.451C112.865 164.377 113.501 164.311 114.129 164.253Z" fill="url(#paint12_linear_0_1)"/>
<path opacity="0.3" d="M73.5088 133.775C73.7237 131.948 74.8562 130.617 75.3026 130.014C79.1464 124.822 87.6607 123.054 96.5718 124.872C97.3654 126.162 98.6797 127.972 100.738 129.609C103.177 131.543 105.152 132.039 106.533 132.676C110.343 134.428 112.344 138.561 113.493 142.537C111.79 140.041 110.327 139.495 109.186 139.619C107.541 139.801 106.806 141.322 104.822 141.372C102.681 141.421 102.193 139.694 100.44 139.694C99.9114 139.694 99.2666 139.851 98.4813 140.363C97.4315 139.396 96.6545 138.834 95.7782 138.602C90.8515 137.288 87.578 143.347 81.8247 142.769C77.2038 142.314 73.0128 137.9 73.5088 133.775Z" fill="url(#paint13_linear_0_1)"/>
<path d="M109.872 135.263C108.93 135.312 107.475 135.445 105.714 135.825C97.1504 137.635 94.7366 142.215 87.3548 144.182C85.5776 144.653 77.5014 146.811 73.9303 142.694C71.3347 139.702 71.7232 133.99 74.5668 131.485C75.7572 130.435 76.931 130.344 84.3955 129.708C87.1482 129.468 89.876 129.22 92.5709 128.997C103.673 128.079 105.739 127.129 107.69 128.741C108.599 129.485 109.914 131.146 109.872 135.263Z" fill="url(#paint14_linear_0_1)"/>
<path d="M86.4538 101.52C86.4538 101.52 72.5003 98.1057 71.0123 108.125C69.574 117.78 76.8566 121.615 73.5666 131.51C73.1864 132.667 99.3906 125.228 99.3906 125.228C96.0428 121.359 95.2657 117.97 95.1831 115.581C95.0921 112.96 95.8609 111.72 95.1831 108.654C95.1831 108.654 94.4308 105.223 91.6864 102.363C91.2896 101.95 90.8184 101.52 86.4538 101.52Z" fill="url(#paint15_linear_0_1)"/>
<path d="M77.5758 128.956C77.5758 128.956 90.4299 124.484 97.7952 123.45L77.5758 128.956Z" fill="url(#paint16_linear_0_1)"/>
<path d="M83.4862 95.8077C83.6102 96.3698 84.255 99.4036 82.9654 100.238C82.6844 100.42 82.1471 100.536 81.0642 100.776C80.3533 100.933 79.7498 101.032 79.3282 101.098C79.3861 101.611 79.568 102.446 80.1879 103.181C81.9156 105.24 85.3461 104.537 85.8338 104.429C87.5367 104.049 89.2065 103.471 89.6033 103.14C90.215 102.644 90.6862 102.264 90.9755 101.892C90.3225 101.611 89.0081 100.85 88.1236 100.61C87.4623 100.437 86.8341 100.313 86.2637 100.238C86.1728 99.6515 86.0736 99.0729 85.9826 98.486C85.1477 97.585 84.3211 96.7005 83.4862 95.8077Z" fill="url(#paint17_linear_0_1)"/>
<path d="M83.4284 97.3287C83.4284 97.3287 83.6598 99.5606 85.9 99.8747C87.8839 100.156 89.3718 95.444 88.3633 94.2702C88.0244 93.8734 87.1895 93.5097 86.4704 93.551C85.9578 93.5758 84.2219 94.2619 83.9822 95.9565C83.635 95.6093 83.2052 95.5184 82.9902 95.6754C82.7174 95.8738 82.8662 96.4194 82.8993 96.5434C82.9985 96.965 83.2878 97.2213 83.4284 97.3287Z" fill="url(#paint18_linear_0_1)"/>
<path d="M83.3953 127.054C83.6681 126.327 83.9409 125.608 84.2137 124.889C81.1799 124.343 76.9228 123.5 72.4837 122.343C71.7811 122.161 70.9462 121.929 70.6734 121.251C69.9047 119.342 74.7735 116.961 76.6417 112.588C78.3611 108.571 77.4187 103.173 75.4183 102.611C71.2025 101.429 55.6948 120.268 61.3407 127.468C64.4654 131.469 73.9138 131.245 83.3953 127.054Z" fill="url(#paint19_linear_0_1)"/>
<path d="M86.9002 128.724L91.1821 112.274C91.2896 111.877 91.5954 111.547 92.0005 111.423L106.781 106.785C107.574 106.537 108.293 107.24 108.078 108.05L103.598 124.856C103.491 125.261 103.168 125.591 102.763 125.707L88.2476 129.989C87.4127 130.229 86.6852 129.551 86.9002 128.724Z" fill="url(#paint20_linear_0_1)"/>
<path d="M84.2136 124.889C86.0983 123.756 88.3385 124.558 88.479 124.616C88.884 124.773 89.4792 125.054 90.0826 125.6C90.1488 125.682 90.9506 126.699 90.6613 127.079C90.4298 127.377 89.5205 127.228 88.4211 126.666C87.9582 126.641 87.2721 126.649 86.4455 126.798C84.9245 127.071 84.2218 127.6 83.668 127.245C83.2629 126.988 83.1224 126.368 83.2712 125.889C83.4283 125.368 83.8912 125.079 84.2136 124.889Z" fill="url(#paint21_linear_0_1)"/>
</g>
<path d="M203.116 163.459L201.703 183.356C201.604 184.142 200.942 184.729 200.157 184.729C199.297 184.729 198.595 184.026 198.595 183.166V165.716L203.116 163.459Z" fill="url(#paint22_linear_0_1)"/>
<path d="M140.326 189.019L138.813 209.718C138.714 210.553 138.003 211.181 137.16 211.181C136.234 211.181 135.49 210.437 135.49 209.511V191.424L140.326 189.019Z" fill="url(#paint23_linear_0_1)"/>
<path d="M90.5539 183.141L89.0412 203.84C88.942 204.675 88.2311 205.303 87.3879 205.303C86.4621 205.303 85.7181 204.559 85.7181 203.634V185.547L90.5539 183.141Z" fill="url(#paint24_linear_0_1)"/>
<path d="M217.574 131.915L206.15 164.253C205.514 166.047 204.133 167.477 202.364 168.171L133.663 195.053C132.778 195.4 131.828 195.516 130.885 195.4L119.651 193.995L192.792 145.918L201.538 127.947L215.739 129.08C217.128 129.195 218.037 130.592 217.574 131.915Z" fill="url(#paint25_linear_0_1)"/>
<path d="M88.2972 179.562L153.857 158.45L174.837 156.896L198.661 162.393L137.631 185.423C134.432 186.63 132.307 189.697 132.307 193.119C132.307 194.417 131.158 195.425 129.869 195.252L84.3625 189.258C83.3292 189.126 82.5687 188.225 82.5935 187.192C82.6761 183.695 84.9659 180.637 88.2972 179.562Z" fill="url(#paint26_linear_0_1)"/>
<path d="M216.235 129.071L216.31 129.129C212.416 128.832 208.812 131.221 207.589 134.932L198.595 162.095L153.353 158.475L164.306 131.634C165.868 127.798 169.704 125.393 173.837 125.657L216.235 129.071Z" fill="url(#paint27_linear_0_1)"/>
<path opacity="0.3" d="M181.624 132.246C185.931 131.32 191.759 132.122 195.197 136.089C199.041 140.528 198.628 147.472 196.098 151.696C194.619 154.176 184.79 160.971 184.79 160.971C184.79 160.971 169.464 167.733 167.596 168.436C156.007 172.8 153.279 168.262 144.979 172.056C137.002 175.702 137.3 180.909 127.339 184.497C123.95 185.712 118.957 186.894 118.287 185.63C117.692 184.497 120.718 181.802 123.264 179.521C126.083 176.999 129.009 174.387 134.118 171.602C144.417 165.997 148.898 169.601 154.932 164.815C157.726 162.6 157.189 161.575 161.719 153.961C168.778 142.091 173.614 133.957 181.624 132.246Z" fill="#D8DEE8"/>
<path d="M124.719 177.661C124.719 177.661 123.578 176.975 122.214 177.892C120.85 178.802 116.295 182.447 119.023 182.678C121.751 182.893 125.628 179.479 124.719 177.661Z" fill="url(#paint28_linear_0_1)"/>
<path d="M126.083 180.166C126.083 180.166 126.537 181.761 125.397 182.67C124.256 183.579 120.718 185.621 120.156 185.175C119.015 184.266 120.842 181.984 121.974 181.306C123.123 180.62 125.173 178.339 126.083 180.166Z" fill="url(#paint29_linear_0_1)"/>
<path d="M157.966 152.382C157.602 152.506 157.189 152.812 156.825 153.523C154.717 153.407 151.642 153.325 147.947 153.523C141.805 153.854 138.73 154.019 135.424 155.342C134.109 155.863 125.273 159.401 123.123 168.097C122.032 172.511 123.148 176.322 123.809 178.115C124.264 178.115 124.719 178.115 125.173 178.115C127.488 169.924 131.447 166.592 133.828 165.137C137.374 162.955 141.937 162.591 150.906 161.947C160.843 161.236 164.29 161.922 165.025 160.128C166.108 157.483 160.537 151.49 157.966 152.382Z" fill="url(#paint30_linear_0_1)"/>
<path d="M169.125 161.715C168.481 162.823 167.356 164.41 165.48 165.584C158.726 169.824 151.559 162.864 143.616 166.493C141.706 167.369 139.606 169.502 135.415 173.784C131.249 178.033 128.248 182.05 125.62 181.298C125.091 181.149 124.71 180.835 124.479 180.612C125.661 176.313 128.224 169.659 134.043 163.757C136.159 161.608 139.334 158.458 144.517 156.466C152.378 153.457 159.52 155.185 162.281 156.011C164.571 157.921 166.844 159.822 169.125 161.715Z" fill="url(#paint31_linear_0_1)"/>
<path d="M168.671 127.782C166.819 127.873 164.1 128.27 161.38 129.832C157.42 132.113 157.387 134.626 154.089 135.751C150.667 136.924 146.658 135.602 144.07 133.477C142.012 131.791 141.07 129.766 140.656 128.691C139.97 128.84 139.292 128.997 138.606 129.146C138.681 131.254 139.168 136.098 142.706 139.619C149.642 146.538 164.562 144.662 168.439 137.115C170.117 133.858 169.415 130.154 168.671 127.782Z" fill="url(#paint32_linear_0_1)"/>
<path d="M140.507 129.427C140.507 129.427 138.631 131.336 136.225 131.287C135.812 131.278 135.605 130.783 135.887 130.485C136.556 129.774 137.713 128.691 138.945 128.22C139.292 128.088 139.441 127.683 139.284 127.344C139.019 126.79 138.747 126.062 138.995 125.765C138.995 125.765 139.4 125.542 139.97 126.881C140.202 127.41 141.342 128.427 140.507 129.427Z" fill="url(#paint33_linear_0_1)"/>
<path d="M190.758 134.618C189.328 133.105 185.286 129.237 178.69 127.79C171.754 126.269 166.232 128.344 164.339 129.154C163.835 130.402 163.116 132.37 162.521 134.85C161.256 140.082 161.81 142.289 160.702 145.554C160.008 147.596 158.536 150.415 155.007 153.3C157.263 154.482 160.115 156.284 162.975 158.995C164.901 160.822 166.398 162.641 167.53 164.236C170.522 163.592 174.656 162.244 178.69 159.227C189.857 150.861 190.659 136.949 190.758 134.618Z" fill="url(#paint34_linear_0_1)"/>
<path d="M175.499 137.577C175.499 137.577 174.358 133.254 173.449 132.791C172.539 132.337 172.994 136.891 173.68 137.577C174.358 138.264 175.499 138.718 175.499 137.577Z" fill="url(#paint35_linear_0_1)"/>
<path opacity="0.3" d="M163.43 156.02C165.571 155.185 166.902 153.126 167.53 152.151C170.299 147.861 168.464 145.158 170.489 143.496C173.077 141.372 176.755 143.984 183.013 143.265C185.674 142.959 187.972 142.107 189.857 141.14C188.626 146.53 185.699 153.961 178.689 159.21C174.655 162.228 170.522 163.575 167.53 164.22C166.397 162.624 164.901 160.806 162.975 158.979C161.892 157.954 160.809 157.061 159.76 156.284C161.066 156.532 162.314 156.458 163.43 156.02Z" fill="url(#paint36_linear_0_1)"/>
<path d="M185.063 138.487C184.368 136.47 184.649 134.527 185.749 133.701C187.452 132.419 190.403 134.378 190.758 134.61C194.817 137.305 196.032 143.719 194.627 148.729C194.172 150.357 193.42 153.027 190.981 154.647C187.071 157.235 181.409 155.424 178.227 152.829C174.118 149.473 172.539 143.48 174.126 137.569C174.432 137.569 174.73 137.569 175.036 137.569C176.325 139.661 181.467 147.836 183.914 146.91C184.443 146.72 185.815 145.745 185.063 138.487Z" fill="url(#paint37_linear_0_1)"/>
<path d="M176.548 121.458C176.557 122.93 176.4 124.095 176.243 124.897C176.094 125.666 176.036 125.897 175.862 126.129C175.309 126.864 174.044 127.269 173.052 127.294C172.688 127.302 171.911 127.278 171.746 127.65C171.746 127.65 171.738 127.666 171.738 127.683C171.597 128.096 173.391 129.509 174.945 130.171C178.235 131.593 182.368 130.46 182.459 129.485C182.542 128.633 179.516 128.36 178.971 126.31C178.698 125.285 179.169 124.269 179.566 123.616C179.02 122.64 177.078 122.442 176.548 121.458Z" fill="url(#paint38_linear_0_1)"/>
<path d="M174.358 120.871C174.507 120.425 174.887 120.392 175.027 119.854C175.193 119.226 174.763 118.92 174.912 118.548C175.176 117.887 176.904 117.928 177.962 118.102C179.144 118.3 180.442 118.515 181.111 119.623C181.764 120.698 181.632 122.31 180.938 122.748C180.558 122.987 180.243 122.731 179.623 122.905C178.838 123.128 178.35 123.839 178.045 124.434C177.995 124.194 177.921 123.888 177.797 123.566C177.557 122.938 177.466 122.607 177.251 122.533C176.821 122.376 176.507 123.211 175.871 123.211C175.044 123.202 174.06 121.756 174.358 120.871Z" fill="url(#paint39_linear_0_1)"/>
<path d="M179.152 123.806C179.152 123.806 178.251 125.128 176.606 124.938C175.135 124.773 175.077 121.442 176.061 120.78C176.391 120.557 177.02 120.491 177.532 120.665C177.83 120.764 177.929 120.896 178.417 121.053C178.871 121.194 179.004 121.152 179.136 121.276C179.301 121.433 179.409 121.797 179.078 122.748C179.376 122.475 179.715 122.384 179.954 122.508C179.996 122.524 180.086 122.599 180.144 122.706C180.326 123.095 179.954 123.566 179.152 123.806Z" fill="url(#paint40_linear_0_1)"/>
<path d="M137.168 95.196C138.589 87.1198 149.394 84.2349 154.585 83.7141C155.659 83.6066 168.216 82.5568 174.846 92.0466C179.557 98.7919 179.995 109.117 175.92 112.324C174.002 113.837 171.341 113.564 169.787 116.052C168.687 117.821 168.819 119.904 169.084 121.318C167.546 120.326 165.455 118.689 163.769 116.118C162.256 113.812 162.454 112.869 161.297 111.853C158.486 109.373 154.337 112.373 149.782 111.795C143.227 110.952 135.845 102.71 137.168 95.196Z" fill="url(#paint41_linear_0_1)"/>
<path d="M148.484 93.7825C147.41 95.444 147.029 97.7338 146.922 99.5937C146.814 101.553 147.74 103.247 149.733 103.735C150.551 103.934 151.369 103.9 152.163 103.702C151.84 103.991 151.295 104.388 151.237 104.777C151.179 105.165 151.625 105.331 151.948 105.364C152.617 105.446 153.378 105.132 154.048 104.752C154.8 105.612 155.717 106.339 156.718 106.909C158.9 108.149 161.644 108.852 164.108 108.133C165.306 107.786 166.397 107.108 167.092 106.058C167.753 105.074 168.042 103.884 168.133 102.71C169.125 102.594 170.167 102.346 170.861 101.627C171.622 100.834 171.605 99.6598 171.25 98.6844C171.068 98.1884 170.828 97.7172 170.531 97.2709C170.547 97.2543 170.555 97.2461 170.572 97.2295C170.828 97.6511 171.06 98.081 171.266 98.5191C172.002 100.057 172.614 101.826 172.242 103.545C172.076 104.322 171.688 105.041 171.068 105.545C170.431 106.066 169.646 106.165 168.943 106.554C167.786 107.199 168.348 108.381 168.985 109.199C169.563 109.935 170.324 110.976 169.778 111.935C169.332 112.729 168.315 113.026 167.489 113.217C167.414 113.233 167.439 113.341 167.513 113.324C168.505 113.109 169.82 112.696 170.076 111.572C170.398 110.175 169.026 109.34 168.58 108.191C168.133 107.042 169.134 106.694 169.993 106.38C170.597 106.157 171.151 105.86 171.589 105.38C172.448 104.446 172.68 103.132 172.581 101.908C172.432 100.189 171.737 98.5025 170.795 96.9733C171.589 95.9896 171.886 94.6091 171.589 93.3857C171.275 92.1209 170.307 91.2034 169.274 90.4759C167.654 89.3269 165.819 88.5582 163.918 88.0374C162.099 87.5414 160.206 87.1777 158.329 86.9876C158.222 86.9793 158.123 86.971 158.024 86.9628C157.511 86.7065 156.974 86.5329 156.428 86.4833C155.469 86.4006 154.709 86.814 154.064 87.4505C153.915 87.5001 153.758 87.5579 153.609 87.6158C152.171 88.1696 150.667 88.8309 149.567 89.9386C148.732 90.7818 147.98 92.0796 148.302 93.3113C148.344 93.4766 148.41 93.6337 148.484 93.7825ZM156.775 86.938C156.205 86.9628 155.651 87.0372 155.097 87.1529C155.106 87.1529 155.114 87.1446 155.114 87.1446C155.651 86.8553 156.222 86.8222 156.775 86.938ZM149.625 93.6915C149.509 93.8569 149.402 94.0305 149.294 94.2123C149.179 94.0966 149.071 93.9643 148.972 93.8238C149.088 93.6585 149.212 93.4931 149.344 93.3444C149.443 93.4683 149.534 93.5841 149.625 93.6915ZM149.865 93.9643C150.352 94.5099 150.89 95.0059 151.477 95.444C150.815 95.2125 150.113 94.8984 149.559 94.4603C149.65 94.295 149.757 94.1297 149.865 93.9643ZM149.385 94.7992C149.741 95.0637 150.138 95.2787 150.518 95.4605C151.229 95.7912 151.981 96.064 152.75 96.2376C153.27 96.5104 153.808 96.7501 154.353 96.9733C154.601 97.2874 154.866 97.5767 155.147 97.8578C155.544 98.4695 156.073 99.015 156.66 99.4945C156.263 99.4201 155.866 99.3457 155.461 99.2713C154.734 99.139 153.75 98.982 153.047 99.354C152.741 99.0646 152.394 98.8167 152.047 98.61C151.022 97.99 149.013 97.3452 149.104 95.8656C149.129 95.4936 149.228 95.1464 149.385 94.7992ZM153.014 99.8582C153.32 100.205 153.535 100.619 153.585 101.098C153.634 101.652 153.428 102.148 153.113 102.603C152.741 101.842 152.444 100.933 152.758 100.222C152.824 100.073 152.907 99.9491 153.014 99.8582ZM169.696 97.5436C169.117 97.9404 168.447 98.2215 167.786 98.4281C167.753 98.2959 167.728 98.1554 167.695 98.0231C167.414 96.8245 167.05 95.5763 166.472 94.4851C165.893 93.4022 164.967 92.526 163.661 92.5756C163.645 92.5756 163.628 92.5756 163.603 92.5756C163.827 92.5095 164.108 92.5177 164.455 92.6169C165.447 92.9062 166.373 93.675 167.174 94.3115C167.968 94.9398 168.72 95.6341 169.39 96.3946C169.448 96.56 169.506 96.7253 169.555 96.8906C169.605 97.089 169.654 97.3039 169.696 97.5436ZM154.031 92.559C154.081 92.4764 154.13 92.402 154.18 92.3193C154.18 92.3193 154.18 92.3276 154.172 92.3276C154.006 92.7492 153.816 93.1625 153.642 93.5758C153.709 93.2369 153.833 92.898 154.031 92.559ZM153.692 94.7744C153.89 93.9478 154.32 93.1708 154.626 92.3772C154.734 92.1044 154.8 91.8233 154.858 91.5423C155.833 90.633 157.189 90.1122 158.47 89.889C158.652 89.856 158.825 89.8312 158.999 89.8146C158.42 90.2528 157.957 90.8231 157.602 91.4596C155.874 91.8316 154.577 93.4022 154.419 95.1547C154.229 95.2043 154.039 95.2539 153.849 95.2704C153.783 95.0968 153.733 94.9398 153.692 94.7744ZM156.908 99.9491C156.924 99.9905 156.941 100.024 156.957 100.065C156.172 101.123 154.99 101.95 153.882 102.536C153.75 102.603 153.626 102.669 153.485 102.735C153.742 102.346 153.94 101.917 153.981 101.454C154.039 100.743 153.758 100.148 153.337 99.6516C154.296 99.2134 155.982 99.7838 156.775 99.9326C156.817 99.9326 156.866 99.9409 156.908 99.9491ZM162.628 98.8911C162.711 98.6017 162.76 98.3041 162.793 97.9983C163.314 97.8991 163.843 97.9239 164.347 98.1553C164.405 98.1801 164.463 98.2132 164.521 98.238C164.488 98.486 164.438 98.734 164.372 98.9737C163.794 98.982 163.207 98.9572 162.628 98.8911ZM167.563 99.2878C167.579 99.3953 167.596 99.5028 167.613 99.6185C167.282 99.478 166.951 99.2878 166.654 99.0977C166.786 99.0729 166.926 99.0398 167.059 99.0068C167.199 98.9737 167.348 98.9324 167.489 98.8911C167.513 99.0233 167.538 99.1556 167.563 99.2878ZM166.216 98.8084C166.108 98.7423 166.009 98.6761 165.918 98.6183C165.604 98.4199 165.257 98.1884 164.901 97.99C165 96.5847 164.579 95.1381 163.628 93.9809C163.496 93.8238 163.364 93.6667 163.215 93.5179C163.174 93.3609 163.132 93.2121 163.083 93.055C163.653 92.9228 164.248 92.9228 164.785 93.2038C165.521 93.5758 165.984 94.328 166.315 95.0555C166.819 96.1549 167.174 97.3535 167.414 98.5439C167.017 98.6596 166.621 98.7423 166.216 98.8084ZM159.776 89.765C159.892 89.765 159.999 89.765 160.115 89.765C160.743 90.1701 161.322 90.6413 161.719 91.1868C162.049 91.6415 162.239 92.1705 162.289 92.7078C161.066 91.8068 159.553 91.253 158.073 91.3852C158.321 91.005 158.602 90.6578 158.941 90.3519C159.197 90.104 159.478 89.9138 159.776 89.765ZM156.321 92.4268C156.635 92.1871 156.982 92.0217 157.354 91.9143C156.949 92.774 156.693 93.7163 156.544 94.6174C156.519 94.7744 156.494 94.9398 156.47 95.0968C156.04 94.9398 155.577 94.8902 155.13 94.9646C155.031 94.9811 154.932 95.0059 154.833 95.0307C154.973 94.0305 155.519 93.0385 156.321 92.4268ZM157.569 95.8325C157.883 95.7085 158.197 95.568 158.495 95.4192C159.784 94.7827 160.942 93.8651 162.281 93.3196C162.264 93.4931 162.231 93.6667 162.182 93.8403C162.049 94.3115 161.81 94.7414 161.512 95.1216C161.371 95.2952 161.214 95.4771 161.049 95.6341C160.958 95.7251 160.851 95.8077 160.735 95.8821C160.305 95.9317 160.222 95.9152 160.487 95.8408C160.752 95.7416 160.553 95.3531 160.289 95.444C159.528 95.7168 159.95 96.5021 160.636 96.3946C161.363 96.2789 162.025 95.2704 162.339 94.6504C162.339 94.8406 162.347 95.0141 162.355 95.1795C162.396 95.9813 162.479 96.8658 162.413 97.709C161.768 97.8908 161.157 98.2132 160.611 98.5769C159.817 98.4033 159.04 98.1884 158.263 97.9487C158.272 97.7834 158.272 97.6098 158.255 97.4444C158.205 96.8245 157.957 96.2624 157.569 95.8325ZM162.884 93.7163C163.025 94.295 163.107 94.8819 163.107 95.4688C163.107 96.0144 163.016 96.5269 162.835 96.9981C162.835 96.593 162.81 96.188 162.785 95.816C162.744 95.2373 162.669 94.3528 162.818 93.6502C162.843 93.675 162.859 93.6915 162.884 93.7163ZM163.372 94.2784C163.967 95.0389 164.372 95.94 164.504 96.9154C164.546 97.2213 164.562 97.5271 164.546 97.8247C164.215 97.6676 163.868 97.5602 163.521 97.5519C163.339 97.5436 163.165 97.5602 162.983 97.585C163.488 96.593 163.562 95.4275 163.372 94.2784ZM162.091 98.1967C161.917 98.3951 161.719 98.5769 161.495 98.734C161.371 98.7092 161.247 98.6927 161.123 98.6679C161.438 98.4943 161.76 98.3289 162.091 98.1967ZM161.041 99.0398C160.9 99.1225 160.751 99.1969 160.594 99.2713C160.388 99.3622 160.173 99.4366 159.966 99.4945C160.189 99.3126 160.421 99.1308 160.669 98.9654C160.793 98.9985 160.917 99.0233 161.041 99.0398ZM158.412 99.6846C158.222 99.5937 158.04 99.4945 157.875 99.3953C158.04 99.0564 158.156 98.7009 158.222 98.3372C158.875 98.5356 159.528 98.7175 160.189 98.8745C159.859 99.1142 159.545 99.3788 159.247 99.6516C158.966 99.6764 158.685 99.6846 158.412 99.6846ZM156.99 98.8167C156.924 98.5025 156.875 98.1884 156.833 97.8743C156.883 97.8908 156.941 97.9074 156.99 97.9322C157.255 98.0231 157.519 98.114 157.792 98.1967C157.767 98.3537 157.734 98.5108 157.685 98.6596C157.635 98.8332 157.569 98.9985 157.495 99.1556C157.329 99.0481 157.164 98.9406 156.99 98.8167ZM156.8 97.4527C156.775 97.0973 156.767 96.7501 156.775 96.4194C156.775 96.312 156.784 96.2128 156.784 96.1053C156.899 96.0722 157.015 96.0309 157.131 95.9978C157.627 96.469 157.85 97.1303 157.833 97.8082C157.784 97.7916 157.743 97.7751 157.693 97.7668C157.395 97.6511 157.098 97.5519 156.8 97.4527ZM156.37 97.3039C155.932 97.1469 155.486 96.9898 155.048 96.8162C154.998 96.6922 154.957 96.56 154.924 96.4277C155.411 96.4029 155.899 96.3202 156.37 96.2045C156.354 96.5765 156.354 96.9402 156.37 97.3039ZM154.849 96.0474C154.825 95.8656 154.808 95.6837 154.808 95.4936H154.816C155.37 95.3365 155.907 95.3283 156.428 95.5349C156.42 95.6259 156.412 95.7251 156.403 95.816C156.337 95.8325 156.271 95.849 156.205 95.8656C155.742 95.973 155.296 96.0309 154.849 96.0474ZM157.817 91.8068C158.371 91.7159 158.949 91.7407 159.495 91.8564C160.404 92.0465 161.281 92.4433 162.041 92.9889C161.347 93.2865 160.694 93.7081 160.074 94.0883C159.181 94.6422 158.255 95.1712 157.263 95.5349C157.131 95.4275 156.99 95.3365 156.842 95.2539C156.966 94.0801 157.255 92.8484 157.817 91.8068ZM165.67 98.8911C165.364 98.9241 165.058 98.9489 164.744 98.9654C164.785 98.7836 164.827 98.6017 164.852 98.4116C165.133 98.5604 165.397 98.7257 165.67 98.8911ZM162.215 98.8497C162.157 98.8415 162.099 98.8332 162.049 98.8249C162.132 98.7505 162.206 98.6761 162.281 98.6017C162.256 98.6844 162.239 98.7671 162.215 98.8497ZM162.082 99.2052C161.562 100.412 160.413 100.412 159.321 100.057C159.33 100.048 159.346 100.032 159.354 100.024C160.032 99.9243 160.694 99.7177 161.33 99.3374C161.438 99.2713 161.537 99.2052 161.628 99.139C161.785 99.1721 161.934 99.1886 162.082 99.2052ZM158.611 100.238C158.586 100.263 158.561 100.28 158.544 100.305C158.42 100.23 158.296 100.156 158.181 100.081C158.214 100.081 158.255 100.081 158.288 100.081C158.396 100.139 158.503 100.189 158.611 100.238ZM155.37 97.461C155.345 97.4197 155.321 97.37 155.296 97.3287C155.668 97.461 156.04 97.5932 156.403 97.7255C156.428 97.9735 156.453 98.2132 156.494 98.4529C156.114 98.1554 155.726 97.8247 155.37 97.461ZM154.229 96.0392C154.155 95.9152 154.089 95.7912 154.023 95.6672C154.147 95.6507 154.271 95.6259 154.403 95.5928C154.403 95.6837 154.411 95.7746 154.419 95.8656C154.428 95.9234 154.436 95.9813 154.444 96.0392C154.37 96.0474 154.296 96.0474 154.229 96.0392ZM156.461 88.2936C157.123 88.2854 157.784 88.5499 158.371 88.8227C158.718 88.9797 159.09 89.1699 159.462 89.3765C157.924 89.4509 156.205 89.9221 154.949 90.8562C154.998 90.4925 155.039 90.1205 155.106 89.7485C155.254 88.9549 155.585 88.3019 156.461 88.2936ZM160.999 89.3765C162.587 89.1616 164.289 89.9138 165.579 90.9471C166.34 91.5588 167.05 92.3193 167.662 93.1708C165.835 91.41 163.546 89.8064 161.057 89.4509C161.041 89.4179 161.016 89.393 160.999 89.3765ZM168.968 95.3861C168.191 94.6339 167.331 93.9643 166.505 93.3857C165.695 92.807 164.537 91.9225 163.479 92.2367C163.248 92.3028 163.058 92.4185 162.909 92.5673C162.826 92.3607 162.744 92.154 162.653 91.9556C162.322 91.2364 161.909 90.5503 161.429 89.9138C162.314 90.0874 163.174 90.4098 163.992 90.881C165.645 91.8233 167.183 93.0385 168.497 94.4603C168.662 94.7662 168.828 95.072 168.968 95.3861ZM169.745 97.9156C169.828 98.7505 169.687 99.6764 168.819 99.8169C168.563 99.8582 168.299 99.8334 168.026 99.759C167.976 99.4284 167.927 99.0977 167.861 98.7753C168.522 98.5687 169.175 98.2959 169.745 97.9156ZM167.761 102.371C166.05 102.553 164.356 102.429 162.719 102.024C162.909 101.883 163.083 101.726 163.248 101.569C163.909 100.925 164.372 100.156 164.637 99.3292C165.141 99.3126 165.645 99.263 166.141 99.1804C166.521 99.4118 166.902 99.635 167.307 99.8251C167.422 99.8747 167.538 99.9243 167.662 99.9739C167.761 100.759 167.811 101.578 167.761 102.371ZM162.231 101.9C161.099 101.578 159.999 101.123 158.949 100.544C158.925 100.528 158.892 100.511 158.867 100.503C158.9 100.47 158.941 100.429 158.974 100.396C160.38 100.925 161.834 100.949 162.479 99.3292C162.487 99.3044 162.496 99.2878 162.504 99.263C163.083 99.3209 163.661 99.354 164.248 99.3457C164.008 100.015 163.62 100.644 163.107 101.173C162.843 101.445 162.554 101.693 162.231 101.9ZM161.752 102.156C160.991 102.503 160.148 102.578 159.321 102.189C158.842 101.958 158.437 101.644 158.115 101.263C158.272 101.098 158.42 100.941 158.577 100.784C159.602 101.354 160.661 101.817 161.752 102.156ZM157.891 100.974C157.709 100.718 157.552 100.445 157.428 100.156C157.445 100.131 157.462 100.114 157.47 100.09C157.734 100.272 157.999 100.437 158.263 100.594C158.131 100.718 158.015 100.842 157.891 100.974ZM157.619 101.255C156.784 102.123 155.949 102.999 154.973 103.71C154.709 103.909 154.419 104.082 154.13 104.248C153.907 103.967 153.7 103.669 153.51 103.347C153.494 103.314 153.477 103.289 153.461 103.256C154.048 102.991 154.61 102.66 155.13 102.313C155.841 101.834 156.577 101.222 157.164 100.503C157.271 100.718 157.395 100.933 157.536 101.131C157.561 101.173 157.585 101.214 157.619 101.255ZM150.121 93.6089C150.485 93.1294 150.882 92.683 151.212 92.278C151.865 91.4762 152.378 90.6082 152.915 89.7237C153.312 89.0541 153.75 88.3184 154.329 87.7563C154.461 87.715 154.601 87.6737 154.734 87.6323C155.767 87.3265 156.825 87.2769 157.891 87.343C158.205 87.5001 158.503 87.6819 158.776 87.8638C159.313 88.2275 159.826 88.6573 160.297 89.1451C160.214 89.1699 160.132 89.1947 160.057 89.2277C159.305 88.74 158.495 88.3267 157.66 88.0704C156.387 87.6654 155.147 87.8638 154.783 89.3021C154.618 89.9634 154.577 90.633 154.469 91.286C153.973 91.7655 153.585 92.3441 153.361 93.022C153.171 93.6171 153.155 94.2041 153.27 94.7744C153.221 94.9976 153.188 95.2208 153.171 95.4605C153.163 95.5845 153.262 95.6672 153.378 95.6837C153.444 95.692 153.518 95.7003 153.585 95.7085C153.634 95.8077 153.684 95.9069 153.733 96.0061C153.469 95.973 153.213 95.9317 152.956 95.8738C151.84 95.2952 150.923 94.5264 150.121 93.6089ZM170.63 96.7005C170.109 95.8986 169.522 95.1381 168.91 94.4603C168.175 93.1129 167.191 91.8729 166.108 90.9223C164.67 89.6658 162.636 88.6408 160.702 89.0376C160.454 88.7648 160.189 88.5086 159.908 88.2606C159.586 87.9795 159.222 87.6902 158.834 87.4339C159.057 87.4587 159.28 87.4918 159.503 87.5249C163.174 88.0704 167.389 88.9219 170.175 91.5919C171.349 92.7161 171.746 94.3446 171.117 95.8738C170.993 96.1714 170.828 96.4525 170.63 96.7005ZM170.365 96.9981C170.15 96.7005 169.927 96.4029 169.679 96.1218C169.613 95.9482 169.539 95.7664 169.464 95.5928C169.803 96.0309 170.117 96.4773 170.407 96.9402C170.39 96.965 170.382 96.9815 170.365 96.9981ZM168.158 102.33C168.158 102.313 168.158 102.289 168.158 102.272C168.183 101.553 168.15 100.825 168.067 100.114C168.613 100.255 169.183 100.238 169.605 99.8003C170.142 99.2465 170.2 98.4281 170.084 97.6676C170.142 97.6263 170.192 97.5767 170.25 97.5354C170.795 98.3537 171.241 99.3209 171.101 100.296C170.903 101.735 169.423 102.156 168.158 102.33ZM154.386 104.553C154.634 104.396 154.866 104.239 155.064 104.099C156.106 103.38 156.974 102.462 157.85 101.545C158.404 102.173 159.131 102.66 159.958 102.818C160.776 102.975 161.586 102.743 162.289 102.322C163.951 102.768 165.678 102.933 167.439 102.784C167.53 102.776 167.629 102.768 167.728 102.76C167.538 104.793 166.712 106.67 164.645 107.538C161.851 108.703 158.487 107.703 156.106 106.066C155.461 105.628 154.882 105.124 154.386 104.553ZM152.907 103.479C152.965 103.454 153.031 103.438 153.089 103.413C153.295 103.768 153.527 104.115 153.775 104.438C153.626 104.512 153.477 104.587 153.328 104.653C153.097 104.752 151.336 105.339 151.807 104.611C151.956 104.38 152.27 104.165 152.46 103.958C152.617 103.793 152.766 103.636 152.907 103.479ZM148.749 94.1875C148.856 94.3198 148.98 94.4438 149.104 94.5595C148.724 95.3035 148.517 96.1384 148.964 96.8741C149.642 98.0148 151.138 98.4364 152.179 99.139C152.369 99.2713 152.56 99.4118 152.733 99.5689C152.684 99.6185 152.626 99.6681 152.584 99.7342C152.088 100.371 152.237 101.28 152.46 101.991C152.568 102.322 152.7 102.644 152.849 102.958C152.832 102.983 152.808 103.008 152.791 103.024C151.559 103.479 150.212 103.619 148.997 102.975C147.253 102.049 147.253 100.164 147.492 98.4447C147.682 97.0725 148.005 95.4605 148.749 94.1875ZM148.749 93.4022C148.228 92.0548 149.377 90.5586 150.377 89.7568C151.295 89.0211 152.419 88.4507 153.56 88.0208C152.915 88.8475 152.403 89.8394 151.94 90.5999C151.344 91.5754 150.567 92.4103 149.89 93.3361C149.766 93.1873 149.642 93.0385 149.526 92.8814C149.46 92.7905 149.303 92.7822 149.22 92.8649C149.046 93.0302 148.898 93.2121 148.749 93.4022Z" fill="white"/>
<path d="M101.366 67.0079C101.366 76.9523 111.046 85.0285 123.165 85.0615C135.481 85.0946 145.624 76.8117 145.624 66.5698C145.624 56.3278 135.481 48.2516 123.165 48.5244C111.038 48.7972 101.366 57.0718 101.366 67.0079Z" fill="url(#paint42_linear_0_1)"/>
<path d="M101.366 67.0079C101.366 76.9523 111.046 85.0285 123.165 85.0615C135.481 85.0946 145.624 76.8117 145.624 66.5698C145.624 56.3278 135.481 48.2516 123.165 48.5244C111.038 48.7972 101.366 57.0718 101.366 67.0079Z" fill="url(#paint43_linear_0_1)"/>
<path d="M113.824 82.2592C112.104 82.8461 110.368 83.4496 108.616 84.0861C106.062 85.0036 103.565 85.946 101.135 86.8884C101.168 85.3095 101.457 82.3336 103.177 79.1428C104.491 76.7043 106.144 75.0923 107.26 74.1582L113.824 82.2592Z" fill="url(#paint44_linear_0_1)"/>
<path d="M99.804 65.3546C99.804 75.299 109.484 83.3752 121.602 83.4083C133.919 83.4413 144.062 75.1585 144.062 64.9165C144.062 54.6745 133.919 46.5983 121.602 46.8711C109.484 47.1439 99.804 55.4185 99.804 65.3546Z" fill="url(#paint45_linear_0_1)"/>
<path d="M99.804 65.3546C99.804 75.299 109.484 83.3752 121.602 83.4083C133.919 83.4413 144.062 75.1585 144.062 64.9165C144.062 54.6745 133.919 46.5983 121.602 46.8711C109.484 47.1439 99.804 55.4185 99.804 65.3546Z" fill="url(#paint46_linear_0_1)"/>
<path d="M112.261 80.606C110.327 81.5731 108.31 82.5403 106.227 83.4992C104.499 84.2927 102.796 85.0367 101.127 85.7476C101.184 84.0365 101.457 81.6641 102.358 78.9775C103.325 76.1091 104.656 73.9433 105.698 72.5132L112.261 80.606Z" fill="url(#paint47_linear_0_1)"/>
<g opacity="0.2">
<path d="M116.246 78.7626C118.899 73.3729 116.213 68.3635 119.808 64.8504C123.47 61.2628 128.265 64.5114 133.456 61.5521C135.473 60.4031 137.722 58.2125 139.4 53.7487C142.318 56.8155 144.062 60.6924 144.062 64.9165C144.062 75.1585 133.919 83.4413 121.602 83.4082C118.808 83.4 116.146 82.9701 113.708 82.1848C114.907 81.0441 115.7 79.8703 116.246 78.7626Z" fill="url(#paint48_linear_0_1)"/>
</g>
<g opacity="0.9">
<path d="M138.308 59.3533C138.308 60.0559 137.755 60.6097 137.06 60.6097H107.202C106.516 60.6097 105.954 60.0642 105.954 59.3533C105.954 58.6506 106.508 58.0968 107.202 58.0968H137.06C137.755 58.0968 138.308 58.6506 138.308 59.3533Z" fill="white"/>
<path d="M138.308 65.3959C138.308 66.0986 137.755 66.5367 137.06 66.5367H107.202C106.516 66.5367 105.954 66.0986 105.954 65.3959C105.954 64.6933 106.508 64.2552 107.202 64.2552H137.06C137.755 64.2552 138.308 64.685 138.308 65.3959Z" fill="white"/>
<path d="M131.836 71.5461C131.836 72.2487 131.282 72.91 130.588 72.91H107.194C106.508 72.91 105.946 72.2487 105.946 71.5461C105.946 70.8434 106.5 70.1821 107.194 70.1821H130.588C131.282 70.1821 131.836 70.8434 131.836 71.5461Z" fill="white"/>
</g>
<path d="M85.9083 209.751C78.262 208.767 68.5573 206.188 64.6639 198.905C63.738 197.169 62.8039 193.805 65.1433 192.54C67.2843 191.383 70.0452 192.606 71.6324 194.111C72.7979 195.218 73.7155 197.69 75.0216 198.475C76.9394 199.624 77.9809 196.5 77.9396 195.21C77.8486 192.325 74.3024 191.151 71.9465 190.523C68.0365 189.482 63.4818 188.597 63.7298 184.183C63.9778 179.777 68.2763 177.132 71.5828 179.058C74.3107 180.645 73.9221 184.042 75.7821 186.076C77.4353 187.886 78.014 184.952 77.8982 183.513C77.6585 180.389 74.9141 178.132 72.8889 176.032C70.6074 173.668 68.0779 168.899 70.5164 165.774C71.9217 163.972 75.4762 163.55 77.5841 163.856C87.884 165.344 81.056 178.678 82.9324 180.166C84.8089 181.653 86.5779 179.05 86.5696 175.09C86.5613 171.13 87.1731 168.212 91.3062 169.477C95.4394 170.742 96.2247 181.091 91.5046 185.059C86.7845 189.035 91.8022 193.367 93.0669 190.523C93.9845 188.465 94.7863 183.084 97.4316 182.488C101.838 181.505 101.771 190.498 100.507 192.59C98.7294 195.524 94.7119 196.161 92.4718 198.69C91.8187 199.426 90.3473 201.245 90.9177 202.319C91.7113 203.815 93.9432 202.212 94.7533 201.517C96.5884 199.955 99.1344 194.648 101.722 198.17C104.913 202.534 99.5725 208.982 85.9083 209.751Z" fill="url(#paint49_linear_0_1)"/>
<g opacity="0.8">
<path d="M84.8089 208.982C84.9908 208.982 85.1396 208.833 85.1396 208.66C85.1396 208.502 85.3545 192.821 78.51 174.172C78.4439 173.999 78.2537 173.916 78.0884 173.974C77.9148 174.04 77.8322 174.23 77.89 174.396C84.6932 192.929 84.4866 208.486 84.4783 208.643C84.47 208.825 84.6188 208.982 84.8089 208.982C84.8007 208.982 84.8007 208.982 84.8089 208.982Z" fill="white"/>
</g>
<path d="M81.9901 203.047C83.2301 201.989 85.867 203.642 86.9582 204.27C87.5947 204.634 88.4627 205.196 89.2232 204.865C90.025 204.526 89.9671 203.683 89.4877 203.088C88.6197 202.022 86.9582 201.724 85.743 201.203C84.4452 200.641 83.2466 199.881 82.6101 198.575C82.0976 197.525 81.9819 195.979 82.5605 194.954C84.1559 192.102 86.4705 194.326 87.7683 196.029C88.3965 196.855 89.8018 198.277 90.8764 197.302C92.0089 196.268 91.0335 194.425 90.1573 193.607C89.0082 192.54 87.6112 191.804 86.3547 190.879C85.2223 190.044 84.065 188.853 84.8172 187.374C85.3959 186.233 86.859 185.596 88.1155 185.696C91.0087 185.919 91.4551 190.135 93.3563 191.755C94.0259 192.325 95.5552 192.78 96.3653 192.218C97.1836 191.647 96.6546 190.333 96.357 189.622C95.489 187.506 89.2314 180.397 94.4144 179.504C95.7205 179.281 97.5143 179.686 98.5393 180.521C100.474 182.083 101.499 185.183 102.011 187.531C102.813 191.226 102.763 195.334 101.871 199.013C99.895 207.139 95.2493 209.751 95.2493 209.751C93.2406 210.412 90.7276 210.734 88.6445 210.296C86.1977 209.775 83.2714 207.965 82.0563 205.708C81.6595 204.973 81.2214 203.7 81.9901 203.047Z" fill="url(#paint50_linear_0_1)"/>
<defs>
<linearGradient id="paint0_linear_0_1" x1="206.001" y1="121.028" x2="36.7064" y2="120.645" gradientUnits="userSpaceOnUse">
<stop stop-color="#444B8C"/>
<stop offset="0.9964" stop-color="#26264F"/>
</linearGradient>
<linearGradient id="paint1_linear_0_1" x1="46.9955" y1="120.455" x2="123.12" y2="120.455" gradientUnits="userSpaceOnUse">
<stop stop-color="#444B8C"/>
<stop offset="0.9964" stop-color="#26264F"/>
</linearGradient>
<linearGradient id="paint2_linear_0_1" x1="64.2226" y1="155.811" x2="70.6782" y2="147.399" gradientUnits="userSpaceOnUse">
<stop stop-color="#311944"/>
<stop offset="1" stop-color="#893976"/>
</linearGradient>
<linearGradient id="paint3_linear_0_1" x1="79.557" y1="137.185" x2="72.2107" y2="117.711" gradientUnits="userSpaceOnUse">
<stop stop-color="#311944"/>
<stop offset="1" stop-color="#893976"/>
</linearGradient>
<linearGradient id="paint4_linear_0_1" x1="83.843" y1="140.042" x2="83.9614" y2="150.109" gradientUnits="userSpaceOnUse">
<stop stop-color="#311944"/>
<stop offset="1" stop-color="#893976"/>
</linearGradient>
<linearGradient id="paint5_linear_0_1" x1="95.237" y1="82.39" x2="32.1892" y2="125.215" gradientUnits="userSpaceOnUse">
<stop stop-color="#311944"/>
<stop offset="1" stop-color="#6B3976"/>
</linearGradient>
<linearGradient id="paint6_linear_0_1" x1="95.6985" y1="105.041" x2="96.9512" y2="125.172" gradientUnits="userSpaceOnUse">
<stop stop-color="#AA80F9"/>
<stop offset="0.9964" stop-color="#6165D7"/>
</linearGradient>
<linearGradient id="paint7_linear_0_1" x1="118.962" y1="167.457" x2="111.97" y2="167.457" gradientUnits="userSpaceOnUse">
<stop stop-color="#311944"/>
<stop offset="1" stop-color="#6B3976"/>
</linearGradient>
<linearGradient id="paint8_linear_0_1" x1="115.509" y1="169.899" x2="106.137" y2="141.784" gradientUnits="userSpaceOnUse">
<stop stop-color="#FFC444"/>
<stop offset="0.9964" stop-color="#F36F56"/>
</linearGradient>
<linearGradient id="paint9_linear_0_1" x1="117.863" y1="154.135" x2="113.591" y2="154.135" gradientUnits="userSpaceOnUse">
<stop stop-color="#311944"/>
<stop offset="1" stop-color="#6B3976"/>
</linearGradient>
<linearGradient id="paint10_linear_0_1" x1="120.24" y1="165.563" x2="113.439" y2="145.159" gradientUnits="userSpaceOnUse">
<stop stop-color="#FFC444"/>
<stop offset="0.9964" stop-color="#F36F56"/>
</linearGradient>
<linearGradient id="paint11_linear_0_1" x1="111.603" y1="130.633" x2="106.379" y2="160.836" gradientUnits="userSpaceOnUse">
<stop stop-color="#AB316D"/>
<stop offset="1" stop-color="#792D3D"/>
</linearGradient>
<linearGradient id="paint12_linear_0_1" x1="102.504" y1="167.53" x2="95.1912" y2="144.387" gradientUnits="userSpaceOnUse">
<stop stop-color="#AB316D"/>
<stop offset="1" stop-color="#792D3D"/>
</linearGradient>
<linearGradient id="paint13_linear_0_1" x1="102.035" y1="166.045" x2="94.9684" y2="143.679" gradientUnits="userSpaceOnUse">
<stop stop-color="#AB316D"/>
<stop offset="1" stop-color="#792D3D"/>
</linearGradient>
<linearGradient id="paint14_linear_0_1" x1="92.4182" y1="127.955" x2="85.9" y2="165.639" gradientUnits="userSpaceOnUse">
<stop stop-color="#AB316D"/>
<stop offset="1" stop-color="#792D3D"/>
</linearGradient>
<linearGradient id="paint15_linear_0_1" x1="101.406" y1="108.508" x2="48.4327" y2="127.907" gradientUnits="userSpaceOnUse">
<stop stop-color="#AA80F9"/>
<stop offset="0.9964" stop-color="#6165D7"/>
</linearGradient>
<linearGradient id="paint16_linear_0_1" x1="76.3507" y1="122.046" x2="108.418" y2="133.789" gradientUnits="userSpaceOnUse">
<stop stop-color="#AA80F9"/>
<stop offset="0.9964" stop-color="#6165D7"/>
</linearGradient>
<linearGradient id="paint17_linear_0_1" x1="83.6599" y1="108.238" x2="87.0334" y2="92.9274" gradientUnits="userSpaceOnUse">
<stop stop-color="#FFC444"/>
<stop offset="0.9964" stop-color="#F36F56"/>
</linearGradient>
<linearGradient id="paint18_linear_0_1" x1="86.0297" y1="94.5234" x2="82.1807" y2="114.349" gradientUnits="userSpaceOnUse">
<stop stop-color="#FFC444"/>
<stop offset="0.9964" stop-color="#F36F56"/>
</linearGradient>
<linearGradient id="paint19_linear_0_1" x1="69.3435" y1="108.939" x2="73.2848" y2="130.809" gradientUnits="userSpaceOnUse">
<stop stop-color="#AA80F9"/>
<stop offset="0.9964" stop-color="#6165D7"/>
</linearGradient>
<linearGradient id="paint20_linear_0_1" x1="108.116" y1="118.386" x2="86.8603" y2="118.386" gradientUnits="userSpaceOnUse">
<stop stop-color="#40447E"/>
<stop offset="0.9964" stop-color="#3C3B6B"/>
</linearGradient>
<linearGradient id="paint21_linear_0_1" x1="88.9211" y1="124.524" x2="80.8537" y2="132.126" gradientUnits="userSpaceOnUse">
<stop stop-color="#FFC444"/>
<stop offset="0.9964" stop-color="#F36F56"/>
</linearGradient>
<linearGradient id="paint22_linear_0_1" x1="198.591" y1="174.09" x2="203.115" y2="174.09" gradientUnits="userSpaceOnUse">
<stop stop-color="#444B8C"/>
<stop offset="0.9964" stop-color="#26264F"/>
</linearGradient>
<linearGradient id="paint23_linear_0_1" x1="135.48" y1="200.103" x2="140.322" y2="200.103" gradientUnits="userSpaceOnUse">
<stop stop-color="#444B8C"/>
<stop offset="0.9964" stop-color="#26264F"/>
</linearGradient>
<linearGradient id="paint24_linear_0_1" x1="85.715" y1="194.222" x2="90.5565" y2="194.222" gradientUnits="userSpaceOnUse">
<stop stop-color="#444B8C"/>
<stop offset="0.9964" stop-color="#26264F"/>
</linearGradient>
<linearGradient id="paint25_linear_0_1" x1="119.646" y1="161.694" x2="217.696" y2="161.694" gradientUnits="userSpaceOnUse">
<stop stop-color="#AA80F9"/>
<stop offset="0.9964" stop-color="#6165D7"/>
</linearGradient>
<linearGradient id="paint26_linear_0_1" x1="198.662" y1="176.088" x2="82.5928" y2="176.088" gradientUnits="userSpaceOnUse">
<stop stop-color="#AA80F9"/>
<stop offset="0.9964" stop-color="#6165D7"/>
</linearGradient>
<linearGradient id="paint27_linear_0_1" x1="216.306" y1="143.874" x2="153.35" y2="143.874" gradientUnits="userSpaceOnUse">
<stop stop-color="#AA80F9"/>
<stop offset="0.9964" stop-color="#6165D7"/>
</linearGradient>
<linearGradient id="paint28_linear_0_1" x1="124.85" y1="180.046" x2="118.164" y2="180.046" gradientUnits="userSpaceOnUse">
<stop stop-color="#311944"/>
<stop offset="1" stop-color="#6B3976"/>
</linearGradient>
<linearGradient id="paint29_linear_0_1" x1="126.171" y1="182.354" x2="119.799" y2="182.354" gradientUnits="userSpaceOnUse">
<stop stop-color="#311944"/>
<stop offset="1" stop-color="#6B3976"/>
</linearGradient>
<linearGradient id="paint30_linear_0_1" x1="165.161" y1="165.202" x2="122.663" y2="165.202" gradientUnits="userSpaceOnUse">
<stop stop-color="#311944"/>
<stop offset="1" stop-color="#6B3976"/>
</linearGradient>
<linearGradient id="paint31_linear_0_1" x1="148.482" y1="180.497" x2="144.838" y2="160.229" gradientUnits="userSpaceOnUse">
<stop stop-color="#311944"/>
<stop offset="1" stop-color="#6B3976"/>
</linearGradient>
<linearGradient id="paint32_linear_0_1" x1="153.956" y1="130.93" x2="165.646" y2="155.07" gradientUnits="userSpaceOnUse">
<stop stop-color="#FF9085"/>
<stop offset="1" stop-color="#FB6FBB"/>
</linearGradient>
<linearGradient id="paint33_linear_0_1" x1="138.051" y1="133.247" x2="140.177" y2="101.06" gradientUnits="userSpaceOnUse">
<stop stop-color="#FFC444"/>
<stop offset="0.9964" stop-color="#F36F56"/>
</linearGradient>
<linearGradient id="paint34_linear_0_1" x1="164.176" y1="125.98" x2="175.867" y2="150.12" gradientUnits="userSpaceOnUse">
<stop stop-color="#FF9085"/>
<stop offset="1" stop-color="#FB6FBB"/>
</linearGradient>
<linearGradient id="paint35_linear_0_1" x1="174.227" y1="135.636" x2="176.352" y2="103.449" gradientUnits="userSpaceOnUse">
<stop stop-color="#FFC444"/>
<stop offset="0.9964" stop-color="#F36F56"/>
</linearGradient>
<linearGradient id="paint36_linear_0_1" x1="163.872" y1="126.128" x2="175.562" y2="150.268" gradientUnits="userSpaceOnUse">
<stop stop-color="#FF9085"/>
<stop offset="1" stop-color="#FB6FBB"/>
</linearGradient>
<linearGradient id="paint37_linear_0_1" x1="172.708" y1="145.743" x2="195.33" y2="143.921" gradientUnits="userSpaceOnUse">
<stop stop-color="#FF9085"/>
<stop offset="1" stop-color="#FB6FBB"/>
</linearGradient>
<linearGradient id="paint38_linear_0_1" x1="174.608" y1="133.772" x2="181.305" y2="119.829" gradientUnits="userSpaceOnUse">
<stop stop-color="#FFC444"/>
<stop offset="0.9964" stop-color="#F36F56"/>
</linearGradient>
<linearGradient id="paint39_linear_0_1" x1="180.575" y1="129.033" x2="177.016" y2="118.363" gradientUnits="userSpaceOnUse">
<stop stop-color="#311944"/>
<stop offset="1" stop-color="#6B3976"/>
</linearGradient>
<linearGradient id="paint40_linear_0_1" x1="177.924" y1="121.424" x2="176.515" y2="135.22" gradientUnits="userSpaceOnUse">
<stop stop-color="#FFC444"/>
<stop offset="0.9964" stop-color="#F36F56"/>
</linearGradient>
<linearGradient id="paint41_linear_0_1" x1="161.631" y1="95.2263" x2="115.131" y2="169.763" gradientUnits="userSpaceOnUse">
<stop offset="0.00359712" stop-color="#E38DDD"/>
<stop offset="1" stop-color="#9571F6"/>
</linearGradient>
<linearGradient id="paint42_linear_0_1" x1="131.668" y1="51.6342" x2="101.455" y2="107.671" gradientUnits="userSpaceOnUse">
<stop stop-color="#311944"/>
<stop offset="1" stop-color="#893976"/>
</linearGradient>
<linearGradient id="paint43_linear_0_1" x1="131.668" y1="51.6342" x2="101.455" y2="107.671" gradientUnits="userSpaceOnUse">
<stop stop-color="#311944"/>
<stop offset="1" stop-color="#893976"/>
</linearGradient>
<linearGradient id="paint44_linear_0_1" x1="135.083" y1="45.5678" x2="88.3285" y2="107.067" gradientUnits="userSpaceOnUse">
<stop stop-color="#311944"/>
<stop offset="1" stop-color="#893976"/>
</linearGradient>
<linearGradient id="paint45_linear_0_1" x1="130.11" y1="49.9814" x2="99.8969" y2="106.018" gradientUnits="userSpaceOnUse">
<stop stop-color="#FF9085"/>
<stop offset="1" stop-color="#FB6FBB"/>
</linearGradient>
<linearGradient id="paint46_linear_0_1" x1="130.11" y1="49.9814" x2="99.8969" y2="106.018" gradientUnits="userSpaceOnUse">
<stop stop-color="#FF9085"/>
<stop offset="1" stop-color="#FB6FBB"/>
</linearGradient>
<linearGradient id="paint47_linear_0_1" x1="132.757" y1="45.2842" x2="87.8383" y2="104.37" gradientUnits="userSpaceOnUse">
<stop stop-color="#FF9085"/>
<stop offset="1" stop-color="#FB6FBB"/>
</linearGradient>
<linearGradient id="paint48_linear_0_1" x1="138.481" y1="53.1763" x2="108.755" y2="112.829" gradientUnits="userSpaceOnUse">
<stop stop-color="#FF9085"/>
<stop offset="1" stop-color="#FB6FBB"/>
</linearGradient>
<linearGradient id="paint49_linear_0_1" x1="76.5112" y1="145.538" x2="96.208" y2="298.029" gradientUnits="userSpaceOnUse">
<stop stop-color="#FF9085"/>
<stop offset="1" stop-color="#FB6FBB"/>
</linearGradient>
<linearGradient id="paint50_linear_0_1" x1="99.0724" y1="166.058" x2="81.5227" y2="244.461" gradientUnits="userSpaceOnUse">
<stop stop-color="#FFC444"/>
<stop offset="0.9964" stop-color="#F36F56"/>
</linearGradient>
</defs>
</svg>
