<svg width="361" height="310" viewBox="0 0 361 310" fill="none" xmlns="http://www.w3.org/2000/svg">
<g opacity="0.6">
<path d="M222.68 158.57C221.498 159.791 219.724 160.073 218.289 159.133C214.32 156.691 213.476 150.773 216.516 147.203" fill="#ACC9C5"/>
</g>
<g opacity="0.5">
<path d="M254.6 185.342C252.911 174.727 255.107 169.467 255.191 169.185L255.867 169.561C255.867 169.655 253.671 174.915 255.36 185.248L254.6 185.342Z" fill="#68A1BF"/>
<path d="M250.885 192.858C251.476 188.348 254.769 184.027 260.427 180.364C264.649 177.639 268.702 176.136 268.787 176.136L269.04 176.888C268.871 176.982 252.996 182.712 251.645 192.951L250.885 192.858Z" fill="#68A1BF"/>
</g>
<path d="M261.693 203.003L93.2266 200.842C89.5955 200.842 86.7244 197.555 86.7244 193.515V79.097C86.7244 75.0576 89.5955 71.8636 93.2266 71.7697L259.582 68.9515C263.213 68.8576 266.169 72.0515 266.253 76.0909L268.449 195.488C268.364 199.715 265.409 203.097 261.693 203.003Z" fill="#4C274E"/>
<path d="M173.364 66.0394H170.071V71.3H173.364V66.0394Z" fill="#331832"/>
<path d="M177.502 63.3151C177.502 59.9333 175.053 57.1151 171.929 57.1151C168.889 57.1151 166.356 59.8394 166.356 63.3151C166.356 66.7909 168.804 69.5151 171.929 69.5151C174.969 69.5151 177.502 66.7909 177.502 63.3151Z" fill="#331832"/>
<path d="M174.716 63.3151C174.716 61.1545 173.111 59.4636 171.253 59.4636C169.311 59.4636 167.791 61.2485 167.791 63.3151C167.791 65.4757 169.396 67.1667 171.253 67.1667C173.111 67.2606 174.716 65.4757 174.716 63.3151Z" fill="#5C305D"/>
<path d="M172.375 63.205C173.019 63.0887 173.457 62.4131 173.352 61.6962C173.248 60.9792 172.641 60.4923 171.996 60.6086C171.352 60.725 170.914 61.4006 171.018 62.1175C171.123 62.8345 171.73 63.3214 172.375 63.205Z" fill="#CCD39C"/>
<path d="M198.276 186.188V228.836C198.276 229.494 197.769 230.152 197.093 230.152H185.102H181.556V221.039C181.556 221.039 187.889 216.248 188.311 216.061C188.733 215.967 193.631 186.188 193.631 186.188H198.276Z" fill="#4C274E"/>
<path d="M196.249 186.188V213.712C196.249 220.852 191.942 226.676 186.707 226.676H185.102C184.933 226.676 184.849 226.676 184.68 226.77C184.427 226.864 184.173 227.051 183.92 227.239C183.667 227.521 183.413 227.991 183.413 228.461C183.413 229.306 183.92 229.964 184.596 230.152C184.764 230.152 184.849 230.245 185.018 230.245H135.533V226.676H137.56C142.796 226.676 147.102 220.852 147.102 213.712V186.188H196.249Z" fill="#5C305D"/>
<path d="M184.764 230.058C184.933 230.058 185.018 230.152 185.187 230.152H135.956C135.787 230.152 135.702 230.151 135.533 230.058C134.858 229.87 134.351 229.212 134.351 228.367C134.351 227.897 134.52 227.427 134.858 227.145C135.027 226.958 135.28 226.77 135.618 226.676C135.787 226.676 135.871 226.582 136.04 226.582H185.271C185.102 226.582 185.018 226.582 184.849 226.676C184.596 226.77 184.342 226.958 184.089 227.145C183.836 227.427 183.582 227.897 183.582 228.367C183.582 229.118 184.089 229.87 184.764 230.058Z" fill="#331832"/>
<path d="M256.796 203.003L88.3289 200.842C84.6978 200.842 81.8267 197.555 81.8267 193.515V79.097C81.8267 75.0576 84.6978 71.8636 88.3289 71.7697L254.684 68.9515C258.316 68.8576 261.271 72.0515 261.356 76.0909L263.551 195.488C263.551 199.715 260.511 203.097 256.796 203.003Z" fill="#764678"/>
<path d="M235.938 180.364H107.076C96.7734 180.364 88.3289 171.064 88.3289 159.509V101.361C88.3289 89.9 96.6889 80.506 107.076 80.506H235.938C246.24 80.506 254.684 89.806 254.684 101.361V159.509C254.684 170.97 246.24 180.364 235.938 180.364Z" fill="#ACC9C5"/>
<path d="M187.889 146.921C190.676 143.445 191.351 141.661 194.813 135.085C200.724 123.906 205.031 117.048 207.396 113.573C207.396 113.573 201.4 102.676 199.711 104.179C195.236 108.312 183.16 123.342 183.16 123.342C175.56 130.106 185.947 149.458 187.889 146.921Z" fill="#FFB27D"/>
<path d="M197.516 108.406C200.049 101.83 203.68 101.736 205.622 102.018C207.48 102.394 208.24 95.8182 210.436 95.3485C212.631 94.8788 209.675 102.3 209.675 102.3C209.675 102.3 212.124 96.5697 214.067 96.1939C216.009 95.8182 211.787 104.742 211.787 104.742C211.787 104.742 215.164 98.5424 217.107 98.8242C219.049 99.1061 214.996 106.245 214.996 106.245C214.996 106.245 217.022 102.958 219.049 101.079C221.076 99.1061 220.231 106.058 217.613 109.721C215.08 113.385 207.396 113.667 207.396 113.667L197.516 108.406Z" fill="#FFB27D"/>
<path d="M212.716 108.594C212.631 108.5 212.716 108.406 212.8 108.406C213.982 108.218 214.827 106.058 214.827 106.058C214.827 105.964 214.911 105.964 214.996 105.964C215.08 105.964 215.08 106.058 215.08 106.151C215.08 106.245 214.151 108.5 212.8 108.782C212.884 108.782 212.884 108.782 212.8 108.782C212.8 108.782 212.716 108.688 212.716 108.594Z" fill="#E9845C"/>
<path d="M209 107.655C209 107.561 209 107.467 209.084 107.467C210.773 106.715 211.618 104.555 211.618 104.555C211.618 104.461 211.702 104.461 211.787 104.461C211.871 104.461 211.871 104.555 211.871 104.648C211.871 104.742 211.027 106.903 209.169 107.748C209.084 107.748 209.084 107.655 209 107.655Z" fill="#E9845C"/>
<path d="M206.551 106.058C206.551 105.964 206.636 105.87 206.72 105.87C207.987 105.682 209 103.145 209 103.145C209 103.052 209.084 103.052 209.169 103.052C209.253 103.052 209.253 103.145 209.253 103.239C209.169 103.333 208.156 105.964 206.636 106.152C206.551 106.152 206.467 106.058 206.551 106.058Z" fill="#E9845C"/>
<path d="M205.707 124.188C205.707 124.188 194.644 146.639 187.889 146.921C184.173 147.109 177.418 135.555 177.418 135.555L178.009 118.27C183.413 122.779 197.009 106.903 197.009 106.903C195.995 117.33 205.707 124.188 205.707 124.188Z" fill="#E3EEEC"/>
<path d="M115.689 150.961C115.689 150.679 115.689 150.397 115.689 150.115C116.28 138.373 117.378 125.973 119.489 116.391C119.658 115.639 119.827 114.888 119.996 114.136C120.08 113.761 120.164 113.479 120.249 113.103C120.587 111.788 120.924 110.661 121.347 109.533C121.347 109.533 124.471 99.8576 134.351 96.006C134.604 95.9121 134.942 95.8182 135.196 95.7242C135.956 95.4424 136.716 95.2545 137.56 95.0666C139.587 94.5969 141.782 94.4091 144.316 94.503C145.329 94.503 146.342 94.6909 147.356 94.8788C147.947 95.0666 148.453 95.1606 149.044 95.3485C149.973 95.6303 150.818 96.006 151.747 96.4757C152 96.6636 152.338 96.7576 152.591 96.9454C155.293 98.4485 157.911 100.609 160.276 103.615C163.484 107.561 166.356 112.821 168.889 119.491C169.649 121.37 170.324 123.436 171 125.597C173.111 132.455 174.8 140.439 176.236 149.551C177.164 155.939 178.009 162.985 178.6 170.688C178.769 172.942 178.938 175.291 179.107 177.733C179.107 177.733 177.756 179.142 175.053 181.021H115.182C115.098 174.258 115.013 162.985 115.689 150.961Z" fill="#6DA49A"/>
<path d="M136.378 94.6909C138.996 94.4091 141.613 94.3151 144.316 94.503C145.92 94.6909 149.636 95.2545 151.071 95.5363C166.693 98.6363 173.871 122.873 165.173 124.658C156.476 126.442 121.431 117.612 121.431 117.612L109.778 110.379C109.778 110.379 114.253 97.4151 136.378 94.6909Z" fill="#6DA49A"/>
<path d="M156.56 90.7454C156.56 90.7454 158.84 90.0879 159.515 88.3969C159.853 87.5515 159.684 86.5182 159.009 85.297C158.671 84.7333 158.418 84.2636 158.164 83.7939C156.391 80.6 155.716 79.4727 156.222 76.8424H156.391C155.969 79.3788 156.56 80.4121 158.333 83.606C158.587 84.0757 158.84 84.5454 159.178 85.1091C159.853 86.4242 160.022 87.5515 159.684 88.4909C159.009 90.3697 156.644 91.0273 156.56 91.0273V90.7454Z" fill="#EF8062"/>
<path d="M145.836 91.2151C149.973 93.7515 151.156 89.1485 154.449 90.7454C157.742 92.3424 160.276 89.3363 157.911 85.1091C155.547 80.9757 156.307 76.9363 156.307 76.9363C156.307 76.9363 141.698 88.5848 145.836 91.2151Z" fill="#EF8062"/>
<path d="M137.222 94.5969C139.08 97.9788 144.4 100.797 147.609 99.6697C150.396 98.6363 149.467 96.1939 148.791 94.9727C147.524 94.6909 146.68 93.4697 146.764 92.0606L146.849 90.3697L147.271 84.2636L147.947 74.1182L144.147 83.8879L143.471 85.5788L141.276 91.3091C140.516 93.0939 138.996 94.4091 137.222 94.5969Z" fill="#FFB27D"/>
<path d="M144.147 83.8879C144.907 83.5121 146.342 83.8879 147.271 84.2636L146.849 90.3697C146.849 90.3697 143.724 88.8667 143.471 85.5788C143.471 85.4848 143.471 85.4849 143.471 85.3909C143.471 84.5455 143.724 84.0758 144.147 83.8879Z" fill="#331832"/>
<path d="M148.284 87.4576C152.995 87.4576 156.813 82.2003 156.813 75.7151C156.813 69.23 152.995 63.9727 148.284 63.9727C143.574 63.9727 139.756 69.23 139.756 75.7151C139.756 82.2003 143.574 87.4576 148.284 87.4576Z" fill="#FFB27D"/>
<path d="M143.73 77.9523C144.532 77.1591 144.453 75.6049 143.554 74.4809C142.655 73.3568 141.276 73.0886 140.475 73.8817C139.674 74.6749 139.753 76.2291 140.652 77.3532C141.551 78.4772 142.929 78.7455 143.73 77.9523Z" fill="#FFB27D"/>
<path d="M149.044 75.8091C148.96 75.8091 147.862 75.7151 146.933 76.3727C146.849 76.4667 146.764 76.4667 146.68 76.3727C146.596 76.2788 146.596 76.1848 146.68 76.0909C147.862 74.6818 149.129 75.4333 149.213 75.4333C149.298 75.4333 149.298 75.6212 149.298 75.7151C149.213 75.7151 149.213 75.8091 149.129 75.8091H149.044Z" fill="#080435"/>
<path d="M148.284 77.3121C148.622 77.3121 148.876 77.6879 148.876 78.2515C148.791 78.8151 148.538 79.1909 148.2 79.1909C147.862 79.1909 147.609 78.8151 147.609 78.2515C147.609 77.6879 147.947 77.3121 148.284 77.3121Z" fill="#080435"/>
<path d="M156.053 76.8424C156.053 76.8424 155.04 76.1848 153.942 76.4666C153.858 76.4666 153.773 76.4667 153.689 76.3727C153.604 76.2788 153.689 76.1848 153.773 76.0909C155.293 75.2454 156.222 76.4666 156.307 76.5606C156.391 76.6545 156.391 76.7485 156.307 76.8424C156.222 76.9363 156.222 76.9363 156.138 76.9363C156.053 76.9363 156.053 76.9363 156.053 76.8424Z" fill="#080435"/>
<path d="M154.787 77.9697C155.124 78.1576 155.209 78.6273 155.04 79.0969C154.787 79.5666 154.449 79.8485 154.111 79.6606C153.773 79.4727 153.689 79.003 153.858 78.5333C154.027 78.0636 154.449 77.7818 154.787 77.9697Z" fill="#080435"/>
<path d="M156.898 73.9303C156.898 73.9303 162.471 60.403 147.271 59.8394C132.156 59.2757 133.76 72.7091 129.707 77.7818C125.653 82.8545 126.667 91.5909 132.578 90.2757C138.404 89.0545 137.307 94.503 142.711 91.5909C148.2 88.5848 140.769 80.9757 140.178 77.3121C139.502 73.6485 142.711 71.5818 147.271 70.8303C151.831 70.0788 152 66.0394 152 66.0394C151.916 70.5485 156.898 73.9303 156.898 73.9303Z" fill="#EF8062"/>
<path d="M141.107 92.2485C142.204 91.7788 142.88 91.0273 143.133 90.0879C143.724 87.3636 140.938 83.3242 138.404 79.6606C137.729 78.7212 137.138 77.7818 136.547 76.9364C135.027 74.4939 134.858 71.6758 136.209 69.4212C137.729 66.9788 140.516 65.9454 143.556 66.697C148.031 67.9182 150.733 65.6636 151.578 64.3485L151.662 64.4424C150.818 65.8515 148.031 68.1061 143.471 66.8848C140.516 66.0394 137.729 67.0727 136.293 69.5151C134.942 71.6758 135.111 74.4 136.631 76.8424C137.222 77.6879 137.813 78.6273 138.489 79.5667C141.022 83.2303 143.893 87.3636 143.218 90.0879C142.964 91.0273 142.289 91.8727 141.107 92.2485Z" fill="white"/>
<path d="M152.253 78.6272C152.253 78.7212 152.253 78.7212 152.253 78.8151C152.253 78.9091 152.253 78.9091 152.253 79.003C152.253 79.003 152.253 79.0969 152.253 79.1909C152.253 79.3788 152.253 79.4727 152.253 79.5666C152.253 79.6606 152.253 79.7545 152.253 79.8485C152.338 79.9424 152.338 80.0363 152.338 80.1303C152.422 80.2242 152.422 80.3182 152.422 80.4121C152.422 80.6939 152.507 80.8818 152.591 81.1636H152.676C152.591 80.7879 152.507 80.4121 152.507 80.0363C152.422 79.1909 152.422 78.1575 152.591 77.1242L152.422 77.0303L152.338 76.9363C152.338 77.0303 152.338 77.2182 152.338 77.3121C152.338 77.406 152.338 77.5 152.338 77.5939C152.338 77.8757 152.338 78.2515 152.253 78.6272ZM152.253 78.6272C152.253 78.7212 152.253 78.7212 152.253 78.8151C152.253 78.9091 152.253 78.9091 152.253 79.003C152.253 79.003 152.253 79.0969 152.253 79.1909C152.253 79.3788 152.253 79.4727 152.253 79.5666C152.253 79.6606 152.253 79.7545 152.253 79.8485C152.338 79.9424 152.338 80.0363 152.338 80.1303C152.422 80.2242 152.422 80.3182 152.422 80.4121C152.422 80.6939 152.507 80.8818 152.591 81.1636H152.676C152.591 80.7879 152.507 80.4121 152.507 80.0363C152.422 79.1909 152.422 78.1575 152.591 77.1242L152.422 77.0303L152.338 76.9363C152.338 77.0303 152.338 77.2182 152.338 77.3121C152.338 77.406 152.338 77.5 152.338 77.5939C152.338 77.8757 152.338 78.2515 152.253 78.6272ZM152.253 78.6272C152.253 78.7212 152.253 78.7212 152.253 78.8151C152.253 78.9091 152.253 78.9091 152.253 79.003C152.253 79.003 152.253 79.0969 152.253 79.1909C152.253 79.3788 152.253 79.4727 152.253 79.5666C152.253 79.6606 152.253 79.7545 152.253 79.8485C152.338 79.9424 152.338 80.0363 152.338 80.1303C152.422 80.2242 152.422 80.3182 152.422 80.4121C152.422 80.6939 152.507 80.8818 152.591 81.1636H152.676C152.591 80.7879 152.507 80.4121 152.507 80.0363C152.422 79.1909 152.422 78.1575 152.591 77.1242L152.422 77.0303L152.338 76.9363C152.338 77.0303 152.338 77.2182 152.338 77.3121C152.338 77.406 152.338 77.5 152.338 77.5939C152.338 77.8757 152.338 78.2515 152.253 78.6272ZM152.084 78.8151C152.084 79.3788 152.084 79.8485 152.169 80.3182C152.253 80.6 152.253 80.8818 152.338 81.1636C152.676 82.5727 153.267 83.7 154.111 84.2636C154.533 84.5454 154.956 84.6394 155.378 84.6394C155.716 84.6394 155.969 84.5454 156.307 84.4515C156.56 84.2636 156.898 84.0757 157.151 83.8879C157.404 83.7 157.573 83.5121 157.827 83.2303C158.249 82.6666 158.671 82.0091 159.009 81.1636C159.178 80.8818 159.262 80.506 159.347 80.2242C160.36 76.7485 159.684 72.8969 157.827 71.6757C157.742 71.5818 157.573 71.5818 157.489 71.4879C157.067 71.3 156.644 71.206 156.222 71.3C156.053 71.3939 155.8 71.3939 155.631 71.4879C155.378 71.5818 155.209 71.6757 154.956 71.8636C154.787 71.9576 154.702 72.0515 154.618 72.1454C153.773 72.8969 153.013 74.1182 152.591 75.7151C152.591 75.8091 152.507 75.9969 152.507 76.0909C152.422 76.2788 152.422 76.5606 152.338 76.8424C152.253 77.5 152.169 78.2515 152.084 78.8151ZM159.347 79.1909C159.262 79.5666 159.178 79.8485 159.178 80.1303C159.093 80.506 159.009 80.8818 158.84 81.1636C158.502 81.8212 158.164 82.3848 157.827 82.8545C157.658 83.1363 157.489 83.3242 157.236 83.5121C156.982 83.7939 156.644 83.9818 156.391 84.0757C155.716 84.2636 155.124 84.2636 154.533 83.8879C154.449 83.8879 154.449 83.8879 154.449 83.8879C153.689 83.3242 153.098 82.3848 152.844 81.1636C152.76 80.7879 152.676 80.4121 152.676 80.0363C152.591 79.1909 152.591 78.1575 152.76 77.1242C152.844 76.8424 152.844 76.5606 152.929 76.2788C152.929 76.0909 152.929 75.9969 153.013 75.8091C153.436 74.306 154.111 73.0848 154.956 72.3333C155.209 72.0515 155.547 71.8636 155.8 71.7697C156.053 71.6757 156.222 71.5818 156.391 71.5818C156.56 71.5818 156.644 71.5818 156.729 71.5818C156.982 71.5818 157.236 71.6757 157.489 71.7697C157.573 71.8636 157.658 71.8636 157.742 71.9575C159.262 73.0848 159.938 76.1848 159.347 79.1909C159.262 79.1909 159.262 79.1909 159.347 79.1909ZM152.253 78.6272C152.253 78.7212 152.253 78.7212 152.253 78.8151C152.253 78.9091 152.253 78.9091 152.253 79.003C152.253 79.003 152.253 79.0969 152.253 79.1909C152.253 79.3788 152.253 79.4727 152.253 79.5666C152.253 79.6606 152.253 79.7545 152.253 79.8485C152.338 79.9424 152.338 80.0363 152.338 80.1303C152.422 80.2242 152.422 80.3182 152.422 80.4121C152.422 80.6939 152.507 80.8818 152.591 81.1636H152.676C152.591 80.7879 152.507 80.4121 152.507 80.0363C152.422 79.1909 152.422 78.1575 152.591 77.1242L152.422 77.0303L152.338 76.9363C152.338 77.0303 152.338 77.2182 152.338 77.3121C152.338 77.406 152.338 77.5 152.338 77.5939C152.338 77.8757 152.338 78.2515 152.253 78.6272ZM152.253 78.6272C152.253 78.7212 152.253 78.7212 152.253 78.8151C152.253 78.9091 152.253 78.9091 152.253 79.003C152.253 79.003 152.253 79.0969 152.253 79.1909C152.253 79.3788 152.253 79.4727 152.253 79.5666C152.253 79.6606 152.253 79.7545 152.253 79.8485C152.338 79.9424 152.338 80.0363 152.338 80.1303C152.422 80.2242 152.422 80.3182 152.422 80.4121C152.422 80.6939 152.507 80.8818 152.591 81.1636H152.676C152.591 80.7879 152.507 80.4121 152.507 80.0363C152.422 79.1909 152.422 78.1575 152.591 77.1242L152.422 77.0303L152.338 76.9363C152.338 77.0303 152.338 77.2182 152.338 77.3121C152.338 77.406 152.338 77.5 152.338 77.5939C152.338 77.8757 152.338 78.2515 152.253 78.6272ZM152.253 78.6272C152.253 78.7212 152.253 78.7212 152.253 78.8151C152.253 78.9091 152.253 78.9091 152.253 79.003C152.253 79.003 152.253 79.0969 152.253 79.1909C152.253 79.3788 152.253 79.4727 152.253 79.5666C152.253 79.6606 152.253 79.7545 152.253 79.8485C152.338 79.9424 152.338 80.0363 152.338 80.1303C152.422 80.2242 152.422 80.3182 152.422 80.4121C152.422 80.6939 152.507 80.8818 152.591 81.1636H152.676C152.591 80.7879 152.507 80.4121 152.507 80.0363C152.422 79.1909 152.422 78.1575 152.591 77.1242L152.422 77.0303L152.338 76.9363C152.338 77.0303 152.338 77.2182 152.338 77.3121C152.338 77.406 152.338 77.5 152.338 77.5939C152.338 77.8757 152.338 78.2515 152.253 78.6272Z" fill="#764678"/>
<g opacity="0.3">
<path d="M150.273 75.4685C150.317 71.9409 148.613 69.0547 146.468 69.022C144.323 68.9893 142.549 71.8224 142.505 75.35C142.462 78.8775 144.166 81.7637 146.311 81.7965C148.456 81.8292 150.23 78.9961 150.273 75.4685Z" fill="white"/>
</g>
<g opacity="0.3">
<path d="M159.39 78.0793C159.502 74.5016 158.006 71.5397 156.048 71.4638C154.091 71.3878 152.413 74.2265 152.301 77.8041C152.188 81.3818 153.684 84.3437 155.642 84.4196C157.6 84.4956 159.278 81.6569 159.39 78.0793Z" fill="white"/>
</g>
<path d="M147.862 81.1636H148.116L148.2 81.0697L148.284 80.9758L148.369 80.8818L148.453 80.7879C148.453 80.6939 148.538 80.6939 148.538 80.6939L148.622 80.6L148.707 80.5061C148.791 80.4121 148.791 80.4121 148.876 80.3182C148.622 80.6939 148.2 80.9758 147.862 81.1636ZM147.862 81.1636H148.116L148.2 81.0697L148.284 80.9758L148.369 80.8818L148.453 80.7879C148.453 80.6939 148.538 80.6939 148.538 80.6939L148.622 80.6L148.707 80.5061C148.791 80.4121 148.791 80.4121 148.876 80.3182C148.622 80.6939 148.2 80.9758 147.862 81.1636ZM147.862 81.1636H148.116L148.2 81.0697L148.284 80.9758L148.369 80.8818L148.453 80.7879C148.453 80.6939 148.538 80.6939 148.538 80.6939L148.622 80.6L148.707 80.5061C148.791 80.4121 148.791 80.4121 148.876 80.3182C148.622 80.6939 148.2 80.9758 147.862 81.1636ZM142.627 75.0576C142.627 76.2788 142.796 77.3121 143.133 78.3455C143.556 79.5667 144.147 80.5061 144.991 81.1636C145.076 81.2576 145.16 81.3515 145.329 81.4455C145.329 81.4455 145.413 81.5394 145.498 81.5394C145.92 81.8212 146.427 81.9151 146.849 81.9151C147.102 81.9151 147.356 81.9152 147.609 81.8212C147.778 81.7273 148.031 81.6333 148.2 81.5394C148.369 81.4455 148.538 81.2576 148.707 81.1636C149.72 80.3182 150.564 78.9091 150.902 77.1242C150.902 76.9364 150.987 76.7485 150.987 76.5606C150.987 76.2788 151.071 75.997 151.071 75.7152C151.24 73.5545 150.733 71.3939 149.72 69.9848C149.298 69.3273 148.707 68.7636 148.116 68.4818C147.187 68.0121 146.258 68.0121 145.329 68.4818C144.147 69.1394 143.218 70.5485 142.711 72.3333C142.627 72.5212 142.542 72.7091 142.542 72.897C142.542 73.1788 142.458 73.3667 142.458 73.5545C142.373 74.0242 142.289 74.5879 142.627 75.0576ZM148.96 80.4121C148.707 80.7879 148.284 81.0697 147.947 81.2576C147.862 81.2576 147.862 81.2576 147.862 81.2576C147.693 81.3515 147.609 81.4455 147.44 81.4455C146.764 81.6333 146.089 81.5394 145.413 81.2576C145.413 81.2576 145.329 81.1636 145.244 81.1636C144.316 80.6 143.64 79.5667 143.218 78.3455C142.711 77.0303 142.542 75.4333 142.796 73.8364C142.796 73.5545 142.796 73.3667 142.88 73.0849C142.964 72.803 143.049 72.4273 143.133 72.1455C143.133 71.9576 143.218 71.7697 143.302 71.5818C143.471 71.2061 143.64 70.8303 143.809 70.5485C144.316 69.797 144.822 69.2333 145.413 68.9515C145.836 68.6697 146.258 68.5758 146.68 68.5758C147.102 68.5758 147.44 68.6697 147.862 68.8576C148.453 69.1394 148.876 69.6091 149.298 70.1727C150.227 71.4879 150.733 73.5545 150.564 75.7152C150.564 75.997 150.564 76.2788 150.48 76.5606C150.48 76.7485 150.396 76.8424 150.396 77.0303C150.142 78.3455 149.636 79.4727 148.96 80.4121ZM147.862 81.1636H148.116L148.2 81.0697L148.284 80.9758L148.369 80.8818L148.453 80.7879C148.453 80.6939 148.538 80.6939 148.538 80.6939L148.622 80.6L148.707 80.5061C148.791 80.4121 148.791 80.4121 148.876 80.3182C148.622 80.6939 148.2 80.9758 147.862 81.1636ZM147.862 81.1636H148.116L148.2 81.0697L148.284 80.9758L148.369 80.8818L148.453 80.7879C148.453 80.6939 148.538 80.6939 148.538 80.6939L148.622 80.6L148.707 80.5061C148.791 80.4121 148.791 80.4121 148.876 80.3182C148.622 80.6939 148.2 80.9758 147.862 81.1636ZM147.862 81.1636H148.116L148.2 81.0697L148.284 80.9758L148.369 80.8818L148.453 80.7879C148.453 80.6939 148.538 80.6939 148.538 80.6939L148.622 80.6L148.707 80.5061C148.791 80.4121 148.791 80.4121 148.876 80.3182C148.622 80.6939 148.2 80.9758 147.862 81.1636Z" fill="#764678"/>
<path d="M153.267 77.1242C153.351 76.9363 153.351 76.7485 153.182 76.5606C153.182 76.5606 152 75.4333 150.058 75.903C149.889 75.903 149.804 76.1848 149.804 76.3727C149.804 76.5606 150.058 76.6545 150.227 76.6545C151.831 76.2788 152.76 77.1242 152.76 77.1242C152.844 77.2182 152.929 77.2182 153.013 77.2182C153.098 77.2182 153.182 77.1242 153.267 77.1242Z" fill="#764678"/>
<path d="M150.649 82.4788C151.071 82.4788 151.493 82.8545 151.493 83.2303C151.493 83.7 151.071 83.9818 150.649 83.9818C150.227 83.9818 149.804 83.6061 149.804 83.2303C149.804 82.7606 150.227 82.4788 150.649 82.4788Z" fill="white"/>
<path d="M160.191 103.239L166.524 108.782L173.533 114.888C174.716 117.8 175.729 121.37 176.573 125.221C176.573 125.315 176.658 125.503 176.658 125.691C176.658 126.067 176.742 126.348 176.827 126.724C177.164 128.321 177.502 130.012 177.756 131.703C178.009 132.924 178.178 134.145 178.347 135.461C179.022 140.251 179.529 145.324 179.867 150.491C180.289 157.067 180.542 163.83 180.627 170.312C180.711 173.882 180.711 177.358 180.711 180.645H169.649L169.818 176.136C169.818 174.164 169.818 172.191 169.818 170.312C169.733 166.93 169.649 163.642 169.564 160.448C169.564 159.697 169.48 158.852 169.48 158.1C169.396 157.724 169.396 157.442 169.396 157.067C169.311 156.127 169.311 155.282 169.227 154.342C169.142 154.061 169.142 153.779 169.142 153.497C169.058 152.37 168.973 151.336 168.889 150.209C168.889 150.021 168.889 149.927 168.889 149.739C168.804 148.518 168.636 147.203 168.551 145.982C168.467 145.23 168.382 144.385 168.298 143.633C167.707 138.561 167.031 133.864 166.187 129.73C165.849 127.945 165.427 126.255 165.089 124.658C161.036 107.185 155.293 99.6697 152.591 96.8515L160.191 103.239Z" fill="#E3EEEC"/>
<path d="M152.507 96.8515L150.987 95.5363C151.071 95.5363 151.662 95.9121 152.507 96.8515Z" fill="#73B3CE"/>
<path d="M107.836 136.306L109.693 110.567L109.947 110.379L134.858 95.0667C134.858 95.0667 134.942 95.3485 135.111 95.9121C135.871 98.7303 138.236 108.594 140.262 122.027C141.444 129.448 142.458 138.091 142.964 147.203C143.218 151.055 143.387 155 143.387 159.039C143.387 161.388 143.387 163.736 143.387 166.085C143.387 166.273 143.387 166.555 143.387 166.836C143.387 171.815 143.302 176.606 143.218 181.021H104.627L107.836 136.306Z" fill="#E3EEEC"/>
<path d="M125.484 112.727L115.182 115.17L109.778 110.379C114.591 97.1333 134.942 94.8788 134.942 94.8788L125.484 112.727Z" fill="#E3EEEC"/>
<path d="M168.213 143.727C168.889 148.612 186.876 153.121 186.876 153.121C195.489 148.424 196.502 135.367 188.902 128.979C175.56 117.894 166.018 102.77 162.049 99.9515C156.222 95.8182 150.987 95.5363 150.987 95.5363C150.987 95.5363 163.4 110.097 168.213 143.727Z" fill="#E3EEEC"/>
<path d="M158.418 168.527L166.525 128.039C166.778 126.63 167.96 125.597 169.227 125.597H194.729C196.249 125.597 197.347 127.194 197.009 128.791L189.071 168.527C188.818 169.842 187.889 170.688 186.707 170.688H160.022C159.009 170.688 158.249 169.655 158.418 168.527Z" fill="#366F90"/>
<path d="M150.987 166.648C155.884 168.809 162.556 162.327 163.484 160.448C164.413 158.664 169.396 161.858 171 160.261C172.604 158.664 164.582 156.785 164.582 156.785C164.582 156.785 171.169 158.1 172.52 156.691C173.871 155.282 165.173 153.591 165.173 153.591C165.173 153.591 171.507 154.342 172.436 152.464C173.364 150.679 166.018 149.927 166.018 149.927C166.018 149.927 169.48 150.115 172.013 149.458C174.547 148.8 169.311 145.418 165.173 145.512C161.12 145.606 153.604 154.061 153.604 154.061L150.987 166.648Z" fill="#FFB27D"/>
<path d="M162.978 150.303C163.991 149.27 166.018 149.833 166.102 149.833L166.018 150.115C166.018 150.115 163.991 149.645 163.147 150.491L162.978 150.303Z" fill="#E9845C"/>
<path d="M161.542 153.967C163.147 152.933 165.173 153.497 165.258 153.497L165.173 153.779C165.173 153.779 163.231 153.215 161.711 154.248L161.542 153.967Z" fill="#E9845C"/>
<path d="M161.12 157.161C162.133 156.033 164.582 156.691 164.667 156.691L164.582 156.973C164.582 156.973 162.218 156.315 161.373 157.348L161.12 157.161Z" fill="#E9845C"/>
<path d="M188.311 127.194C189.409 126.818 189.916 125.033 190 124.376C190.084 123.718 178.009 123.624 177.756 123.906C177.502 124.188 176.489 126.724 176.489 126.724C175.982 127.852 187.213 127.57 188.311 127.194Z" fill="#EF8062"/>
<path d="M151.747 168.058C151.747 168.058 154.618 166.179 155.631 159.979C156.476 154.53 155.209 152.37 155.209 152.37C125.738 144.291 126.413 118.082 126.413 118.082C126.413 118.082 126.92 115.921 118.729 112.445C110.538 108.97 109.693 110.379 109.693 110.379C109.524 111.13 101.756 129.448 112.058 146.076C124.133 165.615 147.187 167.588 151.747 168.058Z" fill="#E3EEEC"/>
<path d="M143.471 166.179C129.031 164.018 120.164 156.127 115.267 149.833C109.947 143.164 107.92 136.87 107.92 136.776C107.92 136.682 108.004 136.494 108.089 136.494C108.173 136.494 108.342 136.588 108.342 136.682C108.342 136.682 110.284 142.882 115.604 149.551C120.502 155.751 129.284 163.548 143.556 165.709C143.64 165.709 143.724 165.897 143.724 165.991C143.64 166.085 143.556 166.179 143.471 166.179Z" fill="#331832"/>
<path d="M142.796 147.391C130.636 140.064 128.778 127.288 128.778 127.194C128.778 127.1 128.862 126.912 128.947 126.912C129.031 126.912 129.2 127.006 129.2 127.1C129.284 127.194 131.058 139.782 143.049 146.921C143.133 146.921 143.218 147.109 143.133 147.203C143.133 147.297 143.049 147.297 142.964 147.297C142.88 147.297 142.88 147.297 142.796 147.391Z" fill="#331832"/>
<path d="M151.24 117.236C151.24 117.236 148.707 123.624 150.142 123.624C151.493 123.624 153.351 120.712 153.351 120.712L151.24 117.236Z" fill="#331832"/>
</svg>
