<svg xmlns="http://www.w3.org/2000/svg" viewBox="0 0 26.85 33"><defs><style>.cls-1{fill:#66d7d1;}.cls-2{fill:#fff87f;}</style></defs><g id="Capa_2" data-name="Capa 2"><g id="Capa_1-2" data-name="Capa 1"><path class="cls-1" d="M12.62,7.53V2.23s-2.6-5-5.34,0a5.46,5.46,0,0,0,0,3.11S6.54,6.26,6,4.24c0,0-4.23.74-2.6,5.49,0,0,.37.45,1,1.28,0,0-1.61.3-1.78-.7a6,6,0,0,0-2.4,6.43,8.13,8.13,0,0,0,3,4.11,2.85,2.85,0,0,1-2.1,0S0,26.7,3.57,28.5c0,0,2.2,1.3,3.56,0,0,0,.3,1.64-1.16,1.18,0,0,1.28,6,5.91,1.86,0,0,.32-.18.94-1.49V23.44a5,5,0,0,1,1.55,0c.44.18,1.05.53,1.5.23a2,2,0,0,0,.6-1.54,1.23,1.23,0,0,0-1.63-1.25,4.87,4.87,0,0,1-.94.35,9.86,9.86,0,0,0-1.28.08V13.89s-3.34-.23-3.3-3.2C9.32,10.69,9.17,7,12.62,7.53Z"/><path class="cls-2" d="M14.29,2V9.22a5.86,5.86,0,0,1-1.62,0C12.2,9.08,12,8.8,11.5,9a1.31,1.31,0,0,0-.81.8c-.65,1.6.8,2.79,1.93,1.9l.41-.32h1.26v7.68s3.18.13,3.26,2.7V22c-.11,2.79-.33,3.2-3.08,3.56v3.09a3.81,3.81,0,0,0,.29,1.91A6.53,6.53,0,0,0,15.68,32a2.43,2.43,0,0,0,3.61.39s.56.14,1.64-2.61a1,1,0,0,1-1.16-.18c-.23-.19.21-.78.37-.85s.42,0,.59,0a5.06,5.06,0,0,0,1.55-.12,4.1,4.1,0,0,0,2.91-2.85,8.9,8.9,0,0,0,.55-2.93v-2l-1.63,0s-.41-.68.74-1.22A5.57,5.57,0,0,0,26.71,14a6.32,6.32,0,0,0-2.26-3.52s.29.69-1.78.69c0,0,2.22-2.65,1-4.89a3.85,3.85,0,0,0-1-1.42,2.87,2.87,0,0,0-1.44-.68,1.19,1.19,0,0,1-1.41,1s.7-2.47-.19-3.66c0,0-1.67-2.74-4.15-.68Z"/></g></g></svg>