<svg id="Capa_2" data-name="Capa 2" xmlns="http://www.w3.org/2000/svg" viewBox="0 0 232.79 232.11"><path d="M315.94,377.46V340.18s-22.51-35.36-46.3,0c0,0-4.5,10.92,0,21.85,0,0-6.43,6.43-10.93-7.71,0,0-36.64,5.14-22.5,38.57,0,0,3.22,3.21,8.36,9,0,0-13.93,2.14-15.43-4.93,0,0-30.21,15.64-20.78,45.22,0,0,5.14,16.5,25.93,28.92,0,0-11.15,3.43-18.22,0,0,0-9.43,41.15,21.43,53.79,0,0,19.07,9.21,30.86,0,0,0,2.57,11.57-10.07,8.36,0,0,11.14,42.21,51.21,13.07,0,0,2.79-1.29,8.14-10.5v-46.5c4.41.2,9.15-1.11,13.45.24,3.88,1.22,9.12,3.73,13,1.6s5.06-6.82,5.27-10.84c.38-7.49-8.16-10.33-14.19-8.8-2.8.71-5.18,2.26-8.15,2.47-.83.06-11,.17-11.08.54V422.14s-28.94-1.61-28.62-22.5C287.32,399.64,286.05,373.6,315.94,377.46Z" transform="translate(-206.53 -324.46)" style="fill:#f4f1bb"/><path d="M319.46,381.32" transform="translate(-206.53 -324.46)" style="fill:none"/><path d="M330.39,338.25v51.1c-4.29,0-9.87,1-14,0s-5.86-3-10.15-1.64c-3.2,1-5.61,2.63-7.07,5.59-5.57,11.3,7,19.63,16.78,13.4l3.52-2.25h10.93v54s27.63.91,28.3,19c0,.52,0,1.05,0,1.6-1,19.61-2.89,22.5-26.68,25.07V516c0,3.27,0,6.55,0,9.82,0,5.46-.34,8.77,2.51,13.46a47,47,0,0,0,7.93,10c9.14,8.54,20.78,9.44,31.35,2.7,0,0,4.82,1,14.14-18.32,0,0-4.5,2.24-10-1.29-2-1.33,1.84-5.49,3.2-6s3.63.13,5.12.22a53.66,53.66,0,0,0,13.39-.81c11.41-2.23,20.82-9.15,25.22-20.09,2.88-7.14,4.82-12.95,4.82-20.57V471.32l-14.14.32S412,466.82,422,463c0,0,22.82-12.86,16.07-40.18,0,0-3.53-15.1-19.61-24.75,0,0,2.58,4.82-15.42,4.82,0,0,19.28-18.64,8.35-34.39a28.61,28.61,0,0,0-21.53-14.78s-.65,8-12.22,7.39c0,0,6.11-17.36-1.6-25.72,0,0-14.47-19.28-36-4.82Z" transform="translate(-206.53 -324.46)" style="fill:#ffa8b6"/></svg>