<svg width="68" height="68" viewBox="0 0 68 68" fill="none" xmlns="http://www.w3.org/2000/svg">
<g clip-path="url(#clip0_15_2)">
<path d="M31.7613 15.527V4.60532C31.7613 4.60532 25.2267 -5.7539 18.3206 4.60532C18.3206 4.60532 17.0142 7.8045 18.3206 11.0066C18.3206 11.0066 16.454 12.8904 15.1476 8.74784C15.1476 8.74784 4.51119 10.2537 8.61598 20.0475C8.61598 20.0475 9.55073 20.9879 11.0429 22.6842C11.0429 22.6842 6.99902 23.3111 6.56358 21.2398C6.56358 21.2398 -2.20627 25.8218 0.531224 34.4877C0.531224 34.4877 2.02334 39.3216 8.0586 42.9602C8.0586 42.9602 4.8218 43.9651 2.76941 42.9602C2.76941 42.9602 0.0319139 55.0157 8.99046 58.7188C8.99046 58.7188 14.5264 61.417 17.949 58.7188C17.949 58.7188 18.6951 62.1084 15.0257 61.168C15.0257 61.168 18.2596 73.534 29.8918 64.997C29.8918 64.997 30.7017 64.6191 32.2548 61.9209V48.2981C33.535 48.3566 34.911 47.9729 36.1593 48.3684C37.2856 48.7258 38.8068 49.4611 39.9331 48.8371C41.0595 48.2131 41.402 46.8391 41.463 45.6614C41.5733 43.4671 39.0942 42.635 37.3437 43.0833C36.5309 43.2913 35.84 43.7454 34.9778 43.8069C34.7368 43.8245 31.7845 43.8567 31.7613 43.9651V28.6167C31.7613 28.6167 23.3601 28.145 23.453 22.025C23.453 22.025 23.0843 14.3962 31.7613 15.527Z" fill="#66D7D1"/>
<path d="M35.9561 4.04004V19.0105C34.7107 19.0105 33.0909 19.3035 31.8919 19.0105C30.693 18.7176 30.1908 18.1316 28.9454 18.5301C28.0165 18.823 27.3169 19.3006 26.893 20.1677C25.2761 23.4782 28.9251 25.9186 31.7642 24.0935L32.7861 23.4343H35.959V39.2544C35.959 39.2544 43.9799 39.521 44.1744 44.8207C44.1744 44.973 44.1744 45.1283 44.1744 45.2894C43.8841 51.0345 43.3354 51.8811 36.4293 52.6341V56.1145C36.4293 57.0725 36.4293 58.0334 36.4293 58.9914C36.4293 60.591 36.3306 61.5607 37.1579 62.9347C37.7897 64.0123 38.5642 64.998 39.46 65.8643C42.1133 68.3663 45.4923 68.6299 48.5608 66.6553C48.5608 66.6553 49.96 66.9483 52.6655 61.2882C52.6655 61.2882 51.3592 61.9445 49.7626 60.9103C49.182 60.5207 50.2967 59.3019 50.6915 59.1525C51.0863 59.0031 51.7453 59.1906 52.1778 59.217C53.4783 59.3023 54.7842 59.2226 56.0649 58.9797C59.3772 58.3264 62.1089 56.299 63.3862 53.094C64.2222 51.0023 64.7854 49.3001 64.7854 47.0677V43.0248L60.6806 43.1186C60.6806 43.1186 59.6472 41.7065 62.5501 40.5874C62.5501 40.5874 69.1747 36.8198 67.2152 28.816C67.2152 28.816 66.1904 24.3923 61.5225 21.5652C61.5225 21.5652 62.2714 22.9773 57.0461 22.9773C57.0461 22.9773 62.643 17.5164 59.4701 12.9022C58.8436 11.7317 57.95 10.7285 56.8631 9.97554C55.7763 9.22261 54.5275 8.74157 53.22 8.5722C53.22 8.5722 53.0313 10.9159 49.6726 10.7372C49.6726 10.7372 51.4463 5.65134 49.2081 3.20216C49.2081 3.20216 45.0075 -2.4462 38.7575 1.79007L35.9561 4.04004Z" fill="#FFF87F"/>
</g>
<defs>
<clipPath id="clip0_15_2">
<rect width="67.5781" height="68" fill="white"/>
</clipPath>
</defs>
</svg>
