<svg width="136" height="114" viewBox="0 0 136 114" fill="none" xmlns="http://www.w3.org/2000/svg">
<g clip-path="url(#clip0_123_4638)">
<path d="M76.937 57L90.1951 72.4375L108.023 84.0433L111.131 57.095L108.023 30.7483L89.8531 40.945L76.937 57Z" fill="#00832D"/>
<path d="M0 81.5416V104.5C0 109.749 4.17326 114 9.32571 114H31.8629L36.5257 96.6466L31.8629 81.5416L16.3977 76.7916L0 81.5416Z" fill="#0066DA"/>
<path d="M31.8629 0L0 32.4583L16.3977 37.2083L31.8629 32.4583L36.448 17.5592L31.8629 0Z" fill="#E94235"/>
<path d="M31.8629 32.4584H0V81.5417H31.8629V32.4584Z" fill="#2684FC"/>
<path d="M128.384 13.7434L108.023 30.7484V84.0434L128.477 101.128C131.539 103.566 136.015 101.341 136.015 97.3751V17.4167C136.015 13.403 131.438 11.2021 128.384 13.7434ZM76.9371 57.0001V81.5417H31.8628V114H98.6971C103.85 114 108.023 109.749 108.023 104.5V84.0434L76.9371 57.0001Z" fill="#00AC47"/>
<path d="M98.6971 0H31.8628V32.4583H76.9371V57L108.023 30.7642V9.5C108.023 4.25125 103.85 0 98.6971 0Z" fill="#FFBA00"/>
</g>
<defs>
<clipPath id="clip0_123_4638">
<rect width="136" height="114" fill="white"/>
</clipPath>
</defs>
</svg>
