<svg width="156" height="156" viewBox="0 0 156 156" fill="none" xmlns="http://www.w3.org/2000/svg">
<path d="M78 0C121.079 0 156 34.9212 156 78C156 121.079 121.079 156 78 156C34.9212 156 0 121.079 0 78C0 34.9212 34.9212 0 78 0Z" fill="#E5E5E4"/>
<path d="M78.0002 1.5188C120.24 1.5188 154.481 35.7604 154.481 78C154.481 120.24 120.24 154.481 78.0002 154.481C35.7607 154.481 1.51904 120.24 1.51904 78C1.51904 35.7604 35.7619 1.5188 78.0002 1.5188Z" fill="white"/>
<path d="M77.9998 7.65393C116.851 7.65393 148.346 39.149 148.346 77.9999C148.346 116.851 116.851 148.346 77.9998 148.346C39.1489 148.346 7.65381 116.851 7.65381 77.9999C7.65381 39.149 39.1489 7.65393 77.9998 7.65393Z" fill="#4A8CFF"/>
<path d="M32.1055 55.9606V89.0191C32.1348 96.4947 38.2406 102.511 45.6869 102.481H93.8749C95.2447 102.481 96.3468 101.379 96.3468 100.038V66.9797C96.3175 59.5042 90.2117 53.4875 82.7666 53.5181H34.5785C33.2088 53.5181 32.1066 54.6202 32.1066 55.9606H32.1055ZM99.4138 68.8565L119.309 54.3232C121.037 52.8936 122.376 53.2504 122.376 55.8421V100.158C122.376 103.106 120.737 102.75 119.309 101.677L99.4138 87.1728V68.8565Z" fill="white"/>
</svg>
